<mxfile host="65bd71144e">
    <diagram id="LcKO57IixkWajeOELpZh" name="第 1 页">
        <mxGraphModel dx="1703" dy="1129" grid="1" gridSize="10" guides="1" tooltips="1" connect="1" arrows="1" fold="1" page="1" pageScale="1" pageWidth="1169" pageHeight="827" math="0" shadow="0">
            <root>
                <mxCell id="0"/>
                <mxCell id="1" parent="0"/>
                <mxCell id="2" value="" style="strokeWidth=1;shadow=0;dashed=0;align=center;html=1;shape=mxgraph.mockup.containers.browserWindow;rSize=0;strokeColor=#666666;strokeColor2=#008cff;strokeColor3=#c4c4c4;mainText=,;recursiveResize=0;" vertex="1" parent="1">
                    <mxGeometry width="1167.7" height="1470" as="geometry"/>
                </mxCell>
                <mxCell id="3" value="Page 1" style="strokeWidth=1;shadow=0;dashed=0;align=center;html=1;shape=mxgraph.mockup.containers.anchor;fontSize=17;fontColor=#666666;align=left;" vertex="1" parent="2">
                    <mxGeometry x="60" y="12" width="110" height="26" as="geometry"/>
                </mxCell>
                <mxCell id="4" value="http://easy.rolin.icu/communication/community/p/23234232" style="strokeWidth=1;shadow=0;dashed=0;align=center;html=1;shape=mxgraph.mockup.containers.anchor;rSize=0;fontSize=17;fontColor=#666666;align=left;" vertex="1" parent="2">
                    <mxGeometry x="130" y="60" width="250" height="26" as="geometry"/>
                </mxCell>
                <mxCell id="5" value="" style="shape=image;verticalLabelPosition=bottom;labelBackgroundColor=#ffffff;verticalAlign=top;aspect=fixed;imageAspect=0;image=data:image/png,iVBORw0KGgoAAAANSUhEUgAAAggAAABKCAYAAADe86wtAAAgAElEQVR4Xry9B5Bk13UleL5Nn1mVZbtsOzQavgGQaBAgQYIAQRh6kASNaEbUSjs7mtGOfEiK3ZnQjDRS7MZu7IxGEyNFSKKkkYaiSIoUQdAThGkQbADdjfamusu7rPTm//xu4973XuavQgMgZZiIQnVl/vz2vXvPPffc+7Ti0GhUrVYRReBXhAg6/zuCBkCLgEgDQv5DbAO5rfwr9r7G26tXpKkv0D4isTN+aYCuQwf90qFp9KMBht7bVxRGvDnvQdPkocX3ab+RpkPXNT5v2zYRBAHvg/ZJ+7YtC6Zl8d9WwkI+l0Uhm8Gd978Nb7/zbhSHi7j1pusQ6g6sqAHTLwPdNTgrC3j+eydRrrVx46Ep7LltPzTHhWbp0DxfnRAdBBE8XDlXxYljqyhtNRFqOiwrjUuXlrBVriCMQjiui1y2gEQihQ4C6Jk07n34nbj3rW9FIZOBbttAEPLd1jQTWy9fxO/+H/8OZ2vr4hlkDXziM2/BnrUyvvj3L2PT1xEGQL1cQ6VcQTuKcODgAWTSCViZBEanJjFQyMOme6Zp/NwCLeL7FAV8FNi2Dc/zEEURwpB+AoRRhGQi0Xu+TseFqenwWm2szS+jE3gYmZ1CppDj+55MJmEaBtyOg47rID8wAEvT4deaqJa2kN01DCuXhl9vYataxei+aWQsq3etdG30zOj4URTCNCw0mg3ohg7dMPnYRhCitrqJ0vIa3KyF2RuvRcLtQtNC6AhpWMAyDNimhoSlIZ+MkNUDZBM6kgkTtq3BGE5iYGYMVnEYMDVE+vXwcUCOlRClubP4zpf/Cub0NN751rfjr//4T1Gr1hCEIaZmZnHu/AW4ng8/DOB5AbzARxj6/Ju2EfcvQhRqCDxxH+lvnkn0bzldwpCesXiP5g/95n/SNvScoGF5ZQ3lSgWBH9As5M94/EdACPq++l7/fTEfaIqIuaZ+0/yh/8Rsow3Eo6XzUMen8UnH0DWDz5ueA+8s/qK5pt4Tk7H/qaYhkUxhYnoapmnxNfC1074C/ot/Vytl1KoVAIG4GPpc45kqzk6eP507/QSBumvbT0Vdn9rGNA1pt6LePvia2ZjReYrxTn/vvD/CiPWNlRGzVeo4/KnOJ8ffV89Cnae+432xudiOj8f/Fvee/mZ7KD5E/3hy3/LeivOMny/ZRvH97dfQfw6aLrand+iZxl9qBPB42/bBjue881aTbd35njx3XTPF2OfxIm4Rj1E+hhzjELZZjUO22fydSI41sXc9Nh/oM/qSGpf0XR7f8jvyDzGuaD7xXBP7jM8rcdrqPMRT1tjO9K9I/HvnvYoQBjEfFbv++HdfOSrVUFbjTh1fDjHNgKYZSGdzyGQy0Ayz9yzlqcp5EaDTaaPZqCPw3Fc9zKt9UCjk8dIPn8aePbu3bbLcBT59KcK3vcvYP/ENPJaZx/1RgP0RMBAASS+E7obQuiFAP37IU9Vt+9CKQ2NRhQECTWg1qfo3UgEEfud1xhQZlx8dIIjJY+gCFBBQkDMBGoEGAAbdWGg8GIWJjIMUCSp48giDqRv0IMQ+7WSCHZgRRbCSFnLZLO64527cf+gOFPZM4a2H74ZheACq0KMKDH8Twdw5XPzeafzwShP5WQNvf+AA0uk8fISwQgiAwLOBDqqjXqrjuSOLWF5pwLAJkCSxsVnF+fMLiDQDXhjATtgwbRsBOZKxAj7y0Y/hDTfehETSZgBD+6KzoLlmtX10Wy4uPvci/vt/+6+43NiAXczg3/zqe5F5+QK+8JUT2PDpHutwWx2srqyhjRB79u7GwEAediaB8dkp5DN5mGzYhL0P5ETyXA/ZTI4dMz1vGvRkjGmSBYGPdDotJrofYmNjkx1+fasCp9GGq4dIDw0imRIgwjRNWLqBpGbASiWRGSzAhg63UkWrXEdqbAh6Pomg3kK1VkNxdgKZZBKRJxwlA4Qw4OOToSen2O60eb8E8ExosIII1eUN1Epb6GQsTB3ch4TnMUAg80WGk55xwgASZohC1kBG85FNGEgkdSRMHXYxicL0GMzBcYQp+t4kougQgARCHXDqJTz1P/4Iy1Ebtz/8IBpHTuPFY8fQDQMMjIyiVq6i1KgzIPB8n88zCH34QcA/ZMQESND4MzJu7IOl0VJuaBtAkEZPOeqAjCeAVtvBwvwSOh0HEc2HHQaK5kLfAL/STPScCBtrMqLS0SgHpc5JGl51Trqm94wyDRieTbG5TgCB7KnwbwSMyUQHDORGx3chly/wyQhsIAwxGWQtiuB22tjc2IDXdRHpcccv5r9yegIoEDggECGOdbVX3FFali3HsM/2IW7EKehQDoVOXgQi8eO9PkDg7+v0HRm4SLOonDHvU4EBGcyoz/heiWhFBEDqedJ7ZO8UoFP3gO+tAEvi5ovzJzAuznsnaOiPD/pM3TR1D/g5vNpNFP6rd3vUfeY7Iu+7ujbxXKWj7tlfcWxxLOEzFBBQ4JjeD3jcCBBBjkEEA8Kpq+/TnkIGhP2xww5fbiPPUoLjgB04jasoJBBN8Yb4bh/49p1+/17Q4WOAYQc46G2HOEDoXWzsWq8+JsW9fwWcElhYPEX+v2UnkM0PwEqk+oCzd/NpVkUIfA/1eh1OpyGB7mscc8dHNE5+/z/9Nn7p3/7r7QAEQMkDfmOljRdTn8N/zJzGm7oRMi0fRpuQQAh4BAwi8cPTNILrBAQQRqNypSpRa2zS8IAXo+VHAge84Y8BEHiSiInDqJsdLxkGnY0jGSJmGCi64khMMRDCQbNhUfNCFxPJNMRkJKCQSNiIjAgZw0QmlcKNbz6Md73lXkQJC+958F3IsnMmYLQBYA1+ZREXnziBYy9V4GU8vOnts9h3YBpeo4GEnRSoKnZMr6vj+EuXcPZyHZphswHquhpOnLiAdoeMIZgdMBI2uuRQIh+33XkYn/rpn0Ymm+XrYxYiIABEAz1Ap+2iXmtyFP6Xf/gHeO7sUYyND+K3/q+PYv3xl/C1b16Ak8pgeGiYf9rNDjMVc1fmkMrZSA/kMTU7g0w6DUsCLrpvIqoN4Xs+MqksMwYKHIgonqJjH6lkEn43gO95aLZasDQTftuF67ThmwZGZyaRzqR5INPQ8B0XrfUt6AkbiYE8sgSEqi0EjQ7M4Ty0QgZR20G9XEV2YgyZXAZ+15HPjQCCMOqWaTE48P0uAwQ2TgSYugGqi6toNVvoZExM7JuFTTdLD3nc0OM3dSBphLB1H0MDCSQ0H7mEhmSC2BwDiVwCQzO7EA0OA2kTukYg6FYgGmHGJ/QbOPGVL+LU3Enos+M4PHsdvvOlx1GGh27SQsrXsNWooet5fP98nxiEAD4BBQZawvARAPQl2GLA0GMIxCzeCRB6doGdNTlcgHzjemkL6+vr8JgB6L9e4S+lM+5t0XMwYksVhfUiWAUuYpEUnxM5c53mGEViyij2o0dTN2BZCbhdl6+BwQQb/wC5QgHjuybYE/J9YN+uIkNirAJUy1vMyERRgFALmEkUkbgm5n/PKcZAlQQjVzON2yNpEV0rA81OitkCEXDQc5BwXtqWHw8gCPDChmqbwZUWiG0O2y6ye/I8+PyU7+59TwUzxNYoOydsnmBP+ywP2y/eRtgymgj8t9pGGMmebVZsQx9oSfsub0s8pn0tV0PAIBYWbosFFdMlbyI/ux4jQewyBziMiiXbJcYzP+aQoRuhAMkOqGi//1sB5f64pU0Vu6UjCCmEEu8xEAgEgGAOQIHeGBMhj9wDjNsZBMmUCdQSYxrEc1EAVY2cRx79EDZfPop997wTllPFyWeeQyldxE/deyeWOx6Ofu1vcHJ565W3ViKt62+7CzfvG8fmfAX2/klUT5zAVrqAO267GeVT51DVQqxcWcKBQ7dgKJfhMwo0C9/44l+h3Gy81iO76mf3vu0t+PrjX4LF/m37qx1EeHHrSRw+/2VYtYZC9P2NegNA/MPthoJBIFpTDDQFENSW26OY1z3bHxMgqNRCj6rjydUHCEyZkVGSziAir0FTg47To/HIPlG6QUS1BBIMop05oteRSaewe99efPR9j6Lc7eCxD38IxWQKRtgEtE1E4QbQWcD80+fx5LPLqDRc3HrzAO56+w3wOx2mr+m26BSkkFM3yGAYuHi6hKOnL8NBkgGJ7mu4PLeKlZUtaLoJzTLYcXpRCD/02Pk9/O5H8OhHP8rIXkMagWfAcX0EQYRu14PjuKhVGjj70jEsvHwMz558FsMHC/jt//gRnPnbY3jprIM3P/gwds/sQSqZQtdxUSmV8a1vfRtnzp1HZLnYd8000rbF58QMAk9SSf2FERJWUjiPIIRPUbHnwXVdNvKF/ADIIUR+iHarhcALEboeWs0mAtvAyNQuZDIpYTzIMLRddDaryAwNwMyl4dSbcEs1pCIdUT4JrZiH3vVRL5WRGh5EspBF4HXFwJSTkdNCug7XdeD7HqcYiAGiCFRvd9FY2YDT6aCVMTA2M4kkRdt6xJR21/dh6REyJjEIHgqFBJIKICR1WLaBVCaJwYkRRMVh6LkkQQpE4XXQtClEugmEHirHXsTXv/NVNHQft7/pTbj07aOY6xBEiDA0NIzl5WV+NnR+gS/YA4p6CCQIxkABhECwNWQLmeKkKF467HiKIT6R5JQTsbUOx+1ifn4RzQ4lpGREJ6ejcEZi38JiKqMuqHQRvQqj16NdY8BBULX9SFtFbpyKijEeDFyVw6NHrRvCcLLjNnj86paOqZkZJBJJTr3QFwRFTEODHEIIz3VR2txA13EEINUCjrQUQJAcwja24PWo3O0sQCy1oquIljKVgo3ktCNT4H2nvM0ayqhPumP50faURxwgiPQFmQCxPwY4nNbsO3Ci+3l68E4VMBBjXHxH8EDMkqo0BDMEYlKpfYrrFN8RwROxIGJCC4ZV3W+ZXlBghrZUwCSGKuPZXRX4iSHUZwcU48DPkZwwj+FYekOmKWQWSTILETiW5/hNpc0otUkpFRoGMqXEYLSfGuBj087V58xCyHkjnb84ODltXzARNK4JINB2knVQKZV4Wk95rzibwvOGvsvp1lhqoccs7AQIYn7tfeAj+LXdEb49fgfGV57DycUQ//uv/zJOH/kOrjt0K47PbeKHf/w7eNHPQ185h4VyTc5NSpkP41f+3a/gYCHAZiuNanMVS3OXceDjn8Tf/+pvoRT4OPzBD2Hrj/4cxy2C3WJMTdzxTqw/9TdY2NjAffe9He12G0eOHOEx9P73vx/PPfcc26SrvQr5PJ5+8hu48cbrr+6uyTgd/yHw938G6A0gSTl6omLpfOlHEh6aBpfShFdnEH4yAEHXDdYKKNpJIWrFIIgHLEUQSsMQ9ZkFNkWE4vkHjJpIj0DvpRM20qaN0f0zeOzDH4be6uKRRz+AscIAQo10B3SDN+B2FlF65jiDgysdA7sGDDx07wEURzPwmw5Slo7QC2BwotcALBP1Rgvff2YJW04Ez9JhhkCz1MDJUxdhGElEMGDaFgJDR8vtwPddJG0D7/vA+/C2Bx6EnrTRaiXgtE12PDRu260OGo0WqpUa5k6dxtLp4zi1+jKufWAav/3LH8S5by1g+uDDGByfhKmb0E0TntPB1mYVZ09dwMWzCzhz8Qj27C0iaVMUImhRRfmSM0il0jy5aMKxAfV9Pj6nZUwL6XSG0zp+p4tmo4HII6o4RLPRRJQwMTQ5xoCLc8ikwKi34JTryI0Nw8qk4HcctNcryMCAkzZgjgzC6IZobVVgFjJIFHKIQp8jS3qpCI8mbbfbZYMuKFXACCN0q0341Sa6Tgf1JDBELASnIDRYto2204FtaMhZGlJWgEzGQNIIkKf0QkKDlTCRStgY3FVEODwCI5/i3HcU7oOuzwB6gh14tLGOJ77611gor2N8715M6QU888Lz6HhdDO+dwfLcPJrNJrqeOEf+kQyC0iEoBoEAAgE+cY9+RIAgGD12EAQSSltlLKyskI0WehtJ8fYd2fa4kIykAgjkUlTEx0+pF52KXLwyqDwupFYiHkkRLdzPLyiKTqQY6HwYrGs6BocGMTwyKpiRkLQH6hpY7MJUaaNaQ6NeQ8iaCrobAiDwlXLIKq6Nn7l0sv8YgHA1iyj99dU1CDFamJKZ/ZcCCTJAijEIvfQCAwOlD1Bsq2APhK+mmyVSngoE91MTwhHwU2TbJcGCBAhKc0U6nEClGKQuQWAKkadQQdJ2bYLMrMcYjd519QClfEfOY56LvY0ECOkBzG08FoeRSp0mNETMPAl7IJww/4tZJv4ttS0E+IVmQeiOFEAQ3xHaHcUk9NJzcr+k+Yk7e8UgKDvETIIEFb3xE2PY+Ix6zJkYiT2AsoOJ6zMIIp32n/7sL2E/+z0s3HAPDoVn8Wd/8jjMu96JxJUX8cB734PPPb+K8Ze/iCfLEfSNK1itN8X84Ydr4S3v/Qg+dPsQfnBmHmXfQufKJbzz9/8QySNPoq0Bu2+9EZ/9zK/iTT/7SczPX+rZgCf+7vNY29qEoWt44IEHmLkk/UKpVMIzzzzTS9PsHPM0Fj71iY/iD//L/4tkigKiq7xosp46ATz+eaC6BNgBYIcUOwmgQMPLhAAIg8XhqCIZhJ2JvzhtdfUj7Xh3m3HZ/tk2ulTmRAkgUP6ZmXvOmQmDKPL80mBK4YFO7IEUIbLzUxETbctRvYakZSJhWghMIGMnMDxUxGd+9n+Bu7qFt37oUVw3vRe0H1+rw4rOAN0NtF48im8+fhln1jx4BQ/33DGNt9x9EypLS8hbSZgs4pI5SF2HZyfw9FOXsLTpIrQtQVN3fZw5eQbVahvJJFH4GjtwJwjQ6jowNB8j+Qze/La34e63P4QzF7fQaNko5MeYum23m2g2G4ygq9U6quUyjr30TbSdJTz4L+7Ev3nfO7G1kMDAnlugW2m+3lAT0f/xFxawvuwganl49tkvYPe+LGyT8vQiV6wmAqHmTJoofkGL80TiaERj6pyeTyqZhkE6graDTqOFyA+Arg+n68K3DQxPjiOVTkIjp0rAYXMLmuMhMznCEb1bb6JbbiCr22hSBD9GAMGHU2lAy9hIDuShMXtB5yBocBEJkdP1eoOex53vo1OqsoCm02yhkghRHB/hNIYCCK1OGwnTQM4KkUmSMBFImgHyCQ2ppAYzYcG2TBTHioiGh2EMpCFYqD3QtL2AlkUYUErDw5Gv/RWOnT+GnJXHbXfcjWe//m1UmlVYQwUGA6T3oPtNoEqBBJ8EUpxWoPQCBLNAAIEMoDRIccMWj963zQ7yJezYdYTyeZy7OAeHjiWdKEVnPSpasWc9Oy8J0ZiQTnhsoivBWguVkhO5XWHmVd6WGQTJOvB4keOmn3sWAIEdiabBtGxMTE6z8FaBIXL4AkR47AScdhuVrbIQw/K5hJxeiEMbQViqiFuOVTHtX/MVt0s957iD7GTQS2BGhbs77hkfRqGHHZ/JxEfPDiknrxyyYCQUK0AAR1qrHUJCThcoB88gQIAH2j+xnHwvZHqVIRJtQ+JA0uCEEWwY6HJEp8GQzAEdKa6noP2oOU7PM86w6KYhAJ0inJRGhMeAut/CFoiUgUxHks2TefP4gxBkmBQfUrqaNES+dN5KG6pof6bKVepB/FYiRXbskj2gZ0QgW7AEMkUhU18qjSHSDcQciH0wkIhvo/xHTxchzroPFoRodhvI2KFZUddJrGD89f6f/3mc/aM/waf+w69jPJ3Ef/7vf4J7PvFruHmwi2uuvwEnl5v47u/9Ir7fsKCvXcRiub7t+7v234x3HMzC2X8fbvWv4OlmEvd+/IP440/+HKqWgXs++WnU/vRzOPjQPfjrx7/G42Nk9gDedm0B/+XPvoAw6LKNPHz4MD9bYhJe70Xb/a8/+xn8yi/+a+zePdvXv+z84vIS8Ef/FWiuA6YPmAFgEUX2TwkQ4p5/W8bvNS6DJwoN3n70L+EwGyqiNC3LhG5YbJw9r8vSKKX+5dSEHKiGafRQj0msAQlBQh2Z4QLe+/EPY8LOYO9th3DXocMwaZahCkQV6NESmmdfxDc+/zxOXq4j1JPYdzCL97/nTgStBkLXRcowYZPxJrU0TT4riVPn1/DDkyvQUjnopNwONawtr2NxaQlBSJPeYPEWmYGG68IJuhgbzHGUe+D66/GGu+7H6bkaFtdd5HMjHDnTJF9eWkI2nUG9XsbW1hzmLp+AaXfw6V95Dx694RBWlwdQs4dgpTIcnThuE1vVCrYIqLg2OpU2Tr70dRQGuxgbzwpQ0zMMEbMrdNd6miEJwGgbjyZFBBYpGpGOVr0Br+0gpHy7S+kRH4FtMkBIppPQIyHIqyyvIpNIITFWROD58JpthI02MrqFpgnY40Mw/BDdah1+wkBqsMCGTmkgaDKIfD1R9hRZ+OgQtU4Gw3HhVerIULqCjqUAQiLBRpQEnq1OC0nbRM4CcmlKL/lIGSHyKQIIYHEo5b7HJkeAkVEYgxnWL0SYhRbtR6TlEEY6A7iV8y/h2098Ho4bYua6m7BxaR7rayvwUyZSuRyW5xfhdwVAoNQGnWNcc+D7CiAIwKDy4T8KQKCxzABBeUZNx/LqOlY2SwxABbuqHLsSrfVzAHQsIZdT7p0i+hChQXqBiClxQesLB8Cqfja6/TkqnIMyrEQPK7pYVNhI3RKnooZGRjEwOCTyy1J3KOYj7YPuURe1SplZF+UIFEW8jfv4sQGCqgzonzfZEOEY5Xuxig52ppIiV9/YBi6uChCUOkgGKio9QbZKiqp7gEGmBhS7L1iQfqpHMKJ9hkDpmw3d6KVBetv3mAZR4UWMBh2PnDKl3aT5E2wfia8Nc5soUwARAUJEQKMErYLNUAxVPw0VBwhiLIjnJ8eIGErb1KKUkmTsK4W5QRSydkq82T8Gvc9RPQMEBQZoW+GkFTPMaQLJZPXAM++/v50YIjTQGBUI9pHPVW4j5Kl9TURMUBkHCDtBxU5R66sBhAO3345kw4UfNjB70x3QyyW4doBvf+NJ3P2Od6Ac2OiePoJaZhza5gLWasQg9F8Hbj2MiayFzeV5TN14O2oba8hcewtGu22YSRJ353Hkf34Fs3fdhkZVgItMLofVS6fx8rk5uE7rxxYrMozTNAwMFPCmw3fg3e9+CA8+8A7MzkxtBwt0rzY2gC99Hjh3HDAkSDBCkKF2wwDa4NCIYBDoIfRmGR/iVZXE2+7Aa7AG2yFCzBqxwRJoWQzsCIahQSMmQJYD2XaC/03OhBTttJ3BTk8YX6anaXPbAKnAiYkgYWLCspDQbXz4sUcZPZkDBXzwkfeCCx6jFoJoHmG4jGhzBUc//3184ZlVhLaJoYKF9z1yAAcPTGJrYRNJ2+LKBUrPcE7TMNB0NHzj22fQgAU7k+bza9ZdnD93CQ7Rz5HFJYWEQbuuB4/ysIGPmw/ug+G24AUh7njrw1gu61gpB0inB9FqtbhkcGuzxNfZ7VZx/NRX0XVaGBjM4hd/96dxa3IIX/nSGi45CeRHRlCv1ZDNprBrYgTVrQoK6QEsXlzAlcs/QCHv4Jq946I6i6I6yXbRvREKYGHIxRMQhqRWbyCTySJJ6lo/Qm1zE3pAitoAHqUgiEZMWihO7kIilSQfC7fjorVVZS2EWcywYLFZqSFnp2D7QFPzYY0VOf0SNV20oi7SQwOwoHHkQRExeRcyIgIwhNCIcXEcTh8Ebhf11XUElQaLFMOhNHbtnkbGpuoPnRmLZqeFRMJE3tZhaT6SdoRsgsodgRSlOAwbzWYNs/snYe3aBW0wxwAB2jRAAAFJjtB1z0PYaeF7f/1HmGtswRrehYxhYfHUaXRtHYPjY5i/eAmeK0SKBBCILeDKFK7EiIjw6DEIxCrEaVLhm7fn/+NzQwEEmtRCGK6j7bggFsEPNTC/w2xLXzgs8tdSN8sMhAQBUrMzmClgIpnHSnUTZc0T9K4UdwnLL8sgFSjonaOY+/Tq0cd8YILoOhKpNHbtmmInFPh0nb3wWeSIPcGIVSolBlOKNhY73F5Wpu6L8kW9e7KDQSBnyJUuUgQahzXMgPm+dIzyDvUYyKsBhP63e2LCGIMgLZNgXGS6S7GVxBz0dAe96oLtZlNVYNFvthtsR0k4TYyGeGak8yGQILQCZFpUKoK+Q3bOQEips4ECcokUtjY3eZ4IBkKAi/7z7+sXVLUFgxIFVJSIkG/yKytjenn9WCUAP/cYjZNMpVgj1XE6CgvIEmVZasjVPLJEllgkyU4J5y6YKgU+euJClZNSZdZyGyFf2Q4QVP5KsUGUkugLIoUNUWyDQr3q2Py0VfpiG0ChK1dgo++bdjII231YP43WAx9x8WifENv+td54pjlHNldHJjeAbI6qf7aVAvD3aKaFgY92u4VGo46IUsI7Uj07z+v1/qYSyE9/6uPMLOzds5sDxh5YbjWBv/gL4NwJQOsCRsB20o24zHFEihRfWVr0aikGRQUJQxKD7le9iHj/A3UZUn3MOU1O1SGVSmJgsMAKf3JmVJPPokNStXO1gyxJjpNjEZVtBiwEDKkEsdVB2wSuOfxGfPiut6G0uoJHfupfYLw4AitwWHMQaZfRrS3jxFeP4DvfPIcLPpiGvu22aTz24CG0l5eghxps02InSz+mocE3EvjWM+exVQ2QyGTBJVZ+hLm5FSytEEVjocs9BwQ4IOEfofF8MoE3HLoRFgIcO3kKtW4C1936DrS8FKLQREDOKQQ7Oq+7hWMnnkajvYSkqaO4ZxS/97u/AONcA9841sblzQDJwoAkWyIkbItrzCkQ0ps+1tdPYGZPCpOjQg2rDK/GEYfRy/tSSsE0TH7PdbpYXdvA5PQUEnYCUcdDo1QWAMHzxX2lEqWkhcGpMZjJBHRPg1vvCKdEkzNpwm214ToeBgaGoFP/h0YN5miBUxZwPbQ9F6lCDsT4+FFAtAWDDzMpStU4fu4GnPenXFurUYdbrSMd6hy5L3cqCCwNxUIeI8VB2AkL5WYN6UwSOctAq1LC+FgBhfUxTC0AACAASURBVKSOnB0hkTFhhCaqlU3sv3kPzLFxGMNFNrDQpoBoFJGWgdfuYmPuEib2XYf6yZP4uyNfxJbfxZ7d1+Dy0WPwCYlPjOHKpUvwHMGmUF8EjpI4tSBKNT2faNKQ3xeMep+6/VEAgjLqsiMG9x64cOkK6u02A2AGdbFomAVrMfMiHBEdO4CuWXj3m9+B9+T34XPPfAPfaczD10MYkj4V6TyRJmKgECtPDFT+VI4fkV9mL8bMWGGwiHxhkIWszEZxWaR4Ec/gew5KpQ102g2lMetRx8pQM9sgB6hKY8gdvIqdk+OMD9Q35qr0j1MliiVhqr6PMPoMgkplCAMi2PJ+dUK82oP+zUJEtR+ZBiCnS+8bFNGrlABjp9jxJNjgNADdM5lXYHDBQEAEHCZrOeg9SkPI6isJKrhyS9dYXF1IpXHu3BnBKsS2E2yBFC6qMkoJYBRwpHiL7xj95svvp3H6+oC+A2eSiscuq0X644IyfoHoAcLjmv2zALwixSZ+lGSM3id2TZXk9vofqD4IPTAgmAfxfZH6pJ0IpqGfnmDmQGlm+LgCIAi/3+8PEh88fYAgK1tk6aT4TrxvQnxMEdBnNfor8lzKRom5LPaxff7Je72NUY+dkaDwRIqGetGkMsjlixzoxJJr/AUCCASCiF2u16rwqPLrHwkQxHDXOO1+6NAt+OAH3oNHHn4nJieoCkkDHAf4xteB732L6hcAPZAAYXj0qhqE10oDigcZBwfqhl7t7iiAIB6kuqmEqFPJBLK5LAOD4cFBVpwTGKAJQg1wlIVRTJcuOyep8iKKLGgSElqnmv2MmUR+3xTue/BeLB09i7sffAi7Zw4wzWxiFQYWETrLWPnOy/ifXziCi9UAnXSI8WIen/r42zBm6ahcnkexkBPoirMXBhKpLE6du4JnL9YY+VMZYdJMoFJq4OL5JXS8EE6kwTMjBDrQ7XS4wkDXAtx16ACGB4ahGQk8/q3v4dJKHQPjBzAwOIFCroBMKg3LINFiHfNLL2O9PA9Dj5C0Qlx/7234nV/4OTz/J9/CnDmMjaoBhwQWbJR0WYvvQ6d8ZauLcvkMbnnjNNJGF6FsYEEGyEokRPMZkQqG53a5dJMucWN1k5mN8elJpKwkurUGuvU2InLg1JSIJroRIUhYGJwcZYDgtam6IZJlkQ43uHIdB90AyI9OQtNDdFeXYQxl2agR0CBknkgloCVM0VciCNGoVJHKZXvon/QMLb+LQjqDRrnKecO0bsLtdFB2m7ALaaavqUxgeGiAyw8LwwXkbRu1zTVMTRYxkACyNmBnTGiOjs3SCm644wDssQkYo6PQNOrjsIv1B1GURtjs4sXvfR0zN74BI4VxPPHEZ3Fu6TwOHLwRK6fmUGs0MDA5jpX5RWYyumQoKdUgjZ2oaiCAIMWLbOBkRMOGTk7/V2EQlLhQITphxzUYocbAbaVUgieZPXZ20gEq1btgHaRORuVqYeC2PdfjUHESz555CRfdCgICCNy8SDLCHNoLs0PpHf7NQq++3oBORYjNuMkIEskkRkbHoetEb4tqImIlaKyRodaiAO1WAxubGxwBCZJb6PX4uJQKkFVIiktgallV20iz/Hq2R1x7P/CQcr1+RBRjQvtyPglCY3oBxQzw5cXoBAYCslKA8ZIsXaT3CCConi3K+ferAiJmAPj7JKZlDYJkSmO9EJgl4OhDfE5AnX7zv4ldIF0W2TQu+RVBlEhVUHJYpRJE5RYxr7wf0kLxPgiUCLDGdpLL2vvuTLkses5cccOiQQFoeTyQ72WgK2l8EJb3edxzylE6ZmIjleNnQCEZNdqHEC9GEkTLdEOssZEAALJPhwQI6j3FIPR6IfBjiwMEAcLjwFb8e7vvEVhSMWUhl02rxk5Kb6EqjPrfFZVJypH3nbISCvePseNwPSTwau8Lo933gJQ+zxYGkUhm5Njr71vokUTatdmooUUR/o4GWHEw9A/998z0FD75iY/hI489ir179iBJ4+77TwLffAJwm3CjLrTiiAQIr1J7zLd454zlJig72YP4aaqLFWUl0gxJiEW57iRGRoZQHBpEPp8TE4EngAabIluTDJCo/yWk7AeerL1XmgWahIKaI7qOu+4lk8iPDOG97/sAShfOYeqNb8Qt1x6iWABABVp0EWZrCZWTl/HFP/8+jqy14VJrn0wbD919LT7w1kNYOncJeqQjlTBFoyFy1Kks1tfaeOH4HDZNmyl1SmN4HR+L82solVrk7uCEERwthBdRZUCbKfLBgo0PvOsQAieNC5c28cR3nkejG6FrkLhRg2US2MjwPmuVCrqeA8MixiJiuvwD/9vH8JGb78Dn/5/PopkdQjC0H7WWolKof4KYhNyNrLKBZuMSbn7jbmRNkc8m+pedMgvfaODr6DpdOO0O8vkBrk9vVOpIWDaGpidh6ya8SoOrEyIqT6RURjqNUI9YQzAyOc5RUK1JAMSGoUVImdTZUZT9Gcks0iO7GP06i/MwchYMS4dHTsSnygMDSGqcG9c6LjrVOjID+V4E0q21gHQSKd1Ee6sGO5NhKqxdLaPWasDMJpEv5ljA6DTr2KiUMLF/GoVkGlvLS9i9dxR5K2IGwU7bCOoBSqVV3HzXNUhMzEAbHYehJZk9gJZCFCURtJp46TtPwBydwODQOFdPfPUr/wNTs9OoLVWwvllCcmQQtRJ1A6wzY8VNklisGErRogAIzCaQAaW0LP3HUctrAwRFWaughcYFvaxQQ7lcxZXlFbjsrGRaSOXEeV7JmnlFfROT5JGzI0CnwbaoYyYZdcrRC2Eis6qqr4jsiSIqEWTjLKkliDsS8h3JdAZDwyMwiWVikaqY1gIYEI9NAMlFubSJVrvN1So7X6xkV6hEXhHdL3LCqgkaW5VXicL6Udz2UjWhCRCOeJupkmWh2+LmXr8VGaoo8LUDIJBN6r3YNilBYb93iyqfZOfeYw4EK0ENvGAouybLIYktYAZCNoiToEAItQVAIMaUAYOhM8tHmEClIYTzFyBA9EsQAIGbMJHoUSNmgrr0UfpV2k9pv5UGofdcuSxVaAj4GUj2gBw/jWuRARS6AQII9EPznP6mvi7EnnI1gmQPaP5ToCGqeiSjIH8LINLvfPgPAQgsUIzpDlhPIzUOVwMIAh9IgCDTc/GGTAx+Yw3NxH1R3SFFpC9ecS5WurBe5UN/oIrrUwmDq0Hc7Ux6pBvIFUYxNDrBLELPOUqOQQgyA1RLmyiV1hHJXhD/UDDwWt8bGxvFLTfdyEDhvY88hMH5y9D+9m/gNmsEECjFUN02seKXJ+3btv2zEDxGWb1SdixvXG9Djk+4q+DI8CAmdo0jk04KtN3LvwlRDk0Gi0R+yhDKZ8SGgwwAo2yBwGkiUUOglGUjOTSCd77rPgS1Nlwrh3sfeCfSpg49ojzoZWjdRfgXl/Ddv3kaXzi+gqpuwzBDDI0G+FePvgWTuo+15RJSuTwMhLx/y6aSOhtHjsyh3AC6eZujKDKIG2ubqGw1sLXVgmammUFwSL3tO3CJPQi6uP7ACB59183YWDHxF5//Di4tl+FGEboUcWnUGlqWO0UB6ytYuGlYIN3lrpEsfuN3fhPeiTk889VvoNIN0cnNIjO0B7CpQoIGkOxo1nVRn38Zw6M29t04DZvvO6UVLCRTNtxutwfo1tc3MZAvoOv6DBCSFHkEEYanJuF3XGiNDuqbFZQ2Slhf34DjOmh3HZj5JG67/VauhqkHGiauuZbbHZuRx0yD74fIDY4hNTzOjrG7vADNDGAmTXgUbQZ0PhGrZMOEidZmGabnIzs4wFUUZKA6tTrsQp7RfqfWRGZ4CEbShru6jlqjiihloTAknk+32cLy8iImr9uDgUwWpcUFzO4dRY7KHc0QibSN7lYX5VoJt7xpL5LTe6CPTEDXqExzBNASiCIbQauO4995HEGxiAuX53DXobdideUi1kobyIRJnD13DvbQABqVGsrVqhAoSoBA0YYCCsQiKF0C07AyYhGVhP10A1PqcoJxvrtX4iaAuCIuSbtRrzVwaXERXaa0RT5ddLhjgQkDBJWP5t1GOiyfHIePZjKAFXAhniyBFJEoPafe+cjytngk2BMjiqQPMwjkkIZHxjj1Q43WmASVFEAv9RH6qDe2UC6VYkI0YaQ5+hUWu99NT5oI5i7ocxk1kxNipqtn3GUFhsqR93hI4XTYLiiAIP7YZqv65Yvyzm5jEPr73skgcEdPxWioCgRpf9Qz41ZnstGbSIMKu8Q2ilkBwQTQGTE7YNL7BAKEjoD7p3AlV59JIFZUMQpCjChKJ/nfVN5MIIFYBvqbUxRSNUEAwRAaCdkdupeKFCkGJSIUV8V4gAEANf4SnUCpOkmVnpIgUTQFC7nPBY17EguTs+9Gou04NVSjBnJcxUN6JVkCrPQ3glWQgCEKOfCj1vPcYKzXWElpyhSg7rdO5m1UnwR2wKJzKQ8lKU5UGpdtvQ2Uu+0xCKr74vZuivHUmgBQkmvhP3b2ANrBUMQ6M/I3VX+Rq5UJqzNW857nuY5Ubgi7ZvbDTgg2l59MrI8I6bTqlRKWFi9z6u6f+0XzaP++vfjYRz6E991wEGPPPAVtcHgkqnCf9H571V6b0lc5oz5AeI1T7m0kWARyShMTu1AcKsCiCSHrZrdRcBwJSRpV3jGaBELMo3NzFp48sjkJTTZKRaRSKdxy9z3YNzKE5fImHnn3h5HLDkHXutDC84C3gO7iCi48dx4/uLSJ5aaGjVIVUVjGfffegDcfnMXquXNIp1JI2imOjKm7Xyabx7HTV3B+vg7XyCBVSMIyKSoLsLm2gaX5FfikI4ANVzfQpQfaaSLoBtCCCj76wTfgLbdci2e/uYb/9vmvo0qV4JSfi+ErQTGL5itsSA1aK8HEg++6Fz/98MP46p99FtBa8Hwdyys6NpsREsMDqHaE6JH0E36rjjHNweyN16AwMSq7SlpIJmwuHxT5uxAbayWenIMDRWxsbiKXybLD77TbSGfzWJ1fwtmjx/n8nW4XzXYbHddlitXOJHH34dtRvXAJl9Y2EKYymNw3g0O3HcLo2Bj8QEOOIvB8kdkRlNbRqZdhpy34ZMzCBEzNg2ZFCEwdjXIFac2EnU7BdT1mLMgAJfI51Fst7jmRHSkiIEZlfhPlRhVIW8gN5UBd/5uVKhqVCgZ3TyJpamhUtzA1U0TG8JBNREglLHQ2XFTbFdx8eDcyM/tgjM5AIwYBwwBI+2AyQDjx7a8hGMyhNLeAuuth+sAN0C0b44k0/v7LX4FRyKLVaKFUrcANPF5zgcqyKKriZklkID2hQWAVONGvcXGWyrnGSsC2K+HFs1eYm2yMGWhoNlq4sDAPV5UFM0AghyKcF8XjtI4COUFhvkSDKRKVklhW9OoUTY9Upa4vc7kqSo+fp2IWBAVL8I+U6AZyuQEUi6TfkKWMgvWVzoRbT8F1W9jcXOWum0ytyza7IbXF7mEiuc4CBZ7SIHI1SBggl8/zvXM6DoNZkedXgjWlWpeKdsYB1ClRzCQFEBQYYUNLAJ/u044e/PHSRuEqhd1TAKH3XDhV0E8PUBpNpQ/UNiLVSZG+gCH994Xz5wCG2FFiDAxLCK1NYhdIVG0yeFA6K2ZDCTiQIFOmHARAEOwDf8YpB8FOUBAlwIJkJ2QqgwhTBhTMIkiNgiDk+9R5pCOQ0TKlgrgrqE96GqkvoJb8fpdFygTtHKfLn9E2zJRR+oC0OBQYkB5Hsg7USIzbkcu0AT0PLoUkQKBp3O6e1v2hrqSiXbI4Jxb1qlSXYhtipcJEe6mUQ7/0tt83geeC6umhSnFiDIKo4ojrDsRs6fUEia1bcvX0uQKsfZFtPKWhUhYCA8fTEFehwpSbpflhpDCx71rk8lJXJt2paPlDwZcOr9PA3Nw5tKn18k/oRea7ODiISVo34vUAws5L5InQYxBe64yp6Y0wYyOjw5idnmYhIs171hLIoi5GwVLww5Sdogll1CHUxCIRR5PEog6JpD0gEyYn4N79+3HX4Ttw9KUTePDdj+LA/gOsUNWjFcA7jaDSwcUXz+PosTk0QgOBmQJNkYLexAN3HkS9vIbSxgZGikXWHNAkpJK/Ss3Hc8cXUQsNaMkE8tk0pyA2N7fQaTpYXFxFoNnwQhNUrdpwHbgcYXoYG3Twy7/wCHYXduEP/+9v44vPn0CHxI48AUQjErqNaoIzQKBukDowNDyAX/rlf4W5555BZ20Bt9+6F526hzMvl3H2wgqqkQPf4kp21iukLQPXzkxjZGoCRj6LyDRhm8R0KIOqcU36yvIKxsfGuSlTJptDPp/nEsS1y4uoVqpYWlrhBj2pdA5hQCIramJF5YJJrn3fs2cGqxfPoVWrcPlNcaTIqvbZvXuw57obcO2td6BrZxDQs6ptob2xhsgMECaTSGhZBEGTAnfqwIGu6yJBPQ0oIukKw0KVFJT8bLfasDJpjtw9I4I1t849CfRcAtnBHLuuxsYGlzxlx4fg1RtoRQ5mZoeQN31umpS2TTSWW+gEbdx4xzTSu/fDGt7NqQWgKDoqQkOnvIGzTz6JaHgUlfk5rFZqaEUGpvfux1tuOoQv/83n4acSKFML5PIW3NAX4k1Ju1JELgCCECuyk/X7NeU7HbASCLJzijXR2cGNgyqNum4XZ+bm4LD5lOuTyHmgBMTclFzlt5k2DnhBLAEXZEAthXJ0Vty7XvkKadCU8aTfIr8rEhoULZrJFEaGx7nSRrWWJrchviNsASXxCBy0mhWmRYVansNW2SyqV8DZW8xKnQI7LkoRUkmmzF+rEmbl8OPn1+NYuMJJXKe4PKF4YNwhdQJcRSAZHGWpthEMnHZ5DYAgUwAiiBE9DYStUqlOSnGK6F+kSEUAI/QC0vlbghGgVBmnFggcWALk0XfJ6VOqkQSgpD3gNU5MixkGBgSyMyyBCm55oAMJ2ifrJKhjrEghUlBh2ibruHL5HPc0oS6X9Nz4+AQ8LJtZSu6GyeBLlBZTUyuRNgs5/eh2HbSdFqcYKXiolBtoN11umEbOnZqrOY7D3+l0uugyQBDrInS9gEW8ogRWgD/FItB94V4ipEVhlk22TpbjkFMPchEoXkckxhqpLozqmfecsRIMqtbkr3DQYozEG4SJLJcCKFIvJPtACAcvF7GJubd+ekv4tFcDAuo4O8GC+JZ4sXiU5qqewMjUbhRHx/mYirPgHlukKyIQEXhYXLiIamVDplh+QigBQDKZem2A8ArtgYwEFL3YjwzESXPtdK9TGq3Qp2FmahITkxNI2jQ4eY06KZUVEY7qPa5akaryHZ7k0oEKkZAwIjRJieYnFE0TbHx2Bg8/8CDOvnAEIwcO4b63PQTD0hAGNZjRSUSNRZTPLuG7T69g0fHZodLESidD3DZdwFQSWF5dgpFKIJsk50FtZC2kMhk8+9x5rLZScM0I6VwaOdtGt+2i2epgbbWEestFwwnRjUxeBKveaqIb0v67eNf9u/GpnzoMdzHAb/3GX+GFjSZcnYyuyu+Re2cCV5ZwyvRKLoFP/8tPITG3jO8f+x4euesm3H37tVi7som5UxUcO3YJa80afDIkts5IvDiUx+7dIyiMDiOgfgf2APwunYcOz3OxsVligDCQH+BRSgwCMQY02aqLSzj93FFUN6toRRFK3TbyQ/thGUWYVgq+bqDDPSls0Zsi6uD2a2dgOxWU5i9gfWGRSy6tgUHc89B7MHjNtQjtBBKtOjqra+h6TQYIudwo2q0SLDtEUG2DelYQkCCDRJPKSKe485dXa0Nrd2EMFWAMZNHVQhhLJVSrZdj5FDKFLLTQR21tHZlUElo2gc5mGe2ChtmxAvJmgDQDBBu1pQZ83cG1b5xEeuYA7OH90PQ0DX3RCYQWSFpfxKWnf4BgdBalhXPYJIBADf+yWTx67wN4/AtfQidlo71ZwUq5BCckBkGABGFUtzMIbMgoPxujHTkny9603xUxDhAUUFDCO3JaJvWncD2cvXwFTRIXUrQom4Mx7Rxzguy2pOfjfh0EnuOeUOX+exFOny1kUCDr0fk8BRstw1ATxeFhZLMDveZQbGx7i0bxajk8pzfXV+E4dVmrzlfXb+MrjXff0asyOtkuWLIJPXU4g49+qmA7QLi6gYxfbn9dF2FD4soE3i4mcng1gMBOnzUD4jeDAknri5hFaATYkcvWzgIASOdviiZd5OTpcwpsmBEwxRohVAXF2ikKeggQEEjoAQQTNm9LaQUCFFK3YIpVVCnVk8vlMDw0ilx2EIODQ2wTqQQ5mcpwV1ROWfJjUHeARBQk/Jb6ERmIUapTNMBQZe6qxJDGNbFitAaJB7fTRK22yVR3ubKJ5eXLWJxfweUrGyhXWmg02/C9iLvvdWg9F9IjBBEvWKc0Lr1yRxqPnGYQnylnSsyDAgiyhEKmsohhEAs1KccscJ/okBjvaRAXBfO2MhjtMQg9tqEf7ffGV6+6QejrXgkCXp1BUKPyRwEIqgTdjwzkhscxMbuH00f8vKSP5RYdNAf0CFtrC1hemJNLIfQ1Tf/cUIEBghIpMgKXNCcZF0V37hQMCVR3lVPriRFFiQalEXbPTGNqchd3b2Sak8uERM9u8Qj6OdiekZQDNy4A4giBJizn8AyeJHkrxesu3PHud6BLEWY+gfc99mmM2tTsp4UAF2C2F9E+fRnPPXce5ysa2vB54lD//uF8iDsPjqOzsYVaeQvFkSGJ/i2k8kM4dWkRl9ZrcHydUXoul4VtWLy6H13MuXOX0XBDtEIDDkx0HE/k16IQhXyE//M378VNe6fw/NdP4Vf/v8ex1aZoXEZvnANUohtxQylVQsj/7jvfAMsOcPqFlzAxncHPf+YdmMoPYPXCBubPbuDFYxcxX64jmctTjIcULdFsAFN7RjA0VkS3m+ktS9xxutiqltFoNHk55Vwmh5GRUaRTGW4Q1G062Fq4ghPP/QCltTaSo9MwipOoJQrwEzmRa6YHFkZIUk8IFjR1MTMzgbvedBtCv4LyuZdROnGCRYe733QY4286DHNwEBnHg1cus9AlMA2kimPolNdhhQ5C1+floWutJpyux8aX/qZog5s0RSFSAwVhhMkHVRsoV7aQytBqaFn4ThthswOLxJcJDdW1DXi7Utg7MoAcLdBFGgTTwvrFFRjpENfdtRfp3buRLO6Brg1QKxJAIyVngNbCGcwdfRH++B5UFpd5FcsurUWRSuLBD34c3//zz6JNaZzNMlaqWxIgCGAgKhdEqRf1BFCrO5IKnE2aEv7taHGsHFY8zUCUsEzviyXKqZeG4+HC/CJqVB7CAjUhbjMtsVysorj7TZKE+xZKd8lQsLBBGFYSpCkqtud/ZdTey8fKuU9RZp6eY67AEafIUyvnIQRuZCW6bltUd7gdBJ4jytV6JZ4yapI99nuRG98PYWO2GXxu1iTU7dK79ZxHr+FOLw5TNkjEXa8PEISzUEBqG0CTwCv+nojcVQmisFP8HrMdQkRIiQUV9avghZ4NMQIkPCNArUAB9RghsECgggABtZin50fbUrmybpIOQ4fN/VwSGBkZRsIwueQ7ny8glx/E6PgEBopFZv4IsIu+B8Lpc9Ar1A7ifsRDVhG9iRsmiJ1XysZ6Jl3FuWpD+qrIzQteSbZMZKEqMQgNlEorOHfmOOavXMHS/EVcvriAxa0umr4udAxqxVg1NngdFmIZRKvmHkBgBk6yCpL5EZS/5KLk4mjiCyLPpRpwsW4lFqWr8fzaAKHvxxQjdnVmQLZn5vumUhvbv6v+umrqgRm1iNeQ4QUN5cZBqCGVH8DMngOwrKR4jCoIl2lD2rZZXsfi3FnRlEoyj/Hj/HMBhVcFCPG63lewBCrC4BEZS0AwQBBIj5D0zNQUZqcmZGtnZbDEpfSolBhAUAyCSjGoFcyEYles1siIWqYVkokkbrjnTuxNDeClY8dx3yc/geuvOYQUutD9MuCdQHB5AT/8wSk8d7kMR0uyeI+/rwU4fGgcqW4dpfkaEoaPoZEBtjKZbBGlZojj5xfRpAY4YYhCLs89ArRQR6fhoFIu4/LiChq+jlZookFIuSvEa6Q6PnBNFr/77z+KjG7gD37rs/iT5y6hTeWJ3E5UiIrYHSg2IfCQz2Vx4OABVMobqNbWMDg4iPvffgv+5affjkTLxerpFVw+u4Rjpy7i3MIG0gPDHGGSbiI0IkzMDmL33t2Yv9xAs1nnieOHEdfR0wJAu8Yn+MfQRAc2qrJwyzWUNks4cew0iiN7ESSGsFDvok1pAtPm+8ENWqIIBcNEGjrabguFwRzuu/9tKGRNWG4Vem0Ti3Pn4Vo2Dr71HgS2jaRmwXJduPUqCzONgSKCWglBrYxUgsCdiY7rcEdEmgTpZAKVrS2mNalRUphIsgCVUlJuu8MNjwYH80zPeq7DHRZbtRrsgQw211YRTeWxZ6iAnEUreFLDHh9rF5Zg5SLc+o6bkd+7B1ZuEnpE+gMCCDQKfdQuHMO5l48huesabCytokwAwfPQyGTwyIc/jWf//E/RzWdRmVvAem0LDi/YJOhYzrcyQKCcrAIIYiEsxSCoznSi+YxILXFDz5jWRjTgkVZP5o8tomMdDxfnl1F2Am6/yz05iDmildooR0lRJ0WKslyR5wjnrPsmQ9H1tKaGSC9IRy8bJdGpqIWYaGyyNoDSSlYCw2PjYqEmcgY9oaUwAGzIAw+1WhVdAmykbGcH0K+J7+WLZYmCEpL1yil7qQqZIZdld2Ju9NwcX4xa1nf7MsB9a/KjAwR1b/odKXulpirtw45bOHAWHpL4r1eGKHuzyOdB99um5l3MDIi1YETaQDwnekbEdpK9IhaBWAheopyABP8Y3PiLKnyIQaNVWnftmsTM1CzGRidEGZyVEgvA8a0XwkyqUBJsq2y1HFuNUQRfMW/5j/EgDFyFqFENK5k5luZf+oCoC69dwvz5p/DE40/iW89ewmqtxQvCEbhTgkVV/c0vXwAAIABJREFU3ijAqlijQ40tkaLrAwS1RLMCkoKJUMcT9lM0+BNVGGo7FX4KJ9oHIHycWHpAVRgpgPLqv9X6DUqZS/d/O8P1+gBBMOxxZEYg2UokGSCk0zmxinFsv9T/hK7Kq5exNHcejtsW2G4HE/mPebyv9V0GCEPUB4FEijEGYSdA6E8p8a+rMwji4ZIuaHpmCtMT49ybgDK9ihoV8Ec8YIWj4iIbgR7EJ6ILGekM5DrulNsjAZ9uIZFOYWxmGm85fAdOPPUM9t95J97y4MPIaTmYWguaexLBwimcPn4ST57bQqWTQjISzXMIAQ8PpnHjvgRT4OV5F1PTGdhJEjumYRpFnLi0hsVyE7TIKC34VyhQFKWhVW3DRgKX5i6hVG2i4RuokZjM82X5kg4/6uJ9778RP/uJd6F2eRW//nN/gOfrHhxuE0p96fvNWfoDMsRAPsvsim+GsNM6rjmwH7/4bz+Fm2Z0BBtbWDkxh6Urq9gs13H0xBxq7ZANBxkyK2ljfCqH/fv3YmnZYcNDpaEtcqyOg+LQMHLZvFi2ty3yh91WE8mWi622i1Jbx+Dwfjzz0jk09RS6usVpZBqfPo/RAJmQ1p8kNWWETD6NRx58EIVcCoHfhGU40DUH3TCETWkMy2bxHK0Bogcu04wdipw8B36tgkyK1oQQokR6Hl6jCadeh9tuodmoo15voEOTxzKRz2eQp8oGPUIul0HH7TCrQKtGNKsVmPk0Smur0GcHMTuUR84IkTZC+K6LzSvrsPMRbrn/Zgzt3wstswt6OMLf5osLPVTPv4Az50+jOHoNzp2/CIej4S4ahTze99jP4IXP/SXqKRvLp86i0mrAkesxMEBgLYJIHxC1StfD5YKSQVCL2LBoS5VlKYAQ0yAoZo1jQKnRoWsMHR+XFtew5QRcAUTImuZLNpNB1xXNU8ig0BgQRoOMpdSo71DzE9ji9TJk7pjTCcLT9BvT9ICGgeLQCJc2UjdQ1TtGRXMCIARwnQ436uJxzYv2CKW5WMFPBXmstJF2Q9WzixRDz6Arm88pDpF6i9dWs5lX7EVPhKaCk6swCOwhhQFXHSZVakGlFNgGxdsiq6oprkQQaQISFwotQaxHgfyMIn9OD3C6gIAAOXsbiYT4NzEJxBLQdvRDi4ZRVRSDgYTBz7BQGEA2k8XY2Bh3pxwsDmOwOMpCaMEMyBpHuVaG4AjEf+LmSfWp/Gc89v+nAQgyJldlqPI5cpqYqh/8gFN/CwvncPr0MZw7exknz59Aud6F0yH2QDJssUoGHncKCFBVQrzCpwcuBUvBfl8GoQKQ9ts0KwZB5CBI8BAbT2JmyEWZxF3ZlmJQ+1S1tXEmq3e8eKOzHwUgqOMIHxkHImosC98fAxbEQdHqjdO7MTA8wiCQDK/ibtTpBc06Vq9cRKNZE2npnyRAoBRDuVqRYh158rHOYNsQhlxU5pWogwyTqNucmJzE7t3TTP8aES04IqMjKZTa+V3FHIjmI2Jii2YkcoLLiEgzDYQJCymYyOeKePA978a5o8+jm7Pw0Z/5BRTSKeQod4wLCDdfxOUXz+F7L65is2Pxgjz0cFwLGDYd3HRgHKnGFqrlKjTfxMyMUFBPjM/g5JUtLG820ex02Tna6SRH6RSth15IBQU4du4KGh0fnchH1fO55JDMFFF/SIf4pV96CHfecj2OfvMH+LX/8FWUaqRNoGjTFSZLon5FB+tGCDNBK0AKSnFgKIef+uTH8J5334N8cAXO4iJWz15BubSOYpjGl595GccvrnJZIeXwh0aLmJodxKG9+3FxqcWrForoQnRrYw0Hp8AN0eWx7bAD1RsOWt0Qub23YmOhiSdPnEcbVP4XIaR2m8QHSbonG+kokJOCj0Qmicc+9GEUB9JotCsItA4Mk5gj6tZoIqSBLhecoTLTAAF8KsmLfOgetW4m8U0kOjK6bQSNMpwrV/DUd7+FswtXuM2wSetahHS0CIl8Bm968124467D8LjpFWD7IVrVOloEQNwOEvvGsGsgiYzuIRUFXI9fa3dRzAC33H8IQ3tmoKcnAW0UiMR6FlG4ifXjz2FxZRHjwzfg5JmLDEDanQ7axWE8+tjP4NTffg7VMMCpU6fQdDvc6ZHAAbEI1OlMiBRlDwFFpapqhth6Bz0qXbFur6jWkWI7ySAQfR12fFwkgND1hYCV2TPZVEcu7cwpB66d5watTPGrDoMc5VAradDy2LSNyfnkXsQml6pWZY6sbdQEIC4Uh+F2faFYpz4WrKztlx8Si1MulyQ4kOxhr6WuqFwQynPptuTyy3xsBgLSoMeqDBTNK3QQfXYybtz7qwz2LYkALv3tuS+AAgDydy/IUWkGlYKR91GBBSUyZC2BjPB1XQiiqccA911hpkCwBcQeEHiz6DPT4vQAgYRk0uZ0AZX2JpMWUinqDGsgkU7wKpgHD96AgwevZyEYdb7kSCSikS3jf+nhJanfe1/Cg6uU4f1TxZESFPRupyLuqRxa5MS10EGjvIEj3/wqvnH0JJYWl7naqRkAHW6uJoTaVNmjAIGoWFStmWV6lcfr9rbkYnyISF+swNjvTSCXY5B8hqpsESfKWga5ToRw0GK/fWlgX1PQm4uvqHiI6xK2d2i8GqXfS3/sKHlUTIV6Itu+K8sgBb4jAGhgaNckxsd28do+DKblvVeVPrrTwcr8JVSqWyxCJtP+E00xvCpA2M6I8InvrA4VN4GoogCDgwO45pr9SBDNBgEORO+vWJJQIfXYb8EiKCWyWDOdAQKX6QgRkEFUtGkin0zj7vvvR84FnjrzEh74qY/g9uvvRBpU972GTvVpbJ44j+efX8HlCgkIRRPzkCa45mNi1MT143l017dQKpcxuWsMtk0LWxTRbkU4cWUVnYDWC4g4/57MZNkwk/KfSiA3L6zj/NoW2k4IFwFqJODh5jhiRbLr37Afv/nvPobJbBaf/f0/x3/+0susBHapA6A0YmqxKZVwIttAQiRaCGl6ZhY33XQQb7/vHtx2+35k/UtwL13GwoUrsDM6Rtw0/vprR3D0zBIvGEX3hpTL1904g5unZ/HDk8vITlIjIIlWZW6SnDLR0RT1EkDQKDpp0/LFOsyJ67Dw8gJ+sLwCp6MJVTKJl6StoueRME1MjRUxMTYAz+/i4UceQSGbRcepw3EbCIlv4UdGPeYpRy5K7nhsiDZmok0b0YqSltfJ4DTKWH/haRz97lOY60Ro6KRzAExX5/UdHK+DIOogm0tjevc0bnvDbdgzNY1EEKFTb/Az6LTqyB6cwlDaQFrzkIw8LC8uQEtnUTA93HLfrRiY2QUjS21FdwGRWJMh6K5g8/hL2Covo1CYwYnT8+g4Lqc+OiNj+OCHPoPNp76LJ196AaubG+h0u3BJ8e2JVrLkbCmqmb1mL2qXl7HcrMjltEU5qzAUMqJQDkw1WVEOSqroWaAuWRvu0UVGr+3hwsIaKiRSpP4gTFdLNT2J59TiQapFL7PNIonJj07m+Tn1GZ+CMorpU7cilUbOiEqGBwYHqYASHosbKQUhHb0ECFQa16DUkUwtsByR54AoR9tWPtZrKiOMeE+ops5B1Y+zkRf3i/UJMaN7tX+/GoBg1kAtryjvfV8E2q944Nmhmh/JygRiDlQlgmAHBPAigCAYAZu7nvKaLzYxAmL9F2IK6DMCYSkCBgmTQUEyIfoYDBRymJ6awMzsfkzOXIuBwRFZUdDP84soU1V/xANN9b7gQ17/tdNov/43tm8Rd6pq8BJh4KFdK2Hh4hm88MIP8eLZOaxXG8xSUkWSaDMecc8VscAetZAXa5WIxcteHyDw6FWCXsVCESMlenoLLWUPDG5vZd4HCOpqpDA4rllRrFZM97DNicfGqgIXvWkr0xPxexUH/T12TbEVseO+EiBIhkNqSPJDw5icmuW0HgeQ0miQeaQ/zK6H2sYqlpbnxTo2smzzx32yP+72PQ1CHCDw8CILpcQSsXzmqwEEohV1I8L111+LIonLaAU5yuMJxrNPqsRYhF6ZVq+Odzv1LgCC0AzQDzUHsrUExnZP46G3vBnfe+JbmLnrMN737g8ja6ZhBg7cre9i7fIRXDq6hRfmmmhxJzNhFKgzYiER4vr9w9Aam4g6GuqNGsZ3kWgvjdHhCZw5s4DlRhMduUKcYSdYFUyDr9lqoZgfxLkfnMGVcgNeYMDRgGbQhcO0sqDL3/+R+/HRzzyAohvhN3729/DEObFMsOd7vSHDBkvdZw7tQ+4qec2118heEQO46+47cNuh/bD9M/BfPotLV65g5uZrYC008bkvP42jZ5fRCnWMjo6i2arjrnsO4cDwGJ784SUM7Z9ielS8FCUpHArNsnqjCQ0WLMYAFqKB3Vg6eQFzNtBc6WCp3OBrJmNJq1nS1/SUjc/83Kfw6MN3YGVxHc1mG55DC4o0eGVJqX9n8Z/ooyEW1uLWfVIp3VuylUV9VIntwSht4aXHv465pRpKyd1oUg9wzUfB75BnQrdDZVbHueFV6AUYKOTx2IcexUgmD6/TRrPT5m3yN8xiMK2xBsX2HaysrSBZKCJneLjx3puRHMohXdwLTZ8UGgREaG+dQe3CAoxkC+VKG5cXm2hRh0cqwdx3HR5+6DHMf+vv8cSRZ1B3OtwbggAWlTQyQOh6iKj/gRbBj0IucaW219xqVlYO8FyXQqu4MeqJ5bh0TvRfVzlvMWdChE2qYlhGU5YxWia1IJfd+GS+UtXJk5Niw6HEZJI1UseMi/OE6p6WAZZd82i803LfqTRyhTynh1xufCNKGTk3LAQU/OM4LRankdMQ7XdV9zzZn19aVXYMUvNA57EtWpS72+b8aXsJaHuiyRgFHaejXwsgKAZBQuReKkFOB/l3HyyI7oT9lsdcTk3pAVtoBLhduWkiYSXE+5aNdCqBBOkGaN2YlMVCw0SSwIPJWgJiEYYHh3DjjTfhuoPXIZMfFNJTYgs4cqSnLOrFVREoNbrqWcttdPS27H/Mzqv3++xJP2IWKVplA17POShYofolUB0+vchu1aolPH/kKRw7+kMsrKyh0RXt2qk8UpR1i/nscEt12VdBNkNirYGUC7weg0CWisbTNqfMDIJYe6G3bofsebCNWVLLQPdy+IpB6F+5iuxfweYxMOmnInjKyhzZtvLIHTfxtRiE+KZX24eAYaIdN63ts3vvNaw3UQwCjw7VDsD30NzawuL8JXjUVfgnChBGSYNQFQMzlofrTcB+4zc1v3bcJjHQZ2cnMD1NfdqF5oCEWESTKjSk+pbvNFhcPiTXTafjK8cpVnmkDmKiLMil1QQHxvChh96Dk88+hZIFfOLTP4c9Y7OioKp0Foun/g4LV9Zx4tgmtowET4/AjBgcZBBgajyLESqp8BxsbVRQLOaRH8jyylr1VoCF1SraVNMuGxrRegVEG7Y7DuclSaR4/IVTaHCEY6PlRmh3w/+fuTcNkuu8rgRPvtyXyqWysvYNW6GwEAABkCDBnTIXiZQlW5Zs2fIih0Yhb2PPRHsmxjMxv2bmV0/HTExMjCPs6Xb32N22ZattWVJLFmVKJLiIJECQ2Aso1L5kVu7by5f58uXEvff7MrOKoOxQt9hdEUViKVRlvve+7zv33HPPQbVDcaAthF0WvvQ//hI+9tRD8FzbxBd/+5/jVqnOQh1WuKsdS+fEcx5FMICRkRSSqSSPJE6NDWF8ZAjnP/UJnD0wDXfjChrXr6JUymH09FGYb6/ja99+C5durKHcFIMZovMeeeIMDg4N4/tv3cbQ3CSPUzEgYIqZ7q5wOZQUVyiU4XTc8DgueA0fOrFZ1Jfy8B+fwOVXLuPKNj0PISQHx9mdzzKLsJ0CTp+exzOPPYZQhCooyV+o1+v8uqV73POJF1m16t0xQJAqgMNZ+MBpod1uwM6beP3b7+D97SIsdwiOh4yxgLjPi4ZZBlp1HJgYQbBdwxvf/yZadhUjE8P4+Z/7DDwkmiyVeVOKH51GLORCqGOhXS2ibptwtTwYSgVw9Mwh2GE34jP3AcYoXJ0AJ6QV1t9DK1uDx1PB4tIGCmUXyqaNBgwMnTyHx88+igv/8g9xbXsDhUadtQkaILBhDG2I6n1ReJGlMu21X4BoED4IEPgx4A6Qdjns6XQYPPKUjwO70cS1xRVYbr8y5HHxaC8xWmzawyZB6vfcehAWjvu3mpTuAwo6fljAglSvQnXS1KcXiUEZl2tYLZ5nl9YCkT50v+Qwcmyah8/zuBvTvzTyqcRj2vpb+/ULXSw/RRvd6E1dRwLLPqxbESoyWm0SAhK0Ra8SmO1J5KP30VWsqyNR2muqRalbDKoaY8DcNymlx0UJIEj2gYwkUguBgAKFgglLIAFyJFYm9iAY9HHUuN9vMChgcBD0YWR4CIfnj2Df7EEkEykEgwNwucnvQ9FD3deh4Qu9aDGzksNB6J/+umzv73q/3/1VciU5+5P1C71pmb3w4IOAQ3XyOWiNwDj5nNy5dRPXr1/D0vJtZtCK9RbqVhsti7w+iD1TrqItel6oCCLgLH/G3gdKa8Dpu7T0lT8Hrw/aL7TngdoXRBekQ8C0oFAxAcwkaO5djtcfDRB223HLMtwjUuxvY/1nAQjynLp9Qew7OI9QOLZLg8CiRvq0bZjFAtZW7rIh2Uf1IQzC8AgDBN5X+scc1ebGpg0/4hXRAotEApg/fAChIKFjMXhgW9huwpoSC/UJp3RF090klRGJto5lRTZP8YjCtxXw4dHHfgoTdQOv3bqMB559Bs8/8wkR6dlVZN7+G6zdvY5LV7aRKTXR9gTAw+TeNjoeF+JGB/vG4mwl7HUMpmv2H5pFMkkjQ0HcXsvwVIJNC5nHbzrcT6RDoGaaGAjHsHh7CduFIsb370O+WEchZ6JYslFpN9DqWJgeDeBL/8Pn8MSJ+/HuH38dv/uHf4OS7VKhSqTYUwvTkHlm2lS4f+kx0GpazB4kUxGMTw7jt3/79zAYtOGuL6By432ExiPwhMMovbWC7712ExevriBXq0lsp9vAuUdOY188iQvv3EXi0CiCIT+DATmCaCRLXFaoD53N5tHukCbAgOG4ERiZh5nt4NXX/x6tYBymbxrx1AGEQ4PouDzwGi20qxsopRfhdjt45NH7cebMEWYO6rWaWngUuiOpdLwJqwpVqiQdzyqtBhbykbc4Ga1kqvj7r7+JO5UmmvR62YTGwGBiANVaBpZZxgNHH8SpfRN4/7Vv4c3Xvg2338G5hx/E4cOHUS9UeUQsdWwWIX8HIVcTtXwG/rAPjUwNM/NjGB+LohULIDl/Gi7SIJAXo1VFZvE9xL0D2Nq4jc10EfWGC+WWgborgBNPv4jZVBTf+eM/wlIui1qryYZObOpEQVY8tSLhLry/kZiPmAMSdtI4kvap3wsQ1CMgVbwCCizklWkd9v9goxQH9YaJ64srcLwSYsYOfIaaqydNARv90Nnu7aWd0hgeOe+p66gBB43qauDSBQiK+aD+emJoCD7yobCpapQpDTK/4eKNf00sCelXijAbJQH/xJbQtVATHBJg5YhuoZto2WdEo9gA8VvQrQgBNMI2KBpaAQpt+8sshG7Z6B51d3PfGy4lwKufaJdxalUXsghUrQq+VjK+KAZFYlZErQUGBX4BCuKwSgyBn0FCyO9DMCTgIBTy8Qj02PgEp+Tt238AfopNp+qQQYFyN9K7KIMXvaEqxoC/jiXZXQZh79GvmQB+X3QtmOKVtS1WVfQv6OBtotNp8p+5iK3oBYHfo7DrsYySkWHDKmWweecWfnjxEm6vbqDasFBvNVEncNwh35IG2sSaEYAkJs2mddFU4WWS7cD24wogSEqjqg/6ApukbaCErcpOmV8gf7EGiv0aBKVFYJT6TwEIAi57LEoPIHRB6U8KIGiFrrriH8Yg8Nsldtbjw+TMISQSZJikRiL5eVCjueSM2jCxdOcW6uQo+xF9/KMAQW7YhwEEuUlE/8/OTGJyIsUBIeICJdhVexlIvbK7hfCjAALPd6sRNwYIXi/Ck2N48f6H8fJrr2Ls4Dw+/6u/xvbNrk4L5sYlLL7+fVxf3sGt5Rw/jQEKKxmKYDwUwu1SFlPxMFJhLzz1JlpVC7VGBVMz4xgbT2FjM49MoY6G4ef+p3KK4ddPrmHttgTfvPf+FTYBOnb6FHKlIjZXs8jnTORME6bdxsH7x/A7X3wBp/ZP4n/5rf8Vf3V1DW07KN79tNtK9qzQqKRm98rIFPcrvR6MDA/DE/Pjt/7nf4anxg8AnQ3srFyB3Shh4uAIOuUq0j+8hUvX0nj36jIy5bLkGHgMPPr0eYz7o3j17dtIzo0hEgvDS/auqvlM440GfRou7KSzaDrCJrjhhT85h0BqGhf+/G+wE5tEdPIMAqEo7I7FG3ckGEao00Flaxml7BV84uNPYWIiAcsqo9WkzUjZX/GBp6JrSfehx4yIQWDNo0jTOPSFqm1iVtYr+No3L2C73kGdo3DFiY6mYfwBB1azguc+9jRmh1JopLfw0lf/FYrpJQyNDuLQ8XlEgjF4g16MHZlhEyZqMVRym4gPxVHeKOLE2Tm02xUMHT2IwORBdDDMz6Zd3oG5nUGjVsHmxl1Uqw5qZhsNI4BOeBDnnv40AmYRf/Znf4RSrcEeF12A0LRVhU2Vko6rFZpdDkfZ/ESDIVuUrn74CFAVLuNFBRK6qQlq5JGuKGU/0JgjfCQ6JVtxRYOTViBAYVnkJtjm8DA2V1Jz+zL+KAwcryMGhnKPeF0q5z8CrLbLYb8DinCmjb5OSZXsikeaAoNNn+i053z6ZgXNRhGOY/HfkWc4UcLknKdNo6gP3RM29pL85AzoCdIEIKh8AEUfd5kXeVR6I3BcgSoRmvJJ6LUYPggQNBDvHn+7xkjVyKIaISOHQR5TJAGoYg7o91QcsNDQ50WEXD1pEiEorYWBcBA+vxsDkQBOnjiB46dO81gytSBUpdVlaGQvpyuvgYJuLyiH2C4oYD6o52PQNaDpgwpctLXhckw4MJmCdrtotoimcggMUF3eADqWkoDS6/H3K8G6r6Yvp5O3u3oli6XLr+LyjdtYzpRQqjW7rEC9SdH1Ln4+GjVTRnqbkjbIQU6sN5BWQC/ZUSyWdZtJ2gy9ltO9AIIw6hJwpqcA5DkhlPqjAUKvRdBjZrSOQN8D/czc88BWbcC97YddOgPdslEL6UdpEPQZ3s9a7GqLqS+gb2V4PBib2Ieh1JQClNJqk+eGdw84dhPLd27x5JbW/PykcYIAhBHFINCPVYZG2niF3tBeoyS5/MpwpOMwej48dwDhMG1S8vUSS6sAgkqJlPGi3sPeBQh61Eg7Jaq8dfI/8DIwdiMUC+OTP/tZrL77HpayWTz7+V/Co2cegpvctRo7WHj1z7G1tIkL72VQtf3ww8KAYWLmzEGM2D68tnIb07EY3O0a4h4PKkWTafKxiTEWq62vZdGEF014WCAnON5g+thqUDRyEMVSGe9fu46x2X0YnZ6E2TRRrzSws1NGJldBtdbA/HPH8Js/+zxGPcAXv/Df4EbDB5ftlxAfRatxr556+xT6pBgFyg2gDSiWSOD5z34av/iFX0aSvByyV/HDS+9i7pGTGAk4aGfTKF1ZweVraVx8/y4ytSovTKK2n3zuKURqDi5dXcPw3DjCqZhiDuTQJjBAvWU6OGqVOvLlKvvDU8qiLzqFgX3HsXlpEZfSbQyefhDBoIGAtwXDIMoxAJflQm0zjfrWFXziE08gFKQNo8ybBF0x7liqzAxhEDTOEvJSH5bMznD6o839NGOzia///etYLlRB5JmfGAu3G6GIF+6gw23bT734LIsSXfUG3vsPX8PWwns4MDsBVzSIgViS2YKJw1PwejuwzSKMdg3hsB/tio0Hzp/AysYdHH78YXTio0AnyfR9Y/su2kVy0VxAvVZGpeLArAM1ulapcTzz7GewefEtfPX7X0fDspnu38UgKGvlft/5bgS0aieR94AURf09YjVep9sLqrLlY1wd6LrqT2eyWNnchOGTsUyqcNlBVOkQqFvGc/akrFfOe1wF89eQ17/4IhCbIOSETBQJGDGYWQvGwhgcHOJeKI2/kgseVf8iTDTgogXBB0ADjVYVdos8D9pwWi42cqJYcxJuss5GpfkxpiCh6y5RogAE0SGQo7ZYVHPl3AeymC0g4LPrcOnRycIm9NnkdsWOvaO4a9eudlD9vvm55CRFbZVscJKp9jGgIiBIjp4BP5ujEVsQCNBIYgDhgB/hSJBHbUdSQzh69CiOzh9j46J+p8ZuLCKBYuU10T2y6BDv0EHuVmyiajvQjsPMmwIRdIH0xts/rsrnRQ0dJwOAhMH0QVMQEbiMGLcF2zRN1jHZSt4FAggkFafpo+7OLaoHZhnaqFdrWFhYwJWr72F9fRmNdgeW40LdpBA2slVuMDizmpZkL1gktgYzaAyIWwISRIyo3RfVfqcEhyJSVO2sbltBPA2k1aCmUPhtS1ur3x9Bxl414yRtyr0thh5A6J0xuw9kAhlyFf4pAEGv23sBBD4XeYPb/Tq7+GHPetfgVkuWu99THf8EEIZHZzAyMsOGaPxd+wACgcKObWN96Q5K+Ww3/vojAQiJkZEOBWgwXdX/MP6In84Zb9xCAGZmpjAxMQo3HSS8+Qj12DVDUq0GBl171MX8yKqf2R9Mou1KGXJ4DZx85ByODY3jO29cQPz4SfxXn/91pEKUi1BGYel1rFx6E29evI3VXAt2JwoYJgaTwM9+6jw2r2zg3bvrGPR5EfSSEMyBbTpIJMQIZnklzSNXDsVKk7ugLe+DxvVarSYvimAwgoU7d7GVzePQ8WMIRWMwaeEQRW7ZqBWraDaqePIXnscDT5xB++oqvvK7/xO2mpQ/IA82q8TV3C9d68TwECucy+UyIuyZ7sPBc/fjv/v9f4Z9jhvb+VtYufQKjMQQHn/uERjWNuztFdQWM3j32jbeefc2ymYD4UgYW/kcnvzQHSX9AAAgAElEQVT487DXylhbz2Bwehj+sbiMGiq6n73b2Yfd4KyA9c1tuL0B/rUnNIChsVPoIILLd9bhPT4HbyiIGHlO+P2otm24qia2b91BEk2cOXsMHZisIRChjoBLAYAfnEunTVOHc7F7GmfLN7lbun51B+9dWcaqWYOFILyNCnwuC09++lGUVhbQ9kXx1KNPoFbJw6zmsHPjPQwEHNhbGbRcLjRdQCgawNTBKbhcLVRK2xiKBQDbQoJixcdHkOvUcOSRB9EJ0GYeRadlora+ijqxP7kNVOp11CuA3Qij5Hdw5LFncHBoBN/6iz/FnfQqqjTuZ1E4jYUWtxnaaKqQmq7wjgRdyulNA4P+KoJV1toDRGcwqIhhrbLvRgqrxtDdu8soVGvwUIAYVbDkq68qXzZNcpEvP6nnyaqXHELd3Lai9eNT4jpW1tOvVcuO2xcOMQcutrceSCa5YuODgLw5HfqUlkKnQyFbHbhaNXTsGgyXYhLMBhpmCw0K9SLDLZruaDbZTZSuAR8cbMxEIEFXjXIYyFnQY120GEyqTRV2RZs4gyyV9Net7uSKcqR2N+5XWAru4/cr1vvAgYiCNSigPVi8DggAsNbAS9eLRhGD6pNyDHwIB/2IEggNB7itMLtvFvefvh/7ZmbY7ljaaUqBpwJqaI33Kj9tGS2ATL6ewIFqCWgFdZdd0CChz7K+X41A7KNTh9NchdupAo6XR+XIzIqipWEMwTFG0SYdGIME+pk0OtmLrqZ77Oq0YRcLuHPzOq4v3sFGJs1FBrFHZtMGObDSvkf3lsaRm62mRNhTxgjtZU1LtaDILIyyFaitIJNcmkHoTquwf0EvqZGfAjW+KAWyuAP2NG+9v9dgsH8dacVjPxsl30C3sj4EIKif0w8Qdn1f/T36WALd2up/rLQgl54f2hsJOOn32nsNuwuC7ntjiUWfDTEBZWoTetxIDk9jbHQWBo203QMguNptrNOo407mowMIQcpi+HEAgho1Cfg9OHZ0HgMD1HMTLwCtWeh3YNTWzf3ioX78oYVC2tpUZ6K73G7EUmE8//yn8cPvfBt1XwAvfOnLeOzgCXgME+3KCm688Q949+I13FzdhEkJfTaJiZo4NJ/E5z/7LN7429dxZWUbg2ROQuFDQS+a5SLGp1KcQJjN1TlimaqWFiWaKYBA1RNTZ5xzDly/dQf1toOjp05S2QazLsiaCizbbsA96MdzZ0/i8ONnsfDNN/EH/9v/g5ztQ6tDNrUyny4bngN6X+SKRO0TonvjiTgefuoRfOEzn4MvW8C1xcsoFrIomFV85rOfxJFDw0BjHfbmEmprebz73gYus1mSicRQErlKCfc/9ggKVzfh6vjgBAyE9w3zz2CAwF4UnPogVLTXi431NG8u3PnwBhAbn0fMl8JW28BqvYbwwAAC4TA8Pi/segXW6gruvHMJT3/8WcQHQ3wYd6lTLbK6B0CQ5SoJg7oZKQxCizead95cQyEwgo4RQssIwikto1Jcwpf/4Fdx2HGwkq3D4w6jUsqiUk7DVcnDW95BIb3JVfJOuQJv0MC+uWl0nAbQriPsp/toYmpsmGlR91AE+x86C8cb4c3SLpXRyheR39xkZqhca7GxS6vpBqb24WPP/jQyV97Hd77zd8jWK6hRhWyR7qDFMdlUMTFA4MpXVUZEratDjqogtet1N78u3anaMFq02z/RIo6Kio7uANdv3kKbkg3Jmpc0KzrPhICfy0CIKHAy6WH7XgL4HRbOhYL056S6p08vAwkKASN3RrGPseHQiF5iDG0jBKtB7R7JeyDGjiWSeiTMInMwCxHy6kCbW26VWh2VuomK2USNJllowqPRRM1swjRl5E3WjcQD69FHuVZKa9AN6hHbZlbCqz/TAEC7PvaqOXqEpHWlas9uaJTenNU+rwpmee57AIxaLZSpQIJEN2sLCAiQ5iBI+oKgn2PoI5Ewi4fp1+TeeWB2FvefPMHiQy9Zm9s9dkAiiLXDHoVdaYDQDdpm0EyMqABoBWNUq1HviV0Aofx2NdjRz0eXfaV1Y63CbdfgcrTOgXAH218C3nF0PKSzIbU7XQb6ucRayM+2ayVkV5Zw9eZNbObzKFsN1BoWxznziC+DgxZMk2yzSWPjMDCmUUaJdVZZJKq9IIJEiXtm7wsVuNQT6gpT1I0U120mBRzp3OgXG9J9FN2CZo26V6w7ycAajL2jij8JgKAA6i4mQr0u0d5F0GzSNWvwvtptJ/T5K/SDH/o3XS2NelB5UsFlYHBoAhOTBzm0654AwWkjvbaCne1N5UD5k+YPgMCPAxC4Z6LYg5GRQcwdJH97CoeR/hE9p5od0ViuCxDuwSBoFoG9EFTV4yPBkGGgGfbhZ579FJpb63jz5g3MP/UovvjpX0HYTaFKGaSvvIRrb1/FK5dXUG430aJGt+NCKgw8/YkzePjhU/iHf/0SFtIFxH00iulFBCG0UMbY5Ah2skW0yETJkSQ5zjzngkD6miTWIgRdypVx4+4yYmOj2Hd4DnXLYnStRVlNt4Uj9x/COAn4XvwY/uGPv41//sffQN6xOelRqiipdJiOpLEyUgt73Dh27BjbUs8ODmFt4Q4KzTpmxkdRruWw74lT+OLPfBwxdw12bRlIb6C+VcWlS8u4dn0VuXoD0WSUBV/j84dRur6D1OAoylYd3vEoAhEfU3a8ObEuRPo9lPSYz5ZRrZt8uDRtF6KzB5DyDqNEEx2Lt/Dm976Fwf2TiI8MIRUdQsgTg88fQTQZA9w2Oi62PhIh1D8CEJhc6HNN47ZEx4GvauGl1TIQOYJ6i+yR6/BaDTiVIlytRTzx9AOYmDkKp15Go1RAo56DU86hfucG/CE32qaF7TJlPTRxeH4/R6MOhIiqbyAQ9iASCqHdbCE6NYLh+45yvCplSTR2cnBV28hu3kG5SnbUDgMEsjo98FOfwVgoide+9he4sbaActNCgzQkLTJGUkCBxi/ZJU7oeHEWVJR6n9J6L6WoK0sdpKMPLv4/VX1KNEetH3KTvHN3WaX1ieGVTgGkQ4oO/sHBGLMGZNLj8xIebCEeDiA+EGLfCmotsJup4cBLEeb0GJD5lLcNz2AYFhIo1gwEfQMIhcIsVBwbG1eJf0RSt9GsF9Gpl+EQg1PKo14t8XhwoWahUG3wJ4eWVRt8uLDnh2l122oS1gPWJciYKx2iAqykmpIDn6pQ+jNuPfAa1NMLml4WYHEvgKBmI7tVKAlFtVU7T0IpgwnOPvDKVAJPIgQCzCCEQyGEwyGEQ36Ewj7EYgGEQkHMTu3DIw+fx/79++APhKRKpYqaqHbHEidNYghZs0F6EF0h0mgvgWKZMqH1LlkOKsmWOwr0HwnV0sStboUQG6TTI7WmUf5OJqkccxNOPQ+PLc6w/EEbsK+DDrUug9OAJ6pOEDKJo4B0F+qVMt6/+ArSmQ12gS2aFmq1OgMCYpAapsl7HzFkFLvNbSMKXlIxzgT62POARayUACmiRGaKyCxOO4ZqNqjPOEuzBtoEiZkWpTn4IIPQp1XpFxLqw/mjAAjq6vUyQDTm77EDdE+Hh4awmd5Ci5J1qXtMBeM/ESCoRgmvgdjgGCZn5rgY4Ad9jwaB9s/sxhrSG+tok635Tx4f/LgAQU8oOJibm8VwKsEbkR5r5GdV93r69DWa5rvX+2JwQCMLXvn0Gwb8LjeGjx3Ex88+jpe+9neoJ4L44le+ghOzR+Bqt9Aq3cSVl/4W717Zwa1MGmQqQRsDUT8zKS9e+IUHMRUewnf/zavINRw4FI8cCsLI5zE6HmdKtlypq9hfg5kAAgQiUpTE3CYdvQ0b6cUtrOULOHL+ARg+HwvWKGSIaFQ66D1+Gw88cBS2VcSLzz+Hv/i//gp/8t13kSkUOOxJMaQKFSukSRuI8nrnwBY2W3EjHg4hORDC4eNz+MVf/wLmpqNoWVfQrG8jXDVQvrODy+8u4+bNLaQtCyPTKbjI6tkdgGGHMTtzGNmdDBoBG7HBCFoGpWpKP1oeOpqlD6FptbG9sc3GL2SMNDQyjoHwICyqMLlCIh8EGfuiHrdh+KRC8XjheIjW1IJCGs1y37PFoDR4fMs16pfKgJiXNpxKE29sFxCfOIWO7Ue9XETHtNCxqlhb+iF++sWnkKKMjFYbTrUKgw6q7btYu3kVUwdmOIgqWyoCQRvzB6bZUTEcJgTewPDIICyzgUq5irmH7kdkYhzwBFhLYOXyMMt1zl2oVlsomh10IoM4dOIRjIxOYeGtS3jjwndRtWqotSw0qRpWmyWN/0lSnZr/VrQqHeD8PHAJ1GcJqzcatSakCSNaAAEGsrdL+0elNLoMLC2v8PPp8fkkElyp62nqxecLIRIMIR4LIuR3I+AluhyIBL0Y8AUQj4SZPZDJBwN+DwkYxe2UKNHAQBJNXxxVqwVfOI7JmcMYHZ9AJDLAjoGyNymr2o4tznW2jcrWKnIbt7C9chvlUhmFsoVc1USubKJQMVGsN1Gr12HWScxIGhMSsNFcvFDMGlCzX5aaYiAzJwIMctBI+6B/JHK3056sza7AkfULYsvM54jqCcuBKdMMXcEzsXVug6eHCBgQAKCgM2ozhEOSjhgJ+5BMhDE5PYpjR0/g1P0PIxSK8sFaKdeQyebFC4OdNMmPQjxaOImRAJ4a2aYLSCQhscWkdyDwJ/9XS1D/XnXl5N+JNkLMm1TCvfozHoVTzwZNHnlaDZi5HfgcsnhXGh96iLwutH1+uONDcIcSADEMpA9y+eAYwPbSXVy98j6yDRM100alZqJKgI4MyYglMC0GNMQCEVNEAmgOJGNvg56/Afl/0N9xK0q1k7jK1jbj/OfCAvCoI4tOtRW3DqlTdsqyO+xpMXy0AKH/TPoAW9Dn9LkLyAg3iJnpKVTrNWzmMvAILuRneJdVuAI5tL772RJ6zglE0tkVjqUwuX+eQ5u4RbkHIBhOG7ntDWyurfC11UfrTxIo/JgMgigZg343Thw/xKONHFtKnwoR6hdPBzZR98wsqD7gXoCgN0U2fPF5OGSPhESUfvbcCx9H/vJtLBRzOPzgaXzh87+MqCcAV7OEzPXv463vv4p3FnZQ74h9LIWkBIItzB1O4Wd//im0Fov4zldfhe2PotyhmzCAZm4bR/ZNI1vMM/LlqYKOBgiK1lIUKx2TdsXCwnt3UHYbOPX4edQota7dZlpOe2V7/S2cOXIQNU8Vn3nqY/izP/xbvLyQwU4uj9WNNC84DunxkN2qT/Wt2gIQ6Lq4XVzREP05MZLCwf3T+PKXfg3zB/djZ/Mq0tkfYn5uHIFaB+vvLODOwhZu385g22wiMR5HzOvD8noaqeQs5g4eZ9fHUr2A2HgUNsimV0a3XFSZsGo7zCELq4vLrEGg6ieeGuaHlH7vNG2J8aUpCLovrJ73oUOjBUxj+rhNIoeJSDp7GgS5+13qnMGwnkkW8ZWo19uwKw3cvLaIyIPnkExMwSw2UC2VkM9sIxps4fR9sxRIgHazCbIbDTVNZBeuwI829/82SLRZLcIbBSZHE3xQGl6HD046GIn27hhu7D9/BoF4FGh2UN/MMlNQLlWQzuZR7ZA1bhLzx88iHB/CjSvv45UffB9mvYqG1WAlt865b5IWgaontQHqoCbtENjNW9gzo62feToM+1k1lqQR5c0Vr548cLHeYWl5mSclvAG/OANSwI+fVPRBhAIRJCIhpAZDGCBzKD8QonG80AAi0SQn/4WCAW5LSByxC81WjSt/Gv21W9RvH8XI+ARGJibhjkTY4EoCaPSsg+oXamdCWivE/FhVtLeXsXX3XWytrSFfqiBbrmMtW+HMiEK1irpZR73WYMaFmDZSvNPop2gblDita6BEB5iOBRY3RYanSugpDnkaNMiV1C0I2W60wI2AqjqM+ISVw5mur0wK+ZiBIQEitQ/IHC1CGoxIhKcUYtEBpAaTeOihczh79gz8/gjqdRdWVtewtrnB9ttUXZOZjZcOYbZWFtEorVsGJOwAK3u7kpeISZjh7IqFFjGqrAtxje0DMwo0sN08NQhYriAj38TU+siltNaAVcjDywbmtI8oxsTrQoOyOsZG4A0PsIaEvf1dXrQNG82dDF5+7W1kbKBcqqNcqaFWrwozxtoaaaPxPSNAwDqbNjMMPUBM+iFh1PR0lqbNNTBmNoh1BzraXrUMtChRZXYIGy2apa4lN2sUtPdBr83Qbc5oJkpV2T3two+vQfiRAEFXd+qL+jUEHJxlAMeOHsG1G9f5mvXA6ge1EHsBgn52id0JxJKYPHCER2QNxbxwa1ZNMRhkH7+9hfXVJW7B6I//IgECbSTxaAgnjx3g3idXKnSliM4mUZO+mP8EgKDDmkiNLWjcBVfAi+mjc3jgwGG89dIFOMlB/MJvfhlzkzMItl1o5+7g3e/+OV574zbWqRXuavNijUbCiA5UcfbZk3jg+Bwu/vlrWFvcRs3tR9ufgM/jwkDQhRgdEPWahNXw0ykAgSoYVlarQCra0MvbBSzc3YSdjOPQsWOwmkK9kSc/G8Sgg0DcjWPDKWDKj+eOnsK/+aO/w/s5m4OH0jtFbG5ssce/PxBFNBpHLp+TBD1FhdJCIitp2syGR4YwPJrEI6dPIkDujHYFJ84k8dDZOSBbxOJbV7C+msfC7W3sNGwMTiThbtlYXNnEYGISp06dYxqykN+BZyyIgIeozw73Tmkk2099JZefF2Z2ewfp7Qy/72AkjuHx/Xwt3CYlYpJmguKe3dzAZurL50OHwIHfD8NL4UF04EmanJLJdx9csZPW0d4dFnzSpuEPeMV5r+Og1bGxs7LOeo5OagSB6Axq5SrsZhP3HRhDyEPJiTVSD7I7IgkYM7cWMJKIs4vh8sYqSvUSosN+jI/EEPAaCEX88FJwZqtF0Aj+gQFMPXwW/nAIzlYOVr6COk1PeP0wAmE0k9MIumMobhWxtHAVt5YWkTerTKXS3k6bJwn26LBu8dy3mMHQgUebBesQVB4DPze8DHabuHQvClGQfQY+HH2uRg55Hl/FOZcKZayurzNr4A8G+OAh1oCo8EjQj6HEAFLJAQzGAgiHfQiGQ4hGkkiNTCE1No5wNKoswsWpjZ7RRtNk0EMGNyRua7fosAwiQtM9/oCeTeorfOju9eJlHRdtfg4MeiZpo69nkLt7C6s33kduJ4tMsc7pfZm6hUrDQokOn6qJFk050ASIAlo6uEoL2ugZoyeNAQRPPrBmu3tI9F9L1XZWz49UcLLJCuMh2EbAqkGhSF4Rb9IhHg4HWGMQCtH/fXwt49EBxAZCGBtJ4ej8EZw79yQSsWHkCxWsr21jc6uIStNCm5YApS4aHgT8IZUVo6aDiD0lmExCD9Uu0CZYvMHzImBpoDBBapKk1zpgqVCPSVIGcfR1BHD479jXgsCEw86m9WwW7kYDHuXLLyyfCLpdkRACyTg6Xg+3PNiThmkrB95aBd957SLW2wZq5QaqVZNdWOv1BrdNCCBQq4FDlnh8kT7leedIc2LNaMSRgQP9Xo0r91XZGiz3Rhxlj+T72J1aIBdVGVtVdm5dBkHwnhI1dqdVetN08jyInkuapur+K7D44SmLvUNVTzHsLVY/yBD01rIiDHZNJElB4OD44cMwC3nc2VwHJcUYH8ogSPdAaxW440vfg/ap6CAmDhzh54s8UNTBpCYDaSiAAMIm1teWeQJMA4P/4gACh412gJnJERyYHYOH8xKEHiVwsDubvicw6fdB6I6J9Pmma4Dgd7sRjEbwi7/2K3jlm9/A3WYNj51/Gj/92Z9HsOMg1Kxj5/o3cek7L+PGegFp2rfcNI4Uwuh4APP74rj/6ePw71h4+d/+AGYHKLRtplUdq4Xx8RFUc1mZKOKHSuSVMmqlAmbUzK7b7iC3nMGNjTSCcwcwOT7JhkZEMzZaFvdLaSEM708g2TEwcm4KDyYn8Bf/3/dwOWNyHkU6W+RJhdW1NbRaMmrYocWswAUtbroePNZJkxaRAAYHBzAyFMNgJIjxVISnMQ7ORmEuLWH9+l2srOZw9coKmkYAseEottY34Hj8MBDG2bOPwUsHXyGHpr+FyFCUhTR+P41V0kg9VT9+zkwgJ8Q7txc5wMnwhDG67wh88CHQaHLbgsKq6AAjBqFD8bck0AoG0PH64aJPLm/oQ9TcRKWK1oEOQj3HIguzXqeURAvxWEzpMSjAqc2ubV6apTctfO/CmwiNHcLphx/DkMsU45e2BXfbRIj8LjKbqGXSGIxG0LZauLu6hrJZQHI8jOnJJPxeA+GgF6ZZ5/E/MreOJJKYfvAs/8zW+jaaNYutpokO36k0sW170DIdtKgqa1RgUfIkaQ5o4ap5b8pe0OZBPMqnxlYFICjlPd1PVYD3bwAf3ISU06jCVOz/T5S0igCnMcXNzS3kCgW4SGToI8BDvfEoq+pjYR9SQyGMjMTYdpqYn8PzJzA9OydKdjIn4ENJhXXx/kkAmGVwKllVxukK2zvMhkRjg5wNwAKp/r6QnLzMdPH4HK0UduijzZka701kNzeRu/hdZNbXkM6XsU7TLg0bedIlFGuwKjV+zoiybtJ1Y2tmrUFQulV61Ypd4OvpUhbQNPWvWAHtta+rVOWnI7Q2v0fl2kr7ELVVApSVQGmKZHbkQ3iAWglBhMIBRMJ+NjqaGB/ByNAEPvnCz2FibB7VchU3by1iZX0bjaaDjkFg2MtCXWJvxA5bWw+J7kpaRSRC1OPfSlug+qzdEDq9Uvi+SDuCV44SpurvrTUTvIZ0i4Rbp/SMdOBtO6hn0jAaNT5IhLVQ5k4EDoYSaBNQgItFwHRl3H5i/joI1Zt47dWLuGUA1XITlSoxPVW2TWe2xzS7CYwEAliIy1ob1WJgcbHDI46suVFag34Qx2tCOSnqClkOfBJzKlVOX16HbkdrJqDXjlDgTxVsvLRI4M0MksqJ6WMeNFDoBwj9a0+LGveuR31gf/DPxQK/v+XQBRBdDTIBhA588Tg+/+ln8Nf/779FgUBZ/+RJ/2tUrYbudARLSGl6zoF/QAGEQIgnh3TPjFtOVECSBiG9iY21FdZ//CSBgb4WP1aLgW4RtQOOzh/AcCLC4icW3LB74gcBQv+F1yONHwAIBvVIyT5W5rnnzp7CyeEJvPn6K6jHw/jCb/4uTuw/BnenBldxDbdf+TqWby/BdhlIl6qoWFQ1uDEy4cETT53C+OwQFl6+hqtv3EabJg5o3jsygI5lIxoZQMOscWWhx6OIPZB7Rwe3Gq0itNCwsXlrHQvZAibOnUU0NMCHHLEBLL7iSqeN/fOjcCp1HH7qMKaaBv7yqxewZLphtFswrTarXHOFEtLpAlOv0poQkxt9TWiToU2IfCXiiQiGUjHEYj5MjUfwlV/9JGJBE/XFZWzd2sDCwibu3M3AdvngDXlRq9cQGUwhky5jbOwAZg4dhbdeQ8HKITISYyU/UavS8ybK1cfAiExitrfTSG+lYTUNjB08iVgoDn+zyUrZrrUpb2oeuKnRHQwAPvr0c+tCTdgLiWBIP/heAIGNkRyhWlnlT0IbyvBwbLicNgzqV3cc1IwAQvEkglx1ibjR7VjwNU2k79xAPEj20A6Chhd3V9axkdvGvrlRTE3EuRZt2xb/DDokmh0gOjyMiVOnYZMeJJtFuUK6BBMVq4Niw0GhIeJDolWpJUHKezrIyGOeKiqqmAgcdAVptPHyRikhMl2jpL4wl96mc+9lrIW8TCMzcyAbBbFg9KYX7yyi2baZVaKJk4FwFJHwAGLRIFKpCLt/kofHvn0HsP/QHFuFdx2XePPUP1eBNO7R070iRbtqcivTE9rss5k8h+6EIwOIJqLcl6frp5Xv9ALV8uirbOhei7CwuXoNy++9hczaCtLVCtbLJjI1G6WSiWqxCrNWR51suRuNHrhixo5WkGh0WAnv0LVW2Q6qitQAQXrc8or6Ex27BwsxVopBoPYTgQMtRgyFQ4hE/IjGBjAwEEIsHsbk+DjOP/wYTh4/B6vhweryDpZX11A1G9yC8vgDfP1JWaitmWXZajsjNbWl1jKbxCl2SNI05VL1/kzWfJdBYkAh65EcMUXoLdMZolFRZnE07aTaEHRHfB0HjVwGaFRUpUmAyA0vTV0MxmEEfNwKsitVtC2LD7lAOAhjMIig7cK7b17GVbuBUqGBUqmORr2Gep2mUESHQIc7PROiP1BWyl39AfkdyMQC7ZOsG2HLTJWToNpGfM+U/TZdA2k1yJ/pQ1YOdGEBugcv/0J9vZp4ERWwbskLW+AwxyQfPWAhf/fhAOHea7FfE7AbUNwbIMgPlcJXBIwutAzg/NMPwl7dxMXrt+F003r1+KX8o+5r7QNIPwogiN8Qy3hBLQYCCOukQfjPARBENSsUGNPfH/JB2zZZH9937DCSYR98fH9FZc2K+T3o6R8FCNTHJlROwUpk6jIYx4uffAEr/+FlFJt1TJ1/AJ/7wq9jyJ+AYRfQvP0Kvvetl1FslDDgNRDwe9Fo+1CumwjGLZx/7jSGI2H84K8vopRrod6qIzCShEO5A3R4EWPAB7O601QLKZGTTDCIcIQezEbZxMqNNWzZbex/6BwLyRqWyb1pFk+JYz5OzE9wG+HhTz2A+E4V/+4bb2Hb9qFD0cAdl8Tmkt+A14dLly6jViNNgnbX61GP5IOvAUIqFUUs7sf5hw/gcz8tPgjW4gbWr23iypUlFKptmB2aZwebu7h9AWSzVVSqNs48+CSSfh8y5S0Eh8I8phQMBRTNKYl19NiR7iGfL6BSLGN7p4zo6CFMjk/Dq5C69LqUToLuLLcZiJoPosP2vlqDINeSAQIf6qK4lg81EqbGmwgNkwiHqWrq2ZHQikyQDIe0jhJ5ynP9Hm5jEMXqbttApYjc8i2kkl64XQ1EPUHcWFjBna11PHz+PgSD1Oe0mf7lKQGK93YcJGamMXrfGZibGyhvbaFYs1GstlBrAkXTRrXegNVsydw3uWY61CuEfjwAACAASURBVA8XUEDhM7QU6DoQQJAKaDdAIMWyPAtCjXY/FJV4r2XUNcflPrMWqAkVXiqVkNnZEX0Hg4MwO4YmomEMpaKIDvoxMjmLM2fOY3KKvB/c4mOrkjNlrly9DlLJKevrrglP974oVzSm0rxo1Oq4tXCbrb9nZmbYZpgACzuayIiS+uQtnw8eqdup/Ldgrt/BxuUL2FhfwXalhs2ShWy5iUJBKtSa2UDNrKtDiBwn9Xy80TVPovRI6uPqFpQIFoWKlo1cC997m608cNL4J7DlpZRFj5ef91AoxOuJBInhCK2tEEaHUzhy9CCefOJ5xKJTSG9Vcf3GXeSLNeb6qQ1BmiBBpwSodh0bYvqlqCL2pOiCMQ0KZCpBOq4ypcFNCG2rrXoL8ns9gtzhUVQBH7o8FRKIjbAEKQsG7Djwti3Y1QJaysQoGInAF4vARU6Q9DW1OpxiCR52LnXg9RmwRwb4W6zdWsHFcgG1UhPFch1WtYYqAbgaZaqQ14fYifOUggII3F5gZkCYA9IfMAuk/lx7Eoi4W0Cjumk9wak2RJITvrtWuC8vJ70+e3eFeinXJKXZk+/LgGMPQNB36SMBCH0/W9yc26gFPfjSJ57HX/3111Anl1HFtGtKTq5RDyDpNsdegBAMhJiJF/CkpgMVQNghgLC+wu3Tj+JjF4NAAIGoOLphVHHe64NuCvdLgj6cODqHwZBXeXQpXrJvJOVe/16jaV7TaqFwtWcYaJMYLujD8QfO4nAwhnffegOuwRh++bd/B0dnjlALDa7qXSy98jV866WLaHhbmBtNwN0yOUshEo3C8FqYffwoIlUvXvrGD+GYbQykgugEvEyhN+siwqFePwVh9FLUpE+v93dulbQd5HeKWFxYQzuexL7Tp3mDsyyTRYZENZO40fDaeGBuGtdvLuLpzz0E/1oRf/W9Kyg4brTaBBAgVF2LGm5ulEtVLC2to1I1WRzI42u8EVP2AzEIYcRjYQwND2AoFcKv/eozuO9IHG6zAOtWGtdeu4bVzRKqLRcqTRsD0Rgcw82jNVazg83NLGKJCZw5dhyVRgmWy+LNnjY9WYwueOn3HRcLnoh9oL5/ud5E3Qli/shJFmB1mNBU1ZI6cGnXM6iqIktZmoxgnYEulWSD+zCAwLuCsiCmw4wYA6NFWgdbABnTDqT2pupNfoaXqjj2cmgA6U3UMxuIDnUwNhVFK13DxXfu4mpmA0997Cy8hsn/niY2qO/q6xiwXR1E988ieeQszPUVZJaXka05KNQEIJTrtsTVksmPJU5xrMpWvXBxiJO9i0e71MIVn3lhEDgWXOWWdDeA7m71wVVAb1M754s3hRxsmkLd2k6z+t/t93MEeSwcRoKq3oQfyZEIpidncPbhZ5FIjrC7GoM9h1o05LBHG4cYffFoHwF+amF4fKJ2Yz2CADd67qj/y6+m4+ERIHr/q6sr2Mns4OChQ0gmh6SK7rpiapCglPNqm+bCvW3CXF/C6nsEEhaRqZjI5JvIFmnKoYJizeJME2LTqKXFHgl6ckFZKdP646pV95PV2KP2TpBJBXW91cHCQjGVxkj7F33SpAKNLdLoZozC2EI+xBNezEwewDNPv4CZ2UPI5RtYXSshnS2xQRo91zpNswt89hC5QpALQKD9g8e3eZxRAJS0UVV3R1EIfG10ABOzreoaKvE2vSc96ijayl5uBP+eP+meKoaC2aY2vOQiS3oSZgQp7VZalwG6PtUamsU8GN4ZYHtoe8BPeeEorqbxxvISWi0yaaujVKvypA+PO9KEBgkVVSojaa1YiKvaBl2nRJ72EmBM60LdFgXiNC2vchT0+tA+KN17qMTLfbBTHkwFuDXA7uvHK/9t5Scha0sDyP/UAIFfitLg7FrFXbCq9S/iyEGeOi985ll4lrbwjYvvqVwjerPijCjTOCq9s59BIOM6yv2JJlmDoEWK3RaDAoXU0suRBuEjBwijo+ykSBUbUXP8UFBl9yEfRKwFB4I4eWwOCT8lAgpK3jWq8iH/th8g6Mx2UpvTU2xT/ziZwC999nN462t/hx27hiOPPY5f/6UvIkiWoU4djeXX8PU//RPcTlfhi7hwaDSBiJsCYxoIUH8xGsHkkTnceGcN25kMYiEfDh4eY3FRrerG8mpGais3KafpV9KV7d5AWw5EooCNloPNtS2sbuYQmp5FanY/yo0qrJYo2+0WPSBeBEI27psYwcLyJp781Em07uzg228uo+y0YXVsNFmnQP1sep1EzbkYHKysbrI9swM3P+TU56c2QCQSRCwawvDwAOYOTeC3fuOnkYiU4G1YKF5ewY23byJfb2On2oLVBuKJBPfUO24Pf69ioYbtdB4HpvdjcmYKDdtEMOxjUaXHT60FEkRSrr2b0xADPh8Wbt5COBrHTqGOqUNHEYkOd81VeJxR7XrSonDzz9rbXuDqRmOFDzAI9NTISSvz7dRSaMNjN9FptVj0JlWXMFheGuULBbgapLZ4wl9H/fZNuGEhdSiJamEFPiuEN75/E+to4Pyjx+BFnTURVEHQgR0lpaLLg+DBAxiYvR/m8gJWbt3GTq2NAoGhJlCp2TBJvd0SgGCTCQ1H10oPnMfzFHDs9lXV4SX0KlW7uubTAJP6krIA9vYvGQOp50vEaloXIPQzJWOmdzI82ugPhzExOolowIMEBU2NxDA1M4EHzjyFRGpGpkHaNmr5ArMOLdtiippwAIV/kUKfLFxpXbLa3u+Di36vgAKL+brWvjIOJ0Y3BjZWV7G6uo7RsVGkhkdAFD3lhsgN1uCgPwhHMRYOUF+5jsWrr2JrYwn5nI31TAnpch07FZPBGI3UcUunJcmYxNbweChrOWiakgRYqtWnjHeozysMgkIqytdAlZXdSPhgkMYWyS45hGiU2glRxBNRbs2cvv8IPvbEi3B7h3B3MY2NrQIqDZv1BSQGpaAxfc/cfZHB/VsZHQTCYWhdZF+DTY+uK+DQdabtaugkh4QBAjMFyoWRyQqBjNJv7s3As2Oti9gF9W/ZX01YB1kv8vd6KoKBIaXoEuPWoudBdAxUXfG5TGu5auP7r7yCRjgokzxl0kjVpMVgWqqYkcAlPguUGFdMk4Sd4nvEQy0i1NVnv1wXAUBSMWs2QREEfYmJ2nqd14pOPe0ChB5bJWtIV97y/56+SflO9HUP/lMxCP8YQGAWgwodNQlneQwMjA3i9372Z/Cv/vjPkC3VuJi2mX3r8/TQv1bAh9hOehpoioEAgpfE0/1TDLyXSIuBAAJpEKjF8FF8MIMwODraIREdjUTRB/XY925suxeJgXA8jBNHDyHmdTEd7fAoze7QFLVF7nofvX6cdjcjgTw99Qbafg/uO3kMY/EY3n3zHSAaxRe+/Bt46MQD8JBIoLmJjTf+HjfvLAGJOEaTYQyH3XBbFdTrOUSiEb7QxRJw4dJtGJ4m7js3j5nUAEJmG1fe3cLKTpXVvTT6pqF+d25Vi2FogTmA22xheWkNG5kSJu4/DX80imKzhqaaYqCNtNPxIxhpYX8yhpXNHJ58/igaizt46eIm6o6NhuGw4I1zHUgF36BrSwvCzSZFtAmXqyZvjDx+6CcXtyDisRCHIf3SL3wazzx2EG57lSnD5deuo5iuIVO1sZ4vw/D54fP6kS+V4fb5Ga1SsNROpohSqYJEbBAD8QgmZkc5kY0U61wREFtB1RZbsbqQzWaxs5lGfHQCrlAMY9OH4aaQFxq94ypUFiVv3Oog5wNFS7HVXe7e33sCBO7fyCdpDkhbYLdAFqK0yejgImIMSH3uC9InReq6MRY0UVq4jsTcGEpWAfGoD6X1Ki584120UwGcPDVLJLnkRio72HjSh7btQ+LIWXgikygv3cTdGzexU3VQbjVRrbdRNR00WpRpTw6JKpyGxrf4eyjmvpsToHUH4pMu7n+SQyEf2n2wzwNhFz2tWGLar1XvVR0LCoABmZ0sKtUKH3CUy5GIRzE4IBMa49MzOPfQsxieOMCtK7NWQz6fQ6VU6XUUqEVDlueGwwdlgMODOjzi6vN7mA1gRoBGVElwyomDdEN1BoDyGXCAfK6AxcUl3u6npmcQi8eYqme5Efv872k56IPB7qCweQXLly8gu5rD+k4R6zThoFoNRGWz+xxdd0oIpH6547Dmgq4haT6kvysTRVrwyfdDM5Q8GuxWTqQ04eFFkN6vckIkIeJANMJOdwf2H8TTTz+HfbOHkM/XcWcpw8FcbepnEfPgoWJh941igMB/psAARxWLcrzfzpkqdj6wuk+A8uhnxk0xdt0DTjT3AhDkkNc2wxJwJs0I/TNlbQlwZvZA/RwuxVRmh8Fz5crGnOAeMxDyf0n6lHwETY1Se8Jo2Vh69W0sehso0pRVsYRqRZgdGo8mgMwaBNYdEIPQczUktoDvvkPAWOKb5e8F0PFRpiplHbDUZZ/o3Ws9Qd/Ug24x6HurJx50y6Eb+CZlHD+vyqmjC+h2n1f6buw+Qnd9jcZg6n52n6s9p+49GYQ+dqsbNkYuvHRjfC7Mn5lHotDA1auLaJJJHoEzNZqpQVO/SJFKVLqq0cFRjM3Owevx8f4gDWzdthKAkN5cx+b6ihLm9qGinxBaYICQHB3tkFkG+0pTFfUj2ANBVS5Eh6I4eeQQV+8ennfV8b57X2nvTextL8gCIl8kDxzCCLEoPvPxZ3DxwveRKZsYP34SX/nN38NwJAFf20Rz53388OtfZ9OjTjSAcMdG1G0j4nUQG3QhOTwE6sVdvLCI9zZ3EEm58dzPPYNIuwlrZQdvfu86im03j+nxhqhOJK6aFOXjIqDT6cBDXvWlGlaW1pAuNzB3/jxahoGSVUOzZakZber9+hCOOpiIhbGynsUjHzsE624WL1/ZgeMx0DSAIqmNXW7YlADIQSd0UEq4UbVWw+raBo8ZUQXj9wUQGoggOhDCC594DF/8tc9i0FNELbuIG2++hWCZolYNbJVsrO6UEYxH4W27sLGzA28whLZN+pEOCvkactmCPGweYHJmEuFkHOFYlAWmJLIjvYOH9CZNMlly4+6NW6g0WkhNzGB6/hRCwRg7TNLr0kYuREszU6C85CXSWURDTM+q3YCFd9SioF1eZZqzSpsPRqJoSYfQ5kqH8+e5mhUAwSP/HhfbBdM4WmIoDGP5PbSoXRL3wJMIYSgewcbVDbzyjXcwed8sDhxMAjal28nltR0bw9NxNJ0AEgfOo9MOobJ6C7evL2CnbKPQIuc/yhJwmFkh9oAEWtR+4v20T5PCBj9qxKvr7sftKT2rr0fXlKW2Wtz9PXutNNelllwHDuRVUwXkU9DE2uoaH+DRaBSDQ0nEon5MjsUwNpzAfSceweGjj/H9zWW3eDKGaGF6IZTUyd+JVe9tZhK8BLTI94LzGmhCxuBqmQSqVDH7KKmNxKYMlnXPVMTGwgYavB9cuXqdaf/h1AgGE0mEI374/Nr9jy44lb3CKtAEhYUA3K0cMjdfw+r7N7G1ncdqsYa1fBmlQhX1Coni6jBtuv4yWtfqqMAfBmXSf+XDmFOzFWVN90G1s1ifweZRJOyVvBDyfYhEyM+A2o1BFiSeOH4Kjz32DAbCKWysF7CVraBcacJx+ZX4UFXYe4EcPbZ9rq+8oXcBQl/po8ca+wyaNDDoAgS2Ge87kfQUBGu2JAa955nQeyESSS3VowYPWvIg2gWawRc2gr0Q6DngPBzd5hBmgZefzj5QMevWpZt4s7yCqtNCOq8YBLPBYkVq/4gGQQEE1WOjpdw1P+pI660HEHrGQPrwk8Nc52SoZqXOoBIV764GThcYdJk3BTikolIXXY5Nbsj1TQTsPnXuBRAE8OuP3QGE4ux5rw9hjPRHP03RG39kexAFMOn7RmJBzB2exeqNNWSLZMQn91gmOVSbQceXK+6d4F88NY6x6YMcoPdhAGF7fRWb66sfXZqjBgi1RoM93WkGtl+gqEdQ+i8euT4lUgmcnD+AkJvsNelB0LKr7i3QJNw9L7xePCRKpBGdtqeDY4+cx1l3BN969wdwXEF85iu/jUfPPY4gPRLNLbz+ja/itZcv8Lw004GtFiIOOS46SIy6MT07g6GhIdxcWELOamL+9DweOH8/PE0byxfv4tI712BTr46MRgSCq42QNkPdN6PSkCi6DlrFGpYX17DVbuG+R86jYdow26LyFfU6/TsfIlEHIyEyKsrh5NkRuNJ1vLZQomEzWEYHtVaTK0LLNFGp1rTWSKFfF+oNC+sbW/xaiHINhAfw4LOP4r//8q9gJNjCjctv4Y1XLiEVdnA65UKl5mCj0MFGrsojjN4WsJLehtsfpKkzMrzD9tYOSsUqvBTkQ9ViwIt984fgDZKNbJTnmol2pntOVrG0gZCrYGYrC6PjQWR8DPOnz7NfAhutaP0CHfzUEmIFFoEAD1zktNdpgIK1aPSQlhFt4Dy+R5Q/j8hJ+AzP+bNwSnZ/t9OGh30AFHXIEzJkKdzhvinPqg+6sXHxZTiGg3bYy9bSgyE3br19B++8egWPPHUGA4NkndTgSpD70T4PhqaSaHSCiIyeg0Xz3mt3cevqGtI03VE3OWSrYdtsm00AgWyCO2wBvRsgdPMBVCVFsytaxcyBRqq3wiCnrz/Z/+DLwa1U9izklcqAZ0A4gMfB1tYWH5wUAjQ0NIhEYhCp4TDGRkM4MHsQDz/yaRiuEHI7OeTyGRb9EXMn/gk9LYjo6+j7O2oEWQMECSUijQb36v1+eGgqhc2vKOhHsWq8lukeC6tAFf/i3bvI7ZQQjyeRSIQRj4cRGRhgar97XHaIHat3MzroWt555w2sXr+GjWIV65kycvkKisUaSpUKAzKrRdMj1CqzYZNxFutR6PXT2HF/wI9syOxyym6DBrc8vAFhDcgZMRIKIxqLIB4PITkUx8PnHsXDDz2FXNaFra0cCsUyWhRfTd171g4osMvTGnuqTa1Q7zvCuMrsV913mTTRU9HUD33IxIM8h1IU9TMt9LUkWBQWgae+uuBq994p7YaeRlLOIPo38vyxoJEZBKH9hTXgKye3TzdQNQujxqoJnDuFHN55/y3kXU3s5IhtrPJ9phYQWSwTSCCNDQtG1TQCd9r1GlB5CxJAptpBfdesO63Q32bTgEBHfHefHH34a7am11IQ4e0H741ef7KJ7v2Kvfez/5Dv05QqbYjU6fcCCLuFsD0jJ/UjtXkX6yDkdfA1N4CZ6Unee+8sLskz3Y02l2dIT+EwE8lcgYHE8BjGpw6yey0BSmE8BDxKUdXG1toKttZX7/Wm73nO/sf+oYgUR0c7HDZBVrHUXugDTHuAtVB8hgtDo0M4OjeLIKnG6e25fYjFkzyzLYtCN2EFMdFceqVc7rYuuKJicEBUoQfGQAgv/tQzuPXK68haFUQmpvBbv/8HmIyPMXVcWL+O//v/+BfY3snDS5uc10AiHEG444JZzMHtaSA5GEcwFOaEQNIITIyPgbIiPN4AtrdL2Mrk+VDUkxpC4dFGRJdfaDReWRRa0+6gvlPC2uI6KkE/5s7cz5WOSSKw7pqnitHDLQZqtayly5iecWOg5sb7aRdMqwHL1eZWA91o6t9Z9YZsIt1tQ9T+dVqULRvJwSQmpmdw38Nn0Spkkb57G6s3lxANe/Dsk+M44jewma5jNetgp9ZAYtDP43kcksN+6g5si+KrN1GvW1xZUivBcbuQmp5AdCjBmyjZOtP7J20GbUId6gU3W9ha32KmYzCcABIjGJ8/jpA/JHoN7jOIop02OUbyBKaaJqpb6+hkC2gWqkxRUsZEgMauyKHPT1V/FP6RQbR9pHpQlTNVPEqlKy5x0m6iCRmfDwiEvYgNxtGpbOPNt3/AG24kGERyMISRhA9vfe8StpaorUP21zZcHhttNcJHTElgwAfTHUJ0/GEU1tIorC9j4fo68lYTRYo1tpowKcKW7iuxB0SfqgqWWRFuxahKQTkn0r3r2vyqCooPGqXBka2jt+Ho9aPtfnsbPtHCyoPSZaBWq2Enk+bDhSx/R1JJDKWGkBoOYGY6hXMPPI3h8aPIpws8klpr1AUMEU2uPjSYp+vIwj1WpIjFL4FEGvvj9g23sijMyccHLAlC3XRfiFljzYJiEzgFkECPi0fe7t5dwtraBgI+aoENYjAex2A8AH9ErRl3G46V5/vgclO8cARmLourb7/CVU86ncVWvoVssYJ8ocTOhBanBDa53UAsAlHY3G4ixUqf2RSPRdO9UFMFBDzJQIpaUDStQIJEaickEwns2z+NJ598CrP7jmJjs4z0dpNBCYlJ3bTXcHKr0o0YYlKze1JBgZG+qGq6xLrK7JodKQZS/AzUne7+shcQtZdJYmsgDeL4ZwuzJixMDyR09TzqmRJ5eM/GXrhcZf6v/k68EnpPo4Tn6QwM2eMI0HfsBq798DVsGSayuRJKRYqrr6FarnFIEzFH7JbIYkQBJNSqYBdMBgr9AUuK7WF9Ua+y1idmb7Sxd5p/WAtbfBNklcnhfy+AoDUL9zjU+Y/2AASmC5SAtJ9F2AUQ1I/Te7M2aOo/APfoJPi7auZICZn58IfDkzMjwynWwdWqtV3TC8TecrNEfT/6etIGjYxOc+SzAHMBCHqkVgOE9ZW7SG+t/8ee+//kf9/VIFCLgd8cJXKpw2svOODbRnPsXg9S48OY2zeJoKuN+46fQDSexPLSCg4fnscTTz6NVGoE1WoFC7du4OWXvs2K6vGpaSwvLvIcJ2kOuAqg6QUD2Dc/jwOhMK5evclWy6dffAE/8zM/j8FOGC7k8ebX/xJ/9u+/iQZPH1B/1Y3kQBh+2tTrVLXYiMYkeZAUzK5GC3EXOYk5aIUCKJF5nGGwi5osTqlC+BlUDzWDH1qVHMLgIH13E5n1bThDcRx+4DSajRbqBIg4l8AFx6bMejeC4RZC3g42syZSQxZSLT8up11oODRmZ7FQkcRvrAxuNIVSpn/fhQp0HTzcA8xm86g0m2h73YjAi5R3AJFACfv2RfGlX34UsUwbd5ZyuLJW4xG+kYQL/mQcO9s55EslmHVyb7SwtrLFFCC5Wwb9QZhtG/5YGAdOHOGcDBJwaZc2Uvy3WzZgtbiyq5Vq2D8yhXKmDmdiBskTh1kZzaEz/PCKawvDKdo08lmk33sPiTa43cFYgkAA0ds0UupyIdOsYeyxs/CPDJFfCwMXXe3wpsa0K435ueD3ezhPIZQMwhPxIvfqK/jm0k2E4MVoKIrhQXIS9OHiDy7B0wnj1EP7YHhsgD5hcPImtZvgcdDwRRCbOI/1G7exs7GKpcVtVFtA0bK4WifmjIAf0fscHkShU4oFYPqUHdukwqdf67Uh/Ve1UaqWixadSa9ceTgo7QapzDU4kFl95azH1YcLWxubqDfqTJMT0B1JJTA5lsLQaAiHDs/h9Nln0LGDWFlc5UqYt2kGCEpgS69NVTCalhbFiFLB02SIh9oLMregAQP17r1+DwKRIPzccvCxB4A8mgQQxKqX137HxvrqGu7cWoPHiCHg8yIRaYEMRN3wIhL0wQi00TGCKlyCbSNZRHnx5e8gt7qMlaKB7VwJ2XwB1RpNA7UYKJhkykPTCwwSyPlMzMPkjNB9fcUeuGiKKgB/0M//p+RFep4TiTgOHjyI5z/xAkLhOO6u5JHLNVAuu+CiVhsxafwN1Qi3mvLU4UGsENAx1F1GsbeX6uNbC2n7UyKZQdAYQdPNOoRp10Yq9L/mezgfheny3VUuX/6uLkLvFL20XHlVqvWghKNyr7UHiRyKbpp+YDWh8iVgsyILbVcT6XcuYrFTRjZbRKFYQaVcQbVSZVt40oZQ5UvTPV0NQl++SFcv0A/i+O/VoanbAkpcKoe+up/9rELvj3uAoB8s3ZP5p2fjw8fwPwAQ+nbafkZGoLw6A/pABRdM2gZca0w0M6geB7m6qm0hPVbWR/AvSShsuDA4mOBnLpfLibERZf20mvx/urfcbmDzMbCT6eT0IcQTw31253JxeB3TftJpY3npDrIZYps/mg/RIIyNsUiRNz+9KEkUyE9p/4Mqf0TjV8OjQ3jykYdweN8MZqZm8ND5xzG770C3Ou8uavU9SZT08kvfwfraKu4s3kKhWER6Z5svlDvmx4tPPourF15HtdpAcyCEL/7+f4szM0dAIaWFzffxp//7/4mb2RLPpPsNNyJhckhrs3iRxDi0UVBvPRTws+XoYCzKs8O1ShVunw87xQp8oTBvKlpdTAee1h7o9cndrXYHjVIN5e0sNtMZYHQQB44fQoAWAAt/ZKTQ7Q3yiGBiMIqAy43VrRwmUj4MD3jww5sVVN0htKw6Tz1wfClbK8thw5tUy+Jx0dHkINYzWW5XkGhuM5NnhzPqFcfCMSSCFj77q8fwzPQktq/k8YP3drBlFzB5OIyQ5UcyeQCLd66jahbRNDvYWs9ye4EOPB5ko5+pRgcnTx1BwOXBUCIhYnZVyZDPdL1Y4q8rbmUxNDmJQWMAlYaDaiSAsf0HJc2Oq2Oio9WgN1GNhSw6W9ugIGVqVZBNcrNhMivBo6lwoek2EH/0fnhJ5KZG0rjdQKwBtRSoyuV8dZoKISdNH4zBADxri3jlm6/hqmnB17EwFPDi4GwIKNaxna5heCyK6YNJQdq02Hgz9iOZGEOhZsOJRjE0dRo333ybo7HvLq9wQE29ZTNrQ5US98FboqLnmoyAAh+IYueqvdd5U+SNQG2E3JMVipXfZbeRrNeRFpjRFAE1YKTkEAJfHXpwoZAvIF8osCFSeED0FZOjg9g3kcLI1DjOPPw4IvEprCxuoZgvd1X+anmq9hhVllLdCQ0ur5ObBAp8EXvABxJlgpDTIJswueHxGfDTBFAkwuuDmQQxJukDCPSqhQ3MbOdw7epNOBZFSbcQDLSR6ngwOBxDZCxCdBRzrqRzII1DxzOAtVvXsPD632Ml12BKO5PLMxilCRLyoahRgBYBBApBcggoyOvkXagvmZG8Uvyc0dYzcAAAIABJREFUpUDgwM/tGBIjxhMxnHvoPB555CmYphvrGw2UyjVu6cEd4AktOcR7h1RX56BbGSo3QAx9xLCoXzclm6EaSRXloOwl1D5SbSbZW+RFa41Vd7RH7eldjYKGm3qr3d0Y7/3sXeBBDgz6EJ6nlwQpP1Ub6wgIFbZOKHsSCDqUWdOmCDoT+Y1l3FpegNlsc2FCzyA5SZrcZpD4ZwHOGlz0Knp9bouYVDlZdgGd0geoyr3f1Eofax9gELqDGwph8Bfem/iX8uODgKp3ZO5hENTrYs5I/RzVEeiyDWJWJtJH/X75+dBgTzOJfeeybjkJ9ukb7VTA3EcMajjErRsqRrT7anfKg34WAQUY8AVDmN53EKFIXIzm+mh8DRCcdgvLiwsoFnY+GnQAFfdMIsViqaSqDclToOpJnkJ50DVYYM9vrw8vfvITmJ87gN//vd9nMxJ+OPcogT/wLjodNBsNvPqDl/HVf//vEBtMYGHhOg7uP4DJVArvX74M2zEwdfw4fuN3/mvEAmF4rApe/cs/wV9/73uwGkSVGmwc46fRJKeNQEDRphR2jzbikRCaZkNsUV1AJBzmdLlcroDk8Eivz6oTVfiBEOMNSdZyk8INjWIV9VwJ2zsFrFoVvPALT+JjDx5DBA7TwTRm4nK3kS9asBwPsksFLO00EBhq4eiBQbz7dhkFI4xWvYpa02S7WLGEJQRv86E4MxhBZDKGiU4AF+7QQqVWA/kStLC+uc392Vg8jo89sw9f+OR5XLtwDd+9sIhSzcDsqAfT06H/n7j3AJP0rs58f5VjV3WoDtO5JydpZjQzGkWUECCQEMIs0YAx2Gbta7Nr4/XCwj7rdeJe24+NvbbXxjbYhDU2yDIZAcojaSSNRqPJqbunc6qunNN9zvl/X1XNSJh9uF5uw2imQ1V/4f/9zznvec/7ks0G8Hs7WVu7BBTIpapcOHPZBLpKVe9V1dXAW3cR6gjh6gwxODisToABv4x3WRWHbIiVKulkmlKhTL5SYfvgZsKRGMvS4wwLcbJbRYzE1dGo7OkKp5ZMUFsyCYISES1SVj6b1ZE2gWa7x0fxbRk2D6GFwCiCIeadyrwHr9tLOOwlGHIRjIUoF1Kc+Pp3ePzkNAWZ7nDV6Q172dTlJl6v0EgU2L69n67+iMUJEHnkGt3RAcolF/F0BU9/L/0Du3jx6SNka3WmZ2bIZnPaXpAeuGT2haIgPGbNq7mYJoIGqTJcE0P8Ustu4RxYlrZ2O8LmshjimHlW7E3AJpcJ18M6SEVOPFYPXLQ0Ls/MKJImM/sdYsDUE1D0YNNgL+M7rmHb3hvIpsqcPXNZJ2FM8m01qK2+t3xNHReavUvz6wyT3Xp8rc6BbQ4kz5K0G4S8KEFX1PYkSRAETjQBlOcjVt760Wpl6DhmOs8LR16kXCgYo7ZKlVh3mO6+ICF3GZ9TuhVuLSYanTGqVQcXnnuU4ydPE9cEIUFSSJb5kgqcZfKGjyBkSGlRaWvHSr5s22O1ahb3RXVj9BIMB4lEI/TEurj55tdw4y13EF8tsLCcYz1RVpVAaXMpoVFbo051zTOgixmZVC2LNmviq/esVxCrLfTPGiMwe571LNj3335NM0Fo7180xZHsNo4VCUw52xb4rGTOLCazvzbHKG2+jn61bbRYfRutySJDGrXYJBapzR5JLOOolyln4zz97BO4Aj6WV1ZZX4uTSqUp5ovaZiiLxXOlckWCbLcW7Otks/NtrRD73G0/GzEzebVk4ArigN1GaIf/7U7Dq8HYZuP5V4LkKzklJlcxv6CZXujAjvkFgqsZVMfEv2axbFX6ehtexcLZ5gm06xtok8FabzL1IxL3iUSixefQhM8gB9oIdLjwd0QZHd+kiYL46LSfgYolCRJeyimCkEknW4viX7kK/xbfUjS+u6/PJAi2cIomgK1syyoz9cqK89lNN97M+97309x/771UEknWTp2HVIaRN96pY3fNEWJrZVf1wa/oAhfihhCblpYX+eKXPksyk6TP4eHshXOs1wpacbzrfR/kjoM3UnU3yE+e5Ut/8oe8FE+rmEvY7yUcCLPxwO0c3LmR9bUlA3WLQI4k9YlZ0p4YQXdDZ8B7Onw0vB1MvvB9ejfuYPLCJXo2jKpQUn59mURWeBGmvyaQsU4X1GBsyx5K8xc5veYm5C9w/OwJXKUypZyQ2YoqZNOzIcy2HeOU8mU2RHq5a/Qa+moRwq4AlzMrPFtcYzK1TFZG6BrgLpa5/sQMkZIkCC56wl66+jtxF2pkabC6nlbrYWlCPBNz87KvzujoCO+9bh9dM3kuzaQouLy4qTEQ9av2g9MT1uq0XE7ialTJZ8ukk1lFAhpVY2CF34PXQuSEMBjp6tQAI5oLygGxH8JanZlSnEvuNNl0nuHoAB5fBM9wP0teFynlHQjxyvRQDcSNkkVr6QxuDVywY8Mgm/oGlLQlEKUA/x39vTh9Xg24qcVlrXaFnKg+UG6ULCk+A8Gwi2CHl2JunXOPfZ/HT11kpSjEOi8Rn5PBnhDdvgZ94SjJ5BJ79kt7wW0FbXXtIhDoZHU1S6nmpWvzJqKhYZ5+6llSpQpLq6vK/K/XZca7rMIwhXKDhoyNi0KcKGxa9qtycjbUKEFG5ZUtUyZZK815awtNMRK69sW0TXpMpWejJfLQekVO3OFWr4e1ZBJ59oJ+8QiQ2f0gfd1BxoYHGBsd4rqb7iDkj7F0eY3ZhSXl1+g+p79KIPGWSmXTYl1iobXJtZAKe7swUyVaWUpsE5U+7ecL2c+vipzBcEj/raqZ4vBofJPtNMP6u046keL0y+fI6FSAi4AXPKUMQ+EGfVG/urG6PA0aPTEaXUMU15c48vgPmJmaVj7CWjJNOpcnkc6QEbOgclVRBOMCaH6NBnNJqNSN0a9aDpLMdIT9SrbtjcW4/bV3smfPQdbiRaYvJ0gkhY8jomM+Q6KU+yLXQ6Z3NCiIEqCQ8NpspZsRz07uLH2DtgBlm2rZHARjvtBqe9gIg6nqzQuvLpqaXxd05lXhc5vmb87bXk+yJtvTT3132zra/CKjJWJ5FKg2goYfS9nWRLym3LFTuFSVPMePPUu6lNAx6fjKKslEyiTQkiCIaJI821Z1bD8LTfTARgws5M2cj87AGlqmTjC9SoLwKi2G5pnaPQorlOute7VweAVf46pQaLXE7K/a720NU5n0wv6iWWCGUKoS8WZPs8mlNpLUxDLa7llrVNGYR9ltFx3vNFx3g9T5/cqJE58LI83cShDM2LiTUHeModEJPL6gUaG1uRD2U1etkkutcXl6Usfsf8ji+bfICa54D5Mg9JoEQftXdl++Lduyr4lsJve87vX8+kc/yqEDB5j98j9z9tf+jMT6Gj1DvRS7gwzf8xoCw6LwViY8MYq/O4YrFKSQz9M5OkhoQ78R2kHg/wyf+uPfYjzSyxOPfJ+GqPsNdPPRX/sYE9390Chx9Ctf5aGHvsqy00Xd5cYvI1uRLv7Tb32axSMPMRUvWh4OdTo8DWZOHuV1v/pnTHT7OPrYN9lxy11UMglWT54mm5hiKlHk3vf/B5y1slZJF5/6Bj947OGm1KtJFpy88X2/Qv78EU6zmWuCq3z43/8G+YLMulrgrf1wAMGgl9993f28dmAcx4d/CsQq+fQl6g8/x4OBKS5niqTrRcbOrPOBb59qrydaN0PeN+g3WW6+SNzj4j++czvuXIVP97+ODrff2oyULdV6nQrftO1i0oDXyksgYjUmv/JnZeXJ8emzbLLlZqO6WidJkS+4XiZTqRHcvodAPI07vc7FoQEmgz5c3gDv27+L40U/8WOHmbECVU90Lz97rYvff/x53nnoFu7fd9Bs8Bp0ZeTOBJhcqcTLTz1Bo1TG7RbovWzc9gKGuR8MOolPX+bY0Rc4d+Yia6UK1YYQSxt0R30MdAXpDbjxFgpE+/xMbNzQTPAEQvW4PBSrLtbSRYq4GLhuL7m5AhcuTBNP50inM8ZfoSbs+TwNZw1v0Es1V2A9U6Oi2hYWM9vyVpDEQNtR8j9RWJQA1tYCtWOnJthW0NDNpm2U3ngtmERBkgNppySzWRZXV3SsUfrognb1REL09kYZHOlj96H9bB/dTT3v4uSJi0pGVcEgocnofbOjqPQnm83f5v2Way9jrFaotTYVs93KV+34pkmCuEZ6JUET9UGRJQ7hD4WsNoOtk2C1lcwWq4G2Uqxw7KWTzM7liQaDNNJr+IopBmIC+weISLXf04Ojtx+RXF26dIYnH32Y9ZV5ltdLxNN5EskU6VzRavXYrHmzBeqwjBybvI+QEr3SVggQDDoYHh7jDW98K1u2XKNkxIX5nFbChUqNSGcXLo+M2VpL3boOEuxE80Lm/e1gbe97rwzmbQHe0jRoERRbns4SY9qnSFrJgb3NX1kGt7cgXrmjm/vbtjG07p8OJ7Qlnq9IQswaMImiIAmWOFl7kiMtM1F0lT2iViS5MM3p80fJV4qsWAmCoghiRif8HCnuLA8VQdLM7tcSKjJ1ZIucaJ+7WY62qNTVmVC7J4GVB7VV5+2n/6o51I8Ig1eDDvZjYtQuW0oT7dfZxg/0+G0OgsUjsteQlbM0rQRk5LPZplLSoUkStI1lP59WTJV1I/pCZgpEd0Z9OyFVNxxuuvsHGNgwrO094RXZ6bhJCxs4KiWS8SVmZqa1uPlJfVgJQm9DFoWRDbUuoBU4zOEZp8HrDx7gfe99L2+747Wc/q2/IPmNw/jLDRzDHdS9Dpbn4wxfuxkSGRoibjPQT2ZykfmpRfBDz8YRYrceYuLjP0e9VMbVESRfrvDlz/8tkxfPMzV7mc23HuLnf/pDdHl9lNZX+Nwf/ykXpqfIiuSA9KulQox08yu/9nFqtTJeS3lPbr2/mubLn/kD9t37IW7Y7CdXLdM5dqdWZkK+vHT8B1x46TSvff+H+danPkbf23+Vbd4E/+vv/oZdN72eWLSDYnqZJx99jDe9/yMUzj/Nlw8vMkSabx3N8cCbNuMKduKlzF/+zqdJaIUJN0xs5DP7XovzwDYa20Zw/OA5uOcW+LvvsDxS50znIjOzaQaeneF13zwHHUGTDJQqskKgv8twEt73Fjh6Gr72CGWPk1/74PX4cjX+oPM20128YxeO6QUaowM4XriklXtj3x64ZgjHiUka1w/h+OIzsJ6lsWETjoFlOJZVedXGa7bjmErR6DT6/hydgntvBleFhijsLV+GH0xRosbfOI4iNLh0MMre8Z00VuI8760x1xnmbft2c2I5w9jYOGdPXubaTTH6u/voKuY4l1zk66fO8q62BCGbS/Ct+TJv39rfShAef4x6uazIrNdXoyPs03n/aj7P1KXLXJydYSG+zno8o5wTqdRFLrczKsI/NQZ8LqrZdXbtmqAjEtSWgMq9qhqjl7VchXWZ6qDBjhtu4MyR82SLYkiUUAi7kC9p3zgY9lAsZ4n1BCmvrXNpMUemKvwK83wbToKxH9YtV1X+bHMaaxvSPcc8xkam13A+VE9Df8TY1EqCo+OIomooRM9ag/nVFR2BVTOmcJDOziiDsS76+7oY2TTKvltvobPRwezUMgsL6yYxsRTxjLithf5ozLcEqNp3Mx2ha0M0miWr5QBoJTCm5WCmimSsVJKDYCCofAhvMIjD9nPQjKetttG3lqmZCrPn5zh37jJ1l1fRpIC7TEeHi+7ODgY2jBDs6sLpl6q5yIWXjnDsucMsrKVZSeZIpjIk01kdNzXz9xYxVPcdpypqKiHRKw6MfsIdAUVXHnjLu+npHWNpKcP8YprFxYTeK9X6EFRJN2pTXStZuSLz/aaVYfOQdNTQ2sRtboCcld0aalX8hlBt399W9mdBMU2o3wpCTQ2DV4G7rVaUdWjN/M1UqYbnYAdGO5kwUxzmj11hGEj8yhawJgaa38o9rjX5CnYlruN2VcOBctZKOAo5njn8GKVGgaX4iopjJZMpbb9JgiAIm1o9twkbGZ5L+3m1awy0KV5apL3mCbZxLNrh+tZI3yvD3o9sW9svacskXnnFrSSxvU12VQ2uT6YiciYBa5+gad0Mi/NhcdmNIJS9N4hGhxk3NWmRQRXMOjPvLToakiA0D1nqN7lDTg9jm7fQEe1SNEF5Y3bub7dAygXWlmZZXJo3UyU/oQ9NEHpivY2UkBQVNrY04ds2Gjk5gfN++j3v4Q8+9Sle+PlPsPZ336bghM6Bbrh+jM4DE6y+eJbhzlGm/ulx6tkMwXCEai6HuyaXvyLUPjMPOtzP2O/+R7Kz8wT6upkf6uTwc4e5ND3FrW+7n3uuvw1vtcypZw/z91/6IrmykGosPxZxIAyG+eVf/x22bRxsqpW99M3PsuuO+/mr3/wIb//kZxmNdVCuZCmnE5yfXqK0Osm+O+/l6Df/nhve+ousTl4gNjbBice+yrx3O2+4bpjvfP3L3HLfz7L8wtdxDO2jcP4wz9S2cacvzf/9YJK//pN7+b3/8nv89Cc+ybnP/yb/5S8e0bXz7ontfHT7ARpdQRw/dz8NcTs8fAzHD15iqrLOl4Mn2bV5kG0vJtj6l89BXzd0RyCdA18QJgZgJQ5/8ZuQz8Hrf14ThN/4+RvpdgT5pGOPkClobL4Wx01RGht6cMyuwTOP0WAjjWtHcT52nMa9W3F8+UUdK2yM7cDRE4cXV6wNx4MjKsp5piVAsgLvudEaoa7CWhK+coSyo8bn/SdZyKS0yBjYdoBu/xAvNVa55Crzxl3bmU4U9OfIdLCWOUe1a5BtmTjHqyWF6NsTBEniHl4ocM9ItJkgHH/8URrlknIgIl0uon6YP3WamalZ4pUqCYGdcwVyBSG7SXXrJhj0EYrIdIODPkeDECU2bhrSkUg5UBlRLNcFoXCxmq+RqdfxdPjZuXkHLzz9Mq5wlMXLC5YTnZkTd3vqbBjsZPNgJ0vnL3FuPsNMsqItEaOSaDY7JcxpX1GCjG3YZFPFzLqUzUL1JqyyXCZD2qg7xqlPkgMxt6o7iK/ESeSMqqdU7ZLoDPTF6O/pore7m73X72V881bq6SqnT06Sy4uFsxEksiWJVOzPNjAymG5bn9WITrXKUbNtmXRBtiWpAs04lSlXRHRHWj1ugn5JEsJ0REJKAhTJ56aYkp6UDa1bs13yq2qwfHmBoy+fwuMIi3g4bk+ZSE+UcDhKNBDSEdVAh4diapVnv/ctppYWWFxPKTkumcmasceSkfc1RVYDj19QA6+SkIMhH6EOP92xGO9+1/sZGd3J5OQSM/MplpYS+tqu7m5cfk8TOdAzq9fJZuX9RbTGSuSMNKiJx9rqMvoQmiRokid7u/W38K6Ex6BKona4s/Uv7BykVbcafojdEDCQuyYdFo9A1oICexYaqZWtxR3R8GHB3xok7DaDVY3bn1ovtYSxWkmbIdWZ1oLwT7R3ZpHtjK20Gd8VIqmjUcZZLjF59EUW0ossJleIr64rD0lcNzVBkPFfTRCs824SEV8ZoVr9eHPCV3IPDHKlX7/qe7bk8o8b89onE/TytTkptvM+20nEV0P0Tk3orYkGGX21gr+ebvOczfG37qM19aKW5Ga8UcblzZqTJNciMFskW3ML7WtjXGDl3VyBEOPbditXwaAcrQ/dNeS9CxmWLl9kPZ149c7Uj3vxfsTr9Ji6Y71miqGJiV7dh3Nw11138ju/9VvsGh3npTf/CsXT0+R29eOrVuj9mbuI7dlCejZBNNBBYXqa5PQywe2DrHzmu1Tn1wn0deHoDOq8dWUli29kgLFP/ALLJ88RcHn4RuICc+l1Hnj7uxiJ9tBILvPZv/hzTl++rGZHzT6SaFZ39PHB//AfGOntVqGZUKSLzPnjdG3dzIVH/o5r7v1Vpg5fIrQ9qscnCoeDEyMEyXHkG9/gjp/9Jc4++ijbbrqJH3zlL9l636/Ai9/kXx55mDve8WEGww3Wy37yZ5/icG0bd/vT/M6DCX7/ozu57y0f4td//2/YmTvMz/72F3TjeO2W7fz22F649RrYOQG9XXBmCv7lMI+sXea/n/4+u7f08raKi9u/fAFinfC+e+H0JCTSKjvMzDL8pw9ARwB+/rdNgvBz19ONn0+6DkBHiMa9t+NwJWhMDOM4cRmyKRpxJ4zHcLx4Hm7eCP/wNDi98JoJGiU/jqMnQWbSh3phVz+Nji4cz56EmRzs6KDhGcBx5iiNe27H8Y+PauD/UvQCC6sLikFXfL1suuZWztRSXKqm6QmFiY3vpjh/gZ5QF7Prs1QjG9iaiXOiWiJfLv/IBOHYo9+nhzxed44Q6+QTSSbjGYo+N6lsiWyiwuJSioJov4tTpT9AWIybwk46vQ66GwWGBzpVEMdUVS7ShTK5qoPVrId0uUTdDUObhvDnnVyeXaHi8ZJcjStkWm9IqlozAdEHo11QSOaYixdZyzYoVQ1/RTa4Ytm4O2qrxLJ8vhpytNUkJTkQbos+RpogmIfdalNrtSdz+NK7j6/FVRVQ7LOFaNfdHWFwoJdYVyfjo6McvPEm3IEAa5dXmJ6ap1Y3QUdzgKsqHCWKKWPSUqez+EPNTVCqIt2MLMjXGvtXfw2t0i0PAElipGIXnQS/j6goenZ2mOkGISIrkmBphzTZ+iZQ2sJG2VSCyXNzOlvv8ggBy43HE6JDFDHDPjq7goSDPuamL3Hk0W+xsLbCWjajcuO5rJgFGRU/nRYQTQw165LJFq8q1E1MjPOmex+gr38jM3NZLs/EWVhc1clkIfTKcdsX3eivFHXSSJIOe3+zbZS1XSCCXtpicWuSIL9T72NbgtC+XWsNL9bX9vy7hRwYBVEr+AmSpWqlxmNEr7OKqwnKJVVn1RhViZ+B5eehZEAZ8RRuTNUQAw2iIciFCI651aFS0CZJZNRbw+0zo6uivOf2mKklS19G2wDWiJ45NDN7rEPKKk8ppGlBMCtkzl/kxQtHSZbTrK2sqUS7jp5KwiaIjoUgKHndgsdfQTxsa2C1gqCVDtiQerMldqWqoU0K/HFinAXSWYHbQlQsATzDAmwF9SaX7qpfZAK+ea20soToLEjTVZG6mTTYIdzcc5MYqDOplbrbya0RS7Zlta3Uool0yNi0/ISLju5ehsc26z1utkOsX24ShDqVbIKF6UtkCsJW+8l9aIJgEISMhZqZ3pouAGuDE/Tg5z70IT758Y/jzBd5/t5fpnBimo3/7R00Ll3GfdcBgru3UpqdxbOhG39vN86GRz3Lfc9Pk780T2U5wVoizsmvPYmvXKfbFWb44+/Hd2gH+adPEvjAvTz28hHuOnQ7vnqdqaOP8ndf/ALrIibQjuY6HHiD3fzKJ36T8to81+7bz7EXn6e/kaN//204annWpy4wd6aLXa8fUj/0gi+IZ+UCiYuTnE6ucN+7f4GH/vtvsOU9H2HMl+OFVTeH+ht885vf4NZ730v87CP4Rg6QPf0ET9R3cI8/xX/76jp/9Os7uee+D/Cf//Bz7Mo+ybs/+TfKkI4GQ3zmDW9lh68Dx0g/XLsRvvMc5XSW/3r2Gb57+jjBcJ0H8PBrp8qvzkG46p5nfE4++cHr6MLHx13X42nCY04abz2A48HnwOGncXADrHbguHsIHvsBTELj/v04vvs8NPxwxzb49jEaN12HY1MHjVIJx7PTJiE5sJ1GRwWqIRz1DDx5kbyjyj92T7KWXCVZKOBsBAkPbSLR38dUPU9XMKyOgSKMJQt3PZ+nNxJlTRAHK3K2IwhXL2XhIDz6j5/Bu3KBkXE3XX0SePw0/MMQHKKUL5BMF5lbWGR2aZ6F1Xn1p4g6hbnuotNRI+opMTQcMxtew0Gx3GAlXSRb95Ip+ik1cgSDLnZs3sS5i7OEAt0sLi1RrApcahwZBWXVEcVGHa9z3TjbZesUS6KLbipFqSRtiFUdHsvSj21Ow7cIZBq4rXE3W6BTE4NWVWIY7sapcGlpWYOgEHb9akfcQW9vJ709UQYG+rnx0M1s2DCuBMEzJ0+ynsioPoMpv6xkwFJjk8BsWiGWmE3bHLrCuKrdYCML1gicTTuxGO8KeljTSjql5BThMxcBIQNGwnREO5QjYdoNooxpZlVa8G+70JCRar58YYqZ6VlqdY+qPzrddcIdXiLhAJGuiL7P7AuPcez4EVYyCVKZvFqgq9OjFczlZyRB8HiFPOljbGKEN9xzP2PjO7k8s8bU5RRLKykK5aImB0KwtFEbmeGXokcCnfbltT0gFbQkBU6CgYAGXBnF1KTAKo6am78lpKSws8V2l8rbCNdYI4zWuHJdHFsrohdQ1akO6REXChmK+TTFYo5KWdRpBQGqq+aLvbWa+2Jgabm9qvsvrQGLJKdumxZqoV4tljC3RXtt9srNwnDic/sJh+ReRfD6wri9MfXXEd0at9dtoSBmJFPXhvTDHTVciWUef/xrpCtpVhNJksms3geZ1pJ1KmteK2Jde+YKXWFr3gxmJkOyCX12Im2CXjtn5qoEwYYnfoy412oniMKk7Q1j9c4sfRsdubWy9OaatWOKHlbLM0M8SyRwS3Jnt3vs507Hna+Kzi1bcjMSrSid1arQK6F8MJPUtzML5HtKOHZ56e4fZqB/qIlg2MWw9W4461Wy8WXmZiZ1//qJJwiKIGQkQbBgMStB0Jlph5NdO3fwiY99jLc+8BbWT5/nubt/mcZqgthrdzL8tjvhup1U8xnqrBEc2YTPF1FS4vrqPL0XlnFX/RSWV6lNzXHp0ZeYP3uZiDNE/wdey+pz59j/6f9M5IY9vDxzgaFQjEY6zUOf/xMeP/2yuiUKJGtnrHJM0dhmPvGp38Oxdom+kY1cmE8y3g25tDgg1nnouy+yeaSPRKnM3i2D/PGf/g/e/NZ305Fe5pmTh4kNb2fm2HOUgp1s3baFy+fOMLhlLxv6Y8QXJnn28BMMDmxjZfIiR1MOeqlwdLrMDdd28d2Hn2DvodvpLC/z6IvnLP8BJ2M9MT55w23c2LNBfdkXllb480vH+NbJ48oiHyCKAAAgAElEQVSWF/OcmBM+tdDgoBg0/CtpQsbj5J/esJkzE53aq77LMcrrHePNETpELloEomTRy79lyQg50SvGO7Lf1FrkRJXCtZZU2+iqGc1T0wJrf3Fq5vxkaImTgXWK5SKZ1SRudwfFbI3Czq0sRoyZ14/62Nw3wHB3z6v+mIymho4+yM7+IK7uBh0DYTzuAZyRLTScXVCThMGlyo2VYoZEMq722usrc1RXl6jl4vR3hegI+YzaHi5W0yXW8lXyDTdldcsssGFDD3X5mjNANVfT6tTpFREmb8tuWISrpA/rkNHVKsWKQw18xKLbVjmTjdSuoiS4y6YnxkItrNlkBAb6tfrZNvfA6tc3oUvEIyNBJpPV58oXELKdJAhhemNRBvq6mdi0iYPX3UDAHyGVznL+7EVVGlSJ4bbRLhumvVKS2O59mg3cuFAaox5zSEZ5rx3ElH8bfQRDWhSehP5xOtQiXMaIQ2G/GqEFQyECYfv+yDlbOgmK07e9q/hY1Ix19MWzF5mfWyEQ7NBzlraSKB6KsBG5BC8eeYSlhfMkszlSQlQsFSlrtW0SLq/fq86e/QMbeMc730usb5zL0ytMz66xvJqjXGvoz0hLxKikiiOm6B9klWgniYHP7SEQCCijXJIBbQVpy8CgAVd/qAplW6ATroz0j9Wi3NGgWMixsDBPIZfA5c5okK9WSta1baimh90HUiKb+nY0qMhooXJaDBHW6KG0ZLttx0qztiynT7WVFn2PNg0GRTncinzI+Sg3QheE2b812VF/DL9eR6dTRlVd6qvSFetjcGgcvz9k9DSc4G8UOPP4w1yYu8hKLkNK2j3FAoW8cBAEQZARYFMP2x9mP76yF264Ca3WgpXKNvvpbQ/Nle2HV5FT/lF7jLlCNk/XoYifq+FUrQGTBJigr6qZet9sdVNb0Kq9XdBaA5oEWZMu5pFptUbkcyOmZ6VJ1rmK9LrRTDE/b92qKxOpZsupTWZZtmBPkIHRjXR29DTFs+zrahoQDhrVEonleRYXZ3+iyYGcgEwCObp6pcWQsVS4rGpALoRVVbzmllv5h//1JToCfs789Re59NE/w19zERzpZOzTH8F1zQ4yc3O4KotUQ1GcDi9eZ4P82hobphKEM1UaLifJ2RXWnznN6sVF8sk8HfdeT2z/dWz72Ic0q19eW6FUrLB28hSf/ewfMV3K4q67cEqCIJBb3YFTDGd8LgY2DvPxX/4oU498nYcePkLMHWbVO8jW3jpfeuo0Dpa499+9n2c/+z/JDMZ4z1vfTSS9wsllkalsH9myYNeakV4VOC2VSFCLF5idXeXkwjK5hkthZt1M1cehxU62yUzyTa/bRSwUUHGntFQTwv6VjE8qDx2fcaqr3vBoN3fePcpdr99C2Odh5mSKEy+vEK87qFiOgLKZC9NeJG7bBxFEKVFnx8Xetw4bRweJeEpqX+xyiyZ9gM7uTtMDbWS5bvsw/kKCvAjsFJ3aX6x6YXa1yNxqXnUnhJwmASDaFaEjGlYZ60qjTlnIjnU33oqLPE6GtuzAGYjgKBZxZuN4KjkaIqZSrWvQdXf1Eoz1KaFM7qfX4dCKanF2hrL8cWQJdbnYsytKfyxMJeQi3NOF0xMAb4SaM4LD04fDuUHFjhQ1l7FD2Yhq88w++wSJ9Rn6YhG8DgkGHnJFWEpVyJbrFGtVHM4ykagY9kRI5quU4xUy5QouMSlygs/vpixqlvKW5QLFbJ5Cw0GuInY3AtPWVNjK2A9LL7KhVb+S5ywhHSN4YsRhrNqoyYUxlaj5avs6kc81OUhljRaEuA+Gg9rjj0bCxGKintjN/oMH2Di6mUbVydkLUyqBWxMRJ9177UawlQiYDoE5DlV+s5XszBeN9oadJJgN3Uw7WMWR1Rs1o65mE5WKVQKcJAvqAOkVWWaHVvChkEkU/KGwKhPWbSEl4yjRap7r8RgkoV6tsjAnJN0VyiUx4hI430NHpIuAz0Ets8CJI99iLZUkUxJNigplIYLKPiz6HX4nsd4BXnfP/WzceK0mBxen5oknRIBMumeCcnQoT0GeXYHFy6WiToaInLTcA48EURFt0vZAW+ixr4PFzTeVnwRu6blXqZYKVIp5SnkZ/YtTLeU12S+Xizr14Q1IQl5W4plaIleMNLGgTbJfqB24WllXzddq8izL1yVYW/dTJwNaCoT6mTJkzX1SAqWxaDQ5mCaj9h/JuaSdYfxLpH0lSZtL2g6SgMrUl9en5+5yejRZEP+OfKFEpMPI0nf29NHT1Yl3eYVvP/5d1op5kmlxxxU+SImKnJMoisrzYHMI7Jh5lbCTzaOwo5hJEAxJ18Idms/LFaX4j5EgWLdOkw9tMrrcuNTJtvrqCYJcQxtda+tLmFOwHyQje21Ozzzc7UiJQUhNgmD/UxNx277Zes2VLqdXpzqym1nCUhIzQp2MiIOjN6DnYrEgbJqjvrheLrI8f5nE+ur/fwmCVDXNYKeXzMBJEjze+pa38Pd/+7fMP/UcKw99l+U//5pqtEUmuhj7q/9CpTPCPz/4VVylFPfcexvhzh4yawni2TKucwtck6/puFU2lWPtmVNUUxVy1SKb/ug/4btuNxHRanU4WBf51VSCb33+szx55DBZGeeQzUqd9Ro4ay5q/gKbruni3j07SJ9Z44mnL+GJxrjw8gyroljlbuAJBfEH5UF3Mruwxt4btnPD+Ag1ZTbbG5m5cXbuaC8ECciZ9QSV9TyX51Y4PrdIzkyzNKE/8yCaLL3JWpesUh9iq4rURWup7evokT7duCR58lYZHg1z9xt3ctsdW/D7HMQX8xx5dpL1jJNawy9dLVWVE6jL9lrX93N4lIUvFU1FzIYKOfA0VKEw4PEqxDgyOsKWbZtxOU1wqBfW8HsrOFdWWb14mYzHz/RihtVUmWyhRmdnRKswOUH5W3riMnoorL/EehI3HjIZ0VzwMTA0Av4Ool6o51K4qtIyMVKuZfGTl/5xyE2XjJnlysxenqZQKel96QrVGBnws3mil2hUyG9+HJ0hlaR2+SI4fSLQI62DUWrVPI6GWAubB7u2NsXcxaO4HFm8Hgfuho8GflYzeVLFks7PByMhemLdyjEQU6DlxTLVekF74YGAl75YH/6gn2KxqgJWtXycfKJArlolU3Oq4JVs4HIe0obQjV+sb4UEWRbbW+k12s6OArm211RWxdKmPGrzzuUcMpk0hUySRrZBWfQBgl5VWZPkoKu7k56eKBMToxw4sJ8OXwfptSxnJ2eoVoz8uV4De9Nq/m0nCJboT5vroZnRFu6BERySdWAbkjXV9pQ4aaB3mychFbeRvRZwyqkJgsfjwCd/gh6dIogIhB0K4VSVRGMXbdAETaEtYqTlCql7b0N5FxcuXCKdKoDDi8sZ0PfuCUNi/jTHT75AqdagXJXZexM+hPIQ7gxxx533M77pWiYvLbO0tM7y2roCX6pA55MEIaK/WYKDVHIity5eIIqI2hCyPQPQpqevSIF1fKIwmMstk88kyKWTFAo5Rf3cQsaloutQ4N1KWdxYhecriWRZ701FEnldKzJNI8mAWTuSZMqzK8ic4bGY3UZH3SwLcaNO2VaZ21Vxs+Js7lDWXKqgINa+I3+rs5y17yhXwakTHIICeZxSkHian4tDqianFo9Ej1V1PRw4ahXWVpdUZVQMmwpFSQ4s4SppyemoY8NySzWjlK/GQ7iCHWprdjRjZAtxuOK1P06CYMvlW3W38jx0JtbOzy2EwEK2lDxsJ1/tG7+V4RuOjol6ttpmC0Ew69FO0E07TxJyuzywUyE7sWi/nzZS0Uqg5afVf8HpIrZhlFhsUG3XW5FJXiOFkSE8FrI5xIOhVMpZV9L+yf/z0wxNBCFzVYtB7UElyHlc/MKHPsR//eWPkHjpJAv/z9+TnV2kuJigd9MAg3/66ziHY3h8AeLLK3zzwX/g2oP7yHqibAhH6PfUicT8+Jay1J46SbVUI9OoERrbQOTG6wnt22e1ehwkkgmWpy/w13/w+1xeWaas82EWzCI3xFth594Yt24fZf6FSY68PE+u7GM40sPzJy+RFPlcR02FlHzdTurJKovJDIdu2cX+0UHqLlGHs7XursrsrIdUgkMukaKUzLG4kiQhngluqU5EJKemFYqgLVIpSFUpVZuQhoTgpFfMYUhOBt4yZlTysGo1YH3udomIS4O+gU7+3Tv3cd3BYa2qlhcTnD6+TjLhpGwpO0rfSwKTyVAUeFRCllpHF4rE4+uUPQ42bdvKcF+/Vgxbt21TV0v5adnQquUMbl+R6uIkU0deJF7xMrucJV9xUa6JsUgHHp9HZVWlUhCL5Y5wSBn36vCWLeD1SGAt43C4qdQbDA6PqJqlrygkS5lOAWe1gaNWJ5FYZ311lazArt0hFQYScupQjxDVagxv6KSntwtPWDT7xYNCerMB3CG/nqs/MkAukcBZC5JNpLTqXV2eweerEvYbAlm55CCVrFB2uan6LOKYw0F8PU0mK3CveG6IUE4VcTTu7ungwIFDuLwR9dCQ9Z5ZniexOKVJabpYJ1N3UqjJtRXrYcvnvi7dGwkGVa2G7QRB7ov+aVYNZpPW1WXt6QZzEsi7oC2b977rzXz/S1/ncqWCJxTWaxwJCdweYnCon717r2V8fBxX1cnc5AJz8aQhoWtrSLYLsyFooFfI1Ko2LXi5xby2aiBrqkGRBQ1KttWsrbbX0u7XBMFKcKXW1qLVlr/2u2RSVpEl0SIIBQJqkuQVtEwkzt3eliyzcmWMC2SzMrOukazF+dlF5mZXoOahUakRCnjweWtMXjzNyuoMOPKWJ4MHr9fP3v0H2bT5ADPz66ytGyJjNp8zfhGiQCeKoMGQIiA6aSAEQksrQnvGqgvVjm/Is2REsrKZdUrlFJVSiWw2SbEUN06itj5IXVoHZT0eTRIFHZCgWpH1Id+TpEAqbGlVCephkkf17bASBQmqSkazgBtTxVpSzhphbCDeSvaaIcAmuVqLSf+y5LxtFMFCflT4yuaQSHtIDKmszyVZELM2e09S/xNL6lzhdEl6KjUV8RFkRETElCgq5m0ikmShIRVtVVmBsjkt04LQWoVWS7nTqsGvgmza3sP+joXOXl1r/2ufmyfCTOJY1ESLG9KKF+2vN8dnGXS9Wh3elqS0DxK0Ehm7xWI/gzaMcmVy10QeXrXWt8i8loqI8I+GRjcpX4SGkXk2H4plG9dO6iTicZYW5qnVbOLkTzhB6I7FGtoXtWxK9UjtEQyPi1/+8C/w4de+kfi3H6d0ZobV+QU855fp2jfO6F98jNmFWca37sYV8PC3n/5jVca7Zu9BesNhoh1enI08lbqHiCeKb6ifilSa9RrBQJjO0XGcbuknO1heXuTCkaf4mz//n6RkZM6G1axLN7A9xAMHN3LuqQt858VZai4n/e5OrRJPTa8h+VXZBSE8dG/qIX1+ifVyhdvu3MvOwT7q1jx360ZYfSy5JdZESjGXpyDWp6ks8UyB7okxHB5j+iQPdrXaUIarPAYSUJeWVlSaVOBj0S+XzVH7m9ZYlDLXGyCmOF7hA2if11IgdHgZnwjw3p87yNimKC5CVLJOThybYmnFob3YZkCwF5xk+/KeTpdWuqlMmlSlzH0PvI0tm7YocZC6dDql6tEpfmpUqTtquFdTJC5c5uz0IvNrKUo146kg4jNm2csmaOBVUVnsCIU1181mck1EUCu1ao181Umkb5iRoIHqpUJ1VGp4Kg2KK3EWMuss+aoMdkQpN2pEQxEGej1E/BUGN0TplEkOGqRTebWvLpSclEp1XF4HnV0RNY/KJdPEV9d0lFESCoFKRRpYNq90tkql6CFdqZGsV9SVUQVdTO2rJFmpgAP+OoEAOh63a/cWOmMRGo4g9cawSnXnF0+zcua4zuPnGm6yNRdFCQAVISwKamCCgRDndNOXK2rLMkv7QYfOG7gUMpbAajYhs4FJH77CwtKSnuuubVuZk5Fbp5tASPrmfrq7ZRojwuBgPzfeeIMiQJV0kckLs6TKMjdtsdr0Pe1N2owymGmG1p5iw9ZN7wjLg1ZlbyUoVc0a1nvVNPWxEhv1sjBJgd3HVkxAKlGPC5kmdXsc+H2ikChW0U51y5TzEM15pytAwyEolPwxaJn5sIb6LUtjOcZMqsDFkxep5CQAOWl4PYR9bi5eOEKptkjDIYQ/P1u37GFs4y4WVgqkM1VSmbK6wqrzqsXwDwTDRjHRmiARSN6ISRntA7s1KbVGIZ8jmxKodsYkTI0KLqfIaJtRyHJJ0Isq1Yphpcs9N8G/qm0CURZUqWGxgtdWgkENBEHQRF7RmrYROe2RmZFGDScq32cEdbT1YyFQTX6VHRv0splg0vywW1dNXos1RquIlaCXJmgYJMi0Dc1Ehnm+W0WLzZNpjVaaczeIgRQ9OukjyJmct9UysYvlZji0yLJXdxnaEQRTc7Ut0LaIfQX29mMgCPZbabvFSsqdsve2mFpN0vQViUb7Mb3i4K9MSez7YtQU7bZei5/yakRNc4tbScOV79ji6sj17NswSKxX2qkylms/M3biUcMlo9aVMvPz82TTCTVL+0l/KIJgJwi2UIgeq56kgcnf/+538yu7DlE+MUXOVSb+lcMEowF6/q/76Ng6RnY5Tu+NB3V8J72yhNNRw+PwML+0wuBASMWHSuUgQzv3mE2tWqOYyRAd3KCqhZHefnyhDtaWFvnel7/EV7/xkKnU9DjqhCOwff8wN26f4PjXjvHokVkSuIj63EQ7g8wuJVhO5bTqlkrVVYPxnRuZPnaWkifPG15/Kxu6e65UO2u70vbpmk0kTzGTJyOWtPk83cNDOKV8kgqujUEqIylu+brDQWckQr1SZ3V5lZnpORYWF8nm8tojF2TBbLj2A2s2XeEyyObk8/rZuTvGe95zHb19LpzeINmUk4sXl1haSlMqCqGp5WynhDORrLbGsrKFItGBIfZdfwtdHV04xSjHUQJH0fg+aKiq4ShXSc4tsjK7ou+7tJpSmNYj0tiWtan6EFhEG+Gpy703zHCnVhhCalKormE2SKmyK5kcXdGoBnGPzK3XnawtrxDPZQkMdBMJeZVH2emP0NXlpKfHS3dXFBoeNexKpWqks0VqjRJBsR6W4ymJ9W9dSXJQwh9w4nWLYE6ATk+Q7MIq6zgpln3k8g3WGmLZLO0ECR064a+9W2ndhLwQ9YqUqZ+JnRvp6PKZANLowOWI4mj4KM7PkLh0UScxkqUauaqTXLmhIl7aWrASBB0/szZ7NRWq1gj2ddJVqDCfTmoCqn6Bsom7HJpMzs0vkM6m9ZjER0DWjDDoQ+Eg3d1Revt7CQUDbN+2lR3bt+OqOUgsrzO3uE5OPY/s0rMN4mx9qQlbax1qcRCUYKn97+ZIg7nHVnVrlDbl/yYrtg0F7faYajbYjH8x1NLRRwEJxLvBTDeIf4M/4FJpbF/QbY0jmokUY/JkgmHTfFg2N4XrvdDwUi4VmJ2cYWkhSa1hAjy1JLPzL+H0NAiH+9m86QCFkodsMUcynVdL82bP16oexb9C+Ac2wuxyuDRxl2BXKmQo5FKUKxmKhYROFQh6J9B7e1DUHnulZpCLmhlnFT0PaTdKq6lWN4mC0cAw1b/yUNSnw7RyFE2yeCDtAjrm2bKCi93CbvLdzT01gciqcS2iYSuwWh1tO89qJg82adFKJizIXb4tUwuyP9gywUpkbPeLUJM0q9tttQrk2RZfEv3b9qaQ6yJJZZthmWnRWlbEVhzUI2+CCW0VdRvRs4X920hJWxD9MRAEe/vWhKCNlGgw1hZYf3VA1fthk3Yd9tjmDwu7VwlA2V4nVpVvowXNZKWZq1+ZINifmUTGiF9LsTOmBnghGmrZ3sY+UIZsHVetRjGXYXFhgUIxeyUp1H68/g9nDCZB6OlpiOuZPepjz1nLhZeK6PU338qn//2/J/4Pj5E8fYHSXJy+O3cz9ju/RProKTqG+il3RojPLxAbjlLK5kivrmgFfOnCeTYODRHpGqJ7fCPucEhPKXn6PJ5IB6GxEV3I3nCE5dk5vvrFL3D46DOmMhJ4vqPK/ptHuXPbOEe/fpLvPHyRubKDaF+U0voyvX1dTM/FSZdrVB01Aj6fyvoODW7g8tQUPX0hDh7aQzQc0YfCwFJtGIJFDLGTvmK+QD6dI5VMs17IExsc1FEo3U5tEphdGCnz2/T5hCntd4tPgptKqcziwiLnzpwlnRE5X5GNsfp/OmNtw4B1nX31+2vcfMMI9927h46oG48/RN1R5dypONOTeVOZaFlqeqaq66/6+T784Qjbrz1IKBqzSC4mOVBs2n6wBR7N5FmbW2R2eoFUqsB6UhacsH5N9WRbXav4jl1dCs4s1roSEDwe1a/XKqNkoC7Th6wzN7NOpeSj4nRRc5lRMPFV2NATJhSEUED8MwJEIm6iUWPslRc56bUEa/EMwWBE5X1FJrnqcKlvREUQD28DvyhMO8t4axX8sU5GBwZgYYlL8wukvFGSZRelcs3Y09pz2tb9DYfcRPwOIi6I9ocZ3zmGxy9bcg2nQ2St5VgEAvGRn5thfuYS+XSJXMXBeqGqxEe5V4ViQdX3JPDY8Vph5EqF/m0T7AhGeeKllygJY1xItVK9ud0qITy7YMSZpF8ubRzZGDo6QgyI5kGsm0i0QyH7m264gUiog1qhzOL8CivxLMW6UdO3KPXNUca2stIaf7SqUUEVrHtuBzHdnKxEQQOXNbJm8A4zkmXPzpt/G8MfowNgRIUkeAvsbv4tyanA/y68Phd+vxN/0IlfnjuPF6/Hp4ibXcHrhu0yCbbSdoR8KrKqzpIG27XlDBfPzVEtC+ehTj6/xkp8iY0bd+B2R6nWXKTyKfLCC5F2i13JqTql/F6/Jl02CVBbhKkMuXSCUnEZlyunipnVallJd7LeK5WGrmMTDCUwGo6JQO3yrKkXRF24BYZcaMiqkhAL6dgQzITvINfatJzEBMk8o/rHbh3YfAdr0diFst4lqyppDa1ZbRDtJNr7k0FzlFUvrRPrxtv3rYkYWJMYLd0Nh94L+/lvft3ilJn7agUkS+PDvn66bhQZERZvSxJZrYnbgpEmNS1RR/2OOaX2xkJ7CL3i1f+fpxjsK2THLHMtzDyhOTPzuT16bR+6OW67rdMavfyhRf8V/BAbSbBvxJWJgE3GbLUZzM+1MBQL5XE66esfIBYbUKllnURqu7bi8Kj2ztUy6fV1VpeXdLKq9U5t+fdPJEHo7mmIQUerbdjKWuVi33joEH+44xbqDx0muZyG3iDb/uxX8W4fUQdAeSDFbwGfj2w8Tmr5vPoiPHl8HrfDx+133srgxo3KIM4lksoobyRTBAaG9CGtlAsq9PHCM0f49uPfZ/LSRb1gUhls3RPhntu2c+7xS3z1wZeYzTWUaHbzjYfojHXhEgvMqVkee/p5ukbGqMeXaPhgfMMG3CEv3dEwnZ1h7ZeLM93A8BCrc7N6WaN9u/BWZomLWJHeSXHsczI8NEp6fZmnjrxA94Z+teTU75mn2iQL+nTIvLhFCrJU9AQCl2RhoG+EtVSC9blp5koulg4/Q1Y2St1oXUZ2V0Y2B3cw4JxkuejgQ794PxNd6/QNTVCsLFNpxKikazxz5DyVsozyBBgfH2bm4kXcwU6uu+Em+nq78YU6lTRaLa7j8PjVBptaWce9ROM+IDl1HZbmk+QLMHX0cZZzRYU8hf82smkzQb+HS+fPa7Ad372bDo+DC2fPUhO+SCjUlB1WdnylzsDoEKuzszg9XQwOdPPC06fwD26nq8/NCy+eZuv4GGPdAVaXZ4n0DNATTFGsewhEo3S48ywkHQwPDjJ//hS5koeJ0XGefuIY22++mZjXxROPvcTeQyOMjfWTWz1PLZsnMNpLRPwaygnKyRQXL6dZq3nIlxuEo8P09Xcq41oikWg4DHSGcZSLRFgkNj6BJ1Cg7qrg9oSol6WfXMIh0DhDdHdGOPXsE+TmV8mVGrg2HWT+9DS9/lXOrRbxBUbZPg4LcXGIHCI3NcXs3AX6d4xx09AWvv7Y46SLVXVii3RHia/HmV9YUka+Vqi42LNvF4sLS/SMbuaWvdvx9Y0x5s7h6IjSFw3iCPXgTCZ5+fQCAb+DuUyFiDggKbM6yNBAhDOnz5l2kE14s5ICg5yarclUsGYCRCBjHb2y1q6iStpqsHrFFuppJwey1NXESSF7w/eQpECTa80aGtoqk36/x+vG55MxQgnUkui6CfjFwdG0rpTYJimOSxIjPw4R8MJPQ1AESWIV4vWSWS9y6dwMWbFmd3lVWVGnHAJBBCHLl3Jm1K7ZQzaOm/bTKD1zIe0WC3mt1muVPO7ykiJptUZBkYF8sUpRuSWCEkgLybSP5Bppm0A4JpoYmHajtAEMvG5CuKAFxvXRWH5rsaAKeia5NhQhEwAM6nMl+VD7900JDfM9vVcWGVxDWlMQrhn+mgHmCoE9a+JEX9OcmrHSCivJs5OCVvvCSv5EyVP5CdaopV35W7LirRaJNaVjnWcLTreIfG2WxK3U5eoEwSbttYdJ8+8rAvKPoYPQwgjapKbb0ASbMGH0fFpR1P70ylD/w1oCV0ZfG/xvhf1Xvq69fd1KDNpCewMCoTDjG7eo0FWpavGB2pMvbcvVaJSLrC5KQSfujZbokv1zP0kEoUsShFzOmuUGt5UNGw6Ag/GxMT7iG+PQy3EWG1mcEwMc+s5fUjh3msb5KVzX7ebFqSniQmjL5ChmE/RKH7nuYd++vWzcu1t7KbkLU1Rn5vHv26WbiC82RLgzpgShtUuTPHP4MF/89leoqiRqXcVu3v7O6/EmE3zuM89zYTWvxzgwPs7t125l055tLBaDnDh+lDOn53jja29h6tI5RoZjhAJ+lham1YdbNO6FBCjJzoHb38Txw9/TNodU9k5hPbvdpr9creEJ9XDjRDef/crD5Os1uvp7abhc0tHHqcIiIjgilQyEAKEAACAASURBVHdF+5IiZiNwq04pCAzr9sqwDdfsuoWpzDKHROd/7CCf+4Wf4WK+oMIYkgxpVeYP8sFf/DVGImk6u2M8e2GG+4cbdB+4FZdjjUqxQdXpYPLMFH0jO5i6NEVJN0EvW/ZeQ0fvGANBF45AB7VSlvWlU1TLblL5JaM9Lxuiu4eRzi7d0M8+f475VITCyQeZFQi2WCY2sYuYO8/5uRyvP7SL52bXqKxfJllx88Gfvovf/b2/ZHxsBEGYZHRQoMr+wQPc84YtfO4LX+WBt7yJHzx5nOH0JE/Ne0j33sCu2jM4N9/MWw6O8fkv/gv73v0OPM98gVPLsGXXfkb9F5hMjXP65WMMju7i2aPH8Y9sY/f6aToO3kA8UWPx0jlm5i7y/o99lLXHvkyHiOyM9dHRF1OORyO/RmJqmZmFMjmHjzvf9A7yhZSKjzjqFR755rd4x/sf4NhTz7LnrnfgKpyjUp2ju2cr+XwGsaIOR4dYWznK8Ka7SCaSlFMp+kY38fgXPsf+22/mwX+e5dqBBXwTB3j+hSyvuXc3RSds8BQ48tAzvLR6iu6BMLds3ckjjzzNYrpEbHCCDRv61AiqVvXzzNEnuO+t93Hu9CRB4XVEo7BxN6NPf5fL3QF6dt7IhkAX120Jkav4WV9dZ2klTufAEMeOvKjbgRi4vO72fTz+3cOkm2Q3sxVJ71I3orYNQ4KWXc0JsbRYLGjwk9G8dt37prCd1U6SZ11Z7yJDbSAE4wMmHAsLWla9BLUfcKiqn88rpD4HPq8Lv1cEiMQV0liwS0uhJoO78ux5oyZB0FFCgyiYUs+thEX5fG56QVE3jzfIeiJNMNhp+B7K8zCYh8pdS2UvEwMWb0A4AW4x/HI7KBTXyWfnCDscFEpFsnkh31UoSNtKkgdpFYhgVlUSBGMMpcWycm/MqKhOHMiGrMiP1R6wuAXq4mnZw5uAcaVwln7N+k9TM19rCkMYadXX1mhjGy5g30YTA1ohsD3Q2N/SvMAiLZvxTOvzdnTUrjl1Nt9qYbT9fSVHoC2425bhttywxagxYa7VmjCHbiea1pm1YBLr21chB1bKY65Ra2z3xy2E2wOy4W0Yfpe50tY5W4ml1RyxjsDSMrHe4JWh3nzFfv9X+/6row4tiXX7nFqJhTmmgcFhxic2kckWqAixuz2DaeIEdUrpJIsLc1Qqgti2kVmvet5/3Gv3v/M64a84NEHIS4KgTgm463UNnHXxT0cqBR8fvPVu3vydSVK1NGyI8YYXvwaX53D9y7fJUeevssv0btrMzOVpVZyTXuWOzRPccNMhArJBvHwe/7nL+t6Zn7qbkLC1nV58oszncbEwOcln//xPeez4YZxConK6uXZvjBuuneChLzzBsZdXFc5z+DyMDIxx08FteGPjpHJJFhMpnvvei/zSJ36JTCbH7qEw80uLnDxyhLLXxy23XMvcTIlAUMb2Mtxx771cePYJisFtDPUU8cSXOLe0pkHCHezhrn2befAb38e98wZci2cZ2nKQ1eGNRI5/g2vveoB0PEN54SVmxf0vtp0t3U48xQruRopz9LF+7Lv0Du7lXGKO1wxGiex/PS/81R9z5MQZJucWkMFAGVeU2dc3vfPDRNLPMD14G1uTx6nUSrzxp95Mdv5lNmy8hmJykWwiwYnLJXr6d7KhS6yizMa3/7Y34quLxoTwHOqk16aQteQLBzWBKWTSnJ+aY+OGQTxUOH5yhVy5i+Rz/4tL2SxLyytsuOdD1J76LKv5AG/9pQ9w6rFzzF14ivVkmp/53f/BP//ub7Bt+zhnL1zWpyXWHaNacPD2n38XTz35MrfcfTszk9P41k5wKRVg+4FbePnZp7jtNXcT9OT4x6/8E7HXvZmds4+wHtmPo1hh1HuWC8XNeEWgp5zhwX85yq1veS35cy9w8M1vZ2lmmTNPPc26t8GbbxphbWWWoQ0RfGEfof7NymFIZdaIuaOcOnaGsMuBd3AH4a4gMspVC/Zz5PHvctveXhqhcbKpOLHhURyVKZI5Bz5nlGJ2nXJmnpKjwsSe24ivLKn2wODYDs4ffoyRgShPvlxnYyzH9549TkfPrey7fZxovUY6t8rZF8+xnLpIX7+f3bu3MPnCFKcm4zRCEYYO3oZndZrz56eIr8xwzb5DXHf3G6kuXGZt9RyPPnGC/u076fH7eM39byYzN4nf7WNi+27is4vqSyCtmhePnNZn2OsdZkNXisnFZLPNdXUAaW5CzTE+s1FKNSuB1HApLBVPjc2m8vLISKBO3lgS0Tp9Y0W5hvFOaQ1mCBnOoBFKjBNVU5lucBtugvBEQj4PXo9wFhr4/A6cPulJCHIgs3imL9VweHAIV0GspIXUqJoXJvAkVuNcvDBJKp0nlSri84V0rl8TBOG+1Kpkc1ltC7g9Xp20kdaU8J8y+UXyxSUckkDkjJV3Vtj5YrWrgj+CAMjosBARpX1gxg1Ny8CgAwaBkSMxyoF2+De8Dmv3thADA7qbPwoaGN6fKV6bMLYl0HNFnGx9cnWQbm3aV/bR26vXFtrzyl67ogNtO78m0xZn4tUDQquNYG5724HaBlG2xLcZfP8hccVi97eB5fa1MC+w9AOsBELDnfW7fgRXsPn7XnWs8qqjsUD8ttB+ZZhvT9DaA/irnpSscQuA0Ot/RTZyJeJ/5X278t2aV9SJTtzs2LEbp8ujCYIhJ179xgIgVFlbnCOVije1GJoNm58QemD2HkkQenoaMt4isKBsJi5vnaHOEJRqWhUJtL57y1Z+KR4kvLCGb7CPvZ/6VUbfeT+17z3K5KOP8ZnUEpGuHnKZrI6DbZoYY/fIECOBMMEzl4imiybj3TwBt96G+5ETsJoBvwdeu4fTtQR/+Ee/x/ziLHVnje7eCPc9sIfESwv8zeePkSjncTUqdMd6cLj8PPCuB5g+c46FdAq3y8/6qbPsufMGluse7rthB4XVZZ5/+aRaRN19982sLAtEmGBxZpZAd4z91+5lft1Db3cR9+JpTsymdf7XHezm1s09fO6r32f49W+jMfk8PUN7yWzbRvUHf8+db7yPf/jHr6uM62tedy+bIlWmSx5eevopcvksO+66n9mnvkYj0KU3WTbMoKhk5VI4XQ0uXbzEqZMXyOYa4HIzvOfN3Dg2x979d3I+XuLSy89y6Nbr6Kkm2LxxtxBcaeSXWV2vUfJtpDHzPaZrbu7+qV8kEg6SzmYJ1ZZIVgPkMsv4/L10uXKcn1ogEOjHEQwRE1c+r4PzJ6ZJ5EJMfeuvePLSRVKpFEM7bmG8s8RsvMwDr7ueEzMrlLIJqlUHH/zgO/nmP32TWE+3bqhrK0JwXGQ9k+fdv/ABnnlmkWs2hvneM8s8cEsXkcHtfP2Rw9TqDq697jp2jUf4zr98Ce8tb2br9MOcTQQIhAbZv7HOF77wjPpFDW/bx+TFc8T6NvP6vS5mCr2Usnmmpk7RM9LHxpiDUn6VDcNR+np7wBGhI+hj8eI5JsZ2MHn2NJv6esl3x+jcdD1Lzz6FY9tell86zM5tTnz9h3B4quAPM3f2+/g7N+FIrVNw9tNIPMlazsmBu95Can0RHCE2bNjMo1/4a269/VaeeapCoPIo56MH6Fh2ELhxE7liEZcrQHT6OZ479jCHbr2W6ECMxMUlzp2fZ//Nt+LuHeOlw8cUen/0mRf5mZ9+K0uNMP2FJM5Skm+cvsxIXw/92/Zx1+4hFbkqpuJ4XCHi+QZbQlkennfivzTJioqpjLEhtMrkUrbZ5zZbkNUKtIJRawO1HOSsjac9uBiRF2McdUWxae3mZnjSqryEba8bpK2+aNo3Rm7YrmDrijKoZoKQWsUjoFHBKaRTn5NQOICrI0CjlKXuruDye2k4fSDiWA0Zcw3ScMm/RT/BaCcIMnf6xCkuX16gWGjQERZti4ZK/wpRVDQO/P6gEaKydA6SKUkOZqjVi5TzFSoFY1ecKwrvQPgEhoRoEAMznmiQAKuutHrxTR6BkgetVo2N2rSNnbd6262xN0PgswvjVv9d//VDE4RX1qb2vb06cDR/8hVoQFt4arupNnnPJhW2hy1D1nulJ8KVPyPTLqZ1YgdWkyC0B7VWknR1kLVfYyMqhpBpkgWbC2BW8SsDZDN4/1BywA/JU/5Nv2wPKltp4I+RIDSfSQGYPR7GN04wPDLO6mpCuTAtd1SzjuyEJJ9Ns7w4S7lc+NeGM/9Nz/bV3kwJwN093Q0xNJEFVXO4CfcG+MjPvo2F01N8/htPKE9ApErftvt67jw8xcCtB9ny/rfi37mJ8MgAh7/5DR584nHNLmUkqlGtcefea9nr8BBbSeNVSU8njh1b8dx1J47PPQqJLLzhOnj4JfA4Kd6xi99+9AscO/wUdU+NG+7Yxv5NY/zD//wez56OU3JUlYHcHwyyGI8zNjiEJ9hJZKIPV7WGyxeiO+Sio6+PxvociYoXdylFvurgnnvvZvbiNIn4OqVSkZ6+Ph0hyRYbuBs5Orr6KeeSxONJyuU6QUeNydklGn4/QxMbtQWS9XTgWJ2FUDfdIb9KrYZ6+nHkV8kSYLi3m/j6Ko5QN8X1JSJ9Q5SLeVVW7OgfITlzibqngatSIb4Y58SJC+RKVa654Xb8lUW8PePK5RDG9cjWjewbjDAQ9msCUC7MUKz7wd3D0HgXkaGthMN9yFhsrpQAR1kFYwrZDMVshaA3wMLSmmq3ywYoGt5eXwe1YhK3p5dnv/sQk3PLOsUg43/79+8iNtDHNXuuY+riWTbvOUBHdz9bBmNcnJ7GHwyRTqWViyELNh+fo7CS5TuPHMHZsxFfA9ZmFtmzd4xCOEpqNYHP76U3UGN5ZYHO0THCmRWmluO4nUGcxRxziQad3T3EF1cJjIzS5XewdHmevokJtm/cyMknHqMQgR0jQbo7fUxM9FPOZliemVfCq6tW1PVcrRXZ0N9PdHgLoXCU+OwU8XQGf1eYngEvDXcnudzi/1vdlzRJkh3nfbnvW2WtXV1VXb1M9/TM9D4LMNgJUcBFBwhm1EU0Ew8yEw/6FTzoJDPJTAdRklESTZCIAwGBFI1GCuAMlgEBYgZ7r9NdvdS+ZOWeGZFLyD739yIic7oJzAgYSAV0V01XVWTki/fcP3f//HPk586i32F0yUiaQjaOkLAa9SMsrlxAJM7yURqlTBW33nwL8/OL+NFPd3Hq7Cya8TLu3z5EvjxAt9XAieVFrM8nsLv3CC9ceR577Q4Ghxw6tYf6fh/N8vM42N5CqjqHx/efqFLiTFVGGu/U6lhcWkQ5l8TS/BxOnTuHVDaHeO8YHI/6kzsbWF1fE12GB+9uiEpgbmYejc37aDlqcjUIC6yVEMiMwbdM6XCbnNAR5cdteKu/Pm3vBBzYqM7/2owYNnBEXQOzBzazoL8jxFkSWqmd4LGH20EiMpZWznKlgPGgjUjcFSVUjzMQUgYYCEDIiSwwOJBKMg0k/g2xv3OAn/3kFpoHbaRKFZUMpi7JmL0q1D9man0Ep89umC0Mhg24DtUUu+g7rpQVOLbYdhqQU6BTOkfaruiTCE1rqqmFq1E3DtQmU6YclQ7K9F2gyRqoifWhgfHovlM0FngySv/7bHzwhKYzCLIDzLdt+UD/LfgdIelxWJQIrEWlrGJ/ZhIg+AIHfmJeYZNxWhNI0swtCLt1aWG1H4E2h7+OZlWYgrEVCFmj8CCl6ezFU5bll8kgTK/BJDL7YP5Uj449Qz50eWY34zT/Q34jSs5bFS/feAWj9gA7e0cYhhR57dlU0bkRDvd3Ua8f6sjo3+CHAIRKteyxVi8AgY1auQQ+du1FdLb38KMHT/xS0ZkzZ/HF+dP4TLKCxVdvYO1f/lN0m0186b/+Z7z9wx8KE52DdWYLBfxOtozVeAYRZgjKJeDlK4heehGxP/8B8LPHwPo88NmrANn0D/aAn2zga6cc/Ps//NeYp8rg566h96N9/Ls/+Q4O2d4U8eT62TFEZrhcKkmbXD0FnF1fw1y+IH3/Kg/LlCNbtbTFcHVlCd12z6Bhs9rWwJlDLAfC4zyHLrqttoiFOGzby2cxZDuMIS/pgB994kKbMpP1LONbamAyMlY7DXTaGsVK4pKGjQmTfCRtlDd/fhuNbk+Y++Q2WJWzVBK4cXEZZ2fKMlegDxfpShGrJ5YRLZUxf2JdtCOkfivkJwd96s83e2jXe+h2HNSPayLyQpZ3vX4sNdZBp4etJ3uCXtlCmMtlQI2bhaUZrK6vYvWF65idXxKdd1HGM+1Dk/uTDmMAr3mMW9/+Nn74k108aY6RYL+110X8zCmU81kpCZw/uYxsJovjWg3H+zt4snEHG4+P0evFpesgwlZNbkDTZ8fnlS4XcHZxEfsbd5GaaeHc2RXMlFKYiXio7e6i2+lIS9poFMMwmka6UMZstYhMjGWxPkaZCAonFxEp5lWv3pcDpkMzD1EMmiSTpROBglN8+JxiSLDZ2vHQaY/R6rbRc8douB56Q+KJISLeQPgQZ84WJbMS48NKpDHq9zDoNHG43cLOkYvmMIpay5ExzSTEWXfMLoZMJoV8MYePfORVUZyUxqfREK29Ju4fNOGNuLcsjcqQwkyrnBiqcGbA1ovtZ0vUkiE/gXBTKKnt68UHKQT9bpDqNQODQjliBQEKDoRzLWsYxJYiCcyObpmizB7ukSh5plMJVAoZxIc9RKND8oRVcZQtwskkvFQekUQeXlTFYgL9BN11zEjeffsWao0eRsmM5DLkfzyHIw+97jF67R0MRl0VpOq56Lp99AeuzGJwqWUhXTosLQQdCfJOgpBctoMy9UNOP1QmFx8RZrSHSjlSapjKEPjgw/cn02UF/UZQxJj2AmbCTyi1ba9gIYDt/58ABdOwT7QttCzAQC/4WSMrbYGlf3tBd4IFQJOgw8wdEYSpMELAos0EsBwhPA5zxnyQpGvrdxGEWiDtvrMTLIMlC7gTvyw4mAQIz8rOvD+PG8gxT5YZnnVPygmZfO1YOo6LVy/j1Ik1bN/fQrvnKEDwbazpKiLg7Xawv7cNx+0+W1Lh/b2FD/zTBiCUPM5K1+MekX7uBBIyRYoCO7YXmyj04rnn8LsXruITl66KvO+Zf/5P8LX/8WV86403RPL01Po6fvvzn8OJXF7nFmifG6I0Bpxb8m+/BjS7wMWTwFIVuPkYeHIoB+x7r5Txr/7DH+BT//BFrGQy+OofvYk3fr4JV3qxPZyYWxB2OCOASiaHer+DyuoJLJSL4qC41iRiUUmM6UHRHogAlXJZGNlBfUrxeBgY2wCrVW8LQKAxcXm9bIbuUPuBaUT8wQgUZNHXCNcbrYIZNwmJgQQIlGNmm5jcmzhDVRxsHB7j5q076LgkOyZ0WhvZ46CwUAQvXlhHNRVHlMOe0nFUz65h/fxl5ItlRKh1QLA5jMPpuKjXm8IC73ba6LY7aLdakk7lzxD8DSju5A5x5+a7kuqaqRaxsDiDUrWCF668jNnldcTp7MQQGmbw0wCCLB3/cuDubuKtP/sG3nnSwCCWQmLYR3r9JF57+TrOnT4Jp1aH03XR6bXROHyEqNvGj27uY/+wKSJEJGsSH9NwsHWuUCrjxkdeRaRWx83bb+O3P/c8srk4UmkPlERgbZtGjmJWexu72H1UR7cxQiodQ2kujfMvnUJmoSRzDkhA5cAgb6D1d7VgqusRpYw0+/zjnOyng4qoBkn9Bbd2DKeVwWjIGmELbWeI1hDo8RLjkYwrjscGGLlNRCNj5LM5zFQqqNUbqLe6iCRy6A4TOOoO0OyyF98R8qtUb0W0Ji5p9+XlE7h6+bJk3OjsvMEAO08OsNsiCNFBWmaXakOiFWsJhZK2HdnWHeTnZOIg31fc8ONDJMYJ5xGOSc3yWOdoas/hajOVVbW0YMsT6gACBjuvp22QHH4Vi/CZxuT9pWIcCOQiTvZNXLsgInzf6QQi1KDnfI94MaS+aNPY+szYNVN7vI+btzdEZIq6IFHyKgYNNGrbzJOh12uLwqJkDlxX2lJ7FP9hWUGAgWoW2O2r8uUhlytBAA3UFBwWmXd1f36kZH7GxNfaWiqdIury7WXt1aVjJKwJMAU0nm69gzS+fx2SR0XamhmwgP0u1zdOyXfm5vVEIMkOGTIX8mcK6O3qPjH3PumRdJ5IWIRJdTMsMDAtuH42w5RYDBCzmRO/q0NeLCiLSdeNzVgZYSvr4J/mfN8PSJhg7ZoFnuJv/tJOcwIghH4r3MQZvtg0QKCNOXl6Ba++/AoOd+vY2T3EiLbJHyBlSws6gvvocB+Nem1Kyn3ydj8sGoKfQWCvt0YEfGmechPDmPYdW0djVEzD9jtXX8M/+OxvYfW1V5Caq0hNPpVMiaoZDaHFlOZo6U7kifqL7wPvPAB+9zPA174HnD0BpOPw3r6P/zl7jDfe+Utce3UJ/Xv7+I9/+CYe9kisGiGTjGNhZh5P9nZFh6WazSM9U0KuVECaPdFxZUUnE3TIalB1+EwElUpZonmtp/JD1e8ClqtZfA8S2fdaHTnwootIgCAtTqYFyq/baWTH17LKdbyKRFKhPzJERFTNVLxHHJJJ08ZGHrYeb+PR5hYGogrFLAIP3Rix6AjVxTLOz82hgCFypTwufPo1zFTnBUiMKGoyGKPLSYWtPrqdvgypcfot1Os17dIQ1pSZ6jccYG97F8MBB81EEUtncPHydZy5egWlbFEklLW8GK4vPqM2KA+XUdkAO9/+Nt58+x62uyPA6aF0Zg2f/uirePL4XVDpp1JdQO1wHxvv3kQmn8Sg18fm4zoGHBJFhTeZSEfN/xQS6RSuv/IyCoMR7t6/iaWVFCqlGOKRoZLeUnFkMnEkZwoyBZHKjf2DBjpHdeRmCjLbwfJoetRFIG1dDHtQ5VRDrseLxjZL8JqNIZaOAQlqOA/gHkfgtjwBXO2eKwCh6xqin+dgDFfq60dHB+IEFzj/IZZEexCBM4yh5wLNHocOccCYtsTxgwAxlU6gUMjg+rWrWJif0/1Ig+8MsHF/C81hTLen5RcYN2wZUj4+MxBC7brp7ZYR1oRcBEGaRZMX8P2g1hUmn+pkpKM/rnqUvK76gsCBKEBQ9T6/ZOGzISwvQdMRMteBBNKohwwHL8VYGhjJ0Kx4OolkOo4oxxFTajaeMVk5IzTFbELoRhlcuAcd3N/ak7Zkt9fF8fEjxKPUMRiKRHC725XMVF/AAUGCTuUkqLdZBOn6sG2gvlPURdFWPqNRYO2xDxDsOuqaBhkCq2gZzCeY7oO3lR3/kuEpiH6EPR3tvhcgiAor58CYeQ5+hMPsjiEjTpY39JqBpdM70D1kX/gpAMFqYBg7pp0n5tmKgFYw2ly/Z4ValKUphE52n9hSjVX0NJkW/6UNQLAqj9RZmSTGTJEmw875F3IT3utCPyhA0PMzfWqmn1dwc2GAwN8qzRXx0U++jnwij7s3H6LuOBIEqG5D6DreCG6vjf29HZG9tq/4tFf6sAACScyRykzZ67sakeqHFTUxt0GJPd8gqBLg6VPr+OIX/zF+75/9HlZWV39pNOYxyvrTt4COC9zd1nVfLKPzyQv4gy/9G5QWPKwup/HdP/sh/tdf30RLugfHmC8WZNpby+mLkV2cr6JYLOnUOYmYxDdILV7u2swA5/cJECySnr5RrbsGD7953JQIlcE3Z0FEM2mJciWjKfKsJuVrTtoEG9cOhwmRiGz9T0sOWnbgxhDpJV5vOMbjJ1vYZk1qZFjCjGY4WzCZwNLsLK5dXsO1G5dQnFOHMnTHaDX6aDY5cU0V3qgn32u3EcEQrWZDH6VPqx6j3+2iXW/g9MoJYYKXVtdw7tINpFJZBYUmKvDXx67JUzGCTdED48MGfvb2z/G3P78jPIWlC6dRHo5wf38D0UEEM2fP4fTcEjbu3ZLRyuw129s+lOnU8UwB0UTMF+iSCZC5DK68cBHdwyPsHD7GheeqKFDWN6bCT+KYKPubSshQqUK5jEgyBq/XhkueRH+EPhnq5uwF0qtTtVFjNSlAIzMGSilkSlkMM3FExymgM0Zju4ZWq4dWfwzH4djnIfojF8lsCu1mTcod5WoFuUJGpmK22gP0Bxz4FNP2ugG7ANQQcHm1rJPCbLWM6zeuIplISvaAS8xMy8ONXXQpfx0y6eL7DaQMHExwVG0Pvph5I+jDtj1xJFFmt3Sjqo0znQrvYR+Ea8hGSMznIhjOgbmOlBoEaStACPfA+wRHRT1BB0QEkkVg1wq7Hqh4TsBPbRK2O7PMRGEpsA1S5NAtDPG11g3QAzwOKGu08M47P0C/34E7dGQ+SrennT0ECD1pa1Q1RSoiyqhi23kQIudN+xgRODLO0ZIQp6NWC4tCxtJ0LmgHmI/XwoYm8Ii+gw7OWeDEp21TMNVg0vn4R9I4GNnKz/B+z466g4mEwdWDc21BAG29/zUthUz6VA0Xm7Hl22MJUzICxi7arI19w3bioRWe4l61a2UnblsFSls6sUBmurTzSzub39APhp8FdUFeunEeFy9exOb9Gh5tHkrpWkMWBd46kZKdC65woviHQD94zgGOkEduUd6H8P58gECdcc0Z6G3ZOFdzUDoAJXwoGBlVKhWZPveFL3wB16/fwMmTJ1HkZLWpdBcR/t7eLrY3H4uy4mvrF7G60UH0uAMvk8Dhehlf/vEb+MbffBWf/uyLKIw8/Pf/9A288+gQYxEUGmN5bgb7u8dwIhEUCmksLy8I10CMr4xhpmJbBOl0Rmr83GzqjCE6CH7qPwSnjR3TR2XAUaveBNUU+d9ckXg2i1GEsrmmDUoGF2o9jeUFpiUlKjVOdiIta9NxRpFOdO2TWgJh7zhFpmQKojvAoyfb2NuvSXaA899ZDyXoyaQTePnGC/j0Jz8mGvhkcXc7A7RbbONiT/gIA6cnAIAkxTglfnldg+30vY3g9HpIJ5PSIvbCjetYO39RRJWikWCKWDjdp6fX9qqbnShrJwlVfy9EKDF95wm+9Z0f6Y1ZnwAAHHJJREFUYPvoCLlqCalRH9F0BBh4aBXyuLJ+Hm67IakzIq2tjS20WWJI57WkIjVSD9FUAuvr66jm8jjY3cHG5n2cOlnG+VNzSMVdGSrM/+uIJGZvYiKmVa6WkC3n4LXbqG0dyvOSMFVGhPPKJpMQ2teWnW2dJjWssvkUErMl0R3gC436QzT3Gjg+asPtR9DpD0WO2cVYpGw55Ip3wtY/klu7/TH6LqPVCAZ8roZ7wOiO7zGTTqJUzmNtbQlnz5w22QMgOua0wzY2d+pwPabQg5hBv4yaKaT6HIJvBylzWwZkC5+o4CGi5S2m6GW/ai1a3nfYmUyFJ3Im/Jqyvp46fkNg1CnwOjraHiATX6nlsHBmCjyIlsIYiRjZ3BGk43EZj84SBKWBCdKoq8DMB8sjRP4sE+kNG26CmCBFfq3jY2w+uI+t7U3pHuII4w7PAOe8DIZSapAR3bZ9MTQwSUCX7VqYcOQBULJfPc05+XppoWNhU/X2+UwsqyQdws908utnxaLTAEFyCoZP8EzfYDkF4Z/z+RIakYdJdJYToMjIlpF0j0iZlF0pfCbcP5IJNVNqjW3jv6lzM3NC1KtLBtOKTMlaG7VWPg/+sSUeTXJZsDCl1mgyHf+/AgT6nzPnlvHR16+h3x3h1u1d1Nuc42MytZQTMCCB/qPXbaJFBVCnK7ZjAiAYUPChAwRm5Gdmyp4Ys1Dfr3qYoOtV4YEFCRrp2s3GTXThwnlcunQZKysrOLl8UjT8qTx21DiWoTh7Ag7uCOkoX8jj1OXr+PzHPoFbb30LX3/7+zja3cLC6TJ+6+PPoXHnEP/lj76LDU4DjI6RjkewkMthu94S8zM7X8biQlXtmMwG0OPMFC5V/0g8Y1qXoi90DqUSCYwaS8q7CkfFIallXoXTA9kexZYrAQjUFPA8mdwmW9kjc55jZbVuLgbIDFUSomKIoGIPGV9Uyh1GlpnrRaEkikcxIpMJjSNPhJBqbH+J6GhfLzKS0gkzIP/o85/DYrkkY4PdIVvBdNw0WyfJ2q7XjuCRhGQsh+2H5uFz+n1USkXlbiwt4tSlK0glsoZxY1vYbKZaBWLEKckMiMBoct14P0EVQtGWV3ewefshvvn2O/K8YxEXxUISsXQWM6fWkYsm0G820e40kU2l8eDOfdTqHXixFB+aDIbi2qTyGbzy8nU8+NlN7B8doj/sIxuL4OoLS1iYy4iGvuIWBbLKZCcQjCA3k0OhVMDB/U3J+ETIL/B93aSpVUKpOksZdyx/j+FFPaRKOWQ50CnFaCkKz42hs3WM/c0Gtg5r8JKcYpgXEEKiEQEbRyD32arojCXLIGI7sk9GqoFvpLVz2RQWFqq4+MJ5lAo5v+RFPsrB7jEOGn0MBSAEa061S7l7q53vD4KyRtW4F1PbZTZJWPoyfYxdRSnz34ZkaAmhoUPgF2DM5gk7/gmAEMptiBSs+XkrFKvXodHThZ/ILohjYvZhbLJ+dD4xJAUcUEMhgniK2Zy4yFEzs6RAIQlPCLOclhqaeEenR97Gw0e4fe8Wmq2WlBm6zkDLDI4jZ5YcBKsmaedoWE0DWaMwv9A4Ur9EEAJq8kTsf5sSw4STVqsv/6Sy5SYPNFHj19/wWyTN9dQB2sU3yRILhsL2yspiWwlh/34mU9X8VfKf9LVMa6H5WVvustltO7pY7t4I49nzTY0Jlv6kRBqhnEXSBF0ECqq2Ke/TIhybFWA5ljZShOWYeTXTLfmZo6PNlEj+nlYfAtXJYPiYhquKN54Orp4Jkn7D37B2nwHz65+5hrliCj/98UM83nNErEuNGInAPA+aKaB2ELvghsOeTN+U4Ym2RBh6P+HyxS+ssvwK1oE+NDIzU/E4/tSmiBQhPy23bDXEbYYh/PAUPLAdkt0GjAYYMc/OVCTKdpwe8uk0quypH42QXTmFj6yfxpt//hV0RmMZ0PLiR8/hpbUS3v6rn+JrX38g0xkRG2JppgKn20XdcaWVanVlEYWiGlj/w9ThCoW8bEBhpZOsBk+07+38helMuoAGcx363NZhXQRW+ByHRNC5jBxoGhsx1F5EnII4UROlKyAMrZdF7AYY6OEz3ARJ04lrEwMrkrbmphoHNWzcewRWn8Ym78bHkMpm8PLVyzi9OC/lj2Q6I9EzgQzfI++H71lKDHaWQjhV6rhIp5PIzC/i3JWryKQyIca66vjzEJPMx8hLpGQFHEDeNwGRzyqh2EcuLQCQHSMyL2PgoftkH9/45lvY3K/BGbaRz0ZRmZ8DxjHU2y3mRQS4UeGSExqZBRl6MYxo+NmBEBkKP2NhfgmpaBw7+/vyuilvjLWlEs6dXUAuRzVMq0fL56bWSVxogmWmKIbsVqFBk9YuCwj1ASvkVfDjj8e1mR8TPTHzkCpkkZ0vqcYw6xmDMeo7R9jfrWM4jsEZemiSfMk1Q1TAFkEYp3lSvZIZDnVGZtZBlAqFcRSLeayuLuPCc5RZjRpwCIydIXZ2jtDscZx0bLIsSYCgD9Xf6mxdtS1k4TOgxH4dsEOgIKRMM0ckyA6ZvaopFNsTYL7Wl5gA0X6WwB62IEMgEMzPnlkCo1g/JTROWbAwoJC9L4meCBIUWopzjSKgIno8GUWMGQVGrhRJknHSVGG0Q6DMXRoP0ziu4fHdO9ja2sZxt4de35WSG/cyCaLkJNhsjiglG5KfZl2CsMcusLxTW4oIm5iJLIC+T//vEEAIk9f8gUmTpkp/LwwQ7OJI10FM2zDNxbmXZZ3J6TCDpsTxiw1SwG6lp3075HMDNOsgUy59ZUSTSQj1bGh2wszeMJmCeDSOZCppBsNFkUyoxDaBHbGB2q1gX0opVjgeyqmhneca0bboMCgth8owLANidYZFIFilXDerMjlt4qdA8a/AAf46LsFM9tx8Hq+/fgnrp1ax9aiBm7e30egNpFvNPlgZluZxANgQ7VYDjXpdgHWxXMSg2UbXYfdeGDuaHJ2/b34ddz95TQEI1ZmKZ3tk/eRx6HALA9cPTc0FJgCE0R43x8WmwkhAO7d+Gkd7e+iNR5ibrWLl9JpMcrz4kddRanbx3e/8jfTXJ3JjfOJzN1BCH9/48t/hrVt1DCJDxBLA+sISNnf3wOQMo8j108vSMijpNn90MuuuUeTzOUFj/HdtdxzLv2nwGRROAmDBGpC6DdatW4c1FVShaltEa+JM0VK5jT9E4NPv9X3imY1GhbQUYuXa68uBNe1henjDJEY1BnqNMeKDMe7deoBau4uhsdJijuNxrJ08gUvPnRWVSRoDvjfWwPljjJKYztKMjh5ZjVwhI2zLhSIaA+C5K5dwYmEWUdHEN9ZnzPT4AJzFwWE25LgJ21tEa2x0YFTQrDGlHn8yjkw+i3w+K+li9Af47tffxM27m3DGbDWrSxmIYyHqnZYM84lH4mg0jlGtFGV4zsH+IZxBHGPpfaNTHcmQGUaRrN/zBtJRYLaQxNraPKrVrEj6iuMh4PJ9ln6h/e1DccbcG/InNCdNn7Kh4frjcQnYSKizaVWGX1HpWY5mqfZnl4pGz8PeTg17u8foOiO40TRa/RES8aSUdWj82u22GEQZ+S3pfT6bqOpCzFVx8cJ5zM3NaqRtyFtu18XeXg1tlicIgWRmrO5XDXKD0F58onl2fN5hnKoBR0QALgcPMYLTWSEqZezzBkw2wgcIRqJWMl0W9U4haWXeqBKin4kztos1VCEl2ruWB2MzUwE4M+/IvjNTugDILxapZGlTVuHFRILqjMwusH0lLspzMRoDdqcYgSS/9MB7dVwcP9jArVs3sdVWHQRmEbinWYZjVwMXS4C/SXOLcmKo1GBNmg3cAiKirWwEmaiJqNYcJbu7JjIQRlUxPCBuAhiY9fZjHROp05kSJHDRaSMUdGnmSzMgZp6GEAajE1nMsIm3pVbWkv1plNZOBQdIs2kCELTsw+yoDIQTOe2knMsMPwuPRMWyWNYNZ+k4JZXCdMxuDl0KU3EOCGeeKGAlJ0SCEJfAjZMytZRqNSl0GJ4GmvYMaAzwXmDw/joafv2ONEw4zBey+NgnXsBLl9ZRP3Rx8+YeNneORQtIAYJtJaUQ1QjdTlNa0bk2BGmZfAbVRBqbhwchNpLtLAuVx8IB8q/pLQpAmBWAoLOmxS+Yh2SDNSsSYe/HBs7KtDb/6k/7CjYyD/fp0+vYeXcDncgY6VwW569dRqzTxWuf/gz2f/RT3Ll3G+PoGLNLaXz0k88B7R7+8o//Dj/ZpNysK+WIUjSF3aYK9RQLeaycnJ+oK2sPNlOWUentd132++qwJwKEXD7nO06rVGX9o3zDvIVRxEProCb1Y/4TU/1pAg4DEFR5jeNghybKU8NtDz/XjQf4PUAh5GRsqKblCLK81ZEzMk6MgdZxG/cePoYjsyIYPeowqNWVZZxfX0U2ocBgZHgG073QWspQ0Rre93H9GNFMBafOP4/VtRPI5tKIi4OIYkDSXddBp9MzxiOgnT09f6RLpWnLkdhnOr5KmdMY09i78y7+6i/exNFwiJ7bxtJcARmeBRnsk0Cj2ZESU7lYkKE+oxFba6OoN9ieRmOh9yXSINJeBWRiwGw5i4W5PEolToTMmvkAxoWahIKmba1GhdZLFWMFQMLPgkhmR9ddIl2ZyqlTC2U7sJEgHkN+poxkhnoTEgeZCJZtpWO0WmPcvPcYxy0OHYrJ8+C+kHQ2vbYhc7EOm8ulkS/ksDA/i4sXn5fOByktMXwae6K9cVBrojfiQDBK46ortXvUuiX9LHciD8JO2NOauqak+PwZocl0S07i4vzElIzENANfVElAD0RouqnNtihqMC8/6dz1lkxWJIAtvrZekNwxJEZTX5ZIyQAUm8UJPpuMBAE9SbwEynECBY1U6ZCiCT0DJDIyI0L9DC058LOSGqUFZzRGv3aEe7du4uH2Ljp9V8A+QQJ1TWzkOjRiSVoLN+TOiXSkLbcZWygmQi2dPAFb5zdRv804+Kp48v1ANXD6LIUTK/Zrm4CwWSe/mhs2/OYZ6VMI1UaMQQ7zC8LZTQsE7aUU+BgdC/NMGfVSM0TLCpzWSclsBQeZVFoIpRmO+I6PkMlCuokK2SyyBP60eUbOu9dx0GwNcNh00Rl6cAkChtSg0D0pY7jZKeQqcLPlMDsHw3aEGR+qR+D/UYAQzhpbW1PI53DlxhouXz2NqJfBu3eOsbFxKHuRfk5gtGAgLS9w7DnllLs95sttd0gUJ5cWUNvZR2vMMrQtApoJlQYcSgDx99QZwuWID4ofyLWKzFVnPEahBtrr9pvYxdZWGYxsDoa9bZHQ1CdpGMhElzFkk0ksLy3i8eMnGDDySCSwfuUlVMfApz7+Kbzz5rewX9vFKAmcvbiISxdm4R408dU//j7u1foYx0eYrVQwbDtoDMkrAKrVEpYWqz7vwF86GpgERWjSAhCkdS6lJMV0KjPZxRBGOqZOLRkEjNHar4lj5S+yxJAs5HSULEk3UkPTr3V59OhbZM/NTsTFDwER5qk8zdmK4xKnZK5BkZmx1sTv3n+IWqOpfbLyR7Xu11eWsDRblXqggAv7HHzBDc0ciKrdiI6njf1+DyvnXsLpUyuYXyxI2pwzB4auJ3XbHkWoBKYrOgy9LbUxEzevk+r0f1aKdoRYIobZ+Vmkhg6+/t/+FBs9F87IQyLSQTbiIV8oimDSLtUGnQGqhRxSniMM8/xsSYxSvzNAq9XV+2HH/NATTkAmE8VcJYdKMYFyMQeic8r6Sruo74AsxgvxJWS8drC29oDIv0h6W4mR/Jogp9vvSosuOx1Z3qGoH9suC5WSGtNkFGBUNIii3Y3j0eNjyWoNzXQ/prDFAdm+e4+Ojm2UzLKkJdNyan0Ny8vLKl1MgCCzhT3Ua00BGs44Kt0Qga/S56IxlflaSJpW5EZTyz5D33TZaMqZfAieGQ4jS0hWJly70DqpAUnS1mx2c3jNTAnC/56snQENNivml24MrjDhd1gfYUrayX8tK+GsUag+L3JLCRIYNJNbopkElkr4h0AhphwFEpSjaY3IfEKekhlH/T72HtzF7XuajesztT0cYEDAwHKDIdAJV8SQGP2WPCnfmBKRif7VIatNsBkWISYbUSAbJIlmAFP5HOjkywobZz5loW3wHphZJYLbFLtFaZO2w4Zm7zX38rrS4hpMN5wADBO/Yi2T7n8dH8+SDsd1J5FKkBeUQCqVkAmduUwc+WwalXIWiydmUJ0tIpNKyjjica+PYY8k6CGc/gBuf4RWt4ejZhe1loveQGi8Yju7riMZTTs6nfuTipmWAC5kWllzSyrW4VxPJYp+GAX4X+BVbQlTAzzIWl26tI4br51GMpHFwc4AN28doFbvYcgySmQs9lQcvrSCupJRbbcbsg8ZpPCDtqk0W0bWA7aOjzRlKL+oGcIgWz3Jz/BtXLjcPcXheL9AgTYsMlud8VjvVWenBski5cCwml5h6/RETCcgtukhCvqsacBzhQJK0Th2GzVlPscTWHvpRVQ9Dx+/9gre/OYbGAwdxIsxvPLx5zGbGaC308BXvvQDPOoMMY56WKxWUKs14JiwhgBhfr6CiNGJFxtvyDtSZ0+nBKlyoxMgcLMxNSmEmpDDDmdn7GGlS2/uHWpyVGSnI0gV86rdThQsIEGBQoBwVUyE6TiiY0kth6IMKYE866mIozIpb24yGkkvIqI7jza3xfkwa8J1pekr5jM4t74mqT6idts/bJGnGFqpN0YBZ4j9gxqyS8s489zzmJ8pIZuPixFpNKmXYNLQsuXM2kzxTsQAhm5eq8ymv1mVX+SDglF8//MzBdR+dht//b0foDti+2ILS+WC9EST91BrdXDYpphQCmszWVTScXS6rrRdVheq0uHWJBF1FEG74wgzPZWKYbaaRyIxRrGYQzqTlDKCRDjcvLJ+QaQbGGtbTpo0quKYTapWTHcEAjqOajXlzvB6ceUB8MCS+EjWvZeKodfp4927B6g1s+gO+jIzgGCSgHFA1T4BCawpaiaJ5EsLEMiDee7COZRLZZVPZQTBfTTyUDs8Fv6BM1KAoEGdXXglZOpQF5PBMbkAXoNl3mC8M+vSSuLku1c+gs4fIHCV7JZfZrFnNVDGC5eUA+MXgOBgK0yCBL+0MMHzsEJkoc9+WBxq8zLqB6pVYXgMPAvMHIjjgnQ+sDuHXAUFCVEhMcZjCUTYKmqIoFJ+4ChpnpbhAK3jQzy4fQd7e/uoD104rIszepVauJ5lglQB/yLDbNdaSzdBJlAdt+Qpbc3fGACfx+B3B9iozj4vm0kIjIBWb8xq2gSsAa5+sCXrElZ7nDQi/j631oWg0Iw693eOrZWYIMYado12zW6y4IBZvkRSgqkM9UbScWSzcZBYe3J5EcvL8yiXc4jHxgIKvN4IrVoN7H7rO0DPHaHPVmBngA6lrpkpGACDkacj2Am6mZWVwVk8K+wysWfGjtY25QURuYsZnsJkeeFp2YT36/Q+yM9PcMysH7F6N/CQz6Xw/PMruHp9Dfl8Hp1mBA/uHuHhZh1diuwRMPqtwVQCHaHdYmnhSDgI+kD0vSa4N9IxrJ1dx87dB+hJ8D45JEvKi36raNCZMg0Snlb2fj/vXwDC3OyMJy8WqkkJRAirf9lNZq7+HlTnh8vUYvfgMd2/OI90s4vjHvvzFSCsXriAk6UcTuQreOfHPxakWj6RwbXX1pEZdtDZbeMrf/I2tnpse4ujnEmLhr02fUSxsDCDmZmCP0CGynG8V5Jnslkl1LB+TdEmIjpp+aLjNaxecw4nEooBQBijvntgiD8xjDl8pliQjSrz42USnDoESfE+ZaUtuAqyC9peFq5nSirEJ9AZ4RGrIydS3GM82HiMZrcnAMH+LGVsV5eXsDA7i5Tpc9dva4lF64iaNWkftnE89nDm0lXMFcsoZtMYjtgaORDjKBtMIaFJ/74XyIjJtiG3AYAS5fD5mv2samCaPcom45jNxvG/v/oXeNJoIxLrY3W2hAEnXUbjaFKV0BlgEImLBO9KKYOFQloYu5Q0Zuk9kYnKuGR2eGxv1jAeucjmEsJFsbV8ekGWLLKZtGZg7ATCqedh+6vD/6wAwdR1TSktXcjA6fXluRJUanZBP/g6uXwSY4KEdAb3fryFx4cyBkCiG4lI+44YO8keGCtM8MISVzqbFHLizEwJF56/IPwIiZDY4sS95A5xfNxCyxkJQBhJBiEoe1lQYFPGfGbskNCDr4k0AgHhJqhXM223NpNJAqpGaWwB1kdlihY2W2DAswIEsw8kGtaIRXaJzTDYGzEgxIQFflUi6rdImi6G8DWC2Yg+/0CenYkG1YUYHo2ZY8PnSyIjCY3MEKromGYUWGlg9orlBwF13CSRlBIaCRKYCXAcbG/cw+NHj3DUaKA9GGoGYaBTHW2WRcG/UVsU4xtaYy2smahJ90VQWtWD8KyAVqCFn5azGdgwqcueQVPGEOAdyj2GI5mnGa/Q5habHOBKtd90tlwfw9GxINBGq/xMJ2DLCdlMBul0DIVsEuVyAqfXT2NldV1k7CPekFr0GNQa6LcdtLsOWuR+9Ibo9sbodB20hUSdlufhkHdgbachLBLYa3arbwD1SDgzwuHxB2hpqdASfe2efdrn9+PsPujPPgsc8HoMPJlpeeHFE3j1tQviz4b9JB49rOPBvSM0GIhZCW97Nvj+ex2QXMtRzixzys4wtjbOgWUxD5X5CgqROJ7s7hsbHWxBO4V0utxl36O9518JQPj93/8XnmXbvncRA5c3+b2pnRva00pqjCBdKQHNDtzxAB6JWtksqnNzKKaS6B83cVCrCRs+V0rixEoJ8dEQbsvFzZ9uoTnwEE/GxTDQ4VsN9kIhKylhq/9tgxJGzUmKrpDJPmB7GWuY6pi5rPxvi/b9cxYqt0qKjoI17Y6ACRFconBPOqkyrRYFUn6a0Ya0XoUPszUc+lnaQDWDLA6HAMPW13gfVnFRUaCdsMdNojKz7OlutDt+oMGXIokrm86iXCjINdnKxw/JGBjII4SmSAS9dhfxQgnFmSpSjA6irE0rMJFXtEYopCg5vbnMjg09dqYKFe1O92NLxM15GZkE9u8/wk6jLtFflvVj1ov5nhNpdPsOhiPuh6R0NhRSMZTyOa0fOy66A0d74hkNUuxK1OOo7eAiTpIUvQJHkktETHBl1zvsxIIIV7IsVtlTUl6qMyDtqLY8ZFT0uOYpyk2Hap7SmkohJt5HKoVWrYP9OrMHurckChXwqKDLOgNJhZN1LpMHU6hUSigWCwYomuwL9xXVIB3Wyo3j90mJNkMzHbfz3QfZGx8YmB0gzzXkrUz8JQCBIFqyQuaJGtcfOJVwtus9mS//p81v22FNk1bBZje1S0T3pUJQ/u33eEnN2t9vxuWGais+4BAwZwWeTNePAjzlj4j+CZ+xAARm77QlUiMuNlVSfrqHQb2Jg8NDtORZKbNenp3RTPGzMEZ51HY3hJ2SxUYTJ90Ip/0i5zO55s/+6Wk88IuuG/7+xO+qWZG/RGWR/5NgSgyGrq8JLsRWSgYhITaTQIwAfn6uhGKpInNZZO4MbZXTxbDXh+uOpM231eXcC2ZfOMhtJIRYsaVWUZEdPaZmzvWmlbXcMH/89lC1O9hObv2Qv4X9ra42ciIf+GGUGabS9dZ32HWnv+FcoNVTFeRySUS8uEwgPTpsodkcqGCbsHiDXcMpv9St0cYAw1cxbGMf31GqPBpFuVLB0VFNQb85k779tmtjfJxxPO/dMv8X68S9838A/okCZ3UdblMAAAAASUVORK5CYII=;" vertex="1" parent="2">
                    <mxGeometry x="67.70000000000003" y="110" width="1024.59" height="145.81" as="geometry"/>
                </mxCell>
                <mxCell id="6" value="这里是一个社团LOGO" style="html=1;shadow=0;dashed=0;shape=mxgraph.bootstrap.rrect;rSize=5;strokeColor=none;html=1;whiteSpace=wrap;fillColor=#59AFFD;fontColor=#ffffff;align=right;spacing=10;" vertex="1" parent="2">
                    <mxGeometry x="738.5" y="140" width="310" height="90" as="geometry"/>
                </mxCell>
                <mxCell id="7" value="" style="html=1;shadow=0;dashed=0;shape=mxgraph.basic.arc;startAngle=0.25;endAngle=1;strokeWidth=4;strokeColor=#ffffff;" vertex="1" parent="6">
                    <mxGeometry y="0.5" width="20" height="20" relative="1" as="geometry">
                        <mxPoint x="15" y="-10" as="offset"/>
                    </mxGeometry>
                </mxCell>
                <UserObject label="注销账户" link="https://www.draw.io" id="8">
                    <mxCell style="text;html=1;strokeColor=none;fillColor=none;whiteSpace=wrap;align=center;verticalAlign=middle;fontColor=#0000EE;fontStyle=4;" vertex="1" parent="2">
                        <mxGeometry x="379.5" y="182" width="143" height="40" as="geometry"/>
                    </mxCell>
                </UserObject>
                <mxCell id="10" value="首页 -&amp;gt; 自由天空动漫协会 -&amp;gt; 帖子" style="rounded=0;whiteSpace=wrap;html=1;" vertex="1" parent="2">
                    <mxGeometry x="67.69999999999999" y="255.81" width="1022.29" height="34.19" as="geometry"/>
                </mxCell>
                <mxCell id="12" value="" style="rounded=0;whiteSpace=wrap;html=1;" vertex="1" parent="2">
                    <mxGeometry x="67.7" y="290" width="1022.3" height="1150" as="geometry"/>
                </mxCell>
                <mxCell id="16" value="" style="whiteSpace=wrap;html=1;fontSize=13;fillColor=#CCFFE6;" vertex="1" parent="2">
                    <mxGeometry x="67.7" y="330" width="1022.3" height="370" as="geometry"/>
                </mxCell>
                <mxCell id="15" value="" style="rounded=0;whiteSpace=wrap;html=1;fontSize=13;fillColor=#FFCCCC;opacity=50;" vertex="1" parent="2">
                    <mxGeometry x="67.7" y="330" width="232.3" height="370" as="geometry"/>
                </mxCell>
                <mxCell id="18" value="头像" style="ellipse;whiteSpace=wrap;html=1;aspect=fixed;fontSize=13;strokeColor=#4D4D4D;fillColor=#2A2A2A;" vertex="1" parent="2">
                    <mxGeometry x="98.85" y="360" width="170" height="170" as="geometry"/>
                </mxCell>
                <mxCell id="19" value="用户名称" style="text;html=1;strokeColor=none;fillColor=none;align=center;verticalAlign=middle;whiteSpace=wrap;rounded=0;fontSize=18;fontColor=#000000;fontStyle=1" vertex="1" parent="2">
                    <mxGeometry x="133.26999999999998" y="550" width="101.15" height="30" as="geometry"/>
                </mxCell>
                <mxCell id="20" value="所属学院：信息技术学院" style="text;html=1;strokeColor=none;fillColor=none;align=center;verticalAlign=middle;whiteSpace=wrap;rounded=0;fontSize=18;fontColor=#000000;" vertex="1" parent="2">
                    <mxGeometry x="67.7" y="600" width="220" height="20" as="geometry"/>
                </mxCell>
                <mxCell id="28" value="" style="shape=image;verticalLabelPosition=bottom;labelBackgroundColor=#ffffff;verticalAlign=top;aspect=fixed;imageAspect=0;image=data:image/png,iVBORw0KGgoAAAANSUhEUgAAA1IAAAJXCAYAAACZnGUAAAAgAElEQVR4Aey9B3gTZ5/2qz27e66zZ8+3+327775vQu8dY4wNuNB7C5BQEkICpEFoIaGXNFpISEKAEFqA0HvvvWNMsTEYY2Ns3LAB9yqr3ud6HmnEWMhguWDZ3LquyUijqb+5GeuX/zPPaMAXCZAACZAACZAACZAACZAACZCAUwQ0Ts3NmUmABEiABEiABEiABEiABEiABECRYghIgARIgARIgARIgARIgARIwEkCFCkngXF2EiABEiABEiABEiABEiABEqBIMQMkQAIkQAIkQAIkQAIkQAIk4CQBipSTwDg7CZAACZAACZAACZAACZAACVCkmAESIAESIAESIAESIAESIAEScJIARcpJYJydBEiABEiABEiABEiABEiABChSzAAJkAAJkAAJkAAJkAAJkAAJOEmAIuUkMM5OAiRAAiRAAiRAAiRAAiRAAhQpZoAESIAESIAESIAESIAESIAEnCRAkXISGGcnARIgARIgARIgARIgARIgAYoUM0ACJEACJEACJEACJEACJEACThKgSDkJjLOTAAmQAAmQAAmQAAmQAAmQAEWKGSABEiABEiABEiABEiABEiABJwlQpJwExtlJgARIgARIgARIgARIgARIgCLFDJAACZAACZAACZAACZAACZCAkwQoUk4C4+wkQAIkQAIkQAIkQAIkQAIkQJFiBkiABEiABEiABEiABEiABEjASQIUKSeBcXYSIAESIAESIAESIAESIAESoEgxAyRAAiRAAiRAAiRAAiRAAiTgJAGKlJPAODsJkAAJkAAJkAAJkAAJkAAJUKSYARIgARIgARIgARIgARIgARJwkgBFyklgnJ0ESIAESIAESIAESIAESIAEKFLMAAmQAAmQAAmQAAmQAAmQAAk4SYAi5SQwzk4CJEACJEACJEACJEACJEACFClmgARIgARIgARIgARIgARIgAScJECRchJYScyu1xuRnJaJhKepePSEAxkwA8wAM8AMMAPMADPADFgyIH4fit+J4veis6+AlBzUPvUAmi23oNn8mg5bbkkGgkVpvyhSpU3Ybv3iH4X4B5KanoWsnFxk52g5kAEzwAwwA8wAM8AMMAPMgMyA+H0ofieK34vOyJQQh9daoOzFccstlLZMUaTsRKe0P4r/wyD+cVCgKJDMADPADDADzAAzwAwwAwVlQPxeFL8bC/uSlSh7mXjNPwsmpfmiSJUmXQfrFv93gZUoXjQLumhyOrPBDDADzAAzwAwwAyID4vei+N1Y2BerUQ6aMm65VVh8RZqPIlUkbEVfSLT/5QWSF0hmgBlgBpgBZoAZYAaYgZdlQPxuLOzrtb0n6iVVt8LyK8p8FKmiUCvGMhQpXjRfdtHk98wIM8AMMAPMADPADIgMUKQcVJleIk72QlmMn+0vXZQi9VJEJTsDRYoXRv5xZAaYAWaAGWAGmAFmoDAZoEhRpAo0ETMAk3UQ72E/QXxWhgLXUr6+oEjxwlmYCyfnYU6YAWaAGWAGmAFmgCJFkXpmOo5ESflWESb1PIplqcfi+3L8okjxosg/jMwAM8AMMAPMADPADBQmAxSp11ykFC8SjxSTDqSeICYqg1qWCvO+nAqVMyKVk3UNqyevwJlcy/OmLi//EdsfZiMnOwb75k3D9/vDS6TjityIw/hh0mQs888s9Pq059cXevtRO3/GVz/uRLj1OF60/2K9E/48l28/HE0TF59LK/60sRHbmDx5ssNB2XbUrrWSn/2Fy37/7L/nZ/6xYwaYAWaAGWAGmIGyyABF6jUWKRPMsumeUY7NFpFSV5OEDCmDmC4Eymi2tvcTY+W90gbQbPneYAL0Rpj0BpiMYqHy83JGpITgzFltkQopHz+ssomD+McsBMBeOpz9R65ITUESUpCsiW0X9J2yD5eXz3QoNvbbUh+DIovKOsTY0TQxXfCZpxI0ZZmCxMteTNXr2Ld8xkuPR1k/x/xjygwwA8wAM8AMMAOvIgMUqddYpKBIjlWQzMpnayFKDyAPgFZRLCFRYh51RUoRLTFNb4RRmwdddi7ysnOgzc6BPk+H1JRUGI2itOX6L2dESsiKUiUSErBqwS5bVack/vEqEjX/h/nPSYSQkUlTl9vETZnXXoIcfZ40Za7Dyo8jGVSOw9H6hWCJ4/5z0pR8QqYWL7GfgpGalVqk7GVLfKcIoKzETZ5nqfLJ7VjeK/vEMf9IMgPMADPADDADzEBZZoAi9ZqJlGxxJ/5jMAM5BiDPDCRmwBAchdSzgUi+HAwkplm+sxacdKJiZTJZJEpUm4RMKQIl3MgMmA1G6HPzkJuZDW1WNgzaPJgMRsBshtFkhFang6EcyJQzIlXYio6QGUW4nPnHLtavLCdERGkCJ6Yr7x2t70VCpJ5fisokx83tFAFTZM1+nYoMqQVJrFusU6nSqbelXl5ZVk6b/4NDqRPz2AufRdooU2qufM8fEMwAM8AMMAPMQNllgCL1GomUKBoJKZJN8rRGpF4ORvCKHTg34zcc+uhrHH1vOvZ/OA2BP/8F7fUwID3XUn0SVamcHMRERiL09h3EREYhKfExstPTocvJRU5GJjJT06DNyoEhTyelSgiU+iW2rTUYXV6mnBEp9YXLXijU35XEeykd86bJys+LJEpsy1GVSBGjFy2rlh37fbb/TojOV6tWPVeFU0RKfC+2qYiYWJ+YJqpNYiyqVspn5Ttl/osX/8q3nHpfKFNl98dCfR74nueBGWAGmAFmgBngc6TsnwlVlM9qXyjp9yX2HCkhMjDmAnlpQGoynm7fh/PDv8KGpt2wrJI3Vr7hg10Ne2KvV39sad0Xx4eMwaWJ3+HG/F9xe+lKhC5fg+DfV+Luug2I2XcAuVeuIPX4SejOXACu3ALOBSPtYiCSgkNhTM8AzM+a8olqFfQmQGcG8oyAqG656KsoIlUYcVHEQhGal41XHN4rO5hQ5lNXZ+wrServxEVNbGvVytW2JnLKhU4RGPH5RfusbFMZi/XviIqUHWgo08RYyJDYF/V9UIpIyW2ITjfs7htT9k/d/E/ZP0eypjTzU5ZTf1aW45h/zJkBZoAZYAaYAWagLDLAitRrUJES3UhozQYg4wkMl07h8aqVONr7XRyq0gZHNF449M9eOPbfvjhftysuuvXC3uq+ONK0Cw56dMPB1j1xsstAXOgzFDeGjsL9ad8i4rs5ODn8UxzoOxhHuw/A6R7DcKbbSBz+4Cucnv0LgnbtQ2pEBJCTZdGlbK2lqWCOEcg1WmTKrmLlKl5VFJESgjJn7x6stHY8ofxDFlUqR8KgfO/s2F40HC2vzHM2JzqfxMjpDprRqSs8yrKiF0L7fVd/J7arljK1TDkSqfMPDuWTQrWMKe9FE0ZH2xDipEifELo/rkTk6zHQEQNO4x9TZoAZYAaYAWaAGXgVGaBIVXSREsKi0wNaHdL2HMTpfkOxoYkfdtT2w36NJ879v21wqWZXXPB4C6c6DsDelt2xpoYXjnr3RtBbI3Cz54cI6PQeIvuPwoO3R+Hu4FEI/WAs7g75HFc7DMSRKn7Y+C/NsOaf3bHxP1tid80O2NOqNw69PQy4cBlISASSMoDUXCBND6RrgYxswKiHg34Cy9ynnBUp8SNf6QJd3bxPCMX8Kc+6Ri/KP2axDtHtuSIbjsb21Si1yIj3olp0X0iVXXfshVm3entCYNTVJbVIiWMTn4X0qLdvL0YKA/tllen284v5lH1Q7hUraFllHRzzDyczwAwwA8wAM8AMvKoMuIJIzU4zIjEmHrJZ3ZYEXIcWCzYFy8/iO+Rmoe/mQgiP3bJFaaZXlGVK88d/8Zv2mQxAjhYZAcE4PWgkDv13a6zVNMA6TUMc1njBv2o3XHPvjwtd38PVcROx9+33sM63C472GITgwZ9hX5OO2FuzDfb+75Zy2F3FG3uq+2L3372w/1+a45SmBQ5rmmGXphGOa9xwTtMMBzUNcPg/WuB85/64OvpLnJw+B0e++xnH5y/GuWVrEHv2MpCdBb1RW5rsirRuZ0VKdPygbm6mdEChvjeopP4x24uG/Xrl93ZVJ0VG1PuoLOdofuU7MRaSqPREaL/tgoRGPV1ZRlTH9q7cbevRUD1Pvu1ZmwKeywmQ1T0xn/1+O5qmXgff848nM8AMMAPMADPADLyqDJS5SNnLj38yEnIz84uTfzIeAQgMCbXKViS25jl5m01hZawwwmY3T5F+sBdyoeKJlMmIvLwsICUdoYvXY2+Dbjin8cQ+TXMcfMMXx95sh9N1u2Nr9Ta4PGIcbi37DWF/Lof/99/h2qRpyPxlORKnzsEOt47Y8A8vrPrXRvjzv9yw7m/NsPV/u+PAv7jjrKY5jmua4ICmHo5o6uOopj4OaurIz/s09bD2fzXC1r4fQnvOH8aHUXh4+DiOTfke535eAvO9+4CL9eTnjEjZN38Tn0UFZdIP82UlqSSa9UkZmTdN9t6nFhNRYbKXNbF9RTxszeGmLods5udgfmXdStXH0VjpnMLRvI6OL98+WB9MbF81e6FIqfbTkTSJ9SvVqVd1keR2+AeZGWAGmAFmgBlgBhxloMxFKiwTSEqxCJIQFPvPdtLywoqRvZQ5s2wx5i2kExVptuKJlFkPo0kLhD7AzfFzcbRaF9zUtMHR//LGjmo+ONykO/Y1645NHl3x4OcluLTud6TfOIenpw7g7srfkfzXemDPQaT9+gf2duqHNU38cHP4GBgX/o7Q90Zh8/9yw15NY+zXNMHhf3HHwX92w/5/aoK9mgY4oGmIgP/jjXCfQQj+4EtE/LYKpgf3gLgY5B49gwOjJyFu+UbgcUqRwJTWQoUVKaXZXOSFZ83PFIlR/qEJEZBiVcBzm5T5HI1tImTX0YMiNmIZ2zxTl0PchySa8UVkB8jnOtlLVr75rfsj5ciugqXel8JWpBSBtD9WsbzS7FG93gJFSlUBE/M7an6oPn71Ovmef+CYAWaAGWAGmAFm4FVnoKxFqlO8s627DNh5KQQaa5WqsL+nbdWsYghTQRJX2H0oynzFECnxcCdxH1IecDMEwR9Mw8XGbyHgHx1wtlUfhIyciHXNO+LW6Gk4MPAjJO/Zi/igs0gOv4roy0dw/8gOJJ8+hMcHduLprm3QHT6IxHXrgNMnkLlpE9KWrcD+9n1wqkUPnGvTF+d6DELgwBGI+GgcUsfOQvbImXjabzRCvAbgwN98sat1b5yYMg24GwxdbBjOT/8OF/uPhuFmqHwkVVHglMYyhRWpV/0PldvjHwdmgBlgBpgBZoAZYAZcKwNlLVL55GSLaLKXa7s/Kt93hREgVqRUaiG6HzfpYDZlA8FhuD9sJo436I6j//DG1jo+wIqNsjnflfFTcXDsl0g+fQJpUYF4GnENEf5HcP/8AcRdOSYrVIi6DYRcA8JvAaE3gMArMJ06Bu1fm4DFa5E5bxGiZ81G6pyfcHvEWGyr54vV/9QA6zX1sVPTCAc17tjxPy2xo3NfJG7ZCjyOxp1vFuKE7/vIuRAIJ1tpqg6y5N9SpFzrAsU/GDwfzAAzwAwwA8wAM+CqGXApkRLN+l70UpoAOlmNsqzSWskqjJA5Oc+Ldrm43xWpIiUfhStFKg/QZwDXgxE8ZCJ2N+qErZVaYO1/uyFz6gJk/7oKUYv+wEFxT9T29XgYcAJR104gLvAsYm6cxpM7F6GNvgUkPQCe3Icx8R6yY28j+fZFRB/ejfDlfyDp1+W4P2sOLn06BvfGTcHjCd/gdo8Psf2f3bBRUwubNDVwTNMYR//NE3satMPDmQuAC/44/e44XOs9DrgRLkUq/+N7i4ut6MtTpHixdtWLNfeL2WQGmAFmgBlgBlwrA64kUrNT87AtLvtZpxKK0MhKlen56cr3Yiw6qYAW2+LyXjyfepkSel/0X+0vX7JIIiVXK0TKmAfoMmE6fh5XOg3Dtqre2PGmJ/76Tzdc7T4UWLkZkb+vwv0De/D45iUkBl9E+JUjiAo4IZv5pYQHICv6FvQJoTAnRSA3MRQPb5/H05DLSLlyGvFbNiFr1XoY121B7oq1iJ78LWJGTUHaZzMQ5Nkf+zRNsEdTTw6H/9YSJ3z6IGDYeDyYuwQbuwxBwoK/gPgUKVKuUpWiSLnWBYp/MHg+mAFmgBlgBpgBZsBVM+AyIuWfjMTkFGgcNO+T91G9qNc92aTPWnHK917p3a/0qlGi+WFpvoonUgYtkJyI8J+XYU/l9tj6782x579aYP3/3QRba/si9pufELl8DXT37kAXH4G0+zcRev4Awi4eROLtC8iICkTmwyApU8an9/EkPABHti3H3bN7kXzlFKI3rEPS0hUwrN2M1N+WI3X2L4j6dCJyxn6PuJ6f4ajGA8c1HtimqYvdlVriQPu3sLfjOzjZ9zNcmTwPCBIP7dVTpHJ4gXTVCyT3i9lkBpgBZoAZYAaYgYIy4BIiJeVJZ+lEQlSJ1DIkm/vlFXzflNIcUGn2Z61Oie7SgdIVKOUeLpcSKbN4AK88dh2QloKnAVdwcuhoHPlXH+zXeODAvzTHzn/zwPaafggeNwvZh44j+fYNpEffQ1LYDdy/chzhlw4jPvgCnoRcxvndaxF8Zi9y40IQd/sCgs7tRdiFg4g9dQBhq1fg6ZLlMK3fBvO6bcCqLYgZNQ0pH89AZOcR8K/aCf6VOmCTph42V/bEtg69cWjQRzjz6WRoT18GsnIBndEmUq7QvI8VKV4sC7pYcjqzwQwwA8wAM8AMMAPqDLiCSImKk+2BvEpzuy0JuCa7cytAoqzN/WTX6Y66TFeWVwuWsu4SHruUSBlNJsBkgDE9FRl3QxC8eSNO9h6GMxovHNa44aimOY78R2vsrdMR4VPnIffkOUQHXcWNC8ewf+1S7F+zGOd2rUP4lWNIuH0ZxzYvR+Dxnbh5fBcCjm5DSuRNxN88g8Dt6xC0dBGeLP4DWcvXIuePv4AVm5E47hukfToLQS3eQVybYQiq1xNbNI2xoWYr7HtnCJ6sWY+n2/cBMXGyV0EBTzTrE4PigKUJ9GXrpkjxAqm+QPI988AMMAPMADPADDADBWWgrEXquWZ7SoVJeQCv9XM+0ZL3Q6mqTVaRetaVukq+bOtTzV+RRcoAI/K0mXgSEY47Bw7g/MJfcL3/SJzXNMcxTVPZ1O7Yv3ljX52OuDZ2OnAjEI8ignH31iXsXPkbFs2cgB8njcLO5QsRcu4Qwi4dRdytC7h74RCuHd2GwNO7cXHXGpxc/jOuLVqIx4uW4fHPSxEz52dkLViGhLFfI2fMHAS1GID0nmMQ6TUY+/+1Bc62fQe3pn4NhN+F9vFDIDcdMBuEPklfljLlAiUpihQvlgVdLDmd2WAGmAFmgBlgBpgBdQbKVKSsHUQs2ByFrXnW3gYKqCA9k6TnhWh2mlHWGfLJVgnLktKMz9H4ZUWO4nxfhHukjMhNTcL9K5cRvmc/HqxYh4MefXBW44ETGnec0LTA8f/HG/trd8TpT76A6VYgctPikBAbioc3LyHk7FHcOLob25f9hHU/fYtL+zYh4vIxBJ/ai9PbV+PMrjW4tGsNrm1bg0e7twP7DwH7DkO7YRuyl/6JyPGzkDz+e0QPHIeU9yfjyeAv4e/9NuK//BYPf/sdiItADjIAaAGTHoBRipTRbIaJIgX1P06+58WaGWAGmAFmgBlgBpgB181AmYrUK5QdRwJUUtOKI0ovW9Z5kYpNQNrNYNzcsh2Z+07gxDujsKqmL/bW74zD/8cXRzQtcPo/2uK8Rz8cGjEahqAbyIwMQUzwVaSE3UL2w3tIvheE3csXYcKQtzHpw4HYvvRHnNi4AruWL8TprasQcf4QngacQcrFU8i9dBa4dQ3GIH9kHzmEsJ9+wZ1v5yL4mzmI+/NPxK79ExdnzETWwQN4dHg/DDHhAEQ/9zrAlCdvZDPBCL3JgNw88blsX6xIue7Fin9IeG6YAWaAGWAGmAFmwJUyQJG6heIKVWn+8ndapAy3QhG6ZTd0Z67gzCdTcMp3CA61H4xjAz7C3jqdsEvTDIf+3RfHPN5C8NyFMN4ORMbt67h5cBfiAq8g6+E9mB7H4MKuzZg2YgjGDeqLnyePQ+CRXbiyZyMu716PO8d24bH/GcScP4q7R3cj/tppZD64iZzAy4jYvB7xe3ci5fRR5IZdR2qIP27v3wJt6E1khNxAyr1bQGYSYMwGTLkARK99euiMOmRrc0qTZaHWTZHiBdqVLtDcF+aRGWAGmAFmgBlw3QxQpCqYSCX6+yP30lUEfvMzgoZPQ3DHzxA0eAKODPoEf/x7M+z6p5bYW6MjDnYcjKjVa5Fz4ypizx3HnWP7pEhlPrwH4+NYxAUGYO/KpVg0/Sss/246jqxdhtNbVuPGwa0IObYbt/ZtQeSZQwg/cwChp/fizJblCDm4Ffrgq8CDECDuPgyRwdBH3UZO6A2kBPojJ/wOsqPCkZsYY7lHyijESREpLbK1WYWSndKciSLluhcr/iHhuWEGmAFmgBlgBpgBV8oARaqCiVTCubO4svA3PPpxJZKmLULoW+MQ++k3WOfWCZsr+eFo9a443GYQTn00HikHDyLnpj9Or1iCqzs2IPV+MLJiwpAUdhuRARcRfPII7pw6iof+55AScgPx18/j+v7NOPbnYkSePojEgDMIO70fwcd24vyO1Xhw4TDM8feQF3UbxthQJN26jMzQG0i+6Q9teAgMMZHQJ8QiLeYBclISoctNhxl5siKlN+VBq2dFypUuDtwX/rFiBpgBZoAZYAaYAWag4AxQpCqYSMXt2ouTX06DdtVWHH1rOB6M+Q6BfUZi9xttcbhGNxxt1Bdnhn2Bx9t3Ie3MScQc3Y8LK5bi0sY/5f1R8cHXEHH1Ah4F30Dk1YsIPXcSkZfO4s6Jg4gPOI/7Zw8h8MBWhJ3Yi8izh+Q46PB23Dy2A3evHEFkyEWEBZ3Fg1sX8PhuADJCAxF/6RxCjx1BSugd5MQ+RPLDCDyOjsCThBjkajNgFPdLQfQYUva9TbAiVfDFghdSsmEGmAFmgBlgBpgBZuBZBihSFUyk/FevBo6eRuDwr3D17VGI/GwmdtRsj/1/a4NT9fvgnO8HuLtgKbICLiP96gVcWvU7gtb/iZjTR5AZFYrYWwEIu3IeoRfPICrgMhJuXcfd08cQce447p44gNAT+xC4fwvObViBU2uW4uqOdfDfvR4Bh7fi2sX9uB54ApHRN5EQfxvpMXeQF3UXmbcCcWP3btw7dxZPw0ORFHUfj6MfID7mARIfx0Krz5IypTeyswlenJ5dnMiCLJgBZoAZYAaYAWbAlTNAkapgIhV1/iyyNmzD4Wa9cavTCBxq1gub/tYKe97ww5mm/RE+ZDoSt+9DZngwkq9dRMKpIzBcvQiE30Zs4BWEXDqNoDPHEXndH09CbyMx+CbunzuF4CN7cXnbegQd3Ib9v/+IlTO/xK8TPsWOn7/HtX2bcO/SEUTc90dUcgjiMyPwKCUcKTHByAq/BUTcR8z5C7h59AgS74Ug/l6IrEg9iolE1MNwRMdHIjMnHQbZHXpp3gH18nWzIsULtitfsLlvzCczwAwwA8wAM+A6GaBIVTCRMkdE4c4HE3Dyf9rjetWeOKJphYMaTxzSeOF02yF4+st6ZJ25gJSgAGQFB8AQfB0558/g8dmTCLt0CrG3b+BRSDDibwchJug6Lu/fjYt7tiFg33ac37IW5zavxqKJn2PJ1DH4a94MXNi+BjGBV5Ae+xBpybFITYtF6qMwJD0IRNKDG0i4exWpYXfwKOgmHt8NgT7pMVJio5D48D5iHtxDQnQEHsdGIj46Agad9uWmU8pzUKRc5+LEPxQ8F8wAM8AMMAPMADPgyhmgSFUwkUJGFvxr98BpjSeCNG1xR9MGFzUeOKXxQPCIqUg/dh4Zl68i48ZVpAZcROSB3YjYvAnRRw7i4fVLSAy9jcgbAQg6cwIXD+zGX4t+xJqFc3Fu50Zc3bsV23+dhz9mfok/503DqS0rkXwvADmJ8chKyUb2k2SkRUUi48Z1xBzZj8d3LiIx8gYSHobg0f0QpEY9AHIzgbws5KY+xpPYB4gLC8GTiDAkRd6H2WR5snIpu9ILV0+R4gXblS/Y3DfmkxlgBpgBZoAZcJ0MlLVIdYrXIjAk1PIspy2R2JpneuHvXCSlWOYNy4Ttvf2DfcV3wLP12n9fwp9fvMPF+9bp50iJzZ3rORzHNM0RqGmPa5rWOKFpikOaJoia9CN0AcFIPHseEfv24sGS5bg/92ckrl6H1GPHcWT9aqz++QdsXb4Ma35ZiFU/zcdvs2dh/owvseLn2Vix8FssnPUFls2biv1/LUHo5aPQJd6H8WkctIkJyLl9F5mnLiDpr+1I+nMDHh7YgdR71/D4QQgSo8LwOPwejGkpgFkPmHWALhvZTxOR+CAcT2OiikeqhJamSLnOxYl/KHgumAFmgBlgBpgBZsCVM1DWIqXZkoBrMDuWni0JuA4tFmwKdvjQ3Nlpxudlyj8ZjwDcSBE9aecVuGxxH8KrXr6EfsI7XE2RRCpsxXoc0Xjg+v/VDuc1zXFAUx87NfURNmk+EBEHU3gEovcdQMLXi5A541ekL1qN0BWrMe+LzzF74hdY+dMC/Prt15g/dRK+mzweX08eg+9mfoFvpo/GskXfYs/mZbh5bh8S7voDSQ9hjA1HWlAAUvYeRNLidUj7ZjFy5i9D1JrVSAu8jKcP7uJpzAM8CgtF9pMEwKizyBQM8r0hMw25WRkOAbzqiRQpXrBd+YLNfWM+mQFmgBlgBpgB18lAmYuUqA75JyMhNxN9NouKlA47L4VYK1T5RUpUrxJj4p9Jlaxgqea3SpRS4RLzIzcLfUu4AqWWKPG+NF9FEildWhp2ahrjrKYljmgaY7emHtZrauHiBxOAkIdAdjYQ+QBZSzdAO+cPJH6/CP5zFkiRmjX+cyxf8IMcvp84AbO+HIOZE0djwpjhmPzFR1g4eyK2/LFA3huVGsrtcqkAACAASURBVHgR+tvXkH7iMBI3bsCTX35H+tcLoZv6MzKm/ITbC39BRuBVJEeGIyU+BgkPwpGWEAfABJit3Z2L5nx6fWkydGrdFCnXuTjxDwXPBTPADDADzAAzwAy4cgZcQqTUoiOkSqlCqStSsrlewRUmKU0wPJMw6zot0wtezl6KivLZqR/qTs5cJJES2wj5egEOatywR1MP2zR1sVXTGBta90Hm4YtAWhqgzRSNH5G+6E8kzPkNF2bNxrejPsaXH3+IH2dOx5I5s/HdVxMwafQnmDL+M0z/ahRmTPgEi7+fjONrlyJ071aknjiMp7u3I3HpUiTPnoeMGbORN3kO9F/ORerEebj9y29IvHwOTx+EI+VRDB4/fIDk+FiY9XmAcj+UyQyIwUVeFClesF35gs19Yz6ZAWaAGWAGmAHXyUCZipT1XibxE1pdabJVnhSR2hyFrXm5z5rp2S0nm/i9qPIk5ex5ySqKNDlapjQVoMgipX+ShO2ahtikqYHNmro4VsMP27z64OKUH4EYURXKA/IygLu3EfPLH7jw3XxM/2QYxg57H7MmjMf86VMxY/wYjBw6GF9++iEmjHgPa378Fle3rcO9resRu2ED4petRPxPS5AxczYwYRrMk2dBN/07aL9ZgJQfl8DofwV3zx5HfHgonsZFIykuGo9jHyJH3CdlMgBmE8xG15EocSIpUq5zceIfCp4LZoAZYAaYAWaAGXDlDJSpSKmqRmqRssmKIlIF3CNlE66C1mPf9E9d+SrB9y4pUmKnHixZjdWaqtioqYcrTXoi7JMZODBiEi6t+Qv69McAcoGcZMD/Go4t+AkTR3yA0cOGYOLIT+Tw5acf4ePB7+CL4UOwcvZMnFixGLfWrcL95csRMfcnxM1cgMyvf4V5xo/Al99CN2MOUr//EenLVgF37wJpT3E/8Coi7wbjScxDpDyKQ2JMFFIePwKMeilTZheqRlGkeLF25Ys19435ZAaYAWaAGWAGXCsDriRSsrJUCCtR3wOlFjC1WNnWlavFjruxz+6rKkGBUoSvELtc5FmKXJFStrjX9y3s+Cd3HP7XlogZNwc4FYBHJ88i4NhBxD64jcSYUOgex2Lrst8wbvhQfPb+YHw8eCCGvdMPn3/4Pj7/4D18/HYfzPtkGI7Pn4d7y/5A5PxfkDlnMbRTfgK+XAjd9CVInbcaSUs2InXbISA6AcjJBow50BsyEXDpHCLuBCMu8j4eRUfi6aNY6HOzLE38lB11kTErUq51geIfDJ4PZoAZYAaYAWaAGXDVDLiSSCliYhsXoSJl+zmudJNeCuJk2z/rum3bLIU3xRap5MA7OFq7CwJ83sW+doMQPv934PY9IC0VgBaPIu7gQWAAfv1uFkZ/+D5GDR0iRWrEwHcwcuh7mDjyY8wa9QlWfz4WF7+eg7s/LELE3F+QvPAPPP3+N2R8uxhPfl2HpB3HgcBw4GkGkJMHGETPfDoYTLmIDL+LkMDrSHwYifiHD/A4Pga5mWmyaV8pMCvWKilSvFi76sWa+8VsMgPMADPADDADrpWBiiZS6gqVIjzqSpUyrSTHxfrh/pKFiy1SYv0Ruw/j6gcTEP7FXJx6fzwCvv8FCA0HUpMBfS7uHjuGqcOH49N3B+GTdwfh48FiGIjxI4Zh2piRWDN/DoJ+Woanv6xD8rJNeLJ2G+I2bMOjXfuQcfY8TGFhQGoKoMu1dG1uzAPEYNLJIS87AxF37yAmIkxWpBLjomHQ5b3k0Mvma4qUa12g+AeD54MZYAaYAWaAGWAGXDUDLiVS/sm4GRv3rBleYStSYZnyOVQFCZNo5udIsEpKpkrzF3+JiJTYwaC/tuPO598h69dNODx6Gs7/ugyIiwe0uXh67Sb+mPUtvhgxHCOHDMEXH32ESaNG4qdvv8b6P5bixskT0AffBW6HA/cigOgYICEeSHoMZKcDZiFFhmeDeOCuSRkMsoe+lMcJiAy7i/iHEcjJdI1nRjk6cRQpXqxd9WLN/WI2mQFmgBlgBpgB18qAq4iU5TetXTflhRApuZy1GZ8QKdg36ZMdTpgcP/C3hJr9Ofo9XlLTSkykxA7d3rAbd8YvQNzy7Tj8/c9IvBgApGcBSelIvh2Kk7t3Y9e6dTi0bSsuHTuK0GsByHqSCOTlwGjIhcGshR466KCHFjrkQocc6zhPfqOHAXqYzRZ5kl2ci27OzWaYtLl48igWGaLHPhd+UaRc6wLFPxg8H8wAM8AMMAPMADPgqhkoc5Gyio7DitGLRMqRIFkfyPvcz3R7uSohgVIqWs9trwQnlKhIif16eu02UvadRlpAEPwPHASyMgCdDsjJlWOzqBbl5Fgekium5+ks3xss3ZVbjs0EI4wQ2pQHA0yiGmW0DqJbczkYLc+KUp4XZdTDIJ4f5eIvihQv1q56seZ+MZvMADPADDADzIBrZaDMRaqEpUaRm1c5Lk01KHGREjtrys5B3qMExD4Ih06XDYimeHotYBbVI5NFgIxGQC8Gk6XVnhGAGEzPBrPZDAPMgMEEaI2AzrqMwQiI5eVgFTCzaz0vqqCTRpFyrQsU/2DwfDADzAAzwAwwA8yAq2aAInXr2T1ZRZS6gn6Tl8T0UhEpZcdMRj20Jq2sKumhB0STPGFLUqaEUInBbBmELCkv8d5shhApkxAkMY/BOogH7MrlrMuXE4FSDo0ixYu1q16suV/MJjPADDADzAAz4FoZoEi9xiIl5EHUifJgQq6sLVlFCiaYxWCVJTG2f6m/E18L91IGk8kiWfbLlIfPFCnXukDxDwbPBzPADDADzAAzwAy4agYoUq+5SOWXG1F1srTfU4uUMo8iT/af1SKlfFdexxQpXqxd9WLN/WI2mQFmgBlgBpgB18oARYoiVYDzWKpKijwZDAZkZ2fLQbxXpotxRXpRpFzrAsU/GDwfzAAzwAwwA8wAM+CqGaBIUaQqkgcV+1goUrxYu+rFmvvFbDIDzAAzwAwwA66VAYoURarY8lGRVkCRcq0LFP9g8HwwA8wAM8AMMAPMgKtmgCJFkapIHlTsYymMSGVl56IiDa56ceJ+8Q8nM8AMMAPMADPADLhyBihSFKliy0dFWoFapCqSLBXlWFz5wsV94x9WZoAZYAaYAWaAGSjrDFCkKFIVyYOKfSzxj1PyV5tytMiyDso/1qJIiSsvYzsu1bHa768yD8f8o8UMMAPMADPADDADzIAlAxQpilSx5aMirEDphVCKVM6zC6S9UNh/zszKQXkc7I/D0WdxkZQSqWrKyAvns2yQBVkwA8wAM8AMMAOvdwacEqktxZcOzeYKto4tt0pVIzSlunauXBJQJEp05J7wNBWZ2Tm2qpRFknKRmZWLzGwxLp/i9NL9Fscmj89yjGqxEn8k1ELFPxqv9x8Nnn+ef2aAGWAGmAFmQPw2ypW/Gwv7c7r2qQeocCJUTLETTErzRZEqTbqA7XlYYjNCqJJSM5CcmmERJ5U0ZWRmIyMzxzakZ2ajIgzqYxLHmF+48kuVuGgqQsULKP+IMgPMADPADDADzMDrnIHU9Cwkp2UW+pdqQEoONKxKPZPJLbcgmJTmiyJVinRlJUolUyaTCXk6A+IfJ0uZUkRJCEZ6xrMhLT0LaRkOhvRMpLny4HCfs1THlgV5rFZpfCZVz4RKXDApU/zD+Tr/4eSxM//MADPADLzeGRCVKCFRohWTXm906peqEAdZmXqdhWrLLcmgtCVKnBiKlFPxLPzMikSJJcR7IVHKoNXq8SQ5DXGJSYhJSELMo6eIjn+K6EdP8TD+ieW9+KwaHsY9QXkY1PusvJfHZD1GcazimGMTkuTxxyUkIy7x2SDuIZPDk1Q5Fm2DOZABM8AMMAPMADPADLwuGRACJSpRzkpU4X+lcs6SIkCRKimSqvVIiTKbbc36FIEyGk0wGo0wGIzQ6/XQ6SxDXp4O2rw8yLE2D1ptHnK1WuTKsXhfXgetPBZxPOpjVI5bMBAsDEYjBBuFk+AnXgpHFVq+JQESIAESIAESIAESIAGXIECRKuHToP7xL94rcqBIlN5ggF5vkBKVp9NZpSkPubla5OSKUnYucnJykZ2dK9+Lz8qQJTupEB1VuOag7KdtnG09FnFMuVp5jEIKpVjpdJKBYCGYCMGkTJVwGLk6EiABEiABEiABEiCBUiNAkSphtFKk7JrzqSVKVGOUypNNnmT33xY5yszKRqbolEHeRyTuKSq/g3Ic4pgU+ROSpUiVUqnS6fUFypSoTQmmfJEACZAACZAACZAACZCAKxGgSJXg2XiuGmWtSIlqi6i6qCUqO1sr27+KdrCvS5tf5TiVtr+CgU2mdHpZqRPN/CxVPEvTSHF61FxL8HRxVSRAAiRAAiRAAiRAAiRQZAIUqSKje37BgqpRlnuiDLZKlGi2J2QiOzcPptew2iKOWRy7ZKCSKdHMT7Cyb+LHqtTzWeMUEiABEiABEiABEiCBsiVAkSpB/koTNDE2mSz3R8lqlLVjCVF9ycmxVKKESLzuL8FA9EojmAg2omKn3C+lrkpRpF73pPD4SYAESIAESIAESMD1CFCkSuicKM3PlLEQAVFZERUW2aRPp5OdLYh7hEQl5nWsRNmjFgwsValc2TOh6HxDsFJXpRSeYswXCZAACZAACZAACZAACbgKAYpUCZ0J+YPfrpMJcb+Pcm+UrEblapGVlSPviSqhzZb71Yj7pgQT0QGFvF9Kp5PMnt0rZbLcI8VOJ8r9ueYBkAAJkAAJkAAJkEBFIkCRKqGzmV+k8jfrE730iW6/xb1Roic7IQ98WQgIFoKJYCMYCVbi+VKiSSSb9zElJEACJEACJEACJEACrkqAIlVCZyafSJnNtgfviqZq4mG7oqtz0QV4RjFFKjUtHcdOn8PqTTvyDWKa+K68vYRIiS7eBRvBSDTvs3Q6YXm2lLjXTM22vB0f95cESIAESIAESIAESKBiEqBIldB5FT/2xUuMxb0/tvuj9JbnRomma0IW0jMyi1yRciRQjoSqhA7plaxGilRG1rPmfXl290mZKVKv5ERwIyRAAiRAAiRAAiRAAk4RoEg5havgmfOJlKqjCVFhEff+iE4mxINp09KLJlJqYbKvPjmqUhW8p671jRCp9IwsyUa5T0o8oNfW4YRVpMReK4xd6wi4NyRAAiRAAiRAAiRAAq8jAYpUCZx18QNf+ZEvxkqPfaKJmmzaJ7s9t9wflV4EkVJXol7UfE98pwiXWMaZ19PLh7Eh4HHBi4Scx7ITd/N/b07F5V2nEIyi96gnRErIZWZWjpRNW4cTetG0zyRZqtnm3wF+IgESIAESIAESIAESIIGyIUCRKgHuikgpYyFS6h77crVaW0cTaekZTjXtU8vRiyRKOYxCzR9yHis2bC/UsDfMYFm1IlJCnnbuLHDZF8qYspOqsRSptAzZ4UROTu6z50lRpFSU+JYESIAESIAESIAESMDVCFCkSuCMKAIlxpae5uxFytK0T3Sq4GzTPqUapa4wKVUnZdftPztaRpm3oHFhKlIrdu/HPnXVqsQqUhaRsvTcp7U9mFfdBbrYb8GXLxIgARIgARIgARIgARJwBQIUqRI4C86IVGqacxUpRZLU1ShlmrLr9p/VVSllnnzjl1SVlGrV8j1XkQhASNbmXfuxfPdJHNy1H1t27SiwImWrYOXbYMEfLE37MuQ9UuI+MlG9E80hxfO3KFIFc+M3JEACJEACJEACJEACZUuAIlUC/F+FSKl3016c7D+LeR1NU6/D/v2LKlLiu4PHTpXqPVKiWkeRsj8r/EwCJEACJEACJEACJOCqBChSJXBmXqVIqStT9ruu/u5FIhV6dFeBFSWlGqWMRQcToUcP4pL/GYtImSNx6AX3VylVLPt9K+iz0tkERaogQpxOAiRAAiRAAiRAAiTgigQoUiVwVl6FSCmSJO5/Ut8vpey+evpLm/YpC1nHouK0714YDu62NOUTk8W0fFKkdDYBQIjYc034zJE4uPGk0z34KSIluoZnRcruxPAjCZAACZAACZAACZCAyxKgSJXAqXFGpIrb2YQiSWqZEu9FBUotW+Kzep6CDlNIka2nPVVvfrZpyoJ2IqVUrPKNN54ookixswkFM8ckQAIkQAIkQAIkQALlgwBFqgTO08tFqmS7PxfCpMiTIkyKRCmipRYrh4eYGIQtG7bLTiTyVZeETG3ch/NJxvyL2YlUvmXEnMWqSDno/tzA50jlPwH8RAIkQAIkQAIkQAIk4EoEKFIlcDYUkRKrEu/tnyMlHjIrnpGUmZkNV3ggr6hCKc32RBM+IUXyvilFoFS9+tkewmsnUvkqUco9U0WuSFkeyKs8RypPp4N4mDEfyFsC4eQqSIAESIAESIAESIAESoUARaqEsAqBEi9FpIQECBkQUiBEStz/I+4DcrZpn7J7osKkDKIapVSgxPf2FSoxX2FfUqA2bH/+nif7FdiJVElWpNIzsmzdnwtWOr0eBoORImV/DviZBEiABEiABEiABEjAZQhQpEroVOQTKbNZSoCQASEFeXk65ORqkZWdg/SMTIgOForyUjfnU6TKflyY+6KKsm0UJFKq+6ps1SsnNiBYZGRkISsrRzLS5unkc6RsImU2SzkVmqowdmL1nJUESIAESIAESIAESIAESoUARaqEsCo/8mVFyiZSBikF2rw85FpFKiMzu8giJXbVUfVJyJR9laqEDqvUVyNFKjNLSqZgpDTrs4iUESYTRarUTwI3QAIkQAIkQAIkQAIk4DQBipTTyBwvIARKqZqIe6TEYDQaobdWpHKV5n2Z2Uh4mgqTtSmg47W9HlMFA8FC3DuWnZ0LwUhU7wQzwU7hqGb7epDhUZIACZAACZAACZAACbg6AYpUCZ0h+WPf2gxNEQCDECmDtSolOpwQVamsHCSlZiI7N6+Etlx+VyMYCBa2Zn1CpERHEwYDBDuFo5pt+T1a7jkJkAAJkAAJkAAJkEBFIkCRKsGzqf7Bb6lImWSnCTqdHkrzPtnpRGaOrMQIkXgdK1PimMWxW6pROZYH8Vqb9QlWtvujTCbbfVEK2xI8XVwVCZAACZAACZAACZAACRSZAEWqyOieX1D82BcvMRb39ojmaUrzPilTSlUqOweZmblISsuUMiHuE3qdBiFQ4tgzM3PkvVE5OVrZs6FglL9Zn+X+KIXp88Q5hQRIgARIgARIgARIgATKhgBFqgS5y6qJTaSU+6SeVaXE/T+5Wq2tBz9xb5DosU48Wyo1LUMOySlpUIak5FQkJVs+W96Lz649qPddeS/GKanp8vhE9++yu/PMbItE5VokSrCxr0aJqp6aaQmeKq6KBEiABEiABEiABEiABIpFgCJVLHzPL5yvKmV9OK+sSol7pUTHE7pnMiWa+Yku0eWDeoVQZWTK50ylpVukSpErMRYiYpERISSuNzzbv/z7Lo7FIk/5BUocu7hnTIilYCLYiHujnnUywWrU8+niFBIgARIgARIgARIgAVchQJEq4TOhrqAonSWIh/MaDAZLxxPWXvzEg2dFd99CKOQghCorW0qVrFRlZiFDDtmygiOqOOVhEN27WwbL/tuOKStbdiqhHK84dsFAVqJUEiVYKdzULEv4NHF1JEACJEACJEACJEACJFAsAhSpYuFzvHC+qpStK3SVTOn01udL6aRMiG6/xX1CokKTo4iVdSwqVuVxUIRJjJVjEscojlUIlPLgXXlflLUSZS9Rgq7C0jFpTiUBEiABEiABEiABEiCBsiFAkSoF7kolRaxavBcdTyi9+Imma6JXOtGpgpAIMYiqjBALKRiiUqW1CIeQDjmIJnDlaVD22zpWjksco3IvlBQovdJDn+iUQ6lEWR/Aq3ouVymcIq6SBEiABEiABEiABEiABIpFgCJVLHyOF5YipRKB/DJlkQbR1E8RKr3e8qwpea+QSq6EdJT3wSaL4j4o2SufpYmjpYtzC4tn90VZO5dQsXNMmFNJgARIgARIgARIgARIoGwJUKRKib9jmTLJ50Y9q06ZZOcKz6TKIhmi0wVRsXp+ENNdeXCwz9Z7w8R+C3kSxyrESVSgbAJl7ZTDEbNSOj1cLQmQAAmQAAmQAAmQAAkUiwBFqlj4XrywWgzEnMpn2ZmCVR4sUqWIhQkG0fTPOliEQ3xXPgflOMTYIk4qeRL3jtkJlGSk4vRiuvyWBEiABEiABEiABEiABMqOAEWqlNkr8iTHKkkQn6VQyc4ozDapeDZNuWeoAo3lMT877hexKeXTwtWTAAmQAAmQAAmQAAmQQLEIUKSKha/wC9tLg1gy3zRxX5B1qGgypRyX/VgyUHEoPE3OSQIkQAIkQAIkQAIkQAJlS4Ai9Yr555MJIRGq7ef7TiVWFWW6cqjimOVgPUZlOsckQAIkQAIkQAIkQAIkUF4IUKTK6ExVFDkqznGUEXpulgRIgARIgARIgARIgASKTYAiVWyEpbeC4kiKKyxbemS4ZhIgARIgARIgARIgARIoWwIUqbLlz62TAAmQAAmQAAmQAAmQAAmUQwIUqXJ40rjLJEACJEACJEACJEACJEACZUuAIlW2/Ll1EiABEiABEiABEiABEiCBckiAIlUOTxp3mQRIgARIgARIgARIgARIoGwJUKTKlj+3TgIkQAIkQAIkQAIkQAIkUA4JUKTK4UnjLpMACZAACZAACZAACZAACZQtAYpU2fLn1kmABEiABEiABEiABEiABMohAYpUOTxp3GUSIAESIAESIAESIAESIIGyJUCRKlv+3DoJkAAJkAAJkAAJkAAJkEA5JECRKocnjbtMAiRAAiRAAiRAAiRAAiRQtgQoUmXLn1snARIgARIgARIgARIgARIohwQoUuXwpHGXSYAESIAESIAESIAESIAEypYARaps+XPrJEACJEACJEACJEACJEAC5ZAARaocnjTuMgmQAAmQAAmQAAmQAAmQQNkSoEiVLX9unQRIgARIgARIgARIgARIoBwSoEiVw5PGXSYBEiABEiABEiABEiABEihbAhSpsuXPrZMACZAACZAACZAACZAACZRDAhSpV3zSHj1JBQcyYAaYAWaAGWAGmAFmgBlgBko/A6X5U58iVZp0uW4SIAESIAESIAESIAESIIEKSYAiVSFPKw+KBEiABEiABEiABEiABEigNAlQpEqTLtdNAiRAAiRAAiRAAiRAAiRQIQlQpCrkaeVBkQAJkAAJkAAJkAAJkAAJlCYBilRp0uW6SYAESIAESIAESIAESIAEKiQBilSFPK08KBIgARIgARIgARIgARIggdIkQJEqTbpcNwmQAAmQAAmQAAmQAAmQQIUkQJGqkKeVB0UCJEACJEACJEACJEACJFCaBChSpUmX6yYBEiABEiABEiABEiABEqiQBChSFfK08qBIgARIgARIgARIgARIgARKkwBFqjTpct0kQAIkQAIkQAIkQAIkQAIVkgBFqkKeVh4UCZAACZAACZAACZAACZBAaRKgSJUmXa6bBEiABEiABEiABEiABEigQhKgSFXI08qDIgESIAESIAESIAESIAESKE0CFKnSpMt1kwAJkAAJkAAJkAAJkAAJVEgCFKkKeVp5UCRAAiRAAiRAAiRAAiRAAqVJgCJVmnS5bhIgARIgARIgARIgARIggQpJgCJVIU8rD4oESIAESIAESIAESIAESKA0CVCkSpMu100CJEACJEACJEACJEACJFAhCVCkKuRp5UGRAAmQAAmQAAmQAAmQAAmUJgGKVGnS5bpJgARIgARIgARIgARIgAQqJAGKVIU8rTwoEiABEiABEiABEiABEiCB0iRAkSpNulw3CZAACZAACZAACZAACZBAhSRQJiIVHR2DjZs2Y+LEyejzVl80b+6B6tWr4u9//5scxPvmzd3R560+mDhxEjZt3gyxDF8kQAIkQAIkQAIkQAIkQAIk4AoEXplIJSUl4bfflqBzl6544403UKlSJTlUqVIFlqESqlSphMqV35SDeK98rlTJMn+Xrt2wePFSJCcnuwI77oOLE9BlZ+DJub0wGQ0uvqfcPRIgARIgARIgARIggfJGoNRFSlSSpk6ehkr/eANv/v0fqFKpMmpUrWaVpyqoVq2aHKrXqIqaNatDjGvXrok6dWqhatXKtsEmXJUqo/Ibb2LypCmIYZWqvOWtVPY3Lfbec+tND/XHw0U98GRJO0T/PgTah6HPzcMJJEACJEACJEACJEACJFBUAqUqUnPn/YCa1arjzX/8D6pXrSyHGtWqoGH9elKWFGGqW7cu6tarjXr166Be/VqoU7cGGjdpIMfivRhq1aolh5rVq8r1VKtcBVUqVcKCBQuLeuxcrgIQSLy0EzFr30Vq2DVoHyUg4dc/EDPqS8R0aQ397HbQLemGiKGeSPTthKzunyJ2xjzkJadUgCPnIZAACZAACZAACZAACZQlgVIRqZuBQejcqbNFeKpUkuPa1apCDI3q1kG9WjXRqGYtuNevB88G9eHVsC5aN64vB99mTeHn7oaWTRrCvX4dNG9QF56N6qNx3ZpyqFujhlyPEDIxVKtSCT179EBgYFBZcuS2y4hAVmwYHv45FrmJCXgw9AtkfbcEaDkaZr+RSHbrj8hqXWBo+wngPRLwGgVtu7F4MOgrmE2mMtpjbpYESIAESIAESIAESKAiEChxkRKdSIj7n2rXrCVFp16dWmhQrxYa1Kkph6YN66JZk/pSkFo3awSfpo3g49YAPk3qw7txXXg3aSiFqp2Hm3zv26yxHHs2rgsxNK5fB43q1UKdWjVRq0Z1uQ2LUFXG5s2by8U5CVj1LcZO+RE7Eo2Ie/QIMD/G/vlfY+S6K5b999+K6YejHR6LXHbydPx2U/f896ZgrJw0A2MnT3/pMGbqGlyA2bYOsd7PF+6HrUsP6z7lm2ab27XeGPJyELbwV+h/XgPz+gNA1ylAy7GA9xeA35eA1zjAcyzgORpGv3F42vQdPFi1FGaT0bUOhHtDAiRAAiRAJ97hGgAAIABJREFUAiRAAiRQbgiUqEgtWrRYdhAhOolo1rgR6tashib16qBh7eqyuiQqTKK61L6VJ9q1aC4FqY1bY7Rt1ght3BqinXtj+Lk3kYMQKDGIz4pMiaqVe6N6aFa/DhrXrYUGNaujTo2qcqhRrRIqV/o7fl/6u+vCjzuF7yc/Lzqjf1qLFT/MssmPEKr4gOuIRaIUrKKIkYRgFasCZcgJ8RL74FDeypi22WzGnZmf4KpHI8D3cxg8RlnEyXe8RaSETLUebx3GwdR2DOI9u+HsoOYI/vPrMt57bp4ESIAESIAESIAESKC8EigxkRISJe5jqla9ihzcGjVEvVrV0bxxAzRrWBdejRvIQVShuvi1gqg4dWrVHB1auKGjZ1N09myKLl7ifXM5dPBwhxjEZzGPkCwxeLo1RoumDeHesL6UNFGdkhWq2tVRveqbskK1+LfF5ed8xJ3C8j//koKlrkiJitXOhPj8laoCjkpUk2wVJmsl6UXyZZtXtb4yq0hp6gIFDar9K+itUa9D/OIPcaO/N9J9hlrlSYjTWKClGH8BeI23Dl8A3p/hdv1mePTbOwjeOL2g1XI6CZAACZAACZAACZAACbyQQImI1MZNm2SHEvXr1rQ2tauEJg3qokmDOlJ8Wro3kpWlNs0bo62XO9q1bIaurTzQzbs5erRujp7eLdCrtRf6eLdE3za+cujRygs9WrdAL19P+X2Xls3RWSzr4SbX1bpZE3g0aSArVG6N6stmg+IerBpVKqNm1WrYvHnLCw+8rL5UmuapRUc040vYu9hWkRLf2aTK2R21byZot7zYjiORkrOpJKzAeezW99zHgqToRdOfWwkscuVout00o06LyHVDkbF/IuJGDUJ6pUFAzVFAoxFAszFA63GA+ziYa3yGzH8bjLhaHZD5/VAkr3obcYfm2q2NH0mABEiABEiABEiABEigcASKLVI3bgaiUuU3UPnNNyCa14n7lmpWr+xQpNp5NEFbTze0a9lUSlQ3b3f09PFAL98W6OPTAm/5eqK/b0u807Y1egm58vaQ03t5u6Nra3d0adUM7ZuL6lRTKCLVvHF9NGvc4DmREt2t37hxs3AUXuFc+So/VnGZeehq/spT3Ckstd4jZS9YagFTv7fdU6WSIfX36vcOJUnV7FBUyJT5nW7OJ4RJvOzFyX6a+rP6vXo5Mf0lLyFSj/eOhv7qd0jYPh45v45G/H92hEnTHSZNL0DTF9D0QrLGC9EduyLttzFIXTcMCJ6KqMOzX7J2fk0CJEACJEACJEACJEACjgkUW6R69uiFSm/8HaJbclGRalirhryHSfS217JpfXQQTfVausNSUXJDL79W6NvBB/3b+6Bf+1bo17YlBnXyw+AuvhjU2QfvdmothwEdW6JfWw/0bdMcfXyb2SpTvdu0RkfPZmjTvKm8x0psQzT1E0Il7scSvQLWr1UHNSpXRbeuPR0fdRlOdVSRUkRKkRfRrO/3Q1efdfyg3l//rVJyChQcZytS6vukrB1gyM2pxErsV6ErZK9YpAy6XDzdOxoIng/c+gYZWz9B9opRyPB+F3maDjBr+iBd442cof3wZPF7SNvyKUzBc2EOnoOoo3MRlRyP+LTHasJ8TwIkQAIkQAIkQAIkQAIvJVAskZr/w4+oXkUIVG0pUbVqVpX3QwmpEYLTyq0hOrb0kPdCCQHq064V3u7gi7c7+uDt9q3Qv4MnBnZqhXe7+WBIV2/r0Arvd2+NoT185HhQJ0/0b9cC/dp6om/blujfwVuuo7tPC4imgr7uTdDaww0t3ZvI+6Y83Bqjfu1aEPdo1alVG/PnL3gphFc5Q6EqUkKW1FKj3sFCipRNyhz04GerSFnXJea1dUhht36b+BW0P+p9E++LKlIFrcd+ut1noy4XT/aOBILnAsEzkHvuc2QeGovklZ/hydghiP3/fKGbMxZRi7sidd/bwK0JQPDXwK05uH/oO4zcPhHrb+y2Wys/kgAJkAAJkAAJkAAJkMCLCRRZpKKjY1ClktKkr4qsRImKkJAoUSES3ZoLierSuiH6tHVH37bueLdzKwzo6IWBHTzxfjc/fNTVFyO7tcGY7m0xprOfHMZ29oEYxnfywYSufhje0w/vd2mND3q2waCOrTCwkzcGdPCRzQAt90w1gZ9HUylT4p4pt/p15b6IypSokomu0WNibJ16v5jGK/jWJiYqwRHN8uyn28TGrjLkUJDsJEfdHNDRetTVrKur12PF6m9sTfkcrd/WbLAwfIoqUvZN+pT1vGSbhrxcPNnzGRAxHzr/qUDQd0DwHJgvz0LUkneQvvlzhP3cB7g0FQibCe21r2C4PAO4+QuCt01DpyXd8M3xH1+yFX5NAiRAAiRAAiRAAiRAAvkJFFmkJk2cLB+GK2SlcaN6suMHURUSveqJziWUSpQQqd7t3NGnbXO807kVPujVQQ7vd22Hod3bYVjPdhjRpz1G9+sshzF9O0MMn/fpiM/e6ogRvdpiaHdfvN+jjaxeieZ/Yujr1xKiKiV6/hP3XXm3aCarUr5eHrJpoejJT9yrJXrymzR5Uv6jLsNPSkXq0VVLEz0hLlJs/LfaxrZpjvZTVTGSwqSWKKt02cTHTsJsUmW/XvVzq1TrF7MFrPpVPu/KfpECPysCpBYj5b1YyNH3ynRH8xW4IcsXBm0OkvZ8CtP1ydAFzAACvwdufisrTkKoHu4eDrOQq3sLkHZ2FoJ//R4p675G5PfzcXLiDLz3VResOrnyJVvh1yRAAiRAAiRAAiRAAiSQn0CRRCopKQmV33hTVnxqV6mCRnVqwq1OTdm9ufL8p14+LdHF0x3923ugb/vmcvht7iRE3wpC1O0gRAYHISokCOH3buLBvRuIDLUM0fduIiYsCHH3ghAfdguPIm4jJvQmHt65jtiQGziwaTUGdPZD37aWZoLdfbwsMuXlLpv5+Xi5wb1RHTQRD+2tUUXeMyWqUsnJSfmPvIw+KfKz69FN+fBcee+R6nlPyrOjXiQ9imjFx596tg718agFyipatoqXWrxUTftsTQnVIuVgPerNOHyviJL6S0WQlO/Un5Vp6vnF+4Km282nz83Bk+3DkXf5SyBkrkWg7swDQn4Awn4CQn8AQuYDtxcg+cBPuD55Cc4Omo/bQ1fhfKffsL7b1whYc8RurfxIAiRAAiRAAiRAAiRAAi8mUCSRkg/erSSqPZVhL1LiAbri3qUBndqhT5uWUqT6dfDA4O7e2LH2V8AIwATAaAZghgFGmGCACXoY5aCD3pQLk9EyAHpAnwXAAPH+cXQ41i/5BQtmTMbbPdpD3HvVubUH2rfykE38PJs1zCdS4n4p0aPgksVLX0ziVXxrXzHy3/qsK3L/rbKnPtkI0X8rxEN6rwQdd/gAX0fN79TPnRLfF9g5hFWUbPdJXb2BCzADBXU6IbjEncLOm/rCEbKXpOJ8LsQW9Xm5uLrsfcQcn4zIo9MQdWAKHh6ZjtgjMxB3dCYeHp2KqCNTEHVoCh5sWYCAj5fjTJc/ENJvA8J7rsG93isQ+teFQmyJs5AACZAACZAACZAACZDAMwJFEqnOXbpYH7xbGY1qVIdbnepo1aAu2rg1hOjivL2nm+xlT/TKJ+6JGtCphew4Ys/Kn2xbNpvN0qdsE1RvxHdiyP8yAGY9Hj+Jw/UTx3DnwhnERIfg0/feQRfvFujZtrXctrd7Y4iheeO6qFe7CurVsjzbqlu3rvlXx0+vBYE8fR6uxwVh7bX1+PPYn7g8eBXudF6Oi50W44zvj7jgtxDXJmx9LVjwIEmABEiABEiABEiABEqOgNMiJTqZeOPNv9tEyq1OLXg2FhLVGO3cG0uJ6uDV1CpSXhjYqSUGdvbEp3074Ohfi2GERaCUsaNDeV6khFQZYIYOt25ewSc9u+Oj7p2xYe0SnNizBd39PNGrnbfsZl304icGUZlq1qSu7MFPNO2rUulNxES7TqcTjo6b00qewJzTi9FoXy+4b2qP5kva49OP30XA0HUI6LUWV7qtQsLYk3h4KLjkN8w1kgAJkAAJkAAJkAAJVGgCTovUxk2bpJS4NWmEOrWro2nNGmjZqB5aN6wnRUp0APFW+9by+VCihz3Rrfn7XVvhoz5+2LviRxhMJlmJEq37ivI6sXMFPu/qg5GdfDDi7U7IS4lBz3ZeUqa6+Vq6RBdNC0X3680a1EKDGrVRs2o1VK9UBZs3bSnKJrlMOSdw5sElLLmyHEsvrsCVO5fw6G4UDHl6ZCWkIvL4HRjyRLNRvkiABEiABEiABEiABEig8AScFqlJEyfZeuurV6cGmjesLytA4gG5oge9bt7N0bV1M/Rp44VBnVvLHveGd/PB5wM6YO0P04otUlsWz8DkHr6Y1N0HX4/qj9iQ6+jXyQc92njJQTQtFINXk3qyeV+DmjVRs2oVVK9cCZO/cp3e+wp/ijgnCZAACZAACZAACZAACZCAqxFwWqTe6tNHilS1KpXkQ3gb160lpaV1s0ayWZ8Qmt5tvSDujxrY1RcfdmuDj7t7Y1LPNpg7uCNS0tKsDERNSgyWTideDMYsm/UZtKmYN200pnw0AL/OHIf44ItYPm8mBnRojV5tPOTQwasFxODZqL58tlSTevXkfVJV/vF39O/b78Wb4bckQAIkQAIkQAIkQAIkQAIkUAgCTotUi+bu+URKPK/Jo2k9eU+SeJ5TR8+msnvytzv64N3ubTGse1uM7OGLGf064Ot+vji07S/AlCN74LP0xPfivbTolhEGcwZSnkQg5v4txNwLRtiNK1g0ezoGd/PD4G4+6NvOA73bNUfHFh5o09wdfu5usjv2xvXroF6t6mhQpyZae7Z48cb4LQmQAAmQAAmQAAmQAAmQAAkUgoDTIlW7ZnWIzhvEUL9uTbRs1hQeDetAVKTatRTN+tzRv4O3lKkBXXzwQVc/jO7hh6lv+eH7Ae0x79O3kR0ZKGUqLy/PQe98DvbapEP2oxDMGT8Q84e0xzdvt8asfi0xsZsbPujRVj6st3+7Fujbpjm6eHmiXYvm8G3WVFalPNwao06NqqhdvQrq1a7hYOWcRAIkQAIkQAIkQAIkQAIkQALOEXBapCq98fd8IuXesD5auTWUXY4LkerRujn6t2uFQZ38MKizD97v4oMxPds8E6n32mHZ5I+QGnff0oOfySRl6vnuzq0HIh5fFP8I66d+jp8/6IS57/fA9AEdMPntjhjV0wcjenhjaA8fKCLVtZUn2nt62ESqSYO6NpGqVukfztHh3CRAAiRAAiRAAiRAAiRAAiTggIDTIlX5zX+gTq2aqFm9KhrUqwXPRg3QsokQqabo6NkMPbzd0b+dFz7s3RHvd/bDJz1bYWR3L4zv64fp73bCN+92wO+j+2HdpCFIu7QTWmsjP+FLyrN6lf00GQBD8H5smvE+fv6sK34Y0QGz3u6MGf064quebTGhexuM6N0GQ7r64J22XrKDi06tWqBNCzfrs6TqQ4ieaNpXs2ol1KjyprJqjkmABEiABEiABEiABEiABEigyAScFqk6tWqgetXK+UTKq3ED+DZ3Q2cvd/Rs7S6l5r3Ovpgz/lMc27YOR7etkcOZvZtwZd96+O9Zi5tHtiPg6E6kRIYA5hzAnGcZoAPkkIenT2MRcnwzgg79hWsH1uDK7hW4uH0jLmxdj3Pb1uPs1nXYsngBRr3TU26zt5+n7DlQLVLNGojOJqqjbs1qcigyKS5IAiRAAiRAAiRAAiRAAiRAAlYCTouUp1cLVK9RFbVq1UDtOjXg1bCBfIZU22ZN0NWrOXp6t0Avbw/09fPCkC5+mPjxu1i3aB6ObPkTD+8GIjrqPtIyM6zN+YyAyQizSWcbDEYt9IZc6IxaGMw66Ix5MEKPHF0momLDkBJyF4GHD+L4+jVYOGkc3uvijcFdfNGvrSd6+baQMie6Yvdp2ggeDetBdIZRv3YNWZFq1cKDJ54ESIAESIAESIAESIAESIAEik3AaZHq17+fFKkqVSqhYaN6z4mUeCBvTx+LSImq1EfdvTCmV2uM7e2D6QPbY85gPywd1hFrPu+NtaP7YNukwdg+cTAu/ToBoWu+x51VXyNk5dc49d1IbB/zDlZ+0Q9rJg7A0rFvYc7QdrJZ35Te7TCpT3uM6+KLwV1bYmBXb/Rp2wI9/J4XKdH8UDzvqka1SujX761iA+MKSIAESIAESIAESIAESIAESMBpkZo4cRKERInmfXVqV4dbkwbw8/aQPfZ18GqG9h6N5H1Sojo0sJM3PunSRnY2MeEtH0x5xxczB7XD3KFdMf/9rpj/Xhf8NcxXDls+boddozph12cdsePj9tg+vC22fOCLFUM74reh7fDDED/Mer81Jg/siqnv9cDnvdvgky6tMbBbS7zTuaXs+rxXW3d08/WWz5Hq2NpLdn/eoEEdVK9RBVWrVcKkyXwgLyNPAiRAAiRAAiRAAiRAAiRQfAJOi9TGTZtQufKb8llSQqQaNawLt8Z10MKtPvw8GqOdRxN09nZHD19PiGdJDWvvg087+2DCW374qo8PZgxoK0Vq7pAu+PHdLlg+rB1WDW+PNcM74K9POmPtsPZy+OvDjlj3QScsG9IOPw70wbcDvTF9cGt82a8Dxr5leTbViE5eGNC9Jd7q6IGe7ZvLoX2LFrLHvtbNmqBp7Rqo26A2atapgUrV3sSmLZuLT4xrIAESIAESIAESIAESIAESeO0JOC1S0dExqFTpDSlStWtVkxWpli3cIAf3RmjTognaezZB7w6t0a99KylSn3T0xuhu3viyty+m9PPGN4PaY/a77THvvQ745cPO+OWDjlj0QQcsHtYZvw/vIoelQzth8bvtsHCAH+a+7Y0Z73hh0gBPjO/XXnZ7LqpRwzt4om8n8SBedylR3fzcYBEpN7Rs0hhu9euiTl2LRL1R+e+IjolxjRP+/7N3H+BRVHv/wEHE9t76v/da6VKkVwEREEFBsICK5apXBZGOAlKUJtKbFBFBRDrShdClCKEGkhASQkhCCiQhvWx6z/f/nLM7y9nJbHojfHPfeXd2ypkzn1mfZ7/8Zs5mO2Js/ZHYh5wC9ydw8QeoMs7BeHuvtXit4YhCtWfcEJdSgAIUoAAFKEABClCAAgURKHSQEo327NUTNZ58AvXq1pQ/ytvsmfpo16oZnmvTTA49LsLUa906od8LHfFRt+cx8KXOGPqSOUyNff1ZTOzbEdPf6SrD1JyPemDu/17CnA+6Y+H/XsbCD1/Cgg96YP5/u2PeO10w683OmPHmc5jYrz3Gv9UBQ/s8hwE92uDT7q3xyYut5LNR4vmoV55vg+7PNkOPDu3RsWlTa5Bq2KgeRIh6+ZWXC+JRNtsUIUgh2xFf1WyAf725GD76AMYgVTbXjUehAAUoQAEKUIACFKCARaBIQWr5D8tR46nHULe2+TmpRg3roGWzRmjd/Bm0b9UEHVs2wXt9esnb+/q/0BEfdu+IT1/qiM9fbo/hvdtibN/2mNCvI77p3xlTLNPUtztDTN/27yKn6e90w9R3XsCU/l3x9VtdMfaN5/DFa+0x8OXW+LRHSxmi3u/WDG8+3xG9OzyLlzt1kD/E+0Lb1mj3TEOIYc8b1aklRxZ8/In/YNnyHyrORbcTpETVqV69ejaTTRVK7FenD5b6HJOhSr+t+t4wcFUcAfaEAhSgAAUoQAEKUIACd7VAkYJUdHQ0ajz5KGrVeBzi9r6G9Wtbg1S/Pr3w6QfvYtSATyAGn+j1XGv069oG773YFh/1aItPej2Lz1/tiGFvdMIXfTvJ56a+er0Txr3xvJwm9O0MOb3RFWP7dcWYN7thVN8XMOTVzhjYq6OcPu7RDv27tkHfLm3xeueOePPlHhj2yaf47IMPMejD/6Jru7ZoUr8u6td6SgapJ558FKLPFeFPVJXUwCPm69TvjUV+GRBBqssqzzvd3DvVfDufPnjp3+srUl5r0bufQeXqTsucowAFKEABClCAAhSgAAWKIVCkICWON37ceDz1hDlIiTDV+Jn6+Gzgx8hISQAyU4GcDPTs1gHdn2+N3t2exZs9O+Otlzvg3T6d8H7vjhjYvwcGvdkdo9/tjSGvdsXIN1/C5326YHT/VzCiXw9ZwRr2dk980ucFDOzbEx/06Y5P+72Ct3s8j/4vdZbPYPXq1hHPd2iLGdOnIC0tRf4mVWZqEkYPHSyrUQ1q10TNmk9h3IQJxSAqhV3V4GOpMuUZpLz9sHJkW2vgErf52TxjpbYnussgVQoXjU1SgAIUoAAFKEABClDgjkCRg9StW7fw5OOPyt9natSgLpo2aYj3330LIsjc9PPBZ598iKZNn4aP9xVMnToWp08egIvTCbzXryeC/TyQEhWEW14uSAz1R5DHRQx7ty82LpmL9PBAJIXcwA3ns0BiFE4d2IXXunfGoT3bEX7rBkID/TB21GBs37wBAYG+8PLxxOARg/HtnBlIyU7DmBFD0brpM6hfpyaerl0DTz3xGMQAGRXqTw0+SiiyW5GydP748PbmipWyj1ylticWMEhVqMvNzlCAAhSgAAUoQAEKVD6BIgcpQTF37jxZlRK3+ImBJ8T0yYfvIyjAF6bocPR55SXERIdi4YJZcHN1gq/PVXwzfgyQlY6VSxcB6YnYsHIZkJGAyV8OQ2psBDwunkGo/3VEBwXC8cQfSDSFYeyXn8ttVy//HsGBvrKNw3t2IyMtCVOnfoNuPbpi8pSJALJlmBNDstevXVuOLjhn3ryKd9XU4KOEovyClPVELANP6G8RVN/zGSmrFmcoQAEKUIACFKAABShQ4gLFClKiN73ECH5PPSZH71u6eAGy0pKRk54ib+/78N23ERsZhqiwEBmszp46gZnfTkFyfCw+/+R/QGYSPvvgbSA72RqkLvz5B3yvuiHE3wdHD+1DWmIkPh/4XyDNhItnTsDT9QIWz52JM38cQmJMFFo2fQatWzXDpK/Fj+1mov/bfWVfxG2Hr73+WomDlUiDe6feGX2vEEFKBC05+ISyj+yPGszEAlakSuQysREKUIACFKAABShAAQrYEyh2kHJxdUWtGk/J2/xe6/MKxo4ZJacP3u+PDs+2xrv9XseerVuwcc3PeOvV3njrjVdlmOrdoxumTx6Ht155EYtmTMF7r/fElLGj8OXgAfhm9Cg5fT1mlNzmxc7PYvSQgTi46zf8+P1cvPryixj6yUf4atQItGnRFC2bN0b3bl0x/qsxaNWiuaySiVv6XC9ftnfe5brceoue6IUSivKsSOUEYtUrzTHoaJrNPvJEGKTK9Xry4BSgAAUoQAEKUIAC955AsYOUINu8eTPq16uLp+vWkbf3iWHRW7VsimfbtkSrxo3QrkUzOT3/bFt07vgsOrZrhU7tWqNbp3Z4+fln0fuFjvL15c4dIKaeXTrhpU4d8OLzHdC9Swf06tZJLu/StoXcp0Pr5ujWoR06tGohg5SoSDVt/Azq1aktf99KVKO2bPmtYl5NEZzq9JGj9MkOFjRIqWFJ2Ue2oa4TC1iRqpjXnr2iAAUoQAEKUIACFKg0AiUSpITG0qXL5Ah5tWs+BTE1bFQf9evXQ6vGjeWkhan2rZqhY5sWkGGoUzsZlLp2aI2eXTqi+3Nt0b3js9ZJhKVuHdrghfat0blNc3Rs2Qxtmj0jJzGgROvmTfBMw/po1rwJ6tatjRo1nsRTTz0h+1JRr5CoRtn8NpQSekRFSn3OScxr21pv6xMnxmekKurlZb8oQAEKUIACFKAABe4RgRILUsJLhCktSDVp8gzq1auDxvXqyUn8QK6YWjdthC4d2qJt88Z4rk0zdGzdFJ3aNpdBSVScOrdpqZvM68SP/LZv1tgSohqhaYN6aNKwngxStevUtAap5ct/rNCXThsEQg1N2m9H2b21T72tT5ydviKlP2MlnOlX8T0FKEABClCAAhSgAAUoUHyBEg1SojubNm/Gk089jmeeaYhadWuiYc2aaFSrNlrUryenZg3ro23zpmjXsrF5atEU7Vo0RQfLJKpOYv655uapU4vmeK5ZMzzbtDHaNXkGrRo2QMsG9VG/Zk00rFcXdWrVwNNP10WNGjWwuaLezlf868QWKEABClCAAhSgAAUoQIEKJFDiQUqcm+tlN7zS+xU8/tTjqPv4E2jZoCGeqVXTPNWvi6aN6qN5k6fNU+MGaN64AVpaplZNGkJM7Zo0wrONG6Fj06Zy0oJY+2ZN0bh2LTRv/Awa1q+HWjWexOt935DHrECu7AoFKEABClCAAhSgAAUoUIkFSiVIaV6zZs/B4088KgOVqBjVqlVLVpDq1q6JhnUboFG9+nimfl00aWiemjaqh5aN6stJ3LrXsH4dOdVvUEdWnWrVriGfw6pZ8yk5sIQYmW/uvAXa4fhKAQpQgAIUoAAFKEABClCgTARKNUiJM7h1KwjjJ0zE448/jsceewzieSYx1alZB3Vq1oIY4a9unSfxTKO6aNSwDhrVr42G9WqhYb3aeLpeLTnVq1dL7tOg4dNyQIlatWpg3PgJsu0yUeJBKEABClCAAhSgAAUoQAEKKAKlHqS0Y0VGRmHWnHno3KWrDFS1nqqFWk/VkLfm1a75BLSpbq0nIKeaT6JOrSfl+ieffBxPPfUUur7QDbPnzkdEZKTWLF8pQAEKUIACFKAABShAAQqUuUCZBSn1zG74+WPVql8wZOhwvNyzJ1q2aIY6tcWP+v4bTz3+L9St/SRat2iOnr1extBhw7Fq9S8Q+/CPAhSgAAUoQAEKUIACFKBARRAolyBVEU6cfaAABShAAQpQgAIUoAAFKFBUAQapospxPwpQgAIUoAAFKEABClDgnhVgkLpnLz1PnAIUoAAFKEABClCAAhQoqgCDVFHluB8FKEABClCAAhSgAAUocM8KMEjds5eeJ04BClCAAhSgAAUoQAEKFFWAQaqoctyPAhSgAAUoQAEKUIACFLhnBRik7tlLzxMvawEvHz/8snmZ9CSTAAAgAElEQVQHHM9fKutD83gUoAAFKEABClCAAiUswCBVwqBsjgJGAlHRsdi8ez9SUlPlq9E2ZbFMhLl12/fI6edNO6zz2jL11e2qV1l0icegAAUoQAEKUIACd6UAg9RdednY6btJICM9HdscDiEkLEJ2WwSq8vrTwpw4fl790PosAiD/KEABClCAAhSgAAVyCzBI5TbhEgqUiIAII2ISt/JdvOwu29QCirZOey2RAxagETU8qfNGu4rqldZvo/UlvszTEas2bs93Wvm7E8KUg3sd3oWNF8OVJZylAAUoQAEKUIACpS/AIFX6xrZHyInFuZ07rV8WVxy9ZrM+8txBu+vEhnL9pqNwR47NfuLLpPYlVN+mzYbamzA3/KZ9aTVoDzn+OLBxe8G/oNrbXne++X7htfRrj3em1lPzq9Jf/Rdp2w0BlEQbuRot+AL97XN7Dh+37hxnipeVIBFitEncTldWz02p4Umdt3ZQmRG3IYpKWpn9eToi389ujj/271aCVAHDV76fuzI7SR6IAhSgAAUoQIHKIsAgVcZXUgQha0iwhAzrlzzxpVALNUbrNm7Hlj+OY4u2jaXvok1ruLDsZz2G0flZQo+2jdH+oh/7j+zMP0hpQcnO9iLgWb8cy+M6wDEqK3evLH1aufsY9u/accdIbKl+eda7qC2VRBtqe0WcFwFFVJrEX35hRTuECFNl8af2R523d2wRAmPjTPZWl+zywgapMDds2eWAzbp/jFA7ZfPfm7qC8xSgAAUoQAEKUKCYAgxSxQQs7u7ii54WNHLdouTpeCcgaQcSXx7VIGUUnPL7Qqpv107AydUfrQ92XnNtb9CuOF9rcDRqx+h8dNupZrpV5rcl0YZhwwVbqAYUdd7e3qJKpVat7G1XEsvV/qjz9toWA06U2aATyudWfJa0Cqv2KoO/NVTH4tyu47gacflOZVWrsOpetX8wsHeOXE4BClCAAhSgAAWKIsAgVRS1ktpHra6I+V37bKs1+tAkjqtfZhQa9EFJ199cYcaoDQC5gpGuHf3bXNvbCVJacNTvL9/b6Yt1W/16tYqnbaTfRluuvea3XtuuiK9qQFHn7TVXlmFF7Y86b69vZRnyYBOk9tv8tyA+W7ZBytLjMDdWpOxdPC6nAAUoQAEKVGIB8Ry3+FmZMn2eW+fJIKUDKcu34svhnVvyxDNJutve9KFJdM5gmU07lgBkbdfghHIHHvNzW/p/uc+1nUFb6qJc21sCizU46d+rO2vz9kKO8iyMTT8LE6TstaEdu4Re1YCizttrvixvnxP9qai3HRY1SFmf9dNVomwqWfbwuZwCFKAABShAgbtSQPyMi5hEmCqvPwap8pC3PMtjDRiiDyJAFKUipe2rDGCxz+kStmgP5CuDNKzatFf+K3+RK1KWftv7gporSMm+mQetkPts2ouzF/603spoSG8vSCkbi+PY2Cnr5GxJtKFvsxDv1fCkzhs1UdYDOlTkgTBsg1R+t/Ypmgb/uKCs5SwFKEABClCAApVQgBWpSnhR8z0lGWzMgcZmW6Mv/0a36BXgS2OuoGRzIPPIfzZBxOAWPLGLYTDStaW+Lcj2YhubipLagJg3ctBvk59BSbShP2Yh3qvhSZ03aqLMhxi3dEIbdr0iDc1uG6QKfmsfK1JGnywuowAFKEABClCgtAVYkSptYV37eYYNNTjZCwP5hYj81ov+6IKTvcEb8uyr7rzE23y3V8/PYH+5yOi8PR1tBqgQx7EGwYLe2pdXG/b6UsTlIjyJSpP4yytIiTAjhhcvzx+91fpQEX4sWA1Sdumtg01oPwVg+UeJMDfsVX9LyvI5ynNgE7sH4QoKUIACFKAABSiQvwCDVP5GJbeF5cuddmuc9qo+zyRCgrbc8EugUVBSnv2xDp+eX6+VfdTjq7vlG4zUje0EKRHStPOxdxybZoyClKVtw3YKGqTyasOmA8V/o799Tgxtbm8qsxHx8jgtEeS08JdX8MujiZJZpXwmtWtt9Gr+HMXijNN1m+OqnzXtNlabDfiGAhSgAAUoQIFKI8Bb+yrNpeSJUODuFhDhTzysWVY/DGyopYzaZ7heLFQqUqKCpQYtm3940P2jhc06u41zBQUoQAEKUIACd4sAB5u4W64U+0kBClCAAhSgAAUoQAEKVBgBVqQqzKVgRyhAAQpQgAIUoAAFKEABChRcgM9IFdyKW1KAAhSgAAUoQAEKUIACFJACDFL8IFCAAhSgAAUoQAEKUIACd5UAb+27qy4XO0sBClCAAhSgAAUoQAEKVAQBDjZREa4C+0ABClCAAhSgAAUoQAEK3FUCrEjdVZeLnaUABShAAQpQgAIUoAAFKGAW4DNS/CRQgAIUoAAFKEABClCAAhQopACDVCHBuDkFKEABClCAAhSgAAUoQAEGKX4GKEABClCAAhSgAAUoQAEKFFKAQaqQYNycAhSgAAUoQAEKUIACFKAAgxQ/AxSgAAUoQAEKUIACFKAABQopwCBVSDBuTgEKUIACFKAABShAAQpQgEGKnwEKUIACFKAABShAAQpQgAKFFGCQKiQYN6cABShAAQpQgAIUoAAFKMAgVcafgdsRseBEA34G+BngZ4CfAX4G+BngZ4CfAX4GSv8zUJpf9RmkSlOXbVOAAhSgAAUoQAEKUIAClVKAQapSXlaeFAUoQAEKUIACFKAABShQmgIMUqWpy7YpQAEKUIACFKAABShAgUopwCBVKS8rT4oCFKAABShAAQpQgAIUKE0BBqnS1GXbFKAABShAAQpQgAIUoEClFGCQqpSXlSdFAQpQgAIUoAAFKEABCpSmAINUaeqybQpQgAIUoAAFKEABClCgUgowSFXKy8qTogAFKEABClCAAhSgAAVKU4BBqjR12TYFKEABClCAAhSgAAUoUCkFGKQq5WXlSVGAAhSgAAUoQAEKUIACpSnAIFWaumybAhSgAAUoQAEKUIACFKiUAgxSlfKy8qQoQAEKUIACFKAABShAgdIUYJAqTV22TQEKUIACFKAABShAAQpUSgEGqUp5WXlSFKAABShAAQpQgAIUoEBpCjBIlaYu26YABShAAQpQgAIUoAAFKqUAg1SlvKw8KQpQgAIUoAAFKEABClCgNAUYpEpTl21TgAIUoAAFKEABClCAApVSgEGqUl5WnhQFKEABClCAAhSgAAUoUJoCDFKlqcu2KUABClCAAhSgAAUoQIFKKcAgVSkvK0+KAhSgAAUoQAEKUIACFChNAQap0tRl2xSgAAUoQAEKUIACFKBApRRgkKqUl5UnRQEKUIACFKAABShAAQqUpgCDVGnqsm0KUIACFKAABShAAQpQoFIKlEuQysrKQnpGJtLTM5GRkYWszGxkpWcB4v+yspCRkYHU9FSkZWYgLT0DaRkZyMrKrpQXgCdFAQpQgAIUoAAFKEABCtx9AmUWpLKzs5GUkoKU9FRkZKdDvI+MjISHm4ec3Fzc4HLRFRcuXDBPF8/D3dMdKelinxRkIcsarMS+/KMABShAAQpQgAIUoAAFKFBeAqUepAICAjF67FgcOHwA0XHRMiSdPn0aly5cgr+/PxJNicjOyEFOJoBsICcnR04ibIVHhcPFxQXnz5/H2bNnZfASgSozx1ypysgUO/GPAhSgAAUoQAEKUIACFKBA2QqUapCaPG0aqj1wHx756yOo3/BpXLh4Xt62l2kJQKKyJAKUFp7UV1m1Qja0bcXtfl5eXjh+8ji8b3gjITkeX0+eiOkzZ5atGI9GAQpQgAIUoAAFKEABCtzzAqUSpJwuXkLb9u1QtVoVVLmvCv792L9x7NgxJCYmWkMTcgA56S5BNsz/0xZr4UqELjGJQHXjxg1M+24aHnrkQVR/qLo8ltOlS9oufKUABShAAQpQgAIUoAAFKFCqAiUepNasXYuq1arKECWClAg7v65bI09CC0XiVQ1SWnhSX7Wz1vbRgpSoUIn55LRkDBr8mQxS4jj33V8V4th3zd+FrRg5/hssdU03dzn4OL4bPwnfHLxpfAqW9frtre+N9zJeajn2kHXnjddbll5c/S2GLXRAEMLgMGeqzby9fbV9bok2go9j+oT52BGWhdA9y+T+crl21Jxw2e5IyzbaYr5SgAIUoAAFKEABClCgoguUaJCaO3e+rECJKpQIN2L6fOgg6+ASIgCJ56DkpFSk1AClzVvhtO0s+2nBKi0jFbHxsej92isyTN1XvSrENG/+AuuuFXFGBA0RoPKbZFDJdsfP4yblu61sK68wogWWfI6rhqb8+qetF/sE55j7KUKgen4r9h+U4VBsK7e7fRtqkFK31dqTr3mdS0W8qOwTBShAAQpQgAIUoMA9J1BiQUqEqKpVq1qD1MN/eQiNmjRCZHREqQQpcaXSs9IQcCsANWvXkCHqbglT8lNW0IqUZTuboGEQiPKsTFmC1IiJv+K00f2UlvUi7OiDjhqu1HmbipQl8GlBytqOUpES5yyCk9xPCXY2FbgCVsqK+1/poqtBsDcVt23uTwEKUIACFKAABShwbwiUSJBa8+taGaLUIPWXv/8Fe/fvlU88mUfay5RDmGsVJaPv83mRa/uJqpaYV/927dqF++67zzxZKlO/rqvgt/kVJkjpbo/TbrWTIUR/y58Ko80XMkiJ2/DyC27aei08ae/V1+XOl3JV1PLaXt1XzNuENe1cDF7thaK8lhs0I8OV0XIuowAFKEABClCAAhSggF6g2EHKPyAQjzzySK4g9fa7byMxJUGGp8wcc4gSgUoLRAUJUlFRURg+fDiaNGmCAQMGICwsTD4fpT8JMQDFe++9h4ceeshamRKjBVa4ASgsoUcfGAzfT5iPXbddcwURw23HfwO71SaBpVSA7O0vlmuVJBGk8mxPtKlUodTroYUwtXpl9AyUqE5Zj2Hpn3Z8re3CBCnRB31w0i/Tv1e319aJV/5RgAIUoAAFKEABClAgP4FiB6nboWH4xz/+gYcffliGqWoPVMM//vV3+Pr7ymqUGqJEkJLPSVl6pYUqfYVJrE5ISEDv3r3RuHFjbNmyBe+//z7eeecdu+cTFBSE//znP/K5LHGLX5WqVdCuY3u7298VK+yEFX3f8w0+RahIWUOOOJg+6Ihl+r7ZCYlaoAoKzbLpNoOUDQffUIACFKAABShAAQrcZQLFClJp6Znyd5527NhhrUqJ4chnzpkpQ5QYEEKEJ/V/qamp8PDwQHh4ONLT0+9UqHRwmzdvRrVq1VCzZk2YTCbEx8fLYOXs7Jzr1j6xqwhjM2bMsAYpMdDFW++8haTUVF3L5fzWEkDyqgwZhZi8trdWcuydWiErUqIZrbKU13Ftnm8SO2nPc6mDRVjOV/8Ml92BJpTnv0qzImVEJSpU/KMABShAAQpQgAIUoEBBBIocpLKyxDB65r+0tDQcOnQI9evXR626NREeFW75NShtDL5sOeCEGBxi4MCBMnQ9+eSTssrk6ekpG9GqU6JiJW7V6969u6xwVa9eHadOnZKVrCNHjmDp0qUygGnH1l7F/uLWv//72/9BVMV69e6J0IhQpGWmQe2rtn25vVqChb2QkKu6ZAlB9rYXgaSgQcomoKkABhUnGaS0QKRfr69GFTCoqedgU5FS+1KEeS0AqbfqGS0TTeu30d5r64pweO5CAQpQgAIUoAAFKHAPChQ5SKWnZ9pwiQAkqkwrVv4oR9O7E6HuzC37cRkefPBBNG/eXFaZfHx80L9/fxnCxO9Dabf4iQqUeO6qSpUqePTRR+Hr6yuDlKhKjRs3zua46hux//CRwzBr7izEmGKslbDUdMtvNakbl9d8OVakSi1IWSzVEKjOy9XZ7lg13vybUuJ9vkEqnwCpXj6j0GQUkLRlRq+iPa0dtW3OU4ACFKAABShAAQpQwEigSEFKfc5Ja1QEIXHLnv9NPxlg7sQn81xSahLadWgrb9cTt+w5OTnJypK41W/MmDGyGaMg1a9fP2zcuFFuKypf3377rTVwacfWXsX+J06dQFxCnHnIdWRbwpT5R3y17cr1tRwrUnndpifWqZUtexUpp71LzSP6adUqC6Z2q95Pv+6XP8CrBaVzIcfkb0mp1Sixi037RhdEX/Uy2sayzCgAqWFJbKa+N9pe2yaPw3AVBShAAQpQgAIUoAAFrAJFClL6apRoTdyOd/jwYSQkx8vG9UHK45oH/vXov6xBSoQjEb7Ec1IuLi5ITEy0BiSxrHXr1nJbMaT6X/7yF1nBEg2LKpa9PxGkxO9WiWOJ46vPZqWlZ9jbrWyX3yUVKRsU/a19NivNocgawpRBJ2R4CrH8CK/l+Snrc1WFddAdU32rD0nFea+2y3kKUIACFKAABShAAQrYEyhSkMrItB2BTTQugpR4lkmEGa2ypB705MmTMhhpv/fUq1cvREREyDAl9tWqXNr+e/bswT//+U+IZ6T+/ve/y8Em1PbszYsQpg1IobUlXtMzbG9FtLc/l1OAAhSgAAUoQAEKUIACFMhPoNBByt7ADaJSJIYg18KL/sDiN6Hq1atn/eHcBx54APv375cBTIQosZ/40/YX1aqbN2/K56du3bqlb87ue7H/+fPnre1o7YlXe32329hdtkLeLqeMeqe/Xe8uOx12lwIUoAAFKEABClCAAhVWoNBByqiyI6pAouKkVZa0YCTCi/Ynlvn5+eGTTz5Bu3bt0KVLF/mclBZ0xHpt0trR1mltFORVPEd19uxZ2Rdtf+3VqO8FaZPbUIACFKAABShAAQpQgAIUUAUKH6R0o/WJxkSQErf1iYEjtNCivWoHExUmEZTUP/Fe206sF1NKShLCw0ORniHaypLr1X3ymxd9OX36tGGQSkurIM9J5XcSXE8BClCAAhSgAAUoQAEKVGiBQgcp/fNRIgwFBATA1dW1wCeqhSftdeLEiejS5Xl8NW4MXn65B3r1etkapJKSExAVHVHgtkU1SwQpEcrEn3YM8cqKVIEZuSEFKEABClCAAhSgAAUokIdAoYOU/jmjq1evom3btvLHcLXwksfx5CqbcJOejsjISFy8dEFWolJSEpCWnoTs7HTkIAOZWekIDr6F27dv59esXC/6IJ69CgkJyVWVyjQYJKNAjXIjClCAAhSgAAUoQAEKUIACikChg5QIQeJP3MYnAsu/H3sU9z/4AELDw5GRVfCR8cT+0dHR8rZAUUVKTU0GkI30jGSkpiXKKSMzBdnZ4pbATFn1EkOk5/cngtSaNWvw5ptvWodM14Kb/tbC/NriegpQgAIUoAAFKEABClCAAkYChQ5SWiMrV67Eww8/jPvur4Zq1avj2nUv2D4BpW1p/Orp6Ym4uDh5650YhGLWrBmYMGEcpn07GZOnTMTYr77Em2+9gV9++VncoCcrUqJyld+fCGWLFy+WfZs+fbrNLX4MUvnpcT0FKEABClCAAhSgAAUoUBCBIgepgQMHomq1++RU5f77sG7TRmRCVKvym4CEhAR4eHjg2rVrGDduHCZMmAAxPLqoJolBJsRzUS4ul/D4E4/C8fRJWamKjoks0LNSmdnZGD5yhOzX//3tr9i7f5+slGUhB1k5hYl6BeHjNhSgAAUoQAEKUIACFKDAvShQ6CCl3do3YMAAVLmvqjVIffDJ/5CaJUbFyz9IxcfHy6HPY2NjMWbMGHTo0AHDhw/Hc889h1q1a+Cf/+/v+Otf/09WqdLSzLf3FSZIdej0nDVIPf7kk/Dyvi7DlAhZ/KMABShAAQpQgAIUoAAFKFBcgUIHKW2wic8//xxVqlSRt/ZVqV4Nf/1//8A1Xx9kIcsSpkRoEZMarLKB7Bw5id+dEgNCiOHKe/ToIW/Fq169Oh58sDoeeOB+vPrqK0hINMkKlahS3Q4NhghV+f2J0CSe2RIhT0zitsNPPxsod8vIEn3jHwUoQAEKUIACFKAABShAgeIJFDpIacOfDx48GFWqVsF91auiSvWquP/h6ujSvSviRfjJSrOEqNxBShv4QVSjvLy85KAVokI1d+5c9O3bF4OHDMLEieMRFhaCjMw066RVprT91dMWR0nPzJDTkOHDzFUyS5AS/fvXo/+S/UrL5O9IqW6cpwAFKEABClCAAhSgAAWKJlDoIJVu+UFeGaSqVEHValVQ9X4RqKrgwUeq49U3XjWHloxUS4/0lak7v+0kBn8Qz0XZTFnpcshzMVKf+EFebdQ+bV4NUqJl8eyTeDZL3Fa4cesWPPTIw3ISIa/Kfeb+VXugKq5cvYz0dAapon1MuBcFKEABClCAAhSgAAUooAoUPkhlmIc4HzZsGO6zhCgRpLRJhKku3Z6Hr78v0jJSkW35351b/MyH1wKRCFO2k3m4cy1IiQAlbhG0F6REiEpDNnbs2S1vLxQDX8hJC1L3V0G1B6vC8ewJpGekq+deceazHfFVzQYYdFRU8uz/HR/e3mabwMUfoF69ermmms+MwD55S6W5raLuJ/fOdsTYOn2w+IYvVr3SPNexxPHr1O+NRX53QqroV5VxDtYTEcc36qdY9q83F8NH9HXvVLvb6PfVH896IM5QgAIUoAAFKEABClCgjAQKHaS0Z6REkBLPSFUTQUWZRGVKTP9+7N/4ec3PMkxl5mTKZ6fE81NagDJ6lRWqnEyo25ufszIHKRGmtP2Ej6hGxcSb8OW4saj24AOo+kB1c4i6r4q87VBUpKpYwt5ZpzPIrKjPSBUkSOUEYmXvN3IFli6rPG0/KiL41B95J0gVdT/Rak6gDE/yGAbtyANbgpY+SOXql20vZXDKNxDtnWoTyPRN8D0FKEABClCAAhSgAAXKS6DQQUp0VDwnNWLECFmRUkOUmNeC1P0P3o9qD1RD5xc6Y8++PfK5KRGQtCAkXvV/YpkIW+r/7AWptLQ0rN+0EU1aNocY7MIaokRFyiBIuV5x1R+u4rzPJ0gZVZ5E9UoszxVYlCBV1P0kjL5PllClrw6J9/pApK+A6aHFen3VDF5r8Uadpwtclcqveqc/Jt9TgAIUoAAFKEABClCgJAWKFKTEs0YjRw2XQUrc3iemavdXlZMY3EFM8tkpUQ2yTC1at8Dipd/j1q1b8pmolJQUGaq0k9GepNJe1aHKU9LT5KAUiYmJOHbiBMaO+wpP1ap5Z3S+auZh2M2/a2V+NkqGKcszUuK2w5u3bmmHqhCvIkxYb39TQ4slUOQKCl5r0buf+TY4LajkF6TkiRZlP131SRxvyJHruSpisn2lImUU3Ky37mnqe6feuZ1PW2bwKtqy+his5yIKUIACFKAABShAAQqUp0CRgpS4Be+LL0aievVq1jCVX5AStwFWf6i6HOa8Y8eOmDZtGhwdHeUP8QoALUBpr7HxJri5X8HWHdsx4Zuv5RDpf/vb3+Rw5mJI8wcffsg6xHkVS5AyD3meO0iJYFehno9Swoe8+GqQAmSlSV+xsYYmJeQYBRdRIVL3Lep+2odS7C/CkC8C8g1S2rmM7rvE/NyTEuK09sSzULnCleX8japdeS3LFTatB+EMBShAAQpQgAIUoAAFSlegSEFKdGnr1m2oKgZ0qGKetMqUuSp0n/kZJbFemcStfvfddx+qVq1qnR566CH8+9//Rt36T8upztP18Ojjj8mR90RbIjTJqVo187EsxxTrRNva8bRXrR9av8Q2Q4YOK13FQrYuwolNtUUXpGyeTbK0rVWhoLt1L69b+8SuRd1P7Cv6aQ1lBb21T32uae9U1Hz91Xxv2bMJREbhS/HNZaes4ywFKEABClCAAhSgAAXKSqDIQSopKQkLFszDvPlz5DR/wVyIad6C+XKaO38ezNMczJ0/B7PnzcaC7xdg4cKFmD9/vvzdqDlz5kBM8+bNs+43f+FCud/Cxd9j9ry51mnRokVyv/mL5lvbmrdwLhZ8v8hmWrRoAcSk9WvewnmIjY0rK8/8j6OvRok99EFKLNs79c6zR+o+SkVHhIo8g1RR97OEKJvqllIJE+HMelz1GGpws8xbt9NklP5ri7RX0W5eFShtnU0I1XbmKwUoQAEKUIACFKAABcpQoMhBSvQxLT1D+Z0n8+AR2q15WTnmUfXEyHrq4BHqYBNG8+btxT7m6c42YsQ+tSXbef12yDZvn5pWsYY8twkh2oU2ClKWIGK9DU4ZjEELJyJIaeFCfbVWkUT7RdnPUhW6kXPqzgiASpASbb7W0DLEuqVSJcONOsqfLmBpp2p4a5/6XFgeQUu0wYqUVZIzFKAABShAAQpQgALlKFCsICX6nZEpfj9IxCfzX0kFKdGOCFPmgGQOReYglYEsqJM5UJmHRr+znXhfoZ6LsvhoA0ZoXvLVTpASgeX1p5XfaLIEDi1c5VuR0g5S1P1EGNKGUleDlFKx0o/YJw6pVZa0fmrdkK/5BKWC/J4UK1I2onxDAQpQgAIUoAAFKFAOAiUQpLKQlpmGjKxMpGWkIzP7zsARaRmZECPuJaclIyM7XU7ih3Yzs9KRIfYRU4b5h1xFYBKDWIj3WnVJbJeammzZPgVp6UnIzElHelaqHE5dvGqhyhycUq3tZmWkVdzfjdJfaHtBSt3OUu0RzxOJoCLCRIGCVFH3E8e2F6QsYWjlyLZ3bvFT+6pUwWyefxLbFCBIGQYwS/usSKnQnKcABShAAQpQgAIUKC+BYgcp0fEz585h+MgR+HzIYHwxeiySU9PxzeQpOP7nKaxavRpjx42Bi5sLrly9gqFDB8tp2LAhENPatWuxZcsWrFy5UgaoF154AeL5KxGm4uPj0L//W0hKNmHylIm4eOkcklITMOXbSRg+chhmzZ2BwcMGycnZ+QKWL1+CU6f+RGJSPP48ebK8TAt/3AIEKS08qY0XJEgVdT95HF2QWvVKc3kroXrroGhffa9VlGSA0lfURKPqYBTqyWjze6ca3q6o3rrIipSGxVcKUIACFKAABShAgfISKJEgJTq/fuNGvNirBxo3a4rfHfbipZ6vYO36dejW/UW0bNMSnw8dhJCwIBw5cggjRw3Fhx+9hwMH98LF5RLEQHx3kQkAACAASURBVBKDBw+Gp6cn/vOf/8hw9fHHH8sQ9fAj1fHe+2/jH//8K5o2e0YOJNHu2TZo3bolunbthLff7os2bZtj89aN6NajK/q83gfr1m8oL8+CH9cSnrSAkFcVJlf40O2rtaF//XLWWMPRAfXb6d9bq0hqkFKfY9KfpWVgjBW/jLcNVdp2uv5a29fWq6/5VKxYkVKxOE8BClCAAhSgAAUoUF4CJRakxAms+uUX1K5bF7fDwvBij5dkqBLDmdetX1dOH33yAWrVriFD0eNP/Af16tVCvXp15Eh+rVq1wqhRo/DII4+gSZMmMlS1bdca382YhpatGuN/H3+AX9asxLjxY9GseRM0bFQf3V7sgp69uqNV66bYvXcn3v1vf+zYubO8LHlcClCAAhSgAAUoQAEKUOAeESjRICXMtu3YiR9/WoGnatXE1Onfytv9Or/QGV26dZEVqYREE5q3aIK27VohLCwI/gE3sGTJEsyaNQuZmZkQP7rr7++P1atXo2XL5nihW2e8+trLcp9RXwzHxInj5fLHHnsMvXq9jKfr15FBaubcGdiwaeM9ctl4mhSgAAUoQAEKUIACFKBAeQqUeJASJxOfkIgP/vc/rFj5E1q2aY1PP/sUo0aPgv/NG3j3vf74+JMP0ax5Y2zbtllWpGbPno1u3bphwIAB+Mtf/oLt27ejZcuWaNOmFYYN/xz93nwV5847YurUb2SQ6tixPdq3b48uXZ6XFaseL7+I6JiY8nTksSlAAQpQgAIUoAAFKECBe0igVIKU5peYnIrvlyxGvQb15XNT6zdtlANNREVHYNkPS/DRRx/IH9ldsWIFxowZg8uXL2PixIkYOHAgNmzYgL79XpcDUnz22QAMHz5UPhe1/4ADJkwYhxEjRuDdd9/GXod92uH4SgEKUIACFKAABShAAQpQoEwESjVIiTPIyspGenomsnK035oSP9ybLYc0T89IlScpRuhTh0EX77U/May5uOVPDJUuhk7X1qWJNrO0NrWt+UoBClCAAhSgAAUoQAEKUKD0BUo9SGmnIEJPVKwJCYlJcpEIRNqkbZPfq7hlMDrWhIzMzPw25XoKUIACFKAABShAAQpQgAKlJlBmQUo9g9S0dMTEmhAVE4e4+ASkpNr+eG5mVpZcZrIEJ7Gt2Id/FKAABShAAQpQgAIUoAAFKoJAuQSpinDi7AMFKEABClCAAhSgAAUoQIGiCjBIFVWO+1GAAhSgAAUoQAEKUIAC96wAg9Q9e+l54hSgAAUoQAEKUIACFKBAUQUYpIoqx/0oQAEKUIACFKAABShAgXtWgEHqnr30PHEKUIACFKAABShAAQpQoKgCDFJFleN+FCikgJePH37ZvAOO5y8Vck9uTgEKUIACFKAABShQ0QQYpCraFWF/KqVAVHQsNu/ej5TUVPlaXicpwty67Xvk9POmHdZ5bZn66nbVq7y6yeNSgAIUoAAFKECBCi/AIFXhLxE7eLcLZKSnY5vDIYSERchTEYGqvP60MCeOn1c/tD6LAMg/ClCAAhSgAAUoQIHcAgxSuU24hAIlIiDCiJjErXwXL7vLNrWAoq3TXkvkgAVoRA1P6rzRrqJ6pfXbaH2JL/N0xKqN2/OdVv7uhDDl4F6Hd2HjxXBlCWcpQAEKUIACFKBA6QswSJW+se0RcmJxbudO65fFFUev2ayPPHfQ7jqxoVy/6SjckWOzn/gyqX0J1X/RtNlQexPmht+0L6369tR1G7djj3emtpfxq/oFeNNeOEZl3dkun/O9s6FlznJs9ZjquWnnKF7VbaztKH2362BwDOv+JTCjv31uz+Hj1lbjTPGyEiRCjDaJ2+nK6rkpNTyp89YOKjPiNkRRSSuzP09H6P97yHXsHH/s360EKfWzp32eDV4ZtHJJcgEFKEABClCAAsUUYJAqJmBhdxdByBoALCHD+iVPfCnUQo3Ruo3bseWP49iibWM5uGjTGhr0+xl1MMcfB5QgYru/7TqofbLTVq4vtkr/RAiyfjnWHdemOcu6lbuPYf+uHXeMbDayvPF0vHO+6nr1S3YeDlows14HtY0SmBcBRVSaxF9+YUU7nAhTZfGn9kedt3dsEQJj40z2Vpfs8sIGqTA3bNnlgM26f4xQO2Xz35u6gvMUoAAFKEABClCgmAIMUsUELO7u4oueFjTEF3xrqBINGwUG8eVRCSpiM9GGup/apmH/9O3KEONgriSJMLLp2J2Kl7rOsDHdQt324pzUwJLrHHW7wxKA1H1sNhHrd+2zrXrZbHDnjaGDpyN++uOirAraPcadJoo0pwYUdd5eY6JKpVat7G1XEsvV/qjz9toWA06U2aATSpDSwm6uCqQ1LIvPwXFcjbh8p7JqUImyW7m0d8JcTgEKUIACFKAABQoowCBVQKhS2UytmhgFBIPQBKNlavgxakfXeX3w0ocXm/XKl1tdM8Zv9RUs0V/tViy1n8Z7Q9+XXJvp+6M/nraDxdYmLGkhLzKqQgWpsgwranhS5zU2/WtZhjzxDwd3/lFhv01YtgZya5Cy9DTMjRUp/UXjewpQgAIUoMA9ICCe4xY/K1Omz3PrXBmkdCBl+VZ8ObxzS564pc5SFdI6YRSajJbJgKA8pK+rWGnNaa+5qkK60CGClFoJUKtdWhuGr0bPHinPLIk2redr2ADyDlJGIVEfpMR7S2XCNkSZn02Ty3Tna68rRV2uBhR13l57ZXn7nOhPRb3tsKhByvqsHytS9j5iXE4BClCAAhSodALiZ1zEJMJUef0xSJWHvCX4aP/6LrtgFBKMQpPBMhGM1LZEELIGFjXIWAaCsKk4iYOrwUJurwwYYemrOYCYn58yCioyfNkZaEINYvq+5uJX+6Jfqb8lUb9e9149luif1SivY+jaKMpbNTyp80ZtlfWADhV5IAzbIHVn8BSbz5u+IiVQDf6bMLLmMgpQgAIUoAAFKo8AK1KV51oW/Ez0QUXb0+jLvVFw0H9p1G5XU0fK02+jHcPyahMqxDKljVzrAOSqYOnaUwOLzSqjfhidk7qTkYPso1JRUrfPa95yfA/YBkDti7l4tYarvNop5Do1PKnzRs2U+RDjlk5ow65XpKHZbYNUwW/tY0XK6JPFZRSgAAUoQAEKlLYAK1KlLaxrP89QooYMe4HCIJzog4wIQ9aKlO748q0SnMR7m/CkD3pqRcqoLYP+WDeznEOJVKTsPV+l3trn6Wgz6IbeRd8vm1v/rCuLPyPCk6g0ib+8gpQIM2J48fL80VutDxXhx4LVIGX3KigVKfG5XaVVQcPcsFf9LSmDz57dNrmCAhSgAAUoQAEKFEGAQaoIaEXexfLlTq2IiHk19Igv/9p6NYBYj2kUXHTtqu1Z99PPKM8S5dpeWSf6kmfg0G2r9d26jyWIacvzrQBZzsW6v9ZvNWRqy8SrGqQs1TPtWLnOS9vP3jG09cV81d8+J4Y2tzeV2Yh4eZyTCHJa+Msr+OXRRMmssvNZ0q6n9mq+rrE443Td5rgyWGnPSWkBy2YLvqEABShAAQpQoLII8Na+ynIleR4UuMsFRPgTD2uW1Q8DG3Ipo/YZrhcLlYqUDNFacNq43aYaqT33p4Uvw3+UsHsQrqAABShAAQpQoKILcLCJin6F2D8KUIACFKAABShAAQpQoMIJsCJV4S4JO0QBClCAAhSgAAUoQAEKUCB/AT4jlb8Rt6AABShAAQpQgAIUoAAFKGAjwCBlw8E3FKAABShAAQpQgAIUoEBFF+CtfRX9CrF/FKAABShAAQpQgAIUoECFE+BgExXukrBDFKAABShAAQpQgAIUoEBFF2BFqqJfIfaPAhSgAAUoQAEKUIACFKCAgQCfkTJA4SIKUIACFKAABShAAQpQgAJ5CTBI5aXDdRSgAAUoQAEKUIACFKAABQwEGKQMULiIAhSgAAUoQAEKUIACFKBAXgIMUnnpcB0FKEABClCAAhSgAAUoQAEDAQYpAxQuogAFKEABClCAAhSgAAUokJcAg1ReOlxHAQpQgAIUoAAFKEABClDAQIBBygCFiyhAAQpQgAIUoAAFKEABCuQlwCCVlw7XUYACFKAABShAAQpQgAIUMBBgkDJAKc1FtyNiwYkG/AzwM8DPAD8D/AzwM8DPAD8D/AyU/megNL/XM0iVpi7bpgAFKEABClCAAhSgAAUqpQCDVKW8rDwpClCAAhSgAAUoQAEKUKA0BRikSlOXbVOAAhSgAAUoQAEKUIAClVKAQapSXlaeFAUoQAEKUIACFKAABShQmgIMUqWpy7YpQAEKUIACFKAABShAgUopwCBVKS8rT4oCFKAABShAAQpQgAIUKE0BBqnS1GXbFKAABShAAQpQgAIUoEClFGCQqpSXlSdFAQpQgAIUoAAFKEABCpSmAINUaeqybQpQgAIUoAAFKEABClCgUgowSFXKy8qTogAFKEABClCAAhSgAAVKU4BBqjR12TYFKEABClCAAhSgAAUoUCkFGKQq5WXlSVGAAhSgAAUoQAEKUIACpSnAIFWaumybAhSgAAUoQAEKUIACFKiUAgxSlfKy8qQoQAEKUIACFKAABShAgdIUYJAqTV22TQEKUIACFKAABShAAQpUSgEGqUp5WXlSFKAABShAAQpQgAIUoEBpCjBIlaYu26YABShAAQpQgAIUoAAFKqUAg1SlvKw8KQpQgAIUoAAFKEABClCgNAUYpEpTl21TgAIUoAAFKEABClCAApVSgEGqUl5WnhQFKEABClCAAhSgAAUoUJoCDFKlqcu2KUABClCAAhSgAAUoQIFKKcAgVSkvK0+KAhSgAAUoQAEKUIACFChNAQap0tRl2xSgAAUoQAEKUIACFKBApRQolyCVmZGJlOQUJJsSkRKbgIwYE7KjE5BhikdScgLSkuKRHZeAzJgEpCSmIDUlHZmZWZXyAvCkKEABClCAAhSgAAUoQIG7T6DMglR2VhZSEpORGBeLNFMskuPNU1JiDJISYuWUmhAPmBKA2GQg2jLFJQBiebwJKRERSI6Nh2iLfxSgAAUoQAEKUIACFKAABcpLoNSDlKg+JcXFIyk2FilxcTJEiSCVFh+DtPgoZMZHIjs+Com3A5AcFAhEhCH08mVkR0ciK0ZMociKvQ0kRSIjJhhp0SHIjAxGfGIsMjMzy8uNx6UABShAAQpQgAIUoAAF7mGBUg1SibHxSImORkqseUqNi7EGKa0idfbnZQg95gCEeOOGwxYET5+LwPkLkLl/D5IP70Holo2I2LQZaQ4HgGN/InLFOpz94mvkxIUAcaFIjU++hy8fT50CFKAABShAAQpQgAIUKA+BUglSaUmJiAu+haTwMCTGRMkglRgfg/iEGKSaTIiPzwRikuA0ZyZOdnoeLj17IeC/7+NE++cwsV0HLG3THuead8HpPj3g2rs3znXthfMv9MGV3m/Cs/NzcPqoPzJjUpGRGAUkJCHDlIiM9Izy8OMxKUABClCAAhSgAAUoQIF7UKDEg1RKdAQSrl9BXIAvTGEhMkilxkQjKyYK2dFRyI5JBMKzcHvfBUx4uhkud2yPGz27y8m3x4tw7N4R39evhf/+66/YXKMjDjRsjRNtWuFyzy640OV5uNZri7BJ3wHRYhCKeGQnJskpKz4BackpFf8SXtiKkeO/yXf65uDN3OeSEw6HOVMxbKEDbuVea7zEcjzD9vR7BB/Hd+MnYcTEX3EaOfq15vfBxzF9wnzsCMsCLNsbnU+uPlr6rvUjdM+ywp2HcW+4lAIUoAAFKEABClCAAuUiUKJBKjU8HEnXXBHv5SaDVMLtIMTFhiM9KgphTi7YP38pfD79DC4fDMKS59tifM/a2PlRSxwb2QXnJ/bC5W/fwMG3WyCgZzfMrVELb9z3CH6q0wAH+zSG9xdd4DmkB453fgk46QbEmpCakmANUiJQZSUkIDXxLghTyqW+uPpbjNSCibLcOluA4JVn8ClMkLJsO2Tdeevhc81c2GoTtET/5faW5WdwBT+PmwQtMGn7i+AkApcIWEEIk4FQvNdvp23PVwpQgAIUoAAFKEABClRkgRILUkmhYcjwvo5ETxeYrl1GjJ8XTMH+iIoORWZEDE6vWocP67bA953bYmHjNhhS93HsWTcCwXuHI2TfCATtGQbPDR/h5Bc98WePdnBq2R4f1/gbvqj7OK58/xpubuyL0E0DEbJnM1JNWYApCtmJuYOUOUzdJc9NFaTCZAk3S13T5edIBhIleIn3uYJUtrsMM1rAsQaW4OP4No9qkwx147+BdqxcH1xdqBsxf4GsYBlVpGz6ZNnPZpmlj2Jfu8fL1YEiLBjYBrA3FaE57kIBClCAAhSgAAUoQAEhUCJBKjE8HLGXLyPTxxsJHneCVEywHxIjQpEeGYPT23fizbb18GPTBpjeoAEGt3gCYU5LEeDyI8KcFyPeeR5cfv0E7tPewb5X2uBk2+Y4U7sBJj/6KLznvYT43W8h5cCXQKivDFJZieGA+P0py619WkVKBKlMUzxSkypgZSqPW+FyhREtLOnCS67txn+TK0hp1R8ZUCz7i8qPFpSsgaYw/bEEHtGGCGjiGDKoWQKR3TCk9D/XNsq6Alem7IWivJYb/bcutucfBShAAQpQgAIUoAAFiihQ7CCVkpCAyEvOuYJUtN9VxAb7Ij04BPHRsbh9+gJ+7vQCLjV7HrubdsJPfZ5DwB8zce34DoSc2QXPbfMRsH0W3Kd8JIPUn22awqVJc2xr3gR+X7+IhO3vIOnQMKT6HkCaKQUZSTHyN6fsBan0OBPS081VnCLalOpuWqiRYQSwhhx7YUNbrq9A6d/DEmyszygpQUqekBaetKBmOUvZH6NlasXIUkETfRbbfztvof1nvSbMx54/Nttfr39OTHdsu/haANIHJ7GDukx9r87rt7F7IK6gAAUoQAEKUIACFKCAfYFiB6kwtysId3JC7GUXpHpeReJVN5iuuSHa1x0xQd5ICwqGKSoa6ddu4NeuPXCsTQesqdcCP7zQBge/exOb5yyC44qV2Dt9Epa83QfeMwfg0GvP4nSHFnBr1hIuzVvCb2BnJG54H3FHPkWq+yJkx0YjKSkJKYmpditSGXEm+dtV9k+9nNYot7RZw47oiiWkiIqTzXKlamNUjRLLrBUmo0CmBilxjLkL8fulI5i6dj+CQi0/bGzZxua4lv6obWshTatuySqS2DePEBTqcNg8cIXlGFogtNHPCb/TF5sVBm8YpAxQuIgCFKAABShAAQpQoKwFihWkQrw9EXr+LMIunEOs2yWkXnNHkucVGaRifa4gMuiaHLkvOTwa2SGh2DBzDEa3q4WR9Z/E4m5tcPrrvnBz2IfTy5fj7I9zcWXFbDh//RGuf/kOznVphcstWyKwQQt49GiFtNUfwXTsf0hzGYfUsJtITMqAKSU9zyCVFheDJFN8WZvaP55WDdJXY+y8l6FDDSDqvCUUydHztCPmhCN072bzLXfaMss+kw84WQd4MApMMqSpgciyn1Yxk81Z+r/c+ZJ8Bkv0T7uNUB/ybPZTwqN+O/G+wLf1iU4UNUhpHtqr1o72nq8UoAAFKEABClCAAhQohECRg5QY0tx710rcdDyOMKcziHG9KKdkb3fEeTgj7robUn2vIi40GEnhEUiJjkKApwdOvNUPm5u3wsQezyL65HxEOrvDedV8+MyfiZtr98B56lDcnjMQV/p3xKVnW+Dss43h+mxLmGb2R9LRj5DsPAK48TMQl4ZsU0q+QUr0MzOjYv3GVK7b8bQLZgkchsFCDSPitjmHTRi+YC1WzZ2S/2ANSoAzbNtyfO12Q+sgEmqw0vpoCViiUnVGGX3PGs4sx8rrOFpTUIOhdWE+M1oAEq/qJHbL673RunwOxdUUoAAFKEABClCAAhSwJ1DkIBWw9Tdc37gENx3/QITTKcS4nJdBSoQn01UXOQS6FqQSI8IgAo2Ywg5uxR89emFC2/YIcF+FyMtncGv7L7i9Ygkid+7C+ZnDkLh+DDwGdcKJDg1wpm1jXGrdAoGjXkLqHx8j/sIQZLrNQHpkOLJNSfIHecWP8oopOz5BDoEuBpsQt/aJipQ4ZlJcnL3zL5flhQ5SWoiaMF/elid+68mmsjNhPqbPm2wYqNSKkeFtdaqAErhE+9ZwpG5j6YsIUhcu/ma9rU+EMK3qZXM7oLqvfr4kg5QISuJPfVXDkzqvbmfei/+fAhSgAAUoQAEKUIAChRIoUpDKTEmG4/8+xvUVc+H/5wFEXjiFaOdziHZxklWoeM/LSPCyVKRuhyApPExWpERVKir8GrK2bcfg9l3gfOEnBJzZiHOzJ+HK9EkI3rwEp5Z8DtPvoxE2/zWc7P0MzrZrggstm8Nv2IvIOTVIVqRSXb9CYrgnMmMTZHgSAUqbskzxEFNmnAkZsTFIj4lGWkwksrMszwMViqd0NlbDjU0gstziZ1PN0cKNVh2yvLcJRdnuWDXe8iO5li5r1SXRvs1tdkanpB3DcnzZtvLMlrq/aFcEpVW/TLP+LtRtJ9sfGbbpm3I8cd7Wc1PCoc3ticr2hrNaUFJXGoUk/TJ1ezFv1I5+G76nAAUoQAEKUIACFKCAHYEiBalUn2vwGDoCHrMnw33/bwg/cwyxl84hyvki0m54IvH6FbtBKiE5HNkBXgjy90Oo83bcdFqJsN/WIGzlMlxd9RVOrByI278Pxu0fXkPMzH4436EZLjRvCf/h3WWQSnUdhTT3kUiIcEJGXAKyY8xTTmwixCQClAxRMXHmEBUVhbToCCSbEuwQlP3iAlekLAFHDTLqoBRqCBPVo5CQ49bfdSpQVUgJUDbHUEmUQSfOhRzDdC3QWcKbuMXQJqxpAUzbTm1LOZ7Wd2uwUrfLa14NSMWdz+s4XEcBClCAAhSgAAUoQIE8BIoUpOI8z8B/zVL4fTEGN9b9jLDjhxDtdEYGKVGJSvHxkEFKvKYGBCE5NBRpUVGWqlQM0qLuTLE3HeH351r4bJmNSwuH4MycDxCyaxJubBqL27snw+fX2dj31f9wc9d3iL0yGTj1FXBhMnDzD+TExSIrOt48xcQhKyYOmXGxcrJWo0SQiopCQmRUHgxcRQEKUIACFKAABShAAQpQoOAChQ5S8aYYnDy8Cmd3LMXuLwfC+9cfEX50P6LOnkLUJWdEuTlZg5SoTCXdCERCSIj9IBVzG/G3byDh+kVEOB2D73EHIPwWMgOuQ9wiGLvnJ1xc+yNygj1h8nJAytnfkeCyDEk3VgMht5EVGWkzZcRFQkzpMZGyEpUSFQ4xJUeEIzO9Yg06UfDLxC0pQAEKUIACFKAABShAgYokUOgg5et4EkdnTYD7T/NxcshnuLJiAW4f+B3hp0/I35OKcDknb+8TIUg+K+Xtj8RbQTLIiGekUqLN1Shx+11ylAmm8FhE3ApFgIcbom8GICsxC6lx2YiPTIO3eyBc1ixG+u0QhJ+9gOT1a5HkcBBp5zYhwf1bZPteQlLIDSTf9kNKaKAcFj0l/CbkFBaClLAQJIcGW6YQJMdXoKHQK9KngH2hAAUoQAEKUIACFKAABQolUOgg5b1hI/YMGwDHaePgOOxzOM75Gp4bf0bYicPyN6XMQcoL8ddcZJCK8/JGXKA/EkJvWwecELfaITEZsbduI8knGKGuV2Hy80GYjzsy4yNhiriNxOhwpJqikRMegVRTJK7Mmwfv2i3h8nZ3JP84Bzkuk5BybQdM/q6I97+C+EB3JNz0hOmWmLxgCr4OU5AP4m7esE6m8NBC4XBjClCAAhSgAAUoQAEKUIACRgKFDlJOi+bj6NDPcHLkEFz8+ku4/jAd/j8uRNi2zYi44IiQiy5IuHZFBqk4jzNIuHINaf6ByIw0PyMVHRMOU2QYUoPDkHTjFuJ9AxDn5oZ4x5OIPXEACW5nEOz0B+I8zyIz8ArCYjyRE+SDpK3bcX34RPi+9y7iFkwBzmxFitdexHhdQJyPExJ9LyHZ3xVp/m5ySr9xGak+rkj19pRTus81JAf4GxlwGQUoQAEKUIACFKAABShAgUIJFDpIBfyyEtj3O9J3bkXA0nkI/mEOTEsXI2L5CiSeOIbwc2fl70nFejoj7MoZxAYFIDU2AilxEYgLD0LMLX8k+fsj2tkV8A1A6q1ARJ93RMLe3Qj/8UcE/LoSWccPImbXb4jbvwOxh3cj4chexOzYhvQ9DohwPY2MIG+khtxAfNB1pAR6yOAkQ5OPK5J9LiHR+yKSvJwskzOSvJyRfN0FST7uhcLhxhSgAAUoQAEKUIACFKAABYwECh2kErb/hriN6xG59hfcXv0DAhbNRszixQhd+gMiD+xB+InDiLzoiOirrkgMuoHkpFgkxYYiNsQfYX5XEX/ZFVGnHRGwdSdu/bYdt7Ztg/OCuQj5cTEili1E2PdzEbJoDqKWf4+geTMRsmA2YlctQ+jK7xHy82JEntmJFOeDgNtJwF1UrVyQddNNVp9SvJ2RrIUoz/NIvHoOCe5n5STmEz3PGxlwGQUoQAEKUIACFKAABShAgUIJFDpIha1fi8jNGxC+YR2C1vyEiF3rEL91A+L37oC/ww6EH96Dm8cPIeWmP9LiopEYEYr4mwEweV5FjKsz4k8dRciubfD+6SeEr9+AsGnz4f7VRLh9OwHXl06D3w/fIeCH7+C7eBrcZ36FG3MnIXrxbARPGofwieORvOknpO9Zh8wj24DzBxDj5ohsUZW67oxUr0tI8jpvnjzPIfHqWSR4nJJTvPtJiIl/FKAABShAAQpQgAIUoAAFiitQ6CCV6OCA6B07kHbgANIPOcD0x27c3LoGt3duht/2zbi5Zxuu7/8dUdeuIUOMzBccjFgvT5guOyH6zAlEHtyF0K3rEffbRoSvXIUbM2bDZ9p0+MyYAvevR+LqpC9w9etRuDJ+OHynjEbo/MkIXTAJQbMnIGj2eKQtn46EXxcgdd9GJB7biRjXP5HtewOp3n8ixdMVKdfOI0kLUe6nEe9+wjrFkBYzaAAAIABJREFUXTleXC/uTwEKUIACFKAABShAAQpQAIUOUinHjsG0bz8itu9A0KZ1iHLYBt8Nq+C95if4r18Ln62bcGXnNvhfcJJBKjX0NkzeXgg/fxK3jvyOwJ3rcePXFbj503J4zZqN6OU/ySDlN2sa/vz8A5wbOQA+077C7QXfIuC78Yj8fhoiv58qQ9SVcYMQOHkoQpZMQdz21Yg+sBnh5/cj1fMiUr1OIuXqOSR5npFT4tXTlkqUOUiZrhxH7JUTvOQUoAAFKEABClCAAhSgAAWKLVDoIHV17QZ4/7oW3r+sQcjWLQjatglRDjuQeOgAInbtgOsvq3F9314k+QcgIy4B6WHhSPa/gRiX87h1ZA8CdqyD75of4b98KXzmzcPtRUtkkPL+bjJcvhoCpy8HIWTeNATPngzPCcPh/fUIeI4fjIvDPsDZQe/i9Mdv4MbsrxC7fRXiDm+Dye0Ikq8dRPLVU0j2PIpkj9NySnI/hYQrJxHvdlxOCa7HYLpyuthgbIACFKAABShAAQpQgAIUoEChg5TTrxsQtWcf0o+dBBxPI2jbVvhuXAu/zesR8vsOXPppBS7v3IzssBBkxiYgNSIMSQE3kOR5BWGOR+C/fTV8flmGgB+XIPLnVfCfNRe35syDx+Tx8Jv5NTwnj4b31LHw/3Y8zg35EOeHfIAzn/WXYcr1i0/gNXYgbi78BmkHNiDj9D7EuRxAovtvSPE4hcTre5EoAtXVU0hy/xMJV05YgtQxJLgehcnrAq84BShAAQpQgAIUoAAFKECBYgsUOkid37AFwZu2IWL7boTu2A2vdevgsvpnbJ00HpfXrYbrjz/h4vrVQGgQMiNMSAq/jYQAfyRf90Sc82UEbl4J/9VLcX3+DAT/sAQ3liyC9/y58JwyAa5ffo7LowfDfdxwOcCEzzdfwG/qaLiPHYgLg96D11eDEfLtaFmRSj+4Hkkn1iPp7A7EOs9C4rXtSPA6KgOUCFFJbieQ6GYOUCJExbv8gXi/q8UGYwMUoAAFKEABClCAAhSgAAUKHaQ8TpzEpcXL4LxkOTx+XQtfh91YOXokpvZ9HXunToX7r2twftUyRLs4ITlcjNoXAlOgPxK9vRDn4ixH9vPa8DPcf/geLrNn4vqcOXD+ciyujBwJ/6/HInbhDAR8NxF+08bh+sQRCJ8/WVak/ni3D66N/dwapJIdfkbMoZ+R5LgcEWe+hunyCiRfO2IcpC4fQbzrYSSF3awYV3zvVPzrzcXwQY65P9mOGFunDxb5ZRSuf15r0buf0o69vcv6ePb6oS7PdsRXNRvgs5H9UK9evUJPXVZ5qq3lnre0X9i2az4zAgtGtrW9Prlb5xIKUIACFKAABShAgXtcoNBBKiY8HPP++z6c167BzeOHkRXkgyiXs3CYNAlr3/8Ybr9tgtPSRfDYvgVxMbEID/BGjJ83YjzccfvSeYRcPIM4D2ekubvi+vatODp6DC5OmgSXMaPhNXEcPMeNgNfXXyBgqpgfhqtjB+PswP64/tVg+E8cgcBJo2RFKuK3RUg5tQlJR8Yi7vgoxF+YhvTL+5B05bh5unwMSa5HzJUo18OIdz6EjJSkinG5dcEmcPEHRfviXsQgVerHK4Dy8eHtkW8YKkA7pbJJTiBWvdK84vavVE6ajVKAAhSgAAUoQAEKFEag0EFKNH718EFk+3gi4OhBBAdexsU9W7Ds3fewqEN3uG3dCJcli3Bi0SIEhgQiLT4CkTe8EXH1KgJdLuGG83mEeboDwUFIvnIZseeOI+7kAbgum4tj34zC6c8/xB8fvonQOVNw9auhcHijh7ytTwQozy8Hwm/CF0hcuxDph37FrZ2LEbKtP+IPDULc6VFIddppN0jFeVSggSbUIJVP5WTQ0TTr9RThoyAVlirjHKz7yJmyPp7t0XO/81qL1xqOwD6tIpd7i/JfsncqRHWqQvex/JXYAwpQgAIUoAAFKHDPChQpSAV5eiAu8Br8vM7Db+16/D5mDCZ3e0FOB2fNgOfqldg5bgIu/7QRMcF+SI8KhcnPD2FX3OF7/hyS/P2Rdesmkr3ckX3dA74Ov8Fpw1IcWzEDxz9+H5dGfQrfaUOx773OODGkD5ynDYH3qnm47bAZ6c4HkHJ6M2J2TUfAio8RveIDJDp8guhjo5F4cSeSL/+BVLej8lVUpBJdDpunWz4V4iK/UedpaxiqU783Xn+1sXHlw1IVUYNUrhPIryLltRZlerxcHTReICpiucKe8aZ5L9071WqpBkyb2ybzbsH+WkvAzdPf/t5cQwEKUIACFKAABShQyQWKFKSSExPgsnsrdv0wD5sHD8WcV3pbg9T3/d/GH99NxaHp3yH5z3NICLyBKK+rSAm8iURfP9w6fwHB584jzt0dMc5OSHS9gNtH9yL0j11IczqJHNeLSDx5FEG71yPhxA6knHcArp5BhscFxDqfRuKBDfBfMx1XFgyC7w8DELSgH6K2vouwI6MQe/43eTufCFMiRKlBKivjTmWn3K+ppUJ0I+eUfE5IDQFiXoaMkghS2omW9fG04xq9lvBtc0cOHrE9yvUTOHAj03ZZEd9V6NsPi3hO3I0CFKAABShAAQpQoGQEihSkxKEPrV6DjSNGYu3AQTJITXmxG6Z2746JXbvA65dV+G30aHhu2YaMq1cRcf4Cop3dkH7dDxk+NxD45ylc27cf7nt2weP3bbh51AGZXk5ySnW/jhR3dyS4O8HkcRqm6xeQ6H1RDmkecHQzbi0Yh4vjP8TlGQMQ+PNY+Hz3CoLX9kXo4ZGIv7QdSZcOINn5oGUyPxuVcMO9ZLRKqhXdrXZj64+03kJmrdaoQcoyrw9ceb23qcqU0fE2jWwnK0R5VpvU8yoJT4fVdwbpyAnEii+X3RnEo5jtW6+FvXaU68LKlT0kLqcABShAAQpQgAKVU6DIQSo2LBy/vP8x1n/2OWb37IVvX34Js3r3xuGpk7Bu0ACsGTQQR2fPwvkVK3B21WqEHT8Dv/1HEfrnaSRddkfE+XPwOvg7Ao86IOgPByRcOomAQ7sR73wOCS6n5dDl8R5HEXPlCBLcDiLi8E+4tmYcbk34GN5ff4qLEz9C6IaZuDnvDfj+9AqCDwyH6eJvSLi4D0nODpZAVcEGmdA+Q5Zb0sStfUt9jiHfIKXtp38t6Gh/ZXw8Ucmx+3xRSd8yp4YnNVTprYrwPs8gZbltssIOmFGE8+UuFKAABShAAQpQgAIFFyhykBKHOLZxC+a91hfjOnXG2gEDsHv0aCx56y05nZ0/Hxs/H4Azc2fAdfkP8F+/HaE7DuLK6Jk4MWk6ol3PIfimK+B2EakXTiD6+D45mc4fRZjLUZicTiDr4H5EHV2ByD3f49bKSfCdNRQuMz6DxxcfYudbvXFz5TIEL50Nzyl9EL7+U8SfW4nMc1uQdXY3Mi4ckCP1mQK8Cq5RBltqzyxZK0YGg03Iio6dwCFCirX6kV+QUp6RKpPjKX6in9ZjKstR0hUp0bbXWiw9fB3LfzygHqnY83aDlJ1rU+wDsgEKUIACFKAABShAgbtGoFhBSpzl6i/H4Ph3M7B5yBB837efNUit/PA9HJzwJc7O+QZXls3DqekzEbh2Ey68OwQHm74Ej2++xXWPPxF+8ij8D+5F2InDCPvzIEJPHYT/hf0IdvwdgWt/xPUfxiFw1VT4L56A6zOH4+S0Afj9v72w+6Wu8F4wBSEbFsD51TbwGtAJQfumI8JpAyJddyL+0j4kX65AI/WpH4k8brWzbua1Fq8/3fvObWtihQhOym2A4r34LSb9LX65AkxZH0/01aj/YrklSJV0Jef4iLdtrayQRZ+x+4yU6ln05rknBShAAQpQgAIUoMBdLFDsIBUfGoZl776PBa/3xfzX3sDCV9/Akn5vwnXxAkTs3ADnRZNwc8MSnJ05Fb4//wjv76bh+tv/w/9v7z6co7jyfYHrH3ivXr1br2rfq7tbezdd79rGBttEY4OxDSyYaMBmMWAMmAUTTM45C0SyIiAhJKIECEQQEknIBIFAJElIIoMQUUhEE7+vfkdzRmdaM4ozQoy+qurqng6nT396qJov5/Tp091+wPbJQ/HrxFE4PnsqbkUsx43wIGSFLsSJlfNxI2Y5To0ZgF97d8KFqYORPfNnHBzZEwfmDMXxBaOx+f3aODKyB05M64fURrVxquE72N+/Ka6Hz8StA6tw80gMnuXfrZ63xvwhboYjowVJwlHTgK3qfUa6BUpaSBy6zJXWIqWvvqrPJ+ctoeXJZUuPrm91mL/p9a8OhqwDBShAAQpQgAIU8GKBSgcpsTmxMwHzWrdVYSqk63dIDwzCw22bgMSdOBUwHDi6Fdci/ZETGYTHZ+JwedUCxHdpg5SvWiG64QeIa/4x1tWrhX1tP8eFCT8hZWwf7O3RHlFv/x0b6tfG2UE9kTL0exwe1xO5MZG4EhuEzb//G0Ka/gNxbRsh7p3/xvEP38Ghj/+K081b4MnmZbifc7763jZXwcZaY7NVJ2YC5Jkq/8XDVQuUCleVDVKeOp+1XOtnvkfKKsLPFKAABShAAQpQgAJvmIBbgpRcc3LURvh3+RdS10UgNzEON5K24/7xONUahcOxuL8lHOkBM4BNq4GMvbi8ciFSvuqAk3WaIPntD3Dgrb/j0Dtv4XTd2vj5d7/Dvr+/i00fvYs9H36A/b064MiMIchZGoDs9UHI2RKCLWO7Ysd//QVbWnyEuFYfI71/Q5zuXR9pjWqrZ62q633QXfHMrm3ShczaPU9/VvtZA5OLLn36GJnrgSyq8nzzzj0rM7vLbnNlLsGDO3qo+6EHa8yiKUABClCAAhSgAAWqWMBtQUrqfedMOu7tTkDO1o24EReN/P1RyF0bgMxgX1wOX4IDM8bg8tKFuBmwCBf3ReFglx44Ubc+kt+rhZSP/oGUum/hZL3aGP8//i9S3vsQyXU+QNK7dbCnZ3scWjwW5zYsR/b6EKStnINzETOw5Xd/xNr3/opj37bCxdGfI3tkM1yLDq1iQp6uQgLVeMAGlwNlVOhCeRAFKEABClCAAhSggDcKuDVICVD+hYu4FROFK6tDcTbUFzejg3HcbxIuhSxA8rSxOBPgh0uzfZGxZyPOzJ2HI3U/wc6//h073/orjjZ+D7u+eB/h9T9GfJ33kPp2HRzp2ALnFo/DoaDJyFwbpILUxQ2/4GbMImz741+w6c9/xo6GdXBscEPcTHHvqG3eeMN5TRSgAAUoQAEKUIACFKBA5QXcHqSkSo9u5OJY4ELsHtMf99YH49S8CbgaugAHpw7DyTmLkRkQinNro3A2biNubIzCMf9ZOOY/BccCxyNrcT+cnTMBmzt+gn21auHkvEFIj5yDM8vmIGeJH9JWLcH12KXICp+KLf/1Z2z9zz8h4ZuvcCf7eOU1WAIFKEABClCAAhSgAAUoQIEyCHgkSOnzZsRuRF5kIM77z0Ru2BIcnTYKZ2ZNwrHQeUhZH4DsteHI3RKFK1HhuLpxKS6sXoCsFbOQHeqLa2v98eus4dg7fSiyVvohO3IxTi+dh1PhC5C9cQlSJ/0ba//fH5DuN1efjnMKUIACFKAABShAAQpQgAJVIuDRICVX8KzgHm7ti8fFQF+cmjvRHqTObAnFmZWBuLg+Apkrg5ATsxwX1yzE5TV+uLpmkQpSB+eMRPrSOciOWIhr0SHIjvgFR0NmIjtsLk4tXYz7ly9VCRJPQgEKUIACFKAABShAAQpQwBTweJDSJ3v68CEu7InHCf8FyIoKwrGoQJwIXYyTy/xxZvkS5MWtxrVof+REL0Huen9ciliIhIkD1HNW1zeG4PK6IGRtjMDZX3fhtwcFuljOKUABClCAAhSgAAUoQAEKVLlAlQUp88ru591BduoRnNweg+TIMBxZugTZ6wJx1RakrkUF4tdFk5EUNBdZ8ZtxJTUZD/LumEVwmQIUoAAFKEABClCAAhSgwGsTeC1B6rVdLU9MAQpQgAIUoAAFKEABClDADQIMUm5AZBEUoAAFKEABClCAAhSgQM0SYJCqWfebV0sBClCAAhSgAAUoQAEKuEGAQcoNiCyCAhSgAAUoQAEKUIACFKhZAgxSNet+82opQAEKUIACFKAABShAATcIMEi5AZFFUKAsAumZ57A0cj0SDx4py+7chwIUoAAFKEABClCgGgswSFXjm8OqeY/A7Tt5iNwQi8dPnqj567oyCXNh6zapKThivX1ZrzPnqafTX1c1eV4KUIACFKAABShQ7QUYpKr9LWIF33SBZ0+fYu3m7biWe1NdigSq1/Wnw5ycv6R66DpLAOQfBShAAQpQgAIUoEBxAQap4iZcQwG3CEgYkUm68iUfP6nK1AFFb9Nzt5ywDIWY4clcdnaotF7pejvb7vZ1ZxIRtHJdqVPgxsPINU6eviMaK5NvGGu4SAEKUIACFKAABTwvwCDleWPHM7zKw4GoKPuPRf/4NIfttw5sc7lNdlTbI+JxEq8cjpMfk/pHqPWHpsOO+kNuKlbrH63W8sxtK9dh09nn+ijnc/MHcEQMEm+/KNqvlOst2tG2ZDu3s3OaNi6v0ay79bq0n+26XZZRrFLlW2HtPrdpxy57AffyC1RLkIQYPUl3uqp6bsoMT+ayvYLGgnRDlJa0Kvs7kwjrv4di5351HrEbjCBlfvf099nJnEGrmCRXUIACFKAABShQSQEGqUoClvdwCQP2kGALGfYfefKjUP/4d7Zt5Tqs2rkLq/Q+tpNLmfZQYD3OWQVfncdWIyA5Hu+4DWadXJRV7IetUT8JePYfx5bzOhRn2xa4IQGx0euLjIxrtJfjcKDxwVK+w3XZQlSpZRjFVXRRAoq0NMlfaWFFn0PCVFX8mfUxl12dW0Jg3r18V5vdu768QSo3FauiNyPS8p8RZqUc/r2ZG7hMAQpQgAIUoAAFKinAIFVJwMoeLj/09I/7Yl2UziQWBSR9IvnxaAQVWS1l2MNYWQKDtVwVQDYXtiTJ//hHJBS1eJnbdB1Kmlv2l2uyB0cAxa7RWpYtCJrHwFon6zH6c3muSx/jgbkZUMxlV6eSViqz1crVfu5Yb9bHXHZVtgw4UWWDThhBSr4nuoVVz9V3wt4ilYcD0btw+ubxopZVJy1RcqzDd8nVhXI9BShAAQpQgAIUKKcAg1Q5wdy6u9l6JMvRWxy7xTkJTXC2zgwazsqxVNoavGAJLw7bjR+3lmKcf7S2YEl9dVcss57Oj4a1Lmq3M4kI2Jns0CXS/uPYOJ9DveVA87pKKsNVXSq43gwo5rKr4qoyrJj1MZdd1a0qQ560fhb9p0Ksw78FeyC3BylbjXNT2SLl6uZxPQUoQAEKUMCLBeQ5bnmtTJU+z23xZJCygFTlR/lxWNQlT7rU2VqFdCWchSZn62xd2vT/3Nu7B+pyLPNirUJm4LA8RyRlmq1dlqIcPzp7vsl8ZmnluqLrdTyy6JOlLrJBAlKQ+eyVEZ7MroclXVeJZRSd3S1LZkAxl10VXpXd56Q+1bXbYUWDlP1ZP7ZIufqKcT0FKEABClDA6wTkNS4ySZh6XX8MUq9D3hZ89P++qypIgKhgi5QECLMsCQ32gGYGGVsYKbHlRu1vDBhhq6vuViXPVunAZm8VchZ25KJsocgMYta6FuN3EaTM69PlmueXckq6LtlWljKK1acCK8zwZC47K6qqB3SozgNhOAap0rr2GZrO/nPB2MxFClCAAhSgAAW8T4AtUt53T0u/ImtQ0Uc4CRDyw9IeiPR+1h+NlmeS1G7WffSxtnnxUFHUGlZsWxmea3IZjpzVw9k1mfVz4VCWEFSs7qaN0W1Mnc7Zecx6VGLZDE/msrMiq3yIcVsl9LDr1WlodscgVfaufWyRcvbN4joKUIACFKAABTwtwBYpTwtbyi/W/czcboYMVz/0nYQTa5CRQFEsgJnnMQOGrSXHHlSsQc9skTLL0MtO6qM36ZajyrZIyWAT5iiD8oPb3n3RXC7pukoqw15h9yxIeJKWJvkrKUhJmJHhxV/nS291HarDy4LNIOXyThjPSMn33N7lMzcVMea7pGz/fszvnssyuYECFKAABShAAQpUQIBBqgJoFT7E9uNOd43TczP0SCjS653+CHQWXCzlmuW5rKsEEFs3vWL7G9tkH2sXOocyLfvqMu3H2AKMXm8PbA6FGB9KCJD2lgdXz0tJMUZ9il2Xk26OxpndtmjtPidDm7uaqmxEvBKuToKcDn8lBb8SinDPJuPe6e+Ls3nhfc1D0uEMh/OqYKW7nprfEYe9+IECFKAABShAAW8QYNc+b7iLvAYKeIGAhD95WLOqXgzslMza/dLZTkaLlBmaJXA5/MeD5T8XHLY5K5frKEABClCAAhR4owQ42MQbdbtYWQpQgAIUoAAFKEABClCgOgiwRao63AXWgQIUoAAFKEABClCAAhSgQDkF+IxUOcG4OwUoQAEKUIACFKAABShAAQYpfgcoQAEKUIACFKAABShAgTdKgF373qjbxcpSgAIUoAAFKEABClCAAtVBgINNVIe7wDpQgAIUoAAFKEABClCAAm+UAFuk3qjbxcpSgAIUoAAFKEABClCAAhQoFOAzUvwmUIACFKAABShAAQpQgAIUKKcAg1Q5wbg7BShAAQpQgAIUoAAFKEABBil+ByhAAQpQgAIUoAAFKEABCpRTgEGqnGDcnQIUoAAFKEABClCAAhSgAIMUvwMUoAAFKEABClCAAhSgAAXKKcAgVU4w7k4BClCAAhSgAAUoQAEKUIBBit8BClCAAhSgAAUoQAEKUIAC5RRgkConGHenAAUoQAEKUIACFKAABSjAIFXF34Gcm3ngRAN+B/gd4HeA3wF+B/gd4HeA3wF+Bzz/HfDkT30GKU/qsmwKUIACFKAABShAAQpQwCsFGKS88rbyoihAAQpQgAIUoAAFKEABTwowSHlSl2VTgAIUoAAFKEABClCAAl4pwCDllbeVF0UBClCAAhSgAAUoQAEKeFKAQcqTuiybAhSgAAUoQAEKUIACFPBKAQYpr7ytvCgKUIACFKAABShAAQpQwJMCDFKe1GXZFKAABShAAQpQgAIUoIBXCjBIeeVt5UVRgAIUoAAFKEABClCAAp4UYJDypC7LpgAFKEABClCAAhSgAAW8UoBByitvKy+KAhSgAAUoQAEKUIACFPCkAIOUJ3VZNgUoQAEKUIACFKAABSjglQIMUl55W3lRFKAABShAAQpQgAIUoIAnBRikPKnLsilAAQpQgAIUoAAFKEABrxRgkPLK28qLogAFKEABClCAAhSgAAU8KcAg5Uldlk0BClCAAhSgAAUoQAEKeKUAg5RX3lZeFAUoQAEKUIACFKAABSjgSQEGKU/qsmwKUIACFKAABShAAQpQwCsFGKS88rbyoihAAQpQgAIUoAAFKEABTwowSHlSl2VTgAIUoAAFKEABClCAAl4pwCDllbeVF0UBClCAAhSgAAUoQAEKeFKAQcqTuiybAhSgAAUoQAEKUIACFPBKAQYpr7ytvCgKUIACFKAABShAAQpQwJMCDFKe1GXZFKAABShAAQpQgAIUoIBXCryWIPXkyW+4efs2Lly6hKzz2UhJPYYDh39FSmoKzmafRdrZNGSey0JGViauXstBXn4+fvvtqVfeAF4UBShAAQpQgAIUoAAFKPDmCVRZkHr69CmOp57A4aNHVGCS0HTk2BHsTdyDrTu2InJNBJaFLkVAsD9ClocgPDIc66PXYWdCHGJiY7AtbhuOHEvBufMX8Oz5szdPmjWmQDUUeHz/Hi7+GoGM+DE4Gz8c1w+F4NrBFcg4uAEPCu5WwxqzShSgAAUoQAEKUKB6CHg8SBXcv4+Tp06r0LR63WoVmpIOJiFq43oVloKXBWPBYj9MnTEVE6dMxPRZ0+G3cD7mzJujpsX+izF3/lyMGjtKbQtbGaYCVuqJk3j46FH1UGQt3iiB7st+QZdAv2o1Td0SVeH6rD96sNz+L1+8wIWDK3FzW1vgYHs8Od4NSJuLF+mLgFthwO0FuJ7YG+d+DcWL58/LXT4PoAAFKEABClCAAt4u4NEglXXuvApD0qqUnJKsWpZWrY3E8rBlCFoahHkL5qmQNGX6ZIwYPUKFpZFjRmLy1EnoN6Cfmr751zfo+UNP9OrTC2PGjcaM2TOwcMkCFcIkjGVkZXn7PeL1uVlAQlTOvTw15drmr/uz1KmifxU59nzCbLw81BHPk1rjxJx62NX/HSQNfR+HRnyApCF1sG/UR3i0qy2e7++IrLjxePXqVUWrx+MoQAEKUIACFKCAVwp4JEjlXL+OzVtjVbc9CUvSNU+66Ul4kmnazGmq1Ulam6Slafio4Sos9enXG63btkajTxqhecsv0anL12qSENWla2cMHDIQff/dVwUtacWSQLY2ai2Cl4Xgxq1bXnmDeFHuF5DgkZufBwlR5Z3fuHcUM1bG4mhByceXdT99/oqEIS1T3mMv7wsHEjviQcw/Ed/9LRTMaAws/gxY+Ang3wQI+QKv5n2Ko31rISeoCV7+2hrZuwP06TinAAUoQAEKUIACFADg9iB14tRJzPPzVc85yXNNvn6+quuehKbBQwerSVqVho0ciu7ff6damiQcdejUQYWleg3rqSDV5LNP0bJ1C3uQkuXPm3+uApeUM2TYEEjrlYSpjZs34lTaKeTfv1/9b2rAMmBgMF4deQ5cOayWEXyi8vWWcgdF4uW1l5Ur6+COojq9ug1MCQEGxaCSpVauTm4+WgUpS4uUbpmS+Y3kaPx7d5pDi5XenhoXVmIXvMnHb6njyrqfLrekMHRl70p0XBWPC3DeKlTSsVa6x3dv4uLSr/EqvgP2tvgLztb5G87+z1rI/p/vIv/jd/CsQz2c/1+1kOHzDi7XboD9rf6C29FfIGtFRxTkXLIWx88UoAAFKEABClCgxgq4NUjt3btPPcckzzrN9p2lAs7c+fMwfdZM9O3XD4OH/oyhw3/NVp/EAAAgAElEQVTGgIH98V3PbujYuSPadWyLbt3/hc++aKqmT5p+groN6qJBo/po+nkTtV32MT9La5UcK61Z23dux6Wrl3A3/y5+e/YEj5/8Vr1vJoPUa78/Ejyu599TrVFqfi/P4fNNCVJ70ottl/UdY7YibMVCp2Hq33vSVDml7re7cD9pjdLndxqGXqZjYcAC/BwbhZ/dFKTSdoTiSfY23FizBDv/4x1c+V1rPOq3BI99OuOhz6fI9/kYBT4t1JTj0xQH6n6KjHUT8eTsPpyOCX3t944VoAAFKEABClCAAtVFwG1BKj09A6NHj4Q87yRBSrr0ySh8EqKGDh+mQtTIMYXPOEkIatPuK9XCpINUqzatINNH9T/Cu++/C2mZklapho0b4IO6ddRnCVbS3U9asqSr3/hJ4xG9KQoyeIUEqcdPH6vp0ZMn1cW3eD3MIFV8K9eUVaBXHcDVVEoZElp0S5B9nmfrspdf1CJ1IysBAyNicSS/8Hmq7RuWY3D4AqchqnNgCIIv3FbllnU/eS5Ln99pkNLXcT3JbUHq5KofcXPTeOBSFh4sD0X+T/PxslsA4NMH8OmI5z7N8cynDR77tMMNn+Z4tCgCz6+cRt7uZTgZNkjXiHMKUIACFKAABShQ4wXcEqTOZmZh3749CA4OwMyZ07Fnzy7s3rcXy8NCMXnqFEybOQM/DRqMCZOmoHffPujy7Tf4okVzfFS/Hj77vBk6demMVm2+QstWrdC02Wd4r05tNGjUUG1//4M6avmTpk0gU/OWLdCh09do8llT1co1x9cX2+J24PK1qyh4cN8eph5X1zBlBilr1z7bNhw+U9i9bmAwMD2xsEOX3ld339Pd7nQ3QTnWyTbpRmhfL193Xc70RGDDOvt5VFdD2V5S175Xmfb9C8s1uvyZx+nr0PUpyz8zV6GopPXOypX9S/lTQcryjJRqhdqdplqhCluk0myhaDGku556likv22lrlGxPjV9fGKSk3LLuZzyjVVVB6tLGDrgW/gWyJo/A08i1uOnTVgUo+LQCfP4J+LQEfFoDPu1xx6chniwPR9rcEche0RqXNncpRZabKUABClCAAhSgQM0RqHSQevrsGe7m3ca9e3eRmZmBKVMn4cyZUypILfb/BaPGjsGwEcMxdvwEfNejJ9q0a6sCkYSoD+vWRdv27dCuQ3sVpCRMyXYJUfUaNlDbZVnClQQnCVIStho3+VQFMOkuqIPUyTOnce9+AR799khNBQX38PRZNRy2uSxBSsKPMdlDjg4+8kyVbflVzLXCb6tDkLIEHmeBzChfnUsHNjMQ6bCmn5HSIcw8Vj/fpY8zt8my3l7avykdgKzBSY4z15mfzWXrPiWcz9oidV2CT/hqbM6/q8KT+YzUTVur1FF7q9TiYi1SKkjttAUp27NX2zeUbb+qbpG6uaMrftveGuEf/QkJf30PT32+BFSYkkDVxhaidKj6Epl/b411tf4TZ5d/igub25egyk0UoAAFKEABClCgZglUOkgV5Ofj4f18PHn0EOeyMjFu3DgcPXoUMbFbVYCSlqjefX9Eq6/a4rPPv8QXzVvio3oNVDBq1PhT1TIlQapb9+8wYOBPapIWKplat22Dlq2+QrsOHdGpyzfo8m1XFbQaNW6MZl98ofYZM24sYmK3IP1sBu7eu4eCB/mFU8E93H/4oPrdzTIEKXs4soYlHWx0WNHhR67SDFLWqza36TCkw5FuZdKfdSCSAKTPp7eZ5Vq36eN0nfR59GfzWGfLVRykzGekJCxN3V30TFRhi1TRZwlFk4/fhrNwJKFMpkErV6sWKSm3rPuV+oyUdnJj177LW/oABztgffM/Iun9P+OeTxM8VK1Q7VQrVGGokmVpneqGpP/zFta3/BtuxzVH5uauukacU4ACFKAABShAgRovUKkgJaPkScuPTI8fP0R2diYmTJigglRYeAS+7/0Dvv+hD1r8syUkNMn0Qf0G+OSzZviyVSs0a95CtUb1/2mACl0jRo/C7LlzIOFo4ODBkM9Dhha2Zk2bMQuDfx6GPj/2RfuOHfF5cxkevTOGDBuKwOBgHD+RipzcXNy5d6dwuntL1evBw2r20t6yBCkZ0U/+bOHEHqyMddKKZG+pkvVmWNIhRwcumetudtaAo/fVYUkHImdBSocuh3Jt3fvM46Q+el9PByk5l/mnA5m5zrIswcf+3iijNUo/s2S2SEmLkf1ZqXuFXfvaxyTheFwYpqUcwKyABWqEP/k89ViGrWUrS3UBlP1k9D5zP/lctF9hC5icV+rk8s+NQeribl/gSEfsHfAuEjq9hfi//QMX/nc7PPT5Gi98OuCFT3vApx8u/aE/ov/2OeLb/QOrvvovvDraFlm7JrusIjdQgAIUoAAFKECBmiZQ4SD17Nlz3M2/g7y8O6pb361bt3D+/HlMmDwJCbt3Y8asOejZq7cKStKCVKvOB2rSQapNh074ptt36Pb99xgzcYIKTzLC35IAf/VM1cTJUzFl2nTMmjMXc3znq2n2XF+MnzgZg4YMVV0B5Xmpb7p2xaCfh2BnQjwuXr6MG7dv4FruVVy/eR23826h4GEBpPthtfmrTJDSoUcHGR1+5OLMICUtWTo4WbdVJkipc9iCk66LrsPrCFJmdz4doPS8hBsuoUW/v8nZ3HxGyrpdtsnx5iQDTYQmrMPXm9YUvmMqPw9l3U+XX1VBKv/qOdzf0RUPE0cgtOOfEN/lQ3Sq9y0O/bUfXvp8i1c+3+PSl9PQrfFgNO3QG5Fd38KFwI+Rv7Ulbl9MK0GVmyhAAQpQgAIUoEDNEqhwkLqXX6BGytMtQDLYQ1pGunomKmJVJHr16YsOX3dWzzXJ8051GzVA3YaNUKdhQ3zVsTO69/kRPw4ahJFjx2H6nFmYMm0qpk6frkKUzKdOn6nCmISnufP81CSBStbLoBUdO3dSz0vJM1M9f+iFuPidOH/xAi5euaiC1OVrl1WYktH8pK7V5q8yQcrs6mcuy8WZQcp2DvM5K3uwqmCQeqWDkw5xeu7pIKWDkTmXZWeTOOj9SrjhKkg5eY+UtCrpgKTfB6WfYZK5bNfDn5uj9KmWLNsAE/L+qbLup1vASm2RKuFaZFOJIczJsZcTw/EqZxuuxIzBvPZv4w+9QvGXf63D2mYjsL92NywbGQWfISn4Q7cZ2Du+Ll4daIuLWyY6KYmrKEABClCAAhSgQM0VqFCQevnypWqNkpAirT8y3bpzGydOnYK0JEnw6dS5K5q3/KcaOEJG3nvvwzqo93FDNP2yOXr80BfDR4/DhCnTMWXmLMz09YXv/AWY57cQfgsX2KZF8Fu4CH4LlmDhYn8sWhKIufMWqHAlLVXSpU8Gp5BJQpU8JyVB7mz2WZy7kI0Lly/gas4VFaZyb+XixYsX1eMuVzRI6RYfHVx01zndxc8MUsY2GfXPIWRVMEipF/LqYyVEBe13fFmvrp8eXELXobxd+8y7ZIYlWW9+dhWYXK03ypXgYT4jJSHpdX8ubxgyLqfcQerF8+fI2B2Ep6dm4fSOvvAZsgI+E64gKe0h8i5cQ9iZR/CZeRUfjZyPJ/t7IWNTD7x49tQ8JZcpQAEKUIACFKBAjReoUJCS9zTlFeSpFikJURJYruZcw5FjKRgxagyCQpahdZv2aPxpUxWkZDjz9z/6APUbN8I/27RFv58GqxA1Y848zJnvB98FEqAWYdESfwQvW4qQ5csQsixUTcFLwxCyLAzLQ8MRELgUAUHBWPxLgGq5kmekpHufDFaxactmnEo7gyPHjiA9Mw2Z5zJV69T5S+dUF79q1SpVnb92tkDk8FxWVdTXGpIq87mU+nZf9ou95Um3QL3u+dQtURWu07qUA6VccfHNz357jLO7luBkbA/4jNkAnylZ2JH1GC+fA6szn8Jn4iV8PHIxTiYswW+Pq+GgLcUviWsoQAEKUIACFKBAlQpUKEjdf/RQBSl5HklClLT+XLueg5TU4ypILfEPxOdfSmvUx6jboD5q1a6lXqorQ5h37NIVg4aOwJz5C7Hgl0D4zi8MUdNnzsbI0WNV1z15Dkq69C0PW4FloWGIXL0GgcFLIQNYhK4IV8vyWYZT/6TJZ2pEv4Tde3Eo+Yiqg4zgJ61TUi8JVZeuFnb5q1LZN/Vk1i6Db+p1sN5lEsjMTIPPmN3wmZGLnTkvIC2PEZmP4DP2EmrP3l+mMrgTBShAAQpQgAIUqIkC5Q5SMsjE/UcFKkhJlzkdpLLOn8PR48fUABESeDp3+RcaftzYHqQaNKqvhjz/ecRo1Ro1y9dPde9r37GLGha9abPP0eSzZmpkv/dqf4AW/2ylnrOS56KkK1/3nt+r4c9lGHQZCVCGVZfBLL7p2g2Tp07D4SNHkXTgEA4lH4a8U0q6GUqrlA5SGVlp1WvQier2bdNd8aTbnjlQRXWrJ+vjVoG8/AfwGX8YPuPPYNGudMQfzcC4HenwGZeB92cySLkVm4VRgAIUoAAFKOBVAuUOUvJuppwb19R06eol9XyUPJd06eoVJCbtV89HrV67HmPHTUKzL5qrl+o2+7KZGhhCnmeSQCTvlRo4eKgKW+/XqQuZPqzbEHXrf4x3ar2n3jMlrVnyvqk27dqrSYZO/7BufdXKVa9BIzWX91K179gJ4yZMwt59+9W0e28iDh9JVkFKQlRaxhmcPJOKI8cOo+DBfa+6eW69GCNIVXm3PrdeCAsrj0DBw8f4xm8rVu89hSe/FT4H9ez5C0Ttz8CU8F3lKYr7UoACFKAABShAgRolUO4gdVdGO7txVQ3oIEFKnkGSsCIhSt77JKPqRW/chPCI1arLnYyq17BxA3z86Sfo8u03+PHfA9Cxk7RCtUC9Bo3x9ru11PTue7UhLVEyr1u/IT74qK6aPmrQEDK9/+FHavh0CVcSqKS1S1qwZEALmaQroIQp6eKXdPCAapWSICXTidPHcTT1CPIL8mvUzeXFUoACFKAABShAAQpQgAKeESh3kMq7fw/Xcq8g7exp9ezRhcvnVIuPvMcpdEWYGn1v7fpo7N67X71MV4Ym/6TpJ2pQCHnxrgxdPnDwz/iuey8VmGq9Xwf//Y+/Q0b2+/s7b0O3NknLVL1GH6vBKWo3aIDadeuqSQesTz9pCpmaNPkMTZs2Q9++/bB3byLi4hOwb38SUlJTcCrthL01Kj3zjHqnlGcYWSoFKEABClCAAhSgAAUoUJMEyh2kCh7ew9XrF1WQkueOMs9lqNYeeT5K3uUkw5hL1z4dpCQ8fdvtW3uQkhf1yqASvXr3Uy1Otd5/H2+9/ZZ6lkrClLy8VwaokJaphp82wfBx4/DV1x3xfv36aNa8hQpT0s1Pnqn6pHETFaIkSEVHb8TWrduxZes2xO/ajaSDSSpESZiS1iip64NH7NpXk77cvFYKUIACFKAABShAAQp4SqDcQSr/wV1cuJwFaeGR544kqBw/mYLDRw9h195d6hkpGWUvYfc+NUhEvwH98V2P7updT/LuJxk4Qt41NWrMBHzRvCXqfPgB3qn1LiRQSYuUDJUu6yQsde3eAyvXrFHDo0vXvjr16qtJuvTJ81HNm7dEs2Zf4rvvemDDhk2Ii4tHzJZtqlVq/4H9ql6pp46pekrgu5V301OOLJcCFKAABShAAQpQgAIUqEEC5Q5SBY/yVJA6m52uWnokSCUdTIQEF5nkpbpr1kVh155ENVS5hKcBA3/C0OHDMHHKZDUwxLQZszB5ygw18l6DRg1ViHrr7X+ouYSozz4vfPZp+uw5WBMVjU2xW9H5X91Qt2Eje5CSwSikRap+vYZYuHCxapHSQWp7XDx279uN5JRD0EEq5cRR5D/Iq0G3lpdKAQpQgAIUoAAFKEABCnhKoNxB6sHjAly9flm1SBW2RB3Er4eTsG9/Inbt3QO/hQsQHhmBrdvjVBe/seMnYOr06ep5qTHjxqvWKHln1Nx5fpB5v/4/qRfqtmz1Fdp16IjPv2wBWe7/00D1Qt6omM3YtjMeM3190eqrtmpgCdlHWrNat2kHKTNi1WpEbdiouvVJi1RM7FbExe9QQU/XUbr35RXc8ZQjy6UABShAAQpQgAIUoAAFapBAhYOUfvZIQtS2uFhs3ByjnpGaNWe2ClMSbgKCgrFw8S8IDA7GgIGDMHT4CHuQ0mFK3hM1x9cXs+bMxbARI9Hj+x/UyH/+gUFYsTISEWvXQsLU8pURkJasUWPGQY7RQUxezCvBaX30BhWkNm3eqj5v2boZB5J/xaEjB1SLmdQz91ZODbq1vFQKUIACFKAABShAAQpQwFMC5Q5SN25dVwNNyKh98pzU4aMHsXPXDvV81N7EPSoULVqyRLVGSRAKXRGORUv8VZAaPnI0pIVKXqArkwyVLoFKnpmSkCUv2R388zAMGjJUvWtKWqVku3QXlEEsZKAK2T5+4mT1WdZJWJMgtW3HTjVtid2hAlXs9i2qW58MfZ74614VqgoecPhzT32RWC4FKEABClCAAhSgAAVqkkC5g9SDxw9U1z55ya2EFBlwYtfeeGzasgk7E+Iwb4EfFixaqIJUWHgEZJIwJa1N8uJcCVDSHU9G7pO5tDBJgOrzYz/1WbZLWPr+hz74rkdP9OrTV4Wwnr16q2P0/hLKZJIwJeeQkQJliohcCxnsYkPMBvWMlAS9vft3q+6HN+9ysIma9OXmtVKAAhSgAAUoQAEKUMBTAuUOUg8fPYQMgX7+UrYKKtJ9bve+BGzfuR3b4rbB128+Fi5ehOVhK1SgCQpZpp5fkpYomeQ9UhKqpAVK5kOGDlehSQKTLEuQkhYqWZZw1bVbd7VdPkvXvhGjxqjufxK+JIhJ1z4JUKvWrFXniVy1Tp07auN6xO+OUy1RcQnbVetUXv49TzmyXApQgAIUoAAFKEABClCgBgmUO0g9+u2JClI37uSq4cXl2SNpkZIQJa1SwcuWIiAoUHW5kzC1xD8Q8oJeCUEShqRFyQxSEqik9al9x04qIP347wHQU99+/dWydPXTQUpasuSFvrJOuvpJ1z492IS0REmQkuelJEhJl0OZJEhlXchE/v2CGnRreakUoAAFKEABClCAAhSggKcEyh2knj1/rka/u/cgDxevnFcvvd1/YJ/q1idBasLkSRg/aSIWLFoMaY2SoBMesUp9ltYkmaQ1SYcj6cYnwap33x/VKHwdO3XBt//6TnXvk9AlQUv2ka59nbp8owKVhCnp1ichzW/hItXyJeeQaVlomBqkIjwyHJtiNyJq4zrsS9qj3nf19NkzTzmWq9yLfl3hM3yz/Zhd/eviT3/6k9PpP9r74XzGcrT545+dbnd13B//0hLzzpXhetNDHcpuHHTGXi8uUIACFKAABShAAQpQgALOBcodpKSYO/fuQFqkzl3MUq1S0iKVsCcBYSvD0KtPb4waO0YFHAlSMrqezGWSYCTd8SREySQBSbr7yXqZS2iSVqjO33yLLt92VS1UEqpkuXvP79U+hS/zHafKXfxLgDqPhDUZ5S946XIV3KS7X/CyYKzfsBaRa1aqLn5JB5OcC7yGtRKkSg0sMRNQ5jCkryE9FK3/NgBb8EqvAWImlBjAJKhlmvsXHcklClCAAhSgAAUoQAEKUMCFQIWCVMGD+7h+8xoyz2WodzXJM1LSlW7V2kiMHDMSM2bPUM9Kyeh9s+fOQVBIiApXPw0aaB9YQo/QJ930ZBCKKdOmq0mCkozWJ9slWOlWKWm10s9IyT4hy0IhQUoGm5BRASVISaCSECXDra9Zvw5ro9ZibfQarN+wGhlnM1wQVP1qaYHqHf+byxPL9t+/ZQlELvc2NjgLUrL51UUEtXgXZmiSc9hbxWytUqWGO+NUXKQABShAAQpQgAIUoEBNFqhQkHrx4oV6J5OEqdMZp1SLT/SmKESuicCYcaMx23eWepeUjOAXsnwZZsyehQ6dvsbIMaPtQUpanqRVSrroSXc/CVISlOR9UvJZ3jsl75SSUCUtV7JN9pFwJd35dJCSIdRnz/VVYUqClLy3Sga8CF0RplrI/IOWqCD1/PnzanGfrV3xzHCjKhgzwSHwmJV21QXQHsqcBClXx1jroT/bw5V5Yi5TgAIUoAAFKEABClCAAg4CFQpSUsL9hw/Us1LJKYfUgA7yTFLI8hD8NHgAps2cpoZAl9H7/BYuQN9+/fDZ580w6Och6nko6aYnIUkmaZGScCTvhpKgJC1M0h1QwpGM8CcDSsg6eZ+UHvlPWp8kTMkk+8p26dYnIUpawOSlwP6BAVizfg2WhYUgOSXZ4aJf64eXiRjSdkFhd7r0ULRsZ+laV0qQsocmuQhbS5N9nYsgZd8ux8RMKGqJskKUtM26Lz9TgAIUoAAFKEABClCgBgtUOEjJoBNZFzLUEOjb4mKxPGwZAkMCMH3WdNW9T8KMjOA3beYMfNejOxo0aqien5IwJN30pEVKJmlxks/ShU+GPpdgNMd3vnqmSrrp6eegJGTJPvp5KAlYMkmLlAw6Id37JHxJkJIpYlWk6m4oQerBw4fV5xabYSVmAn7/VSuHwR50y5A510FIWpf0srqgMgQp64UXK8O6Az9TgAIUoAAFKEABClCAAqUKVDhIScl5BfdwNPUwEvbGqRfgyrNRfgvnq+WkgwdUa5SM4Nfj++9Vi5QMQiFd+aSrnnTdk/dEyfujZMQ+6eYnA1FIy5RM0gIlQUnCkYQl2SbBS0KWvOBX1ks3QAlYEq70UOvSAiZTeGQEpLthcsrRUhGqcgczyMhyseeS3Nki9TIRw37/1xIHmzADmyyXe4CLqsTjuShAAQpQgAIUoAAFKFBNBCoVpOQa5D1SW+M2IyY2BoeSD+LilYvIOp+FbXE7sNj/F4ybMEEFqdZt22DYiOGqG58EKRlMQoKU7uYny/r9UTKX7dLtT/aVACUj+ckIfhKo5OW7sdu2q1YoCVzSaiWtUtLFT57HktYwGeBiX9L+asJcVA0Z9EGFp5eJGPrHfxYfotydQarotGrJaXCz7MOPFKAABShAAQpQgAIUoEDpApUOUvcfPED2xbO4dPUSzmafxam0U2qKXL0KMmqftEJ16/4dOn/TBf0G9MeQYUPVs1Ky3POHXvix/7/Ru28fDB76M/r/NEDto9d179lDdQuUroGdunRWk7RwhYWHQ1q80s9mICZ2ixpcYsq0qZg4ZTLmzp+ngpQMf37n7t3SBV7DHhJopPWn2EATUpdSgpS1BUk+27v7OXlGSl+ePqez4/W6Yq1j+mDOKUABClCAAhSgAAUoQAEHgUoHKSmt4EGBPUidOH0C+/bvhQQpGWxCB6k+P/ZVrVM6MOmwNGDgTypYyYh+EpKk1UpCluwvwUoGqpDldh3aq/U6SO3bn4iU1OMqTKVlpKuufDJKoEzTZ83E8RMnHC60Wn0wXoJrD0G6gqUEqWL76+Nk7ixI2br3yXDq217tU139HMpwMjS6KtLyHit595WUod5R5eoYsy5cpgAFKEABClCAAhSggBcLuCVIiU/O9VykZZzB8RPHELt9CxYs9sPCJQswdsIYDBk2BEOH/4zxk8Zj6PBh9lYnCVESrEaMHqUGiJC5BCzZZ8LkSZD3TkkLlgQraZ2SUf9k8AoZUn3r9u3Ym7gPR46l4Gx2Fs5dyEZKagpk9MBfDxysvrfM9oJcFWbSQ/HVn1s6du8zB6Mo71VYg5R5LqMss3XK5TNRDFKGGBcpQAEKUIACFKAABSjgKOC2ICXF5t64aQ8zMhS6TDKKn4SpYSOHqiA1dvw4FY4kRA0fORJjxo1Vk3TLk9YmeaZKWqVkm0wSqqRlSrr/yXYZSEJauyREHT6SjITdu5GYtF8FuMxzmbhzN8/xCqvZJ3urjlkvy6AQDi1G5n7Olm1hqaTueWZwctjPcl7Z5jJYOTs311GAAhSgAAUoQAEKUKCGCrg1SInhtes5WL5imWoZWhGxAot+WYQJkydg4pSJmDNvDoKWBmHqjKlqkpf3SkuVvHdKXuIr+40YPULtO3nqJDWMunyWFq1RY0fB188X/oG/YH30OuxMiEPCngSknjqOA4cPqO6E165fr6G3kZdNAQpQgAIUoAAFKEABClSlgNuDlFT+1u3biNkag/BVK9QLcYOXBcI/aAmWr1iKoKUBmDpjMiZOldA0DFOmT8KsuTPgt2gelgQuVvO582djtu9MtU32le2h4csQtnK5fb4pdiOSDibixOnjOHfpHPILCqrSjeeiAAUoQAEKUIACFKAABWqwgEeClPaUwSC2x29TAWr9hrWQ8COhatXaCCz6ZQF8/eYgIPgXLPZfiMAQfxW65AW6sk3ClCzL9hURodi4ORo7d+1Q5SXs2YmUE0dxKu0EruZc06fjnAIUoAAFKEABClCAAhSgQJUIeDRIyRU8fvIEmTIsenoqkg7tw6bYaBw6koQt2zZiTVQk9iXtUu+hCghejIjVYVgbvQoxWzcgdvsmbI+PRfSmtWq+/+BeHEjej8zz6WqS4dafPHlSJUg8CQUoQAEKUIACFKAABShAAVPA40FKn+zZ8+dIy8zAvl/3qlCVeuoodifGI+tChpq27dyiAlZ65ikkHzuoAlbKiWQcTT2MI8cPQZYzz2XgSs41/Pb0qS6WcwpQgAIUoAAFKEABClCAAlUuUGVByryyh48eIedGLi5du4ycWzm4lXcT+w/uQ86Ny7ibfxPHT6Xg7LkMXLh6AdkXz6vuew8fPzaL4DIFKEABClCAAhSgAAUoQIHXJvBagtRru1qemAIUoAAFKEABClCAAhSggBsEGKTcgMgiKEABClCAAhSgAAUoQIGaJcAgVbPuN6+WAhSgAAUoQAEKUIACFHCDAIOUGxBZBAUoQAEKUIACFKAABShQswQYpGrW/ebVUoACFKAABShAAQpQgAJuEGCQcgMii6AABShAAQpQgAIUoAAFapYAg1TNut+82tcokJ55Dksj1yPx4JHXWAuemgIUoAAFKEABClDAHQIMUu5QZBkUKBXJiQYAAAm1SURBVEXg9p08RG6IxeMnT9S8lN09tlnCXNi6TWoKjlhvX9brzHnq6XSP1YMFU4ACFKAABShAgTddgEHqTb+DrH+1F3j29CnWbt6Oa7k3VV0lUL2uPx3m5Pwl1UPXWQIg/yhAAQpQgAIUoAAFigswSBU34RoKuEVAwohM0pUv+fhJVaYOKHqbnrvlhGUoxAxP5rKzQ6X1Stfb2Xa3rzuTiKCV60qdAjceRq5x8vQd0ViZfMNYw0UKUIACFKAABSjgeQEGKc8bO57hVR4OREXZfyz6x6c5bL91YJvLbbKj2h4Rj5N45XCc/JjUP0KtPzQddtQfclOxWv9otZZnblu5DpvOPtdHOZ+bP4AjYpB4+0XRfqVcb9GOtiXbuZ2d07RxeY1m3a3Xpf1s1+2yjGKVKt8Ka/e5TTt22Qu4l1+gWoIkxOhJutNV1XNTZngyl+0VNBakG6K0pFXZ35lEWP89FDv3q/OI3WAEKfO7p7/PTuYMWsUkuYICFKAABShAgUoKMEhVErC8h0sYsIcEW8iw/8iTH4X6x7+zbSvXYdXOXVil97GdXMq0hwLrcc4q+Oo8thoByfF4x20w6+SirGI/bI36ScCz/zi2nNehONu2wA0JiI1eX2RkXKO9HIcDjQ+W8h2uyxaiSi3DKK6iixJQpKVJ/koLK/ocEqaq4s+sj7ns6twSAvPu5bva7N715Q1SualYFb0ZkZb/jDAr5fDvzdzAZQpQgAIUoAAFKFBJAQapSgJW9nD5oad/3BfronQmsSgg6RPJj0cjqMhqKcMexsoSGKzlqgCyubAlSf7HPyKhqMXL3KbrUNLcsr9ckz04Aih2jdaybEHQPAbWOlmP0Z/Lc136GA/MzYBiLrs6lbRSma1WrvZzx3qzPuayq7JlwIkqG3TCCFLyPdEtrHquvhP2Fqk8HIjehdM3jxe1rDppiZJjHb5Lri6U6ylAAQpQgAIUoEA5BRikygnm1t3N1iNZjt7i2C3OSWiCs3Vm0HBWjqXS1uAFS3hx2G78uLUU4/yjtQVL6qu7Ypn1dH40rHVRu51JRMDOZIcukfYfx8b5HOotB5rXVVIZrupSwfVmQDGXXRVXlWHFrI+57KpuVRnypPWz6D8VYh3+LdgDuT1I2Wqcm8oWKVc3j+spQAEKUIACXiwgz3HLa2Wq9HluiyeDlAWkKj/Kj8OiLnnSpc7WKqQr4Sw0OVtn69Km/+fe3j1Ql2OZF2sVMgOH5TkiKdNs7bIU5fjR2fNN5jNLK9cVXa/jkUWfLHWRDRKQgsxnr4zwZHY9LOm6Siyj6OxuWTIDirnsqvCq7D4n9amu3Q4rGqTsz/qxRcrVV4zrKUABClCAAl4nIK9xkUnC1Ov6Y5B6HfK24KP/911VQQJEBVukJECYZUlosAc0M8jYwkiJLTdqf2PACFtddbcqebZKBzZ7q5CzsCMXZQtFZhCz1rUYv4sgZV6fLtc8v5RT0nXJtrKUUaw+FVhhhidz2VlRVT2gQ3UeCMMxSJXWtc/QdPafC8ZmLlKAAhSgAAUo4H0CbJHyvnta+hVZg4o+wkmAkB+W9kCk97P+aLQ8k6R2s+6jj7XNi4eKotawYtvK8FyTy3DkrB7OrsmsnwuHsoSgYnU3bYxuY+p0zs5j1qMSy2Z4MpedFVnlQ4zbKqGHXa9OQ7M7Bqmyd+1ji5SzbxbXUYACFKAABSjgaQG2SHla2FJ+se5n5nYzZLj6oe8knFiDjASKYgHMPI8ZMGwtOfagYg16ZouUWYZedlIfvUm3HFW2RUoGmzBHGZQf3Pbui+ZySddVUhn2CrtnQcKTtDTJX0lBSsKMDC/+Ol96q+tQHV4WbAYpl3fCeEZKvuf2Lp+5qYgx3yVl+/djfvdclskNFKAABShAAQpQoAICDFIVQKvwIbYfd7prnJ6boUdCkV7v9Eegs+BiKdcsz2VdJYDYuukV29/YJvtYu9A5lGnZV5dpP8YWYPR6e2BzKMT4UEKAtLc8uHpeSoox6lPsupx0czTO7LZFa/c5Gdrc1VRlI+KVcHUS5HT4Kyn4lVCEezYZ905/X5zNC+9rHpIOZzicVwUr3fXU/I447MUPFKAABShAAQp4gwC79nnDXeQ1UMALBCT8ycOaVfViYKdk1u6XznYyWqTM0CyBy+E/Hiz/ueCwzVm5XEcBClCAAhSgwBslwMEm3qjbxcpSgAIUoAAFKEABClCAAtVBgC1S1eEusA4UoAAFKEABClCAAhSgAAXKKcBnpMoJxt0pQAEKUIACFKAABShAAQowSPE7QAEKUIACFKAABShAAQq8UQLs2vdG3S5WlgIUoAAFKEABClCAAhSoDgIcbKI63AXWgQIUoAAFKEABClCAAhR4owTYIvVG3S5WlgIUoAAFKEABClCAAhSgQKEAn5HiN4ECFKAABShAAQpQgAIUoEA5BRikygnG3SlAAQpQgAIUoAAFKEABCjBI8TtAAQpQgAIUoAAFKEABClCgnAIMUuUE4+4UoAAFKEABClCAAhSgAAUYpPgdoAAFKEABClCAAhSgAAUoUE4BBqlygnF3ClCAAhSgAAUoQAEKUIACDFL8DlCAAhSgAAUoQAEKUIACFCinAINUOcG4OwUoQAEKUIACFKAABShAAQapKv4O5NzMAyca8DvA7wC/A/wO8DvA7wC/A/wO8Dvg+e+AJ3/qM0h5UpdlU4ACFKAABShAAQpQgAJeKcAg5ZW3lRdFAQpQgAIUoAAFKEABCnhSgEHKk7osmwIUoAAFKEABClCAAhTwSgEGKa+8rbwoClCAAhSgAAUoQAEKUMCTAgxSntRl2RSgAAUoQAEKUIACFKCAVwowSHnlbeVFUYACFKAABShAAQpQgAKeFGCQ8qQuy6YABShAAQpQgAIUoAAFvFKAQcorbysvigIUoAAFKEABClCAAhTwpACDlCd1WTYFKEABClCAAhSgAAUo4JUCDFJeeVt5URSgAAUoQAEKUIACFKCAJwUYpDypy7IpQAEKUIACFKAABShAAa8UYJDyytvKi6IABShAAQpQgAIUoAAFPCnAIOVJXZZNAQpQgAIUoAAFKEABCnilAIOUV95WXhQFKEABClCAAhSgAAUo4EkBBilP6rJsClCAAhSgAAUoQAEKUMArBRikvPK28qIoQAEKUIACFKAABShAAU8KMEh5UpdlU4ACFKAABShAAQpQgAJeKcAg5ZW3lRdFAQpQgAIUoAAFKEABCnhSgEHKk7osmwIUoAAFKEABClCAAhTwSgEGKa+8rbwoClCAAhSgAAUoQAEKUMCTAgxSntRl2RSgAAUoQAEKUIACFKCAVwr8fyJfYefYAptBAAAAAElFTkSuQmCC;" vertex="1" parent="2">
                    <mxGeometry x="67.7" y="720" width="1021.7" height="720" as="geometry"/>
                </mxCell>
                <mxCell id="27" value="&lt;&lt; Prev 1 2 3 4 5 6 7 8 9 10 Next &gt;&gt;" style="strokeWidth=1;shadow=0;dashed=0;align=center;html=1;shape=mxgraph.mockup.navigation.pagination;linkText=;fontSize=17;fontColor=#0000ff;fontStyle=4;fillColor=#2A2A2A;" vertex="1" parent="2">
                    <mxGeometry x="405" y="1410" width="350" height="30" as="geometry"/>
                </mxCell>
                <mxCell id="14" value="发表时间：" style="text;html=1;strokeColor=none;fillColor=none;align=center;verticalAlign=middle;whiteSpace=wrap;rounded=0;fontSize=13;" vertex="1" parent="1">
                    <mxGeometry x="70" y="300" width="90" height="20" as="geometry"/>
                </mxCell>
                <mxCell id="21" value="&lt;h1&gt;Heading&lt;/h1&gt;&lt;p&gt;Lorem ipsum dolor sit amet, consectetur adipisicing elit, sed do eiusmod tempor incididunt ut labore et dolore magna aliqua.&lt;/p&gt;" style="text;html=1;strokeColor=none;fillColor=none;spacing=5;spacingTop=-20;whiteSpace=wrap;overflow=hidden;rounded=0;fontSize=18;fontColor=#000000;" vertex="1" parent="1">
                    <mxGeometry x="300" y="330" width="790" height="370" as="geometry"/>
                </mxCell>
                <mxCell id="24" value="收藏该帖子" style="strokeWidth=1;shadow=0;dashed=0;align=center;html=1;shape=mxgraph.mockup.buttons.button;strokeColor=#666666;fontColor=#ffffff;mainText=;buttonStyle=round;fontSize=17;fontStyle=1;fillColor=#008cff;whiteSpace=wrap;" vertex="1" parent="1">
                    <mxGeometry x="950" y="660" width="120" height="30" as="geometry"/>
                </mxCell>
            </root>
        </mxGraphModel>
    </diagram>
</mxfile>